<?xml version="1.0" encoding="utf-8"?>
<svg version="1.1" xmlns:xlink="http://www.w3.org/1999/xlink" width="80px" height="80px" xmlns="http://www.w3.org/2000/svg">
  <g transform="matrix(1 0 0 1 -472 -108 )">
    <path d="M 72.05960128128197 64.65308858870122  L 64.3601679381988 67.17331090639192  L 61.15037287991743 74.6425911692586  L 53.062948489478686 74.19907980609304  L 47.382815263092766 80  L 40 76.65172999048713  L 32.617184736907234 80  L 26.93705151052137 74.19907980609304  L 18.849627120082573 74.6425911692586  L 15.639832061801144 67.17331090639192  L 7.940398718718029 64.65308858870122  L 7.633923225198771 56.52505635503525  L 1.3616650982792748 51.382196217323894  L 3.998920933412194 43.693052615660775  L 0 36.62185564493706  L 5.224456215938744 30.409142910908088  L 4.038770708162872 22.36364660470069  L 11.145493060263505 18.465699131951425  L 12.933960013608726 10.531895218087314  L 20.964091354459242 9.47541901385108  L 25.486050591297214 2.7252490239434053  L 33.35526553441957 4.653896731817042  L 40.00000000000006 0  L 46.64473446558043 4.653896731817042  L 54.513949408702786 2.7252490239434053  L 59.03590864554076 9.47541901385108  L 67.06603998639127 10.531895218087314  L 68.85450693973655 18.46569913195141  L 75.96122929183707 22.363646604700705  L 74.77554378406126 30.40914291090803  L 80 36.62185564493706  L 76.00107906658786 43.69305261566069  L 78.63833490172078 51.382196217323894  L 72.36607677480123 56.52505635503525  L 72.05960128128197 64.65308858870122  Z M 10.52178944385247 55.09103233161591  L 10.80099754944115 62.49590655521587  L 17.816450873777512 64.79224464256268  L 20.739592065939917 71.59447357486135  L 28.105788588774374 71.19051408127399  L 33.27755723977282 76.47225942246223  L 39.99999999999994 73.42348294863427  L 46.72244276022701 76.47225942246223  L 51.89421141122551 71.19051408127399  L 59.26040793405997 71.59447357486133  L 62.183549126222374 64.79224464256268  L 69.19900245055874 62.49590655521587  L 69.47821055614742 55.09103233161591  L 75.19477786835682 50.40380397468209  L 72.79136483581749 43.39644894483837  L 76.43605080531421 36.95163725291195  L 71.67425594868996 31.289102757488394  L 72.75464734067714 23.958082097720975  L 66.27823495840119 20.40585168442601  L 64.64920256628506 13.179314149467388  L 57.333793123570786 12.216869617438832  L 53.216228993345055 6.070361794691294  L 46.049997419111776 7.826716932990863  L 39.99999999999994 3.5893672898780977  L 33.950002580888054 7.826716932990863  L 26.783771006654774 6.070361794691308  L 22.666206876429044 12.216869617438846  L 15.350797433714831 13.179314149467388  L 13.721765041598644 20.405851684426025  L 7.245352659322691 23.958082097720975  L 8.325744051309925 31.289102757488394  L 3.5639491946856765 36.95163725291198  L 7.20863516418234 43.3964489448384  L 4.805222131643006 50.40380397468212  L 10.52178944385247 55.09103233161591  Z M 40.000000000000114 69.41596285742816  C 23.76366723280279 69.41596285742816  10.601518921033119 56.25288549157443  10.601518921033119 40.01540667808507  C 10.601518921033119 23.77792786459574  23.76366723280279 10.614850498742001  40.000000000000114 10.614850498742001  C 56.23633276719744 10.614850498742001  69.39848107896711 23.77792786459574  69.39848107896711 40.01540667808507  C 69.39848107896711 56.25288549157443  56.23633276719744 69.41596285742816  40.000000000000114 69.41596285742816  Z M 13.541367028929812 40.01540667808507  C 13.541367028929812 54.62913761013496  25.387300509613056 66.47590723949386  40.000000000000114 66.47590723949386  C 54.61269949038717 66.47590723949386  66.45863297107041 54.62913761013499  66.45863297107041 40.01540667808507  C 66.45863297107041 25.40167574603521  54.61269949038717 13.554906116676307  40.000000000000114 13.554906116676307  C 25.387300509613056 13.554906116676307  13.541367028929812 25.40167574603521  13.541367028929812 40.01540667808507  Z M 46.12081940445381 25.89625231963049  C 47.13065661125182 26.315237450385894  48.36717341857701 26.694040242668933  49.830406922304576 27.032672060676845  C 51.293640426032084 27.371303878684728  52.72593906118385 27.5406172479627  54.12734579714834 27.5406172479627  C 54.12734579714834 27.5406172479627  54.69924053948364 27.5406172479627  54.69924053948364 27.5406172479627  C 54.69924053948364 27.5406172479627  54.69924053948364 34.44522809886553  54.69924053948364 34.44522809886553  C 54.69924053948364 36.30483333673925  54.544675938567764 38.089798009466676  54.23554209975231 39.80017566652336  C 53.92640826093685 41.51055332358001  53.50908383846456 43.031503928958756  52.983556312477674 44.363073111633696  C 52.458028786490786 45.694642294308636  51.84749861287429 46.95731826858531  51.15194747553886 48.15113891512152  C 50.45639633820349 49.34495956165776  49.727366637218324 50.38092780418921  48.964836501472746 51.25907472207405  C 48.20230636572711 52.13722163995891  47.42175513110311 52.9407427144985  46.62315938082946 53.66966205156632  C 45.82456363055576 54.39858138863411  45.064621009386826 55.00409191266223  44.34330871881701 55.486211789148  C 43.6219964282472 55.96833166563374  42.95221649094606 56.375831639150334  42.33394881331452 56.70872393481906  C 41.715681135682985 57.04161623048779  41.21077010602528 57.282672552849704  40.819200576858805 57.431900133666744  C 40.42763104769233 57.581127714483756  40.15456691940784 57.65574038569102  40.000000000000114 57.65574038569102  C 39.845433080592386 57.65574038569102  39.5723689523079 57.581127714483756  39.18079942314142 57.431900133666744  C 38.78922989397495 57.282672552849704  38.28431886431724 57.04161623048779  37.666051186685706 56.70872393481906  C 37.04778350905417 56.375831639150334  36.37800357175303 55.96833166563374  35.656691281183214 55.486211789148  C 34.9353789906134 55.00409191266223  34.17543636944447 54.39858138863411  33.376840619170764 53.66966205156632  C 32.578244868897116 52.9407427144985  31.797693634273116 52.13722163995891  31.035163498527538 51.25907472207405  C 30.272633362781903 50.38092780418921  29.543603661796737 49.34495956165776  28.848052524461366 48.15113891512152  C 28.152501387125938 46.95731826858531  27.54197121350944 45.694642294308636  27.016443687522553 44.363073111633696  C 26.490916161535665 43.031503928958756  26.073591739063374 41.51055332358001  25.76445790024792 39.80017566652336  C 25.455324061432464 38.089798009466676  25.300759460516588 36.30483333673925  25.300759460516588 34.44522809886553  C 25.300759460516588 34.44522809886553  25.300759460516588 27.5406172479627  25.300759460516588 27.5406172479627  C 25.300759460516588 27.5406172479627  25.87265420285189 27.5406172479627  25.87265420285189 27.5406172479627  C 27.23284309364118 27.5406172479627  28.629076655245683 27.379913033054834  30.06139677509168 27.058499782064246  C 31.493716894937677 26.737086531073686  32.70447293544379 26.37550204753083  33.69370121965386 25.97373548379275  C 34.68292950386399 25.571968920054672  35.67214294972439 25.098465429700923  36.66137123393446 24.553210807484803  C 37.65059951814453 24.007956185268696  38.320379455445675 23.614804802368965  38.67073113943695 23.37374486412608  C 39.02108282342817 23.13268492588321  39.34051633198686 22.903107476014682  39.62904124821506 22.685005627128305  C 39.62904124821506 22.685005627128305  40.000000000000114 22.375072970479295  40.000000000000114 22.375072970479295  C 40.000000000000114 22.375072970479295  40.34004552246978 22.650568665278414  40.34004552246978 22.650568665278414  C 40.56674367093484 22.822754335451947  40.84238387590108 23.023634604086766  41.166974406657346 23.25321549765148  C 41.49156493741356 23.482796391216183  42.14588841462307 23.875947774115915  43.12996446818664 24.43268144101019  C 44.11404052175021 24.989415107904463  45.11098219765586 25.47726718887506  46.12081940445381 25.89625231963049  Z M 36.6632723975373 39.993356260950634  L 35.45793467329963 45.16050400947017  L 40.00000000000006 42.418902145746415  L 44.54206532670048 45.16050400947017  L 43.336727602462815 39.993356260950634  L 47.34962026974182 36.51674049274331  L 42.06524329579747 36.06838201100831  L 40.00000000000006 31.195239824282197  L 37.93475670420264 36.06838201100831  L 32.650379730258294 36.51674049274331  L 36.6632723975373 39.993356260950634  Z " fill-rule="nonzero" fill="#00668f" stroke="none" transform="matrix(1 0 0 1 472 108 )" />
  </g>
</svg>