<?xml version="1.0" encoding="utf-8"?>
<svg version="1.1" xmlns:xlink="http://www.w3.org/1999/xlink" width="48px" height="48px" xmlns="http://www.w3.org/2000/svg">
  <g transform="matrix(1 0 0 1 -512 -223 )">
    <path d="M 6.973928495575221 30.752916106194693  C 4.462530690265487 24.425976637168148  5.69837139823009 17.45442265486726  9.805317238938052 12.435920707964605  L 9.765594070088495 15.240813026548675  L 15.412948264778763 15.359984792920358  L 15.627015648849559 2.9157044389380555  L 3.184995117876106 2.7038460318584088  L 3.0680323284955757 8.351200226548674  L 5.815581638230088 8.388717243185841  C 0.12873703646017573 14.991920075044252  -1.6412693352212395 24.36001635823009  1.7218557621238935 32.83830733168142  C 5.402881461238939 42.12053034053098  14.289861425840709 47.95991299539823  23.93817576212389 47.95991299539823  C 25.56683020460177 47.95991299539823  27.217574416991148 47.792188931681416  28.868318629380525 47.45013082194691  L 27.71411402761062 41.919722467964604  C 18.986112611681413 43.738202043185844  10.262065886017698 39.044210680353984  6.974023408141591 30.752807069734516  Z M 46.275640353982304 15.159007433628318  C 41.97225939823009 4.3146817699115045  30.55631150442478 -1.8292120353982306  19.13347115044248 0.5498166371681406  L 20.28547242477876 6.08022499115044  C 29.013473840707967 4.261745415929202  37.737520566371686 8.95573677876106  41.02556304424779 17.242620743362828  C 43.53916417699115 23.574079858407075  42.30112014159292 30.552413309734504  38.18976764601771 35.570350300884954  L 38.225077380530976 32.741164884955744  L 32.57551985840709 32.63523568141592  L 32.38352529557523 45.07725621238938  L 44.82554582654868 45.26925077522123  L 44.93147503008851 39.621896580530965  L 42.20381216283186 39.586586846017696  C 47.87540295929204 32.98790366017698  49.638629861946896 23.631106492035386  46.27544826902655 15.1590300318584  Z " fill-rule="nonzero" fill="#008cc3" stroke="none" transform="matrix(1 0 0 1 512 223 )" />
  </g>
</svg>