<?xml version="1.0" encoding="utf-8"?>
<!-- Generator: Adobe Illustrator 16.0.0, SVG Export Plug-In . SVG Version: 6.00 Build 0)  -->
<!DOCTYPE svg PUBLIC "-//W3C//DTD SVG 1.1//EN" "http://www.w3.org/Graphics/SVG/1.1/DTD/svg11.dtd">
<svg version="1.1" id="Layer_1" xmlns="http://www.w3.org/2000/svg" xmlns:xlink="http://www.w3.org/1999/xlink" x="0px" y="0px"
	 width="841.89px" height="595.28px" viewBox="0 0 841.89 595.28" enable-background="new 0 0 841.89 595.28" xml:space="preserve">
<polygon fill="#7E9E79" points="5,595.279 467.565,595.279 467.565,353.643 "/>
<g>
	<defs>
		<polygon id="SVGID_1_" points="4.999,595.279 467.565,595.279 467.565,353.643 		"/>
	</defs>
	<clipPath id="SVGID_2_">
		<use xlink:href="#SVGID_1_"  overflow="visible"/>
	</clipPath>
	
		<line clip-path="url(#SVGID_2_)" fill="none" stroke="#006070" stroke-width="6.587" x1="-107.513" y1="496.315" x2="263.036" y2="496.315"/>
	
		<line clip-path="url(#SVGID_2_)" fill="none" stroke="#006070" stroke-width="6.587" x1="-107.513" y1="486.846" x2="263.036" y2="486.846"/>
	
		<line clip-path="url(#SVGID_2_)" fill="none" stroke="#006070" stroke-width="6.587" x1="-107.513" y1="477.375" x2="263.036" y2="477.375"/>
	
		<line clip-path="url(#SVGID_2_)" fill="none" stroke="#006070" stroke-width="6.587" x1="-107.513" y1="467.904" x2="263.036" y2="467.904"/>
	
		<line clip-path="url(#SVGID_2_)" fill="none" stroke="#006070" stroke-width="6.587" x1="-107.513" y1="458.434" x2="263.036" y2="458.434"/>
	
		<line clip-path="url(#SVGID_2_)" fill="none" stroke="#006070" stroke-width="6.587" x1="-107.513" y1="448.963" x2="263.036" y2="448.963"/>
	
		<line clip-path="url(#SVGID_2_)" fill="none" stroke="#006070" stroke-width="6.587" x1="-107.513" y1="591.021" x2="263.036" y2="591.021"/>
	
		<line clip-path="url(#SVGID_2_)" fill="none" stroke="#006070" stroke-width="6.587" x1="-107.513" y1="581.551" x2="263.036" y2="581.551"/>
	
		<line clip-path="url(#SVGID_2_)" fill="none" stroke="#006070" stroke-width="6.587" x1="-107.513" y1="572.081" x2="263.036" y2="572.081"/>
	
		<line clip-path="url(#SVGID_2_)" fill="none" stroke="#006070" stroke-width="6.587" x1="-107.513" y1="562.61" x2="263.036" y2="562.61"/>
	
		<line clip-path="url(#SVGID_2_)" fill="none" stroke="#006070" stroke-width="6.587" x1="-107.513" y1="553.14" x2="263.036" y2="553.14"/>
	
		<line clip-path="url(#SVGID_2_)" fill="none" stroke="#006070" stroke-width="6.587" x1="-107.513" y1="543.669" x2="263.036" y2="543.669"/>
	
		<line clip-path="url(#SVGID_2_)" fill="none" stroke="#006070" stroke-width="6.587" x1="-107.513" y1="534.198" x2="263.036" y2="534.198"/>
	
		<line clip-path="url(#SVGID_2_)" fill="none" stroke="#006070" stroke-width="6.587" x1="-107.513" y1="524.728" x2="263.036" y2="524.728"/>
	
		<line clip-path="url(#SVGID_2_)" fill="none" stroke="#006070" stroke-width="6.587" x1="-107.513" y1="515.257" x2="263.036" y2="515.257"/>
	
		<line clip-path="url(#SVGID_2_)" fill="none" stroke="#006070" stroke-width="6.587" x1="-107.513" y1="505.786" x2="263.036" y2="505.786"/>
	
		<line clip-path="url(#SVGID_2_)" fill="none" stroke="#006070" stroke-width="6.587" x1="263.035" y1="496.315" x2="633.584" y2="496.315"/>
	
		<line clip-path="url(#SVGID_2_)" fill="none" stroke="#006070" stroke-width="6.587" x1="263.035" y1="486.846" x2="633.584" y2="486.846"/>
	
		<line clip-path="url(#SVGID_2_)" fill="none" stroke="#006070" stroke-width="6.587" x1="263.035" y1="477.375" x2="633.584" y2="477.375"/>
	
		<line clip-path="url(#SVGID_2_)" fill="none" stroke="#006070" stroke-width="6.587" x1="263.035" y1="467.904" x2="633.584" y2="467.904"/>
	
		<line clip-path="url(#SVGID_2_)" fill="none" stroke="#006070" stroke-width="6.587" x1="263.035" y1="458.434" x2="633.584" y2="458.434"/>
	
		<line clip-path="url(#SVGID_2_)" fill="none" stroke="#006070" stroke-width="6.587" x1="263.035" y1="448.963" x2="633.584" y2="448.963"/>
	
		<line clip-path="url(#SVGID_2_)" fill="none" stroke="#006070" stroke-width="6.587" x1="263.035" y1="439.492" x2="633.584" y2="439.492"/>
	
		<line clip-path="url(#SVGID_2_)" fill="none" stroke="#006070" stroke-width="6.587" x1="263.035" y1="430.021" x2="633.584" y2="430.021"/>
	
		<line clip-path="url(#SVGID_2_)" fill="none" stroke="#006070" stroke-width="6.587" x1="263.035" y1="420.551" x2="633.584" y2="420.551"/>
	
		<line clip-path="url(#SVGID_2_)" fill="none" stroke="#006070" stroke-width="6.587" x1="263.035" y1="411.08" x2="633.584" y2="411.08"/>
	
		<line clip-path="url(#SVGID_2_)" fill="none" stroke="#006070" stroke-width="6.587" x1="263.035" y1="591.021" x2="633.584" y2="591.021"/>
	
		<line clip-path="url(#SVGID_2_)" fill="none" stroke="#006070" stroke-width="6.587" x1="263.035" y1="401.61" x2="633.584" y2="401.61"/>
	
		<line clip-path="url(#SVGID_2_)" fill="none" stroke="#006070" stroke-width="6.587" x1="263.035" y1="581.551" x2="633.584" y2="581.551"/>
	
		<line clip-path="url(#SVGID_2_)" fill="none" stroke="#006070" stroke-width="6.587" x1="263.035" y1="392.14" x2="633.584" y2="392.14"/>
	
		<line clip-path="url(#SVGID_2_)" fill="none" stroke="#006070" stroke-width="6.587" x1="263.035" y1="572.081" x2="633.584" y2="572.081"/>
	
		<line clip-path="url(#SVGID_2_)" fill="none" stroke="#006070" stroke-width="6.587" x1="263.035" y1="382.669" x2="633.584" y2="382.669"/>
	
		<line clip-path="url(#SVGID_2_)" fill="none" stroke="#006070" stroke-width="6.587" x1="263.035" y1="562.61" x2="633.584" y2="562.61"/>
	
		<line clip-path="url(#SVGID_2_)" fill="none" stroke="#006070" stroke-width="6.587" x1="263.035" y1="373.198" x2="633.584" y2="373.198"/>
	
		<line clip-path="url(#SVGID_2_)" fill="none" stroke="#006070" stroke-width="6.587" x1="263.035" y1="553.14" x2="633.584" y2="553.14"/>
	
		<line clip-path="url(#SVGID_2_)" fill="none" stroke="#006070" stroke-width="6.587" x1="263.035" y1="363.728" x2="633.584" y2="363.728"/>
	
		<line clip-path="url(#SVGID_2_)" fill="none" stroke="#006070" stroke-width="6.587" x1="263.035" y1="543.669" x2="633.584" y2="543.669"/>
	
		<line clip-path="url(#SVGID_2_)" fill="none" stroke="#006070" stroke-width="6.587" x1="263.035" y1="354.257" x2="633.584" y2="354.257"/>
	
		<line clip-path="url(#SVGID_2_)" fill="none" stroke="#006070" stroke-width="6.587" x1="263.035" y1="534.198" x2="633.584" y2="534.198"/>
	
		<line clip-path="url(#SVGID_2_)" fill="none" stroke="#006070" stroke-width="6.587" x1="263.035" y1="344.786" x2="633.584" y2="344.786"/>
	
		<line clip-path="url(#SVGID_2_)" fill="none" stroke="#006070" stroke-width="6.587" x1="263.035" y1="524.728" x2="633.584" y2="524.728"/>
	
		<line clip-path="url(#SVGID_2_)" fill="none" stroke="#006070" stroke-width="6.587" x1="263.035" y1="515.257" x2="633.584" y2="515.257"/>
	
		<line clip-path="url(#SVGID_2_)" fill="none" stroke="#006070" stroke-width="6.587" x1="263.035" y1="505.786" x2="633.584" y2="505.786"/>
</g>
<polygon fill="#E7E6DB" points="345.452,595.28 841.889,595.28 467.565,353.644 "/>
<g>
	<defs>
		<polygon id="SVGID_3_" points="345.451,595.28 841.89,595.28 467.565,353.644 		"/>
	</defs>
	<clipPath id="SVGID_4_">
		<use xlink:href="#SVGID_3_"  overflow="visible"/>
	</clipPath>
	
		<line clip-path="url(#SVGID_4_)" fill="none" stroke="#FFFFFF" stroke-width="4.567" x1="122.003" y1="506.677" x2="432.771" y2="708.492"/>
	
		<line clip-path="url(#SVGID_4_)" fill="none" stroke="#FFFFFF" stroke-width="4.567" x1="225.165" y1="347.823" x2="535.933" y2="549.638"/>
	
		<line clip-path="url(#SVGID_4_)" fill="none" stroke="#FFFFFF" stroke-width="4.567" x1="127.162" y1="498.734" x2="437.93" y2="700.55"/>
	
		<line clip-path="url(#SVGID_4_)" fill="none" stroke="#FFFFFF" stroke-width="4.567" x1="230.322" y1="339.881" x2="541.091" y2="541.695"/>
	
		<line clip-path="url(#SVGID_4_)" fill="none" stroke="#FFFFFF" stroke-width="4.567" x1="132.319" y1="490.792" x2="443.088" y2="692.607"/>
	
		<line clip-path="url(#SVGID_4_)" fill="none" stroke="#FFFFFF" stroke-width="4.567" x1="235.481" y1="331.938" x2="546.249" y2="533.753"/>
	
		<line clip-path="url(#SVGID_4_)" fill="none" stroke="#FFFFFF" stroke-width="4.567" x1="137.478" y1="482.85" x2="448.246" y2="684.664"/>
	
		<line clip-path="url(#SVGID_4_)" fill="none" stroke="#FFFFFF" stroke-width="4.567" x1="240.639" y1="323.995" x2="551.407" y2="525.811"/>
	
		<line clip-path="url(#SVGID_4_)" fill="none" stroke="#FFFFFF" stroke-width="4.567" x1="142.636" y1="474.906" x2="453.403" y2="676.722"/>
	
		<line clip-path="url(#SVGID_4_)" fill="none" stroke="#FFFFFF" stroke-width="4.567" x1="245.797" y1="316.053" x2="556.564" y2="517.867"/>
	
		<line clip-path="url(#SVGID_4_)" fill="none" stroke="#FFFFFF" stroke-width="4.567" x1="147.794" y1="466.964" x2="458.562" y2="668.779"/>
	
		<line clip-path="url(#SVGID_4_)" fill="none" stroke="#FFFFFF" stroke-width="4.567" x1="250.955" y1="308.109" x2="561.723" y2="509.925"/>
	
		<line clip-path="url(#SVGID_4_)" fill="none" stroke="#FFFFFF" stroke-width="4.567" x1="152.952" y1="459.021" x2="463.72" y2="660.836"/>
	
		<line clip-path="url(#SVGID_4_)" fill="none" stroke="#FFFFFF" stroke-width="4.567" x1="256.113" y1="300.167" x2="566.881" y2="501.981"/>
	
		<line clip-path="url(#SVGID_4_)" fill="none" stroke="#FFFFFF" stroke-width="4.567" x1="158.11" y1="451.078" x2="468.878" y2="652.894"/>
	
		<line clip-path="url(#SVGID_4_)" fill="none" stroke="#FFFFFF" stroke-width="4.567" x1="261.271" y1="292.224" x2="572.039" y2="494.039"/>
	
		<line clip-path="url(#SVGID_4_)" fill="none" stroke="#FFFFFF" stroke-width="4.567" x1="163.268" y1="443.136" x2="474.036" y2="644.95"/>
	
		<line clip-path="url(#SVGID_4_)" fill="none" stroke="#FFFFFF" stroke-width="4.567" x1="266.429" y1="284.281" x2="577.197" y2="486.097"/>
	
		<line clip-path="url(#SVGID_4_)" fill="none" stroke="#FFFFFF" stroke-width="4.567" x1="168.426" y1="435.193" x2="479.194" y2="637.008"/>
	
		<line clip-path="url(#SVGID_4_)" fill="none" stroke="#FFFFFF" stroke-width="4.567" x1="271.587" y1="276.338" x2="582.355" y2="478.153"/>
	
		<line clip-path="url(#SVGID_4_)" fill="none" stroke="#FFFFFF" stroke-width="4.567" x1="173.584" y1="427.25" x2="484.352" y2="629.064"/>
	
		<line clip-path="url(#SVGID_4_)" fill="none" stroke="#FFFFFF" stroke-width="4.567" x1="276.745" y1="268.396" x2="587.514" y2="470.211"/>
	
		<line clip-path="url(#SVGID_4_)" fill="none" stroke="#FFFFFF" stroke-width="4.567" x1="178.742" y1="419.308" x2="489.51" y2="621.122"/>
	
		<line clip-path="url(#SVGID_4_)" fill="none" stroke="#FFFFFF" stroke-width="4.567" x1="281.903" y1="260.453" x2="592.671" y2="462.268"/>
	
		<line clip-path="url(#SVGID_4_)" fill="none" stroke="#FFFFFF" stroke-width="4.567" x1="183.9" y1="411.365" x2="494.668" y2="613.18"/>
	
		<line clip-path="url(#SVGID_4_)" fill="none" stroke="#FFFFFF" stroke-width="4.567" x1="287.061" y1="252.511" x2="597.829" y2="454.325"/>
	
		<line clip-path="url(#SVGID_4_)" fill="none" stroke="#FFFFFF" stroke-width="4.567" x1="189.058" y1="403.422" x2="499.826" y2="605.237"/>
	
		<line clip-path="url(#SVGID_4_)" fill="none" stroke="#FFFFFF" stroke-width="4.567" x1="292.219" y1="244.567" x2="602.987" y2="446.383"/>
	
		<line clip-path="url(#SVGID_4_)" fill="none" stroke="#FFFFFF" stroke-width="4.567" x1="194.216" y1="395.479" x2="504.984" y2="597.295"/>
	
		<line clip-path="url(#SVGID_4_)" fill="none" stroke="#FFFFFF" stroke-width="4.567" x1="297.377" y1="236.625" x2="608.146" y2="438.439"/>
	
		<line clip-path="url(#SVGID_4_)" fill="none" stroke="#FFFFFF" stroke-width="4.567" x1="199.375" y1="387.536" x2="510.143" y2="589.352"/>
	
		<line clip-path="url(#SVGID_4_)" fill="none" stroke="#FFFFFF" stroke-width="4.567" x1="302.535" y1="228.682" x2="613.304" y2="430.497"/>
	
		<line clip-path="url(#SVGID_4_)" fill="none" stroke="#FFFFFF" stroke-width="4.567" x1="204.532" y1="379.594" x2="515.3" y2="581.409"/>
	
		<line clip-path="url(#SVGID_4_)" fill="none" stroke="#FFFFFF" stroke-width="4.567" x1="307.693" y1="220.74" x2="618.461" y2="422.555"/>
	
		<line clip-path="url(#SVGID_4_)" fill="none" stroke="#FFFFFF" stroke-width="4.567" x1="209.691" y1="371.651" x2="520.459" y2="573.466"/>
	
		<line clip-path="url(#SVGID_4_)" fill="none" stroke="#FFFFFF" stroke-width="4.567" x1="312.851" y1="212.797" x2="623.619" y2="414.612"/>
	
		<line clip-path="url(#SVGID_4_)" fill="none" stroke="#FFFFFF" stroke-width="4.567" x1="214.848" y1="363.709" x2="525.616" y2="565.524"/>
	
		<line clip-path="url(#SVGID_4_)" fill="none" stroke="#FFFFFF" stroke-width="4.567" x1="318.009" y1="204.854" x2="628.777" y2="406.669"/>
	
		<line clip-path="url(#SVGID_4_)" fill="none" stroke="#FFFFFF" stroke-width="4.567" x1="220.007" y1="355.766" x2="530.774" y2="557.581"/>
	
		<line clip-path="url(#SVGID_4_)" fill="none" stroke="#FFFFFF" stroke-width="4.567" x1="323.167" y1="196.911" x2="633.936" y2="398.727"/>
	
		<line clip-path="url(#SVGID_4_)" fill="none" stroke="#FFFFFF" stroke-width="4.567" x1="535.933" y1="549.639" x2="846.701" y2="751.453"/>
	
		<line clip-path="url(#SVGID_4_)" fill="none" stroke="#FFFFFF" stroke-width="4.567" x1="541.091" y1="541.695" x2="851.858" y2="743.511"/>
	
		<line clip-path="url(#SVGID_4_)" fill="none" stroke="#FFFFFF" stroke-width="4.567" x1="546.249" y1="533.753" x2="857.017" y2="735.568"/>
	
		<line clip-path="url(#SVGID_4_)" fill="none" stroke="#FFFFFF" stroke-width="4.567" x1="551.407" y1="525.811" x2="862.175" y2="727.625"/>
	
		<line clip-path="url(#SVGID_4_)" fill="none" stroke="#FFFFFF" stroke-width="4.567" x1="556.564" y1="517.868" x2="867.333" y2="719.683"/>
	
		<line clip-path="url(#SVGID_4_)" fill="none" stroke="#FFFFFF" stroke-width="4.567" x1="561.723" y1="509.925" x2="872.491" y2="711.739"/>
	
		<line clip-path="url(#SVGID_4_)" fill="none" stroke="#FFFFFF" stroke-width="4.567" x1="566.881" y1="501.982" x2="877.649" y2="703.798"/>
	
		<line clip-path="url(#SVGID_4_)" fill="none" stroke="#FFFFFF" stroke-width="4.567" x1="572.039" y1="494.04" x2="882.808" y2="695.854"/>
	
		<line clip-path="url(#SVGID_4_)" fill="none" stroke="#FFFFFF" stroke-width="4.567" x1="577.197" y1="486.097" x2="887.965" y2="687.912"/>
	
		<line clip-path="url(#SVGID_4_)" fill="none" stroke="#FFFFFF" stroke-width="4.567" x1="582.355" y1="478.154" x2="893.123" y2="679.969"/>
	
		<line clip-path="url(#SVGID_4_)" fill="none" stroke="#FFFFFF" stroke-width="4.567" x1="587.514" y1="470.212" x2="898.281" y2="672.026"/>
	
		<line clip-path="url(#SVGID_4_)" fill="none" stroke="#FFFFFF" stroke-width="4.567" x1="592.671" y1="462.269" x2="903.439" y2="664.084"/>
	
		<line clip-path="url(#SVGID_4_)" fill="none" stroke="#FFFFFF" stroke-width="4.567" x1="597.829" y1="454.326" x2="908.598" y2="656.142"/>
	
		<line clip-path="url(#SVGID_4_)" fill="none" stroke="#FFFFFF" stroke-width="4.567" x1="602.987" y1="446.383" x2="913.756" y2="648.198"/>
	
		<line clip-path="url(#SVGID_4_)" fill="none" stroke="#FFFFFF" stroke-width="4.567" x1="608.146" y1="438.44" x2="918.913" y2="640.256"/>
	
		<line clip-path="url(#SVGID_4_)" fill="none" stroke="#FFFFFF" stroke-width="4.567" x1="510.143" y1="589.353" x2="820.91" y2="791.167"/>
	
		<line clip-path="url(#SVGID_4_)" fill="none" stroke="#FFFFFF" stroke-width="4.567" x1="613.304" y1="430.498" x2="924.071" y2="632.313"/>
	
		<line clip-path="url(#SVGID_4_)" fill="none" stroke="#FFFFFF" stroke-width="4.567" x1="515.301" y1="581.409" x2="826.068" y2="783.225"/>
	
		<line clip-path="url(#SVGID_4_)" fill="none" stroke="#FFFFFF" stroke-width="4.567" x1="618.462" y1="422.556" x2="929.229" y2="624.37"/>
	
		<line clip-path="url(#SVGID_4_)" fill="none" stroke="#FFFFFF" stroke-width="4.567" x1="520.459" y1="573.467" x2="831.227" y2="775.281"/>
	
		<line clip-path="url(#SVGID_4_)" fill="none" stroke="#FFFFFF" stroke-width="4.567" x1="623.619" y1="414.612" x2="934.388" y2="616.428"/>
	
		<line clip-path="url(#SVGID_4_)" fill="none" stroke="#FFFFFF" stroke-width="4.567" x1="525.616" y1="565.524" x2="836.385" y2="767.339"/>
	
		<line clip-path="url(#SVGID_4_)" fill="none" stroke="#FFFFFF" stroke-width="4.567" x1="628.777" y1="406.67" x2="939.546" y2="608.484"/>
	
		<line clip-path="url(#SVGID_4_)" fill="none" stroke="#FFFFFF" stroke-width="4.567" x1="530.774" y1="557.581" x2="841.543" y2="759.396"/>
	
		<line clip-path="url(#SVGID_4_)" fill="none" stroke="#FFFFFF" stroke-width="4.567" x1="633.936" y1="398.727" x2="944.704" y2="600.542"/>
</g>
<polygon fill="#7E9E79" points="467.565,353.642 841.89,595.28 841.89,159.198 "/>
<g>
	<defs>
		<polygon id="SVGID_5_" points="467.565,353.644 841.89,595.28 841.89,159.198 		"/>
	</defs>
	<clipPath id="SVGID_6_">
		<use xlink:href="#SVGID_5_"  overflow="visible"/>
	</clipPath>
	
		<line clip-path="url(#SVGID_6_)" fill="none" stroke="#BDCDB8" stroke-width="9.133" x1="406.292" y1="360.46" x2="940.464" y2="360.46"/>
	
		<line clip-path="url(#SVGID_6_)" fill="none" stroke="#BDCDB8" stroke-width="9.133" x1="406.292" y1="374.098" x2="940.464" y2="374.098"/>
	
		<line clip-path="url(#SVGID_6_)" fill="none" stroke="#BDCDB8" stroke-width="9.133" x1="406.292" y1="387.734" x2="940.464" y2="387.734"/>
	
		<line clip-path="url(#SVGID_6_)" fill="none" stroke="#BDCDB8" stroke-width="9.133" x1="406.292" y1="401.373" x2="940.464" y2="401.373"/>
	
		<line clip-path="url(#SVGID_6_)" fill="none" stroke="#BDCDB8" stroke-width="9.133" x1="406.292" y1="142.264" x2="940.464" y2="142.264"/>
	
		<line clip-path="url(#SVGID_6_)" fill="none" stroke="#BDCDB8" stroke-width="9.133" x1="406.292" y1="415.01" x2="940.464" y2="415.01"/>
	
		<line clip-path="url(#SVGID_6_)" fill="none" stroke="#BDCDB8" stroke-width="9.133" x1="406.292" y1="155.901" x2="940.464" y2="155.901"/>
	
		<line clip-path="url(#SVGID_6_)" fill="none" stroke="#BDCDB8" stroke-width="9.133" x1="406.292" y1="428.646" x2="940.464" y2="428.646"/>
	
		<line clip-path="url(#SVGID_6_)" fill="none" stroke="#BDCDB8" stroke-width="9.133" x1="406.292" y1="169.538" x2="940.464" y2="169.538"/>
	
		<line clip-path="url(#SVGID_6_)" fill="none" stroke="#BDCDB8" stroke-width="9.133" x1="406.292" y1="442.284" x2="940.464" y2="442.284"/>
	
		<line clip-path="url(#SVGID_6_)" fill="none" stroke="#BDCDB8" stroke-width="9.133" x1="406.292" y1="183.175" x2="940.464" y2="183.175"/>
	
		<line clip-path="url(#SVGID_6_)" fill="none" stroke="#BDCDB8" stroke-width="9.133" x1="406.292" y1="455.921" x2="940.464" y2="455.921"/>
	
		<line clip-path="url(#SVGID_6_)" fill="none" stroke="#BDCDB8" stroke-width="9.133" x1="406.292" y1="196.813" x2="940.464" y2="196.813"/>
	
		<line clip-path="url(#SVGID_6_)" fill="none" stroke="#BDCDB8" stroke-width="9.133" x1="406.292" y1="469.559" x2="940.464" y2="469.559"/>
	
		<line clip-path="url(#SVGID_6_)" fill="none" stroke="#BDCDB8" stroke-width="9.133" x1="406.292" y1="210.45" x2="940.464" y2="210.45"/>
	
		<line clip-path="url(#SVGID_6_)" fill="none" stroke="#BDCDB8" stroke-width="9.133" x1="406.292" y1="483.196" x2="940.464" y2="483.196"/>
	
		<line clip-path="url(#SVGID_6_)" fill="none" stroke="#BDCDB8" stroke-width="9.133" x1="406.292" y1="224.087" x2="940.464" y2="224.087"/>
	
		<line clip-path="url(#SVGID_6_)" fill="none" stroke="#BDCDB8" stroke-width="9.133" x1="406.292" y1="496.834" x2="940.464" y2="496.834"/>
	
		<line clip-path="url(#SVGID_6_)" fill="none" stroke="#BDCDB8" stroke-width="9.133" x1="406.292" y1="237.725" x2="940.464" y2="237.725"/>
	
		<line clip-path="url(#SVGID_6_)" fill="none" stroke="#BDCDB8" stroke-width="9.133" x1="406.292" y1="510.471" x2="940.464" y2="510.471"/>
	
		<line clip-path="url(#SVGID_6_)" fill="none" stroke="#BDCDB8" stroke-width="9.133" x1="406.292" y1="251.362" x2="940.464" y2="251.362"/>
	
		<line clip-path="url(#SVGID_6_)" fill="none" stroke="#BDCDB8" stroke-width="9.133" x1="406.292" y1="524.108" x2="940.464" y2="524.108"/>
	
		<line clip-path="url(#SVGID_6_)" fill="none" stroke="#BDCDB8" stroke-width="9.133" x1="406.292" y1="264.999" x2="940.464" y2="264.999"/>
	
		<line clip-path="url(#SVGID_6_)" fill="none" stroke="#BDCDB8" stroke-width="9.133" x1="406.292" y1="537.745" x2="940.464" y2="537.745"/>
	
		<line clip-path="url(#SVGID_6_)" fill="none" stroke="#BDCDB8" stroke-width="9.133" x1="406.292" y1="278.637" x2="940.464" y2="278.637"/>
	
		<line clip-path="url(#SVGID_6_)" fill="none" stroke="#BDCDB8" stroke-width="9.133" x1="406.292" y1="551.382" x2="940.464" y2="551.382"/>
	
		<line clip-path="url(#SVGID_6_)" fill="none" stroke="#BDCDB8" stroke-width="9.133" x1="406.292" y1="292.273" x2="940.464" y2="292.273"/>
	
		<line clip-path="url(#SVGID_6_)" fill="none" stroke="#BDCDB8" stroke-width="9.133" x1="406.292" y1="565.021" x2="940.464" y2="565.021"/>
	
		<line clip-path="url(#SVGID_6_)" fill="none" stroke="#BDCDB8" stroke-width="9.133" x1="406.292" y1="305.911" x2="940.464" y2="305.911"/>
	
		<line clip-path="url(#SVGID_6_)" fill="none" stroke="#BDCDB8" stroke-width="9.133" x1="406.292" y1="578.657" x2="940.464" y2="578.657"/>
	
		<line clip-path="url(#SVGID_6_)" fill="none" stroke="#BDCDB8" stroke-width="9.133" x1="406.292" y1="319.549" x2="940.464" y2="319.549"/>
	
		<line clip-path="url(#SVGID_6_)" fill="none" stroke="#BDCDB8" stroke-width="9.133" x1="406.292" y1="592.295" x2="940.464" y2="592.295"/>
	
		<line clip-path="url(#SVGID_6_)" fill="none" stroke="#BDCDB8" stroke-width="9.133" x1="406.292" y1="333.186" x2="940.464" y2="333.186"/>
	
		<line clip-path="url(#SVGID_6_)" fill="none" stroke="#BDCDB8" stroke-width="9.133" x1="406.292" y1="346.823" x2="940.464" y2="346.823"/>
</g>
</svg>
