<?xml version="1.0" encoding="utf-8"?>
<!-- Generator: Adobe Illustrator 16.0.0, SVG Export Plug-In . SVG Version: 6.00 Build 0)  -->
<!DOCTYPE svg PUBLIC "-//W3C//DTD SVG 1.1//EN" "http://www.w3.org/Graphics/SVG/1.1/DTD/svg11.dtd">
<svg version="1.1" id="Layer_1" xmlns="http://www.w3.org/2000/svg" xmlns:xlink="http://www.w3.org/1999/xlink" x="0px" y="0px"
	 width="841.89px" height="595.28px" viewBox="0 0 841.89 595.28" enable-background="new 0 0 841.89 595.28" xml:space="preserve">
<polygon fill="#FFFFFF" points="429.2,228.545 841.89,585.822 841.89,228.545 "/>
<g>
	<defs>
		<polygon id="SVGID_1_" points="429.2,228.544 841.89,585.822 841.89,228.544 		"/>
	</defs>
	<clipPath id="SVGID_2_">
		<use xlink:href="#SVGID_1_"  overflow="visible"/>
	</clipPath>
	
		<line clip-path="url(#SVGID_2_)" fill="none" stroke="#7E9E79" stroke-width="4.44" x1="391.108" y1="353.323" x2="921.517" y2="353.323"/>
	
		<line clip-path="url(#SVGID_2_)" fill="none" stroke="#7E9E79" stroke-width="4.44" x1="391.108" y1="339.72" x2="921.517" y2="339.72"/>
	
		<line clip-path="url(#SVGID_2_)" fill="none" stroke="#7E9E79" stroke-width="4.44" x1="391.108" y1="326.115" x2="921.517" y2="326.115"/>
	
		<line clip-path="url(#SVGID_2_)" fill="none" stroke="#7E9E79" stroke-width="4.44" x1="391.108" y1="584.593" x2="921.517" y2="584.593"/>
	
		<line clip-path="url(#SVGID_2_)" fill="none" stroke="#7E9E79" stroke-width="4.44" x1="391.108" y1="312.512" x2="921.517" y2="312.512"/>
	
		<line clip-path="url(#SVGID_2_)" fill="none" stroke="#7E9E79" stroke-width="4.44" x1="391.108" y1="570.988" x2="921.517" y2="570.988"/>
	
		<line clip-path="url(#SVGID_2_)" fill="none" stroke="#7E9E79" stroke-width="4.44" x1="391.108" y1="298.907" x2="921.517" y2="298.907"/>
	
		<line clip-path="url(#SVGID_2_)" fill="none" stroke="#7E9E79" stroke-width="4.44" x1="391.108" y1="557.385" x2="921.517" y2="557.385"/>
	
		<line clip-path="url(#SVGID_2_)" fill="none" stroke="#7E9E79" stroke-width="4.44" x1="391.108" y1="285.303" x2="921.517" y2="285.303"/>
	
		<line clip-path="url(#SVGID_2_)" fill="none" stroke="#7E9E79" stroke-width="4.44" x1="391.108" y1="543.781" x2="921.517" y2="543.781"/>
	
		<line clip-path="url(#SVGID_2_)" fill="none" stroke="#7E9E79" stroke-width="4.44" x1="391.108" y1="271.699" x2="921.517" y2="271.699"/>
	
		<line clip-path="url(#SVGID_2_)" fill="none" stroke="#7E9E79" stroke-width="4.44" x1="391.108" y1="530.177" x2="921.517" y2="530.177"/>
	
		<line clip-path="url(#SVGID_2_)" fill="none" stroke="#7E9E79" stroke-width="4.44" x1="391.108" y1="258.095" x2="921.517" y2="258.095"/>
	
		<line clip-path="url(#SVGID_2_)" fill="none" stroke="#7E9E79" stroke-width="4.44" x1="391.108" y1="516.572" x2="921.517" y2="516.572"/>
	
		<line clip-path="url(#SVGID_2_)" fill="none" stroke="#7E9E79" stroke-width="4.44" x1="391.108" y1="244.491" x2="921.517" y2="244.491"/>
	
		<line clip-path="url(#SVGID_2_)" fill="none" stroke="#7E9E79" stroke-width="4.44" x1="391.108" y1="502.969" x2="921.517" y2="502.969"/>
	
		<line clip-path="url(#SVGID_2_)" fill="none" stroke="#7E9E79" stroke-width="4.44" x1="391.108" y1="230.887" x2="921.517" y2="230.887"/>
	
		<line clip-path="url(#SVGID_2_)" fill="none" stroke="#7E9E79" stroke-width="4.44" x1="391.108" y1="489.364" x2="921.517" y2="489.364"/>
	
		<line clip-path="url(#SVGID_2_)" fill="none" stroke="#7E9E79" stroke-width="4.44" x1="391.108" y1="475.761" x2="921.517" y2="475.761"/>
	
		<line clip-path="url(#SVGID_2_)" fill="none" stroke="#7E9E79" stroke-width="4.44" x1="391.108" y1="462.156" x2="921.517" y2="462.156"/>
	
		<line clip-path="url(#SVGID_2_)" fill="none" stroke="#7E9E79" stroke-width="4.44" x1="391.108" y1="448.553" x2="921.517" y2="448.553"/>
	
		<line clip-path="url(#SVGID_2_)" fill="none" stroke="#7E9E79" stroke-width="4.44" x1="391.108" y1="434.948" x2="921.517" y2="434.948"/>
	
		<line clip-path="url(#SVGID_2_)" fill="none" stroke="#7E9E79" stroke-width="4.44" x1="391.108" y1="421.344" x2="921.517" y2="421.344"/>
	
		<line clip-path="url(#SVGID_2_)" fill="none" stroke="#7E9E79" stroke-width="4.44" x1="391.108" y1="407.74" x2="921.517" y2="407.74"/>
	
		<line clip-path="url(#SVGID_2_)" fill="none" stroke="#7E9E79" stroke-width="4.44" x1="391.108" y1="394.136" x2="921.517" y2="394.136"/>
	
		<line clip-path="url(#SVGID_2_)" fill="none" stroke="#7E9E79" stroke-width="4.44" x1="391.108" y1="380.532" x2="921.517" y2="380.532"/>
	
		<line clip-path="url(#SVGID_2_)" fill="none" stroke="#7E9E79" stroke-width="4.44" x1="391.108" y1="366.928" x2="921.517" y2="366.928"/>
</g>
<polygon fill="#338391" points="165.248,0 429.2,228.545 523.514,0 "/>
<g>
	<defs>
		<polygon id="SVGID_3_" points="165.248,0 429.2,228.545 523.514,0.001 344.38,0 		"/>
	</defs>
	<clipPath id="SVGID_4_">
		<use xlink:href="#SVGID_3_"  overflow="visible"/>
	</clipPath>
	
		<line clip-path="url(#SVGID_4_)" fill="none" stroke="#006070" stroke-width="5.919" x1="-202.307" y1="103.842" x2="200.875" y2="-10.36"/>
	
		<line clip-path="url(#SVGID_4_)" fill="none" stroke="#006070" stroke-width="5.919" x1="-199.377" y1="114.187" x2="203.805" y2="-0.016"/>
	
		<line clip-path="url(#SVGID_4_)" fill="none" stroke="#006070" stroke-width="5.919" x1="-196.447" y1="124.53" x2="206.735" y2="10.328"/>
	
		<line clip-path="url(#SVGID_4_)" fill="none" stroke="#006070" stroke-width="5.919" x1="-193.517" y1="134.875" x2="209.666" y2="20.672"/>
	
		<line clip-path="url(#SVGID_4_)" fill="none" stroke="#006070" stroke-width="5.919" x1="-190.587" y1="145.219" x2="212.595" y2="31.016"/>
	
		<line clip-path="url(#SVGID_4_)" fill="none" stroke="#006070" stroke-width="5.919" x1="-187.657" y1="155.563" x2="215.525" y2="41.36"/>
	
		<line clip-path="url(#SVGID_4_)" fill="none" stroke="#006070" stroke-width="5.919" x1="-184.727" y1="165.907" x2="218.455" y2="51.704"/>
	
		<line clip-path="url(#SVGID_4_)" fill="none" stroke="#006070" stroke-width="5.919" x1="-181.796" y1="176.252" x2="221.386" y2="62.049"/>
	
		<line clip-path="url(#SVGID_4_)" fill="none" stroke="#006070" stroke-width="5.919" x1="-178.867" y1="186.596" x2="224.315" y2="72.393"/>
	
		<line clip-path="url(#SVGID_4_)" fill="none" stroke="#006070" stroke-width="5.919" x1="241.896" y1="134.458" x2="645.079" y2="20.254"/>
	
		<line clip-path="url(#SVGID_4_)" fill="none" stroke="#006070" stroke-width="5.919" x1="244.826" y1="144.802" x2="648.009" y2="30.599"/>
	
		<line clip-path="url(#SVGID_4_)" fill="none" stroke="#006070" stroke-width="5.919" x1="247.756" y1="155.146" x2="650.939" y2="40.943"/>
	
		<line clip-path="url(#SVGID_4_)" fill="none" stroke="#006070" stroke-width="5.919" x1="250.686" y1="165.49" x2="653.869" y2="51.287"/>
	
		<line clip-path="url(#SVGID_4_)" fill="none" stroke="#006070" stroke-width="5.919" x1="253.616" y1="175.834" x2="656.799" y2="61.632"/>
	
		<line clip-path="url(#SVGID_4_)" fill="none" stroke="#006070" stroke-width="5.919" x1="256.546" y1="186.179" x2="659.729" y2="71.976"/>
	
		<line clip-path="url(#SVGID_4_)" fill="none" stroke="#006070" stroke-width="5.919" x1="259.477" y1="196.523" x2="662.659" y2="82.32"/>
	
		<line clip-path="url(#SVGID_4_)" fill="none" stroke="#006070" stroke-width="5.919" x1="203.806" y1="-0.017" x2="606.988" y2="-114.22"/>
	
		<line clip-path="url(#SVGID_4_)" fill="none" stroke="#006070" stroke-width="5.919" x1="262.406" y1="206.867" x2="665.589" y2="92.664"/>
	
		<line clip-path="url(#SVGID_4_)" fill="none" stroke="#006070" stroke-width="5.919" x1="206.735" y1="10.327" x2="609.919" y2="-103.876"/>
	
		<line clip-path="url(#SVGID_4_)" fill="none" stroke="#006070" stroke-width="5.919" x1="265.336" y1="217.211" x2="668.52" y2="103.008"/>
	
		<line clip-path="url(#SVGID_4_)" fill="none" stroke="#006070" stroke-width="5.919" x1="209.666" y1="20.672" x2="612.849" y2="-93.531"/>
	
		<line clip-path="url(#SVGID_4_)" fill="none" stroke="#006070" stroke-width="5.919" x1="268.267" y1="227.555" x2="671.449" y2="113.352"/>
	
		<line clip-path="url(#SVGID_4_)" fill="none" stroke="#006070" stroke-width="5.919" x1="212.596" y1="31.016" x2="615.778" y2="-83.188"/>
	
		<line clip-path="url(#SVGID_4_)" fill="none" stroke="#006070" stroke-width="5.919" x1="271.196" y1="237.899" x2="674.38" y2="123.696"/>
	
		<line clip-path="url(#SVGID_4_)" fill="none" stroke="#006070" stroke-width="5.919" x1="215.526" y1="41.36" x2="618.709" y2="-72.843"/>
	
		<line clip-path="url(#SVGID_4_)" fill="none" stroke="#006070" stroke-width="5.919" x1="274.126" y1="248.244" x2="677.31" y2="134.041"/>
	
		<line clip-path="url(#SVGID_4_)" fill="none" stroke="#006070" stroke-width="5.919" x1="218.456" y1="51.704" x2="621.639" y2="-62.499"/>
	
		<line clip-path="url(#SVGID_4_)" fill="none" stroke="#006070" stroke-width="5.919" x1="277.057" y1="258.588" x2="680.239" y2="144.385"/>
	
		<line clip-path="url(#SVGID_4_)" fill="none" stroke="#006070" stroke-width="5.919" x1="221.386" y1="62.049" x2="624.569" y2="-52.154"/>
	
		<line clip-path="url(#SVGID_4_)" fill="none" stroke="#006070" stroke-width="5.919" x1="279.987" y1="268.932" x2="683.17" y2="154.729"/>
	
		<line clip-path="url(#SVGID_4_)" fill="none" stroke="#006070" stroke-width="5.919" x1="224.316" y1="72.393" x2="627.499" y2="-41.811"/>
	
		<line clip-path="url(#SVGID_4_)" fill="none" stroke="#006070" stroke-width="5.919" x1="282.917" y1="279.276" x2="686.1" y2="165.073"/>
	
		<line clip-path="url(#SVGID_4_)" fill="none" stroke="#006070" stroke-width="5.919" x1="227.246" y1="82.737" x2="630.429" y2="-31.466"/>
	
		<line clip-path="url(#SVGID_4_)" fill="none" stroke="#006070" stroke-width="5.919" x1="285.847" y1="289.62" x2="689.029" y2="175.417"/>
	
		<line clip-path="url(#SVGID_4_)" fill="none" stroke="#006070" stroke-width="5.919" x1="230.176" y1="93.081" x2="633.359" y2="-21.122"/>
	
		<line clip-path="url(#SVGID_4_)" fill="none" stroke="#006070" stroke-width="5.919" x1="288.777" y1="299.965" x2="691.96" y2="185.762"/>
	
		<line clip-path="url(#SVGID_4_)" fill="none" stroke="#006070" stroke-width="5.919" x1="233.106" y1="103.425" x2="636.289" y2="-10.778"/>
	
		<line clip-path="url(#SVGID_4_)" fill="none" stroke="#006070" stroke-width="5.919" x1="291.707" y1="310.309" x2="694.89" y2="196.105"/>
	
		<line clip-path="url(#SVGID_4_)" fill="none" stroke="#006070" stroke-width="5.919" x1="236.036" y1="113.769" x2="639.219" y2="-0.434"/>
	
		<line clip-path="url(#SVGID_4_)" fill="none" stroke="#006070" stroke-width="5.919" x1="294.637" y1="320.653" x2="697.82" y2="206.45"/>
	
		<line clip-path="url(#SVGID_4_)" fill="none" stroke="#006070" stroke-width="5.919" x1="238.966" y1="124.113" x2="642.149" y2="9.91"/>
	
		<line clip-path="url(#SVGID_4_)" fill="none" stroke="#006070" stroke-width="5.919" x1="297.567" y1="330.997" x2="700.75" y2="216.793"/>
</g>
<polygon fill="#BCD3D9" points="523.514,0 429.2,228.546 841.89,0 "/>
<g>
	<defs>
		<polygon id="SVGID_5_" points="523.514,0.001 429.2,228.545 841.89,0.001 		"/>
	</defs>
	<clipPath id="SVGID_6_">
		<use xlink:href="#SVGID_5_"  overflow="visible"/>
	</clipPath>
	
		<line clip-path="url(#SVGID_6_)" fill="none" stroke="#338391" stroke-width="1.48" x1="427.162" y1="90.1" x2="846.918" y2="90.1"/>
	
		<line clip-path="url(#SVGID_6_)" fill="none" stroke="#338391" stroke-width="1.48" x1="427.162" y1="95.503" x2="846.918" y2="95.503"/>
	
		<line clip-path="url(#SVGID_6_)" fill="none" stroke="#338391" stroke-width="1.48" x1="427.162" y1="100.905" x2="846.918" y2="100.905"/>
	
		<line clip-path="url(#SVGID_6_)" fill="none" stroke="#338391" stroke-width="1.48" x1="427.162" y1="106.308" x2="846.918" y2="106.308"/>
	
		<line clip-path="url(#SVGID_6_)" fill="none" stroke="#338391" stroke-width="1.48" x1="427.162" y1="111.709" x2="846.918" y2="111.709"/>
	
		<line clip-path="url(#SVGID_6_)" fill="none" stroke="#338391" stroke-width="1.48" x1="427.162" y1="117.112" x2="846.918" y2="117.112"/>
	
		<line clip-path="url(#SVGID_6_)" fill="none" stroke="#338391" stroke-width="1.48" x1="427.162" y1="122.515" x2="846.918" y2="122.515"/>
	
		<line clip-path="url(#SVGID_6_)" fill="none" stroke="#338391" stroke-width="1.48" x1="427.162" y1="127.917" x2="846.918" y2="127.917"/>
	
		<line clip-path="url(#SVGID_6_)" fill="none" stroke="#338391" stroke-width="1.48" x1="427.162" y1="133.32" x2="846.918" y2="133.32"/>
	
		<line clip-path="url(#SVGID_6_)" fill="none" stroke="#338391" stroke-width="1.48" x1="427.162" y1="138.723" x2="846.918" y2="138.723"/>
	
		<line clip-path="url(#SVGID_6_)" fill="none" stroke="#338391" stroke-width="1.48" x1="427.162" y1="144.125" x2="846.918" y2="144.125"/>
	
		<line clip-path="url(#SVGID_6_)" fill="none" stroke="#338391" stroke-width="1.48" x1="427.162" y1="149.528" x2="846.918" y2="149.528"/>
	
		<line clip-path="url(#SVGID_6_)" fill="none" stroke="#338391" stroke-width="1.48" x1="427.162" y1="154.93" x2="846.918" y2="154.93"/>
	
		<line clip-path="url(#SVGID_6_)" fill="none" stroke="#338391" stroke-width="1.48" x1="427.162" y1="160.333" x2="846.918" y2="160.333"/>
	
		<line clip-path="url(#SVGID_6_)" fill="none" stroke="#338391" stroke-width="1.48" x1="427.162" y1="165.735" x2="846.918" y2="165.735"/>
	
		<line clip-path="url(#SVGID_6_)" fill="none" stroke="#338391" stroke-width="1.48" x1="427.162" y1="171.138" x2="846.918" y2="171.138"/>
	
		<line clip-path="url(#SVGID_6_)" fill="none" stroke="#338391" stroke-width="1.48" x1="427.162" y1="176.541" x2="846.918" y2="176.541"/>
	
		<line clip-path="url(#SVGID_6_)" fill="none" stroke="#338391" stroke-width="1.48" x1="427.162" y1="181.943" x2="846.918" y2="181.943"/>
	
		<line clip-path="url(#SVGID_6_)" fill="none" stroke="#338391" stroke-width="1.48" x1="427.162" y1="187.346" x2="846.918" y2="187.346"/>
	
		<line clip-path="url(#SVGID_6_)" fill="none" stroke="#338391" stroke-width="1.48" x1="427.162" y1="192.748" x2="846.918" y2="192.748"/>
	
		<line clip-path="url(#SVGID_6_)" fill="none" stroke="#338391" stroke-width="1.48" x1="427.162" y1="198.151" x2="846.918" y2="198.151"/>
	
		<line clip-path="url(#SVGID_6_)" fill="none" stroke="#338391" stroke-width="1.48" x1="427.162" y1="203.553" x2="846.918" y2="203.553"/>
	
		<line clip-path="url(#SVGID_6_)" fill="none" stroke="#338391" stroke-width="1.48" x1="427.162" y1="208.956" x2="846.918" y2="208.956"/>
	
		<line clip-path="url(#SVGID_6_)" fill="none" stroke="#338391" stroke-width="1.48" x1="427.162" y1="214.358" x2="846.918" y2="214.358"/>
	
		<line clip-path="url(#SVGID_6_)" fill="none" stroke="#338391" stroke-width="1.48" x1="427.162" y1="3.659" x2="846.918" y2="3.659"/>
	
		<line clip-path="url(#SVGID_6_)" fill="none" stroke="#338391" stroke-width="1.48" x1="427.162" y1="9.062" x2="846.918" y2="9.062"/>
	
		<line clip-path="url(#SVGID_6_)" fill="none" stroke="#338391" stroke-width="1.48" x1="427.162" y1="219.761" x2="846.918" y2="219.761"/>
	
		<line clip-path="url(#SVGID_6_)" fill="none" stroke="#338391" stroke-width="1.48" x1="427.162" y1="225.164" x2="846.918" y2="225.164"/>
	
		<line clip-path="url(#SVGID_6_)" fill="none" stroke="#338391" stroke-width="1.48" x1="427.162" y1="14.464" x2="846.918" y2="14.464"/>
	
		<line clip-path="url(#SVGID_6_)" fill="none" stroke="#338391" stroke-width="1.48" x1="427.162" y1="19.866" x2="846.918" y2="19.866"/>
	
		<line clip-path="url(#SVGID_6_)" fill="none" stroke="#338391" stroke-width="1.48" x1="427.162" y1="230.566" x2="846.918" y2="230.566"/>
	
		<line clip-path="url(#SVGID_6_)" fill="none" stroke="#338391" stroke-width="1.48" x1="427.162" y1="25.269" x2="846.918" y2="25.269"/>
	
		<line clip-path="url(#SVGID_6_)" fill="none" stroke="#338391" stroke-width="1.48" x1="427.162" y1="30.672" x2="846.918" y2="30.672"/>
	
		<line clip-path="url(#SVGID_6_)" fill="none" stroke="#338391" stroke-width="1.48" x1="427.162" y1="36.074" x2="846.918" y2="36.074"/>
	
		<line clip-path="url(#SVGID_6_)" fill="none" stroke="#338391" stroke-width="1.48" x1="427.162" y1="41.477" x2="846.918" y2="41.477"/>
	
		<line clip-path="url(#SVGID_6_)" fill="none" stroke="#338391" stroke-width="1.48" x1="427.162" y1="46.88" x2="846.918" y2="46.88"/>
	
		<line clip-path="url(#SVGID_6_)" fill="none" stroke="#338391" stroke-width="1.48" x1="427.162" y1="52.282" x2="846.918" y2="52.282"/>
	
		<line clip-path="url(#SVGID_6_)" fill="none" stroke="#338391" stroke-width="1.48" x1="427.162" y1="57.685" x2="846.918" y2="57.685"/>
	
		<line clip-path="url(#SVGID_6_)" fill="none" stroke="#338391" stroke-width="1.48" x1="427.162" y1="63.087" x2="846.918" y2="63.087"/>
	
		<line clip-path="url(#SVGID_6_)" fill="none" stroke="#338391" stroke-width="1.48" x1="427.162" y1="68.489" x2="846.918" y2="68.489"/>
	
		<line clip-path="url(#SVGID_6_)" fill="none" stroke="#338391" stroke-width="1.48" x1="427.162" y1="73.892" x2="846.918" y2="73.892"/>
	
		<line clip-path="url(#SVGID_6_)" fill="none" stroke="#338391" stroke-width="1.48" x1="427.162" y1="79.295" x2="846.918" y2="79.295"/>
	
		<line clip-path="url(#SVGID_6_)" fill="none" stroke="#338391" stroke-width="1.48" x1="427.162" y1="84.697" x2="846.918" y2="84.697"/>
</g>
<polygon fill="#FFFFFF" points="841.89,0 429.199,228.545 841.89,228.545 "/>
<g>
	<defs>
		<polygon id="SVGID_7_" points="429.2,228.545 841.89,228.545 841.89,0.001 		"/>
	</defs>
	<clipPath id="SVGID_8_">
		<use xlink:href="#SVGID_7_"  overflow="visible"/>
	</clipPath>
	
		<line clip-path="url(#SVGID_8_)" fill="none" stroke="#D0CEBC" stroke-width="3.552" x1="505.147" y1="37.526" x2="902.569" y2="354.33"/>
	
		<line clip-path="url(#SVGID_8_)" fill="none" stroke="#D0CEBC" stroke-width="3.552" x1="501.067" y1="42.646" x2="898.489" y2="359.449"/>
	
		<line clip-path="url(#SVGID_8_)" fill="none" stroke="#D0CEBC" stroke-width="3.552" x1="496.986" y1="47.765" x2="894.408" y2="364.569"/>
	
		<line clip-path="url(#SVGID_8_)" fill="none" stroke="#D0CEBC" stroke-width="3.552" x1="492.905" y1="52.883" x2="890.328" y2="369.688"/>
	
		<line clip-path="url(#SVGID_8_)" fill="none" stroke="#D0CEBC" stroke-width="3.552" x1="652.058" y1="-146.769" x2="1049.479" y2="170.035"/>
	
		<line clip-path="url(#SVGID_8_)" fill="none" stroke="#D0CEBC" stroke-width="3.552" x1="647.978" y1="-141.649" x2="1045.399" y2="175.154"/>
	
		<line clip-path="url(#SVGID_8_)" fill="none" stroke="#D0CEBC" stroke-width="3.552" x1="488.824" y1="58.003" x2="886.246" y2="374.807"/>
	
		<line clip-path="url(#SVGID_8_)" fill="none" stroke="#D0CEBC" stroke-width="3.552" x1="484.743" y1="63.123" x2="882.165" y2="379.927"/>
	
		<line clip-path="url(#SVGID_8_)" fill="none" stroke="#D0CEBC" stroke-width="3.552" x1="643.896" y1="-136.53" x2="1041.318" y2="180.274"/>
	
		<line clip-path="url(#SVGID_8_)" fill="none" stroke="#D0CEBC" stroke-width="3.552" x1="639.815" y1="-131.411" x2="1037.237" y2="185.393"/>
	
		<line clip-path="url(#SVGID_8_)" fill="none" stroke="#D0CEBC" stroke-width="3.552" x1="480.663" y1="68.242" x2="878.085" y2="385.046"/>
	
		<line clip-path="url(#SVGID_8_)" fill="none" stroke="#D0CEBC" stroke-width="3.552" x1="476.582" y1="73.361" x2="874.004" y2="390.165"/>
	
		<line clip-path="url(#SVGID_8_)" fill="none" stroke="#D0CEBC" stroke-width="3.552" x1="635.735" y1="-126.292" x2="1033.157" y2="190.512"/>
	
		<line clip-path="url(#SVGID_8_)" fill="none" stroke="#D0CEBC" stroke-width="3.552" x1="631.653" y1="-121.172" x2="1029.076" y2="195.632"/>
	
		<line clip-path="url(#SVGID_8_)" fill="none" stroke="#D0CEBC" stroke-width="3.552" x1="472.501" y1="78.48" x2="869.923" y2="395.284"/>
	
		<line clip-path="url(#SVGID_8_)" fill="none" stroke="#D0CEBC" stroke-width="3.552" x1="468.42" y1="83.6" x2="865.843" y2="400.404"/>
	
		<line clip-path="url(#SVGID_8_)" fill="none" stroke="#D0CEBC" stroke-width="3.552" x1="627.573" y1="-116.053" x2="1024.995" y2="200.751"/>
	
		<line clip-path="url(#SVGID_8_)" fill="none" stroke="#D0CEBC" stroke-width="3.552" x1="623.492" y1="-110.934" x2="1020.914" y2="205.87"/>
	
		<line clip-path="url(#SVGID_8_)" fill="none" stroke="#D0CEBC" stroke-width="3.552" x1="464.339" y1="88.719" x2="861.761" y2="405.523"/>
	
		<line clip-path="url(#SVGID_8_)" fill="none" stroke="#D0CEBC" stroke-width="3.552" x1="460.259" y1="93.838" x2="857.681" y2="410.643"/>
	
		<line clip-path="url(#SVGID_8_)" fill="none" stroke="#D0CEBC" stroke-width="3.552" x1="619.411" y1="-105.814" x2="1016.833" y2="210.989"/>
	
		<line clip-path="url(#SVGID_8_)" fill="none" stroke="#D0CEBC" stroke-width="3.552" x1="615.33" y1="-100.695" x2="1012.753" y2="216.109"/>
	
		<line clip-path="url(#SVGID_8_)" fill="none" stroke="#D0CEBC" stroke-width="3.552" x1="456.178" y1="98.958" x2="853.6" y2="415.762"/>
	
		<line clip-path="url(#SVGID_8_)" fill="none" stroke="#D0CEBC" stroke-width="3.552" x1="452.097" y1="104.077" x2="849.52" y2="420.881"/>
	
		<line clip-path="url(#SVGID_8_)" fill="none" stroke="#D0CEBC" stroke-width="3.552" x1="611.25" y1="-95.576" x2="1008.672" y2="221.228"/>
	
		<line clip-path="url(#SVGID_8_)" fill="none" stroke="#D0CEBC" stroke-width="3.552" x1="607.169" y1="-90.457" x2="1004.591" y2="226.347"/>
	
		<line clip-path="url(#SVGID_8_)" fill="none" stroke="#D0CEBC" stroke-width="3.552" x1="448.017" y1="109.196" x2="845.438" y2="426"/>
	
		<line clip-path="url(#SVGID_8_)" fill="none" stroke="#D0CEBC" stroke-width="3.552" x1="443.936" y1="114.315" x2="841.357" y2="431.119"/>
	
		<line clip-path="url(#SVGID_8_)" fill="none" stroke="#D0CEBC" stroke-width="3.552" x1="603.088" y1="-85.337" x2="1000.511" y2="231.467"/>
	
		<line clip-path="url(#SVGID_8_)" fill="none" stroke="#D0CEBC" stroke-width="3.552" x1="599.007" y1="-80.218" x2="996.429" y2="236.586"/>
	
		<line clip-path="url(#SVGID_8_)" fill="none" stroke="#D0CEBC" stroke-width="3.552" x1="439.854" y1="119.435" x2="837.276" y2="436.239"/>
	
		<line clip-path="url(#SVGID_8_)" fill="none" stroke="#D0CEBC" stroke-width="3.552" x1="435.773" y1="124.554" x2="833.195" y2="441.358"/>
	
		<line clip-path="url(#SVGID_8_)" fill="none" stroke="#D0CEBC" stroke-width="3.552" x1="594.926" y1="-75.098" x2="992.348" y2="241.706"/>
	
		<line clip-path="url(#SVGID_8_)" fill="none" stroke="#D0CEBC" stroke-width="3.552" x1="590.846" y1="-69.979" x2="988.268" y2="246.825"/>
	
		<line clip-path="url(#SVGID_8_)" fill="none" stroke="#D0CEBC" stroke-width="3.552" x1="431.692" y1="129.674" x2="829.115" y2="446.478"/>
	
		<line clip-path="url(#SVGID_8_)" fill="none" stroke="#D0CEBC" stroke-width="3.552" x1="427.611" y1="134.793" x2="825.033" y2="451.597"/>
	
		<line clip-path="url(#SVGID_8_)" fill="none" stroke="#D0CEBC" stroke-width="3.552" x1="586.765" y1="-64.86" x2="984.187" y2="251.944"/>
	
		<line clip-path="url(#SVGID_8_)" fill="none" stroke="#D0CEBC" stroke-width="3.552" x1="582.684" y1="-59.74" x2="980.105" y2="257.063"/>
	
		<line clip-path="url(#SVGID_8_)" fill="none" stroke="#D0CEBC" stroke-width="3.552" x1="423.531" y1="139.913" x2="820.953" y2="456.717"/>
	
		<line clip-path="url(#SVGID_8_)" fill="none" stroke="#D0CEBC" stroke-width="3.552" x1="419.45" y1="145.032" x2="816.872" y2="461.836"/>
	
		<line clip-path="url(#SVGID_8_)" fill="none" stroke="#D0CEBC" stroke-width="3.552" x1="578.603" y1="-54.621" x2="976.024" y2="262.183"/>
	
		<line clip-path="url(#SVGID_8_)" fill="none" stroke="#D0CEBC" stroke-width="3.552" x1="574.522" y1="-49.502" x2="971.944" y2="267.302"/>
	
		<line clip-path="url(#SVGID_8_)" fill="none" stroke="#D0CEBC" stroke-width="3.552" x1="415.369" y1="150.151" x2="812.791" y2="466.955"/>
	
		<line clip-path="url(#SVGID_8_)" fill="none" stroke="#D0CEBC" stroke-width="3.552" x1="411.289" y1="155.27" x2="808.711" y2="472.074"/>
	
		<line clip-path="url(#SVGID_8_)" fill="none" stroke="#D0CEBC" stroke-width="3.552" x1="570.441" y1="-44.383" x2="967.863" y2="272.421"/>
	
		<line clip-path="url(#SVGID_8_)" fill="none" stroke="#D0CEBC" stroke-width="3.552" x1="566.36" y1="-39.264" x2="963.782" y2="277.54"/>
	
		<line clip-path="url(#SVGID_8_)" fill="none" stroke="#D0CEBC" stroke-width="3.552" x1="407.208" y1="160.389" x2="804.63" y2="477.193"/>
	
		<line clip-path="url(#SVGID_8_)" fill="none" stroke="#D0CEBC" stroke-width="3.552" x1="403.127" y1="165.508" x2="800.549" y2="482.313"/>
	
		<line clip-path="url(#SVGID_8_)" fill="none" stroke="#D0CEBC" stroke-width="3.552" x1="562.28" y1="-34.145" x2="959.702" y2="282.66"/>
	
		<line clip-path="url(#SVGID_8_)" fill="none" stroke="#D0CEBC" stroke-width="3.552" x1="558.199" y1="-29.025" x2="955.621" y2="287.779"/>
	
		<line clip-path="url(#SVGID_8_)" fill="none" stroke="#D0CEBC" stroke-width="3.552" x1="399.046" y1="170.628" x2="796.468" y2="487.432"/>
	
		<line clip-path="url(#SVGID_8_)" fill="none" stroke="#D0CEBC" stroke-width="3.552" x1="394.965" y1="175.748" x2="792.388" y2="492.552"/>
	
		<line clip-path="url(#SVGID_8_)" fill="none" stroke="#D0CEBC" stroke-width="3.552" x1="554.118" y1="-23.906" x2="951.54" y2="292.898"/>
	
		<line clip-path="url(#SVGID_8_)" fill="none" stroke="#D0CEBC" stroke-width="3.552" x1="550.037" y1="-18.787" x2="947.459" y2="298.018"/>
	
		<line clip-path="url(#SVGID_8_)" fill="none" stroke="#D0CEBC" stroke-width="3.552" x1="390.884" y1="180.867" x2="788.307" y2="497.671"/>
	
		<line clip-path="url(#SVGID_8_)" fill="none" stroke="#D0CEBC" stroke-width="3.552" x1="386.804" y1="185.986" x2="784.226" y2="502.79"/>
	
		<line clip-path="url(#SVGID_8_)" fill="none" stroke="#D0CEBC" stroke-width="3.552" x1="545.956" y1="-13.667" x2="943.379" y2="303.137"/>
	
		<line clip-path="url(#SVGID_8_)" fill="none" stroke="#D0CEBC" stroke-width="3.552" x1="541.875" y1="-8.547" x2="939.298" y2="308.257"/>
	
		<line clip-path="url(#SVGID_8_)" fill="none" stroke="#D0CEBC" stroke-width="3.552" x1="382.723" y1="191.105" x2="780.145" y2="507.909"/>
	
		<line clip-path="url(#SVGID_8_)" fill="none" stroke="#D0CEBC" stroke-width="3.552" x1="378.642" y1="196.225" x2="776.063" y2="513.028"/>
	
		<line clip-path="url(#SVGID_8_)" fill="none" stroke="#D0CEBC" stroke-width="3.552" x1="537.794" y1="-3.428" x2="935.216" y2="313.376"/>
	
		<line clip-path="url(#SVGID_8_)" fill="none" stroke="#D0CEBC" stroke-width="3.552" x1="533.714" y1="1.691" x2="931.136" y2="318.495"/>
	
		<line clip-path="url(#SVGID_8_)" fill="none" stroke="#D0CEBC" stroke-width="3.552" x1="374.561" y1="201.344" x2="771.982" y2="518.148"/>
	
		<line clip-path="url(#SVGID_8_)" fill="none" stroke="#D0CEBC" stroke-width="3.552" x1="370.48" y1="206.463" x2="767.902" y2="523.267"/>
	
		<line clip-path="url(#SVGID_8_)" fill="none" stroke="#D0CEBC" stroke-width="3.552" x1="529.633" y1="6.811" x2="927.055" y2="323.614"/>
	
		<line clip-path="url(#SVGID_8_)" fill="none" stroke="#D0CEBC" stroke-width="3.552" x1="525.552" y1="11.93" x2="922.975" y2="328.733"/>
	
		<line clip-path="url(#SVGID_8_)" fill="none" stroke="#D0CEBC" stroke-width="3.552" x1="366.399" y1="211.583" x2="763.821" y2="528.387"/>
	
		<line clip-path="url(#SVGID_8_)" fill="none" stroke="#D0CEBC" stroke-width="3.552" x1="362.318" y1="216.702" x2="759.74" y2="533.506"/>
	
		<line clip-path="url(#SVGID_8_)" fill="none" stroke="#D0CEBC" stroke-width="3.552" x1="521.471" y1="17.049" x2="918.893" y2="333.853"/>
	
		<line clip-path="url(#SVGID_8_)" fill="none" stroke="#D0CEBC" stroke-width="3.552" x1="517.391" y1="22.168" x2="914.813" y2="338.972"/>
	
		<line clip-path="url(#SVGID_8_)" fill="none" stroke="#D0CEBC" stroke-width="3.552" x1="358.238" y1="221.821" x2="755.66" y2="538.625"/>
	
		<line clip-path="url(#SVGID_8_)" fill="none" stroke="#D0CEBC" stroke-width="3.552" x1="354.157" y1="226.94" x2="751.579" y2="543.744"/>
	
		<line clip-path="url(#SVGID_8_)" fill="none" stroke="#D0CEBC" stroke-width="3.552" x1="513.31" y1="27.288" x2="910.731" y2="344.092"/>
	
		<line clip-path="url(#SVGID_8_)" fill="none" stroke="#D0CEBC" stroke-width="3.552" x1="509.229" y1="32.407" x2="906.65" y2="349.211"/>
	
		<line clip-path="url(#SVGID_8_)" fill="none" stroke="#D0CEBC" stroke-width="3.552" x1="350.076" y1="232.06" x2="747.498" y2="548.863"/>
</g>
</svg>
