<?xml version="1.0" encoding="utf-8"?>
<!-- Generator: Adobe Illustrator 16.0.0, SVG Export Plug-In . SVG Version: 6.00 Build 0)  -->
<!DOCTYPE svg PUBLIC "-//W3C//DTD SVG 1.1//EN" "http://www.w3.org/Graphics/SVG/1.1/DTD/svg11.dtd">
<svg version="1.1" id="Layer_1" xmlns="http://www.w3.org/2000/svg" xmlns:xlink="http://www.w3.org/1999/xlink" x="0px" y="0px"
	 width="566.93px" height="198.425px" viewBox="0 0 566.93 198.425" enable-background="new 0 0 566.93 198.425"
	 xml:space="preserve">
<g>
	<defs>
		<rect id="SVGID_1_" width="566.93" height="198.425"/>
	</defs>
	<clipPath id="SVGID_2_">
		<use xlink:href="#SVGID_1_"  overflow="visible"/>
	</clipPath>
	<g clip-path="url(#SVGID_2_)">
		<defs>
			<rect id="SVGID_3_" width="566.93" height="198.425"/>
		</defs>
		<clipPath id="SVGID_4_">
			<use xlink:href="#SVGID_3_"  overflow="visible"/>
		</clipPath>
		<path clip-path="url(#SVGID_4_)" fill="#FFFFFF" d="M164.893,42.739c-17.178,0-32.553,7.682-42.903,19.784
			C111.641,50.421,96.272,42.74,79.1,42.74c-31.159,0-56.422,25.261-56.422,56.421s25.263,56.423,56.422,56.423
			c17.172,0,32.541-7.686,42.89-19.787c10.35,12.102,25.725,19.787,42.903,19.787c31.174,0,56.445-25.261,56.445-56.423
			C221.338,68.001,196.067,42.739,164.893,42.739 M79.098,128.546c-16.226,0-29.384-13.156-29.384-29.385
			c0-16.228,13.158-29.383,29.384-29.383c16.047,0,29.08,12.861,29.373,28.838c-0.004,0.182-0.015,0.36-0.015,0.545
			c0,0.184,0.011,0.361,0.015,0.546C108.178,115.682,95.145,128.546,79.098,128.546 M164.893,128.546
			c-16.047,0-29.082-12.856-29.381-28.825c0-0.186,0.013-0.372,0.013-0.56c0-0.19-0.013-0.374-0.013-0.561
			c0.299-15.967,13.334-28.824,29.381-28.824c16.232,0,29.395,13.157,29.395,29.385C194.288,115.39,181.125,128.546,164.893,128.546
			"/>
		<g clip-path="url(#SVGID_4_)">
			<g>
				<defs>
					<rect id="SVGID_5_" x="135.5" y="98.838" width="0.025" height="0.646"/>
				</defs>
				<clipPath id="SVGID_6_">
					<use xlink:href="#SVGID_5_"  overflow="visible"/>
				</clipPath>
				<path clip-path="url(#SVGID_6_)" fill="#045529" d="M135.517,99.484c0-0.108,0.008-0.214,0.008-0.323
					c0-0.108-0.008-0.214-0.008-0.322c-0.002,0.108-0.016,0.214-0.016,0.322C135.5,99.27,135.514,99.376,135.517,99.484"/>
			</g>
		</g>
		<g clip-path="url(#SVGID_4_)">
			<g>
				<defs>
					<rect id="SVGID_7_" x="22.678" y="42.74" width="99.314" height="112.844"/>
				</defs>
				<clipPath id="SVGID_8_">
					<use xlink:href="#SVGID_7_"  overflow="visible"/>
				</clipPath>
				<path clip-path="url(#SVGID_8_)" fill="#045529" d="M79.098,128.546c-16.226,0-29.385-13.156-29.385-29.385
					c0-16.228,13.159-29.383,29.385-29.383c16.11,0,29.177,12.968,29.367,29.032c0.085-13.851,5.165-26.511,13.526-36.287
					C111.643,50.421,96.273,42.74,79.1,42.74c-31.16,0-56.422,25.261-56.422,56.421S47.94,155.584,79.1,155.584
					c17.173,0,32.543-7.683,42.891-19.785c-8.361-9.776-13.441-22.436-13.526-36.286C108.275,115.578,95.208,128.546,79.098,128.546
					"/>
			</g>
		</g>
		<g clip-path="url(#SVGID_4_)">
			<g>
				<defs>
					<rect id="SVGID_9_" x="108.456" y="98.81" width="0.027" height="0.703"/>
				</defs>
				<clipPath id="SVGID_10_">
					<use xlink:href="#SVGID_9_"  overflow="visible"/>
				</clipPath>
				<path clip-path="url(#SVGID_10_)" fill="#026571" d="M108.465,99.513c0.001-0.118,0.017-0.233,0.017-0.351
					c0-0.119-0.016-0.233-0.017-0.352c-0.001,0.119-0.009,0.233-0.009,0.352C108.457,99.279,108.464,99.395,108.465,99.513"/>
			</g>
		</g>
		<g clip-path="url(#SVGID_4_)">
			<g>
				<defs>
					<rect id="SVGID_11_" x="121.992" y="42.739" width="99.346" height="112.845"/>
				</defs>
				<clipPath id="SVGID_12_">
					<use xlink:href="#SVGID_11_"  overflow="visible"/>
				</clipPath>
				<path clip-path="url(#SVGID_12_)" fill="#026571" d="M164.893,42.739c-17.176,0-32.551,7.681-42.902,19.784
					c8.366,9.783,13.448,22.452,13.525,36.316c0.176-16.079,13.251-29.064,29.377-29.064c16.232,0,29.395,13.158,29.395,29.386
					c0,16.228-13.163,29.385-29.395,29.385c-16.126,0-29.201-12.982-29.377-29.062c-0.077,13.862-5.159,26.533-13.525,36.314
					c10.351,12.103,25.724,19.784,42.902,19.784c31.174,0,56.445-25.26,56.445-56.422C221.338,68.001,196.067,42.739,164.893,42.739
					"/>
			</g>
		</g>
		<g clip-path="url(#SVGID_4_)">
			<g>
				<defs>
					<rect id="SVGID_13_" x="108.466" y="62.524" width="27.05" height="73.275"/>
				</defs>
				<clipPath id="SVGID_14_">
					<use xlink:href="#SVGID_13_"  overflow="visible"/>
				</clipPath>
				<path clip-path="url(#SVGID_14_)" fill="#14331C" d="M135.5,99.162c0-0.108,0.014-0.215,0.016-0.323
					c-0.077-13.863-5.159-26.532-13.525-36.315c-8.361,9.776-13.441,22.436-13.526,36.287c0.001,0.118,0.018,0.232,0.018,0.351
					c0,0.118-0.017,0.233-0.018,0.351c0.085,13.851,5.165,26.511,13.526,36.287c8.366-9.782,13.448-22.452,13.525-36.315
					C135.514,99.375,135.5,99.27,135.5,99.162"/>
			</g>
		</g>
		<polygon clip-path="url(#SVGID_4_)" fill="#FFFFFF" points="82.267,134.749 82.276,149.272 79.792,149.276 79.785,136.469 
			73.574,136.472 73.571,134.757 		"/>
		<path clip-path="url(#SVGID_4_)" fill="#FFFFFF" d="M60.515,129.794l-0.6,4.637l4.463,2.088l3.094-3.467l2.292,1.072
			l-10.556,11.102l-2.704-1.265l1.719-15.237L60.515,129.794z M58.824,142.527l0.164,0.078l4.242-4.751l-3.56-1.667L58.824,142.527z
			"/>
		<polygon clip-path="url(#SVGID_4_)" fill="#FFFFFF" points="49.175,118.772 44.095,131.254 53.296,123.981 54.693,125.751 
			43.297,134.761 41.434,132.406 46.279,120.57 37.54,127.477 36.125,125.688 47.524,116.676 		"/>
		<path clip-path="url(#SVGID_4_)" fill="#FFFFFF" d="M44.15,106.202l0.99,5.168l-14.263,2.737l-0.979-5.078
			c-0.919-4.792,1.763-7.123,5.757-7.889C39.672,100.368,43.239,101.478,44.15,106.202 M31.651,109.039l0.443,2.306l10.895-2.092
			l-0.48-2.482c-0.602-3.129-2.902-3.861-6.385-3.191C32.442,104.286,31.069,105.998,31.651,109.039"/>
		<path clip-path="url(#SVGID_4_)" fill="#FFFFFF" d="M44.545,90.378l-1.064,4.273l-14.094-3.507l1.048-4.209
			c0.715-2.873,2.247-3.979,4.526-3.412c1.449,0.359,2.317,1.832,2.309,2.973l0.089,0.021c0.687-1.738,2.337-2.747,4.241-2.274
			C44.322,84.921,45.245,87.571,44.545,90.378 M32.056,87.525l-0.402,1.621l4.187,1.042l0.376-1.513
			c0.355-1.421-0.327-2.339-1.704-2.682C33.239,85.68,32.362,86.296,32.056,87.525 M37.906,88.817l-0.443,1.775l4.955,1.235
			l0.429-1.733c0.421-1.688-0.074-2.974-1.871-3.422C39.332,86.263,38.288,87.284,37.906,88.817"/>
		<path clip-path="url(#SVGID_4_)" fill="#FFFFFF" d="M47.001,72.081l7.75,0.32l-1.798,2.322l-7.312-0.411l-0.844,1.09l4.77,3.694
			l-1.524,1.964l-11.479-8.895l3.154-4.07c1.922-2.483,4.023-2.798,6.131-1.166C47.651,68.328,47.851,70.282,47.001,72.081
			 M40.796,69.502l-1.356,1.75l4.073,3.154l1.246-1.606c1.037-1.339,0.927-2.822-0.501-3.93
			C43.008,67.901,41.821,68.182,40.796,69.502"/>
		<path clip-path="url(#SVGID_4_)" fill="#FFFFFF" d="M65.999,61.013c1.679,3.302-0.137,5.365-2.874,6.759
			c-2.739,1.391-5.454,1.631-7.133-1.669l-4.628-9.101l2.214-1.125l4.577,8.999c1.105,2.174,2.421,2.266,4.194,1.364
			c1.789-0.912,2.5-2.007,1.383-4.201l-4.576-9l2.212-1.127L65.999,61.013z"/>
		<path clip-path="url(#SVGID_4_)" fill="#FFFFFF" d="M84.413,51.178c-0.972-0.404-2.825-0.808-4.067-0.806
			c-3.296,0.002-4.922,1.585-4.916,5.766c0.004,3.729,1.295,6.099,4.726,6.094c0.589,0,1.628-0.138,2.104-0.229l-0.008-6.347
			l2.414-0.005l0.013,7.546c-1.355,0.408-3.028,0.771-4.858,0.776c-4.698,0.003-6.871-2.75-6.875-7.832
			c-0.008-4.675,2.022-7.503,7.421-7.507c1.264-0.002,3.119,0.266,4.042,0.558L84.413,51.178z"/>
		<polygon clip-path="url(#SVGID_4_)" fill="#FFFFFF" points="162.732,50.792 162.76,55.288 168.022,55.259 168.03,56.977 
			162.769,57.004 162.801,63.6 160.318,63.612 160.24,49.088 169.278,49.04 169.286,50.757 		"/>
		<path clip-path="url(#SVGID_4_)" fill="#FFFFFF" d="M173.909,56.747c1.949-5.156,4.563-6.439,8.81-4.833
			c4.226,1.601,5.333,4.288,3.384,9.444c-1.944,5.132-4.503,6.533-8.811,4.9C172.957,64.621,171.969,61.879,173.909,56.747
			 M175.392,61.123l9.02-5.523c-0.323-0.991-1.097-1.624-2.302-2.079c-2.62-0.991-4.298-0.057-5.876,4.105
			C175.694,59.041,175.408,60.187,175.392,61.123 M183.779,60.48c0.47-1.25,0.731-2.261,0.797-3.13l-8.951,5.453
			c0.38,0.847,1.152,1.427,2.273,1.851C180.523,65.645,182.204,64.64,183.779,60.48"/>
		<path clip-path="url(#SVGID_4_)" fill="#FFFFFF" d="M190.613,74.621l-3.603-3.839l10.597-9.938l3.54,3.775
			c3.344,3.557,2.318,6.96-0.648,9.742C197.517,77.159,193.908,78.129,190.613,74.621 M199.662,65.545l-1.609-1.715l-8.089,7.591
			l1.732,1.842c2.179,2.323,4.518,1.711,7.104-0.717C201.535,69.983,201.778,67.804,199.662,65.545"/>
		<polygon clip-path="url(#SVGID_4_)" fill="#FFFFFF" points="196.9,83.203 210.528,78.156 213.559,86.334 211.948,86.931 
			209.781,81.083 205.775,82.566 207.485,87.186 205.873,87.782 204.164,83.161 199.371,84.937 201.608,90.974 200.001,91.572 		"/>
		<polygon clip-path="url(#SVGID_4_)" fill="#FFFFFF" points="200.414,101.365 200.466,98.385 215.087,93.744 215.042,96.299 
			202.538,99.98 214.903,103.931 214.858,106.463 		"/>
		<path clip-path="url(#SVGID_4_)" fill="#FFFFFF" d="M196.435,116.043l4.661,0.352l1.847-4.567l-3.628-2.902l0.944-2.347
			l11.657,9.943l-1.115,2.766l-15.314-0.895L196.435,116.043z M209.237,117.05l0.069-0.168l-4.971-3.979l-1.475,3.644
			L209.237,117.05z"/>
		<path clip-path="url(#SVGID_4_)" fill="#FFFFFF" d="M193.026,130.272l-7.646-1.34l2.088-2.067l7.2,1.368l0.982-0.966l-4.244-4.291
			l1.771-1.745l10.207,10.332l-3.656,3.619c-2.239,2.206-4.359,2.242-6.237,0.343C191.884,133.908,191.945,131.942,193.026,130.272
			 M198.837,133.645l1.577-1.558l-3.624-3.664l-1.446,1.431c-1.203,1.19-1.293,2.676-0.02,3.963
			C196.435,134.939,197.652,134.818,198.837,133.645"/>
		<polygon clip-path="url(#SVGID_4_)" fill="#FFFFFF" points="182.179,130.517 187.814,143.906 179.771,147.286 179.105,145.706 
			184.857,143.285 183.196,139.353 178.66,141.261 177.994,139.68 182.534,137.768 180.555,133.062 174.615,135.562 
			173.949,133.979 		"/>
		<path clip-path="url(#SVGID_4_)" fill="#FFFFFF" d="M163.839,141.104l-4.529-6.301l2.935-0.018l4.192,6.013l1.376-0.006
			l-0.028-6.034l2.482-0.014l0.081,14.523l-5.153,0.029c-3.142,0.016-4.686-1.442-4.698-4.108
			C160.484,142.907,161.902,141.543,163.839,141.104 M165.639,147.576l2.212-0.01l-0.028-5.149l-2.029,0.009
			c-1.697,0.008-2.8,1.013-2.788,2.813C163.014,146.822,163.965,147.585,165.639,147.576"/>
		<path clip-path="url(#SVGID_4_)" fill="#045529" d="M240.754,133.548v-15.041c8.283,3.053,13.733,5.015,20.164,5.015
			c5.994,0,10.354-2.507,10.354-8.066c0-13.079-31.063-8.828-31.063-32.043c0-12.753,10.136-21.254,28.883-21.254
			c6.431,0,10.791,0.654,17.875,2.616v13.842c-6.758-3.27-11.335-4.469-17.766-4.469c-5.341,0-9.592,2.507-9.592,6.649
			c0,11.553,31.609,8.61,31.609,32.915c0,15.587-12.861,22.453-29.537,22.453C255.795,136.164,247.838,135.292,240.754,133.548"/>
		<polygon clip-path="url(#SVGID_4_)" fill="#045529" points="299.548,136.164 299.548,62.158 347.178,62.158 347.178,75.509 
			318.84,75.509 318.84,91.163 341.184,91.163 341.184,104.514 318.84,104.514 318.84,122.813 348.268,122.813 348.268,136.164 		
			"/>
		<path clip-path="url(#SVGID_4_)" fill="#045529" d="M351.431,98.562c0-21.036,10.027-36.404,40.437-36.404
			c5.886,0,16.131,1.635,23.324,2.943v12.97c-5.776-1.307-16.349-3.269-22.889-3.269c-14.822,0-20.708,5.994-20.708,23.76
			c0,16.676,4.25,24.958,18.093,24.958c2.615,0,6.213-0.763,7.303-1.197V94.965h18.201v35.968
			c-7.521,2.398-17.111,5.232-27.684,5.232C360.804,136.165,351.431,120.906,351.431,98.562"/>
		<polygon clip-path="url(#SVGID_4_)" fill="#045529" points="424.742,136.164 424.742,62.158 472.372,62.158 472.372,75.509 
			444.033,75.509 444.033,91.163 466.378,91.163 466.378,104.514 444.033,104.514 444.033,122.813 473.462,122.813 473.462,136.164 
					"/>
		<path clip-path="url(#SVGID_4_)" fill="#045529" d="M480.767,133.548v-15.041c8.283,3.053,13.733,5.015,20.164,5.015
			c5.994,0,10.354-2.507,10.354-8.066c0-13.079-31.063-8.828-31.063-32.043c0-12.753,10.136-21.254,28.883-21.254
			c6.432,0,10.791,0.654,17.875,2.616v13.842c-6.758-3.27-11.335-4.469-17.766-4.469c-5.341,0-9.592,2.507-9.592,6.649
			c0,11.553,31.608,8.61,31.608,32.915c0,15.587-12.86,22.453-29.537,22.453C495.808,136.164,487.851,135.292,480.767,133.548"/>
	</g>
</g>
</svg>
