<?xml version="1.0" encoding="UTF-8" standalone="no"?>
<!-- Created with Inkscape (http://www.inkscape.org/) -->
<svg id="svg43846" xmlns:rdf="http://www.w3.org/1999/02/22-rdf-syntax-ns#" xmlns="http://www.w3.org/2000/svg" height="25.753mm" width="103.37mm" version="1.1" xmlns:cc="http://creativecommons.org/ns#" xmlns:dc="http://purl.org/dc/elements/1.1/" viewBox="0 0 366.2722 91.250513">
 <metadata id="metadata43851">
  <rdf:RDF>
   <cc:Work rdf:about="">
    <dc:format>image/svg+xml</dc:format>
    <dc:type rdf:resource="http://purl.org/dc/dcmitype/StillImage"/>
    <dc:title/>
   </cc:Work>
  </rdf:RDF>
 </metadata>
 <g id="layer1" transform="translate(-122.76 -441.31)">
  <path id="path43835" d="m376.11 524.74c3.2829-4.2969 11.191-14.41 17.573-22.474 6.3822-8.0636 11.604-15.04 11.604-15.504 0-0.46349-5.0783-7.5018-11.285-15.641-6.2068-8.1389-11.611-15.647-12.009-16.684-0.59011-1.5378 0.51213-1.8823 5.9726-1.8667 3.6829 0.0105 7.2811 0.4324 7.9959 0.9375 0.71481 0.5051 6.5148 8.0788 12.889 16.83 7.8518 10.781 7.6636 10.651 11.712 16.474 0.62101 0.8932-9.4628 12.487-18.4 24.283l-16.25 21.448-7.8856 0.004-7.8856 0.004 5.969-7.8125zm-246.76-6.5367c-1.5469-1.1234-2.8125-3.2045-2.8125-4.6247 0-2.1717-0.30283-2.3308-1.9052-1.001-2.7336 2.2687-2.2502-4.3789 0.0587-7.8446 8.9216-13.391 13.319-18.395 23.709-23.424 13.564-6.5663 23.814 0.23871 17.207 11.424-2.6037 4.4077-9.2715 8.47-20.32 12.38-9.8508 3.486-9.4628 3.2006-7.5251 5.5354 2.316 2.7906 8.4776 2.3102 16.144-1.2587 3.7093-1.7267 6.9594-2.9242 7.2225-2.6612 1.6157 1.6157-2.7246 7.3475-7.3538 9.7112-7.1626 3.6574-20.493 4.6204-24.425 1.7646zm17.19-20.652c8.0132-4.088 13.15-11.249 8.0694-11.249-2.0541 0-14.321 10.854-14.321 12.671 0 1.5503 0.76827 1.3755 6.2521-1.4221zm23.839 19.208c-1.4249-1.8115-2.5907-4.9239-2.5907-6.9166 0-8.6718 10.978-22.662 22.326-28.451 5.7617-2.9394 14.18-3.4039 16.665-0.9195 1.3924 1.3924 2.5994-0.5884 7.2768-11.941l5.6075-13.611 4.375 0.78872c2.4062 0.4338 4.7731 1.1712 5.2596 1.6386 0.48653 0.46742-2.789 8.4393-7.2789 17.715-13.277 27.43-16.897 36.24-14.889 36.24 0.32536 0 3.1255-1.2311 6.2226-2.7358 6.4924-3.1542 7.8438-2.6024 5.487 2.2404-2.0597 4.2323-11.223 9.2454-16.9 9.2454-5.3086 0-7.8268-4.208-5.3286-8.9044 1.2249-2.3027 0.39599-1.9042-3.6867 1.7727-9.0312 8.1333-17.97 9.655-22.546 3.8381zm23.586-12.683c7.7384-7.7384 11.923-14.409 10.828-17.261-2.896-7.5469-24.505 10.929-24.505 20.952 0 2.9673 0.51844 3.5357 3.225 3.5357 2.2614 0 5.3841-2.1591 10.451-7.2264zm31.772 14.092c-1.6534-4.3087 1.8233-13.163 13.827-35.212l3.5229-6.4712 4.1461 1.9771 4.1461 1.9771-6.9396 12.995c-9.7232 18.208-7.6616 18.706 8.4542 2.044 5.2139-5.3907 10.05-10.844 10.748-12.119 1.2015-2.1964 1.478-2.2091 5.2816-0.2422l4.0138 2.0756-6.3857 11.951c-3.5121 6.5732-6.0696 12.267-5.6832 12.654 0.38638 0.3864 2.6833-0.24203 5.1042-1.3965 6.1275-2.922 6.8895-2.6803 5.3623 1.7007-1.5371 4.4093-11.132 9.9503-17.23 9.9503-5.4162 0-6.4882-4.9544-2.5554-11.81l2.9053-5.0647-7.8852 7.286c-4.3369 4.0073-9.2482 7.8042-10.914 8.4375-4.5409 1.7264-9.1032 1.3893-9.9176-0.73287zm53.302-31.866v-33.75l6.5625 0.003 6.5625 0.003 13.125 20.229 13.125 20.229 0.34347-20.232 0.34346-20.232h6.844 6.844v33.75 33.75h-6.6983-6.6983l-12.989-20.545-12.989-20.545-0.34272 20.545-0.34273 20.545h-6.8448-6.8448v-33.75zm63.75-0.0334v-33.783l18.438 0.34592 18.438 0.34591 0.37783 6.5625 0.37782 6.5625h-11.315-11.315v6.875 6.875h9.375 9.375v6.25 6.25h-9.375-9.375v7.5 7.5h12.5c6.875 0 12.5 0.32993 12.5 0.73315 0 0.40324-1.7828 3.2157-3.9619 6.25l-3.9619 5.5168h-16.038-16.038zm89.244 32.928c-1.3344-1.5905-6.2625-8.2817-9.2192-12.574l-5.3758-7.8045 3.4553-4.9861c1.9004-2.7423 3.8894-4.7178 4.4198-4.39 0.53048 0.32786 6.0733 7.3492 12.317 15.603l11.353 15.007h-7.8793c-9.5592 0-7.7856 0.67686-9.0711-0.85533zm30.756-25.963v-26.818l-8.0762-0.36962-8.0762-0.36961 5.1203-6.5625 5.1203-6.5625h16.081 16.081v6.875 6.875h-6.25-6.25v26.875 26.875h-6.875-6.875zm-41.517-13.187-3.3923-4.9019 6.9954-9.1094c3.8475-5.0102 9.5862-12.625 12.753-16.922l5.7572-7.8125h7.8272c4.3049 0 7.8272 0.28735 7.8272 0.63856 0 0.92356-32.592 42.436-33.561 42.748-0.44744 0.14368-2.34-1.9446-4.2058-4.6406z" fill="#fff"/>
 </g>
</svg>
