<?xml version="1.0" encoding="UTF-8" standalone="no"?>
<!-- Created with Inkscape (http://www.inkscape.org/) -->

<svg
   xmlns:dc="http://purl.org/dc/elements/1.1/"
   xmlns:cc="http://creativecommons.org/ns#"
   xmlns:rdf="http://www.w3.org/1999/02/22-rdf-syntax-ns#"
   xmlns:svg="http://www.w3.org/2000/svg"
   xmlns="http://www.w3.org/2000/svg"
   xmlns:sodipodi="http://sodipodi.sourceforge.net/DTD/sodipodi-0.dtd"
   xmlns:inkscape="http://www.inkscape.org/namespaces/inkscape"
   width="9.4381847mm"
   height="9.4375229mm"
   viewBox="0 0 33.442387 33.440042"
   id="svg24101"
   version="1.1"
   inkscape:version="0.91 r"
   sodipodi:docname="facebook.svg">
  <defs
     id="defs24103" />
  <sodipodi:namedview
     id="base"
     pagecolor="#ffffff"
     bordercolor="#666666"
     borderopacity="1.0"
     inkscape:pageopacity="0.0"
     inkscape:pageshadow="2"
     inkscape:zoom="0.35"
     inkscape:cx="-215.42166"
     inkscape:cy="79.577168"
     inkscape:document-units="px"
     inkscape:current-layer="layer1"
     showgrid="false"
     fit-margin-top="0"
     fit-margin-left="0"
     fit-margin-right="0"
     fit-margin-bottom="0"
     inkscape:window-width="1861"
     inkscape:window-height="1056"
     inkscape:window-x="59"
     inkscape:window-y="24"
     inkscape:window-maximized="1" />
  <metadata
     id="metadata24106">
    <rdf:RDF>
      <cc:Work
         rdf:about="">
        <dc:format>image/svg+xml</dc:format>
        <dc:type
           rdf:resource="http://purl.org/dc/dcmitype/StillImage" />
        <dc:title></dc:title>
      </cc:Work>
    </rdf:RDF>
  </metadata>
  <g
     inkscape:label="Layer 1"
     inkscape:groupmode="layer"
     id="layer1"
     transform="translate(108.14977,-578.49933)">
    <g
       id="g3152"
       transform="matrix(1.25,0,0,-1.25,-86.756071,585.60185)">
      <path
         d="m 0,0 c -0.119,-0.775 -0.238,-1.549 -0.357,-2.321 -0.004,-0.027 -0.012,-0.053 -0.014,-0.067 -0.184,0.035 -0.358,0.081 -0.533,0.099 -0.453,0.045 -0.907,0.091 -1.354,-0.013 C -2.51,-2.364 -2.729,-2.486 -2.836,-2.741 -2.873,-2.83 -2.918,-2.936 -2.918,-3.032 -2.912,-3.63 -2.92,-4.229 -2.91,-4.827 l 0,-0.146 c 0.959,0.016 1.803,0.03 2.689,0.047 -0.008,-10e-4 -0.009,-0.153 -0.017,-0.24 -0.037,-0.401 -0.073,-0.788 -0.108,-1.188 -0.019,-0.259 -0.041,-0.553 -0.06,-0.814 -0.01,-0.119 -0.006,-0.149 -0.129,-0.153 -0.752,-0.013 -1.498,-0.027 -2.244,-0.038 -0.102,-0.001 -0.09,0.076 -0.088,-0.026 0.047,-2.723 0.092,-5.449 0.14,-8.171 0,-0.025 -0.007,-0.05 -0.005,-0.075 0.007,-0.052 -0.02,-0.067 -0.071,-0.067 -1.006,-0.017 -2.021,-0.033 -3.031,-0.052 -0.08,-0.002 -0.076,0.046 -0.078,0.094 -0.025,1.502 -0.051,3.004 -0.076,4.508 -0.02,1.218 -0.041,2.437 -0.063,3.655 -0.002,0.029 -0.002,0.057 -0.002,0.095 0.002,0.002 -0.06,0.003 -0.093,0.003 -0.459,-0.006 -0.924,-0.015 -1.387,-0.023 -0.106,-0.002 -0.112,-0.002 -0.112,0.097 -0.013,0.743 -0.027,1.485 -0.041,2.227 0.002,0.096 0.01,0.097 0.108,0.098 0.482,0.008 0.969,0.018 1.451,0.023 0.072,0 0.09,0.025 0.09,0.093 -0.016,0.679 -0.027,1.359 -0.035,2.038 -0.004,0.488 0.072,0.962 0.267,1.412 0.194,0.456 0.477,0.844 0.856,1.172 0.33,0.291 0.722,0.426 1.142,0.501 0.623,0.116 1.248,0.114 1.877,0.082 C -1.311,0.294 -0.695,0.22 -0.084,0.118 0.016,0.102 0.016,0.104 0,0 m -3.965,5.68 c -7.39,-0.125 -13.273,-6.217 -13.148,-13.603 0.127,-7.388 6.218,-13.272 13.603,-13.145 7.385,0.126 13.272,6.215 13.147,13.601 C 9.512,-0.08 3.42,5.807 -3.965,5.68"
         style="fill:#ffffff;fill-opacity:1;fill-rule:nonzero;stroke:none"
         id="path3154"
         inkscape:connector-curvature="0" />
    </g>
  </g>
</svg>
