<?xml version="1.0" encoding="UTF-8" standalone="no"?>
<!-- Created with Inkscape (http://www.inkscape.org/) -->

<svg
   xmlns:dc="http://purl.org/dc/elements/1.1/"
   xmlns:cc="http://creativecommons.org/ns#"
   xmlns:rdf="http://www.w3.org/1999/02/22-rdf-syntax-ns#"
   xmlns:svg="http://www.w3.org/2000/svg"
   xmlns="http://www.w3.org/2000/svg"
   xmlns:sodipodi="http://sodipodi.sourceforge.net/DTD/sodipodi-0.dtd"
   xmlns:inkscape="http://www.inkscape.org/namespaces/inkscape"
   width="9.6370897mm"
   height="13.21098mm"
   viewBox="0 0 34.147168 46.81056"
   id="svg31632"
   version="1.1"
   inkscape:version="0.91 r"
   sodipodi:docname="gears-icon.svg">
  <defs
     id="defs31634" />
  <sodipodi:namedview
     id="base"
     pagecolor="#ffffff"
     bordercolor="#666666"
     borderopacity="1.0"
     inkscape:pageopacity="0.0"
     inkscape:pageshadow="2"
     inkscape:zoom="0.35"
     inkscape:cx="17.073589"
     inkscape:cy="23.405284"
     inkscape:document-units="px"
     inkscape:current-layer="layer1"
     showgrid="false"
     fit-margin-top="0"
     fit-margin-left="0"
     fit-margin-right="0"
     fit-margin-bottom="0"
     inkscape:window-width="1861"
     inkscape:window-height="1056"
     inkscape:window-x="1979"
     inkscape:window-y="24"
     inkscape:window-maximized="1" />
  <metadata
     id="metadata31637">
    <rdf:RDF>
      <cc:Work
         rdf:about="">
        <dc:format>image/svg+xml</dc:format>
        <dc:type
           rdf:resource="http://purl.org/dc/dcmitype/StillImage" />
        <dc:title></dc:title>
      </cc:Work>
    </rdf:RDF>
  </metadata>
  <g
     inkscape:label="Layer 1"
     inkscape:groupmode="layer"
     id="layer1"
     transform="translate(340.64502,-508.95693)">
    <g
       id="g3040"
       transform="matrix(1.25,0,0,-1.25,-327.63786,545.7332)">
      <path
         d="M 0,0 C -1.226,0.186 -2.107,0.738 -2.187,2.016 -2.275,3.412 -1.425,4.25 -0.136,4.318 1.06,4.385 1.926,3.621 2.004,2.365 2.086,0.996 1.27,0.256 0,0 M 9.16,3.518 C 6.782,4.232 6.297,5.766 7.42,7.889 7.713,8.443 7.883,8.908 7.363,9.441 6.809,10.012 6.282,10.07 5.59,9.699 3.476,8.559 1.976,9.053 1.248,11.432 1.034,12.141 0.65,12.551 -0.173,12.525 -0.885,12.5 -1.156,12.164 -1.361,11.525 -2.124,9.121 -3.621,8.455 -5.875,9.742 -6.441,10.063 -6.907,9.996 -7.437,9.533 -8.111,8.939 -7.897,8.385 -7.572,7.791 -6.459,5.746 -7.02,4.314 -9.181,3.559 -9.875,3.316 -10.388,3.055 -10.405,2.238 c -0.021,-0.804 0.415,-1.16 1.133,-1.39 2.162,-0.703 2.867,-2.045 1.743,-4.161 -0.306,-0.585 -0.534,-1.199 0.064,-1.812 0.589,-0.607 1.202,-0.5 1.807,-0.16 2.078,1.172 3.423,0.482 4.194,-1.631 0.241,-0.668 0.494,-1.15 1.363,-1.109 0.816,0.033 1.157,0.412 1.401,1.121 0.751,2.164 2.134,2.781 4.195,1.619 0.21,-0.121 0.457,-0.186 0.839,-0.328 1.145,0.322 1.771,0.91 1.029,2.265 C 6.227,-1.283 6.877,0.1 9.044,0.836 9.702,1.059 10.274,1.248 10.27,2.129 10.261,2.934 9.907,3.293 9.16,3.518"
         style="fill:#ffffff;fill-opacity:1;fill-rule:evenodd;stroke:none"
         id="path3042"
         inkscape:connector-curvature="0" />
    </g>
    <g
       id="g3044"
       transform="matrix(1.25,0,0,-1.25,-318.43249,523.7777)">
      <path
         d="M 0,0 C -1.251,-0.029 -2.199,0.703 -2.163,2.154 -2.124,3.568 -1.259,4.309 0.065,4.238 1.284,4.181 1.974,3.375 1.979,1.686 1.993,0.757 1.123,0.027 0,0 M 9.161,-0.412 C 7.021,1.291 7.151,2.802 9.083,4.714 9.896,5.523 9.743,6.989 7.813,6.856 5.653,6.708 4.548,7.726 4.632,9.926 4.662,10.7 4.714,11.436 3.786,11.766 2.86,12.097 2.449,11.426 1.938,10.881 0.53,9.376 -0.859,9.302 -2.199,10.983 c -0.483,0.611 -1.019,1.136 -1.898,0.731 -0.735,-0.34 -0.818,-0.987 -0.756,-1.68 0.209,-2.377 -1.002,-3.287 -3.235,-3.19 -0.655,0.033 -1.24,0.094 -1.602,-0.763 -0.366,-0.857 0.065,-1.21 0.58,-1.654 1.728,-1.492 1.958,-3 0.039,-4.531 -0.542,-0.431 -0.907,-0.857 -0.637,-1.683 0.291,-0.875 0.888,-0.893 1.557,-0.84 2.238,0.172 3.406,-0.766 3.304,-3.092 -0.033,-0.775 0.053,-1.492 0.943,-1.822 0.843,-0.314 1.198,0.277 1.633,0.775 1.467,1.69 2.937,1.639 4.389,-0.017 0.443,-0.506 0.821,-1.063 1.645,-0.742 0.755,0.298 0.904,0.869 0.86,1.597 -0.147,2.438 1.031,3.514 3.44,3.295 0.933,-0.08 1.439,0.278 1.233,1.809 0.05,-0.199 0.073,0.25 -0.135,0.412"
         style="fill:#ffffff;fill-opacity:1;fill-rule:evenodd;stroke:none"
         id="path3046"
         inkscape:connector-curvature="0" />
    </g>
  </g>
</svg>
