<?xml version="1.0" encoding="UTF-8" standalone="no"?>
<!-- Created with Inkscape (http://www.inkscape.org/) -->

<svg
   xmlns:dc="http://purl.org/dc/elements/1.1/"
   xmlns:cc="http://creativecommons.org/ns#"
   xmlns:rdf="http://www.w3.org/1999/02/22-rdf-syntax-ns#"
   xmlns:svg="http://www.w3.org/2000/svg"
   xmlns="http://www.w3.org/2000/svg"
   xmlns:sodipodi="http://sodipodi.sourceforge.net/DTD/sodipodi-0.dtd"
   xmlns:inkscape="http://www.inkscape.org/namespaces/inkscape"
   width="10.474916mm"
   height="9.7801657mm"
   viewBox="0 0 37.115842 34.65413"
   id="svg28618"
   version="1.1"
   inkscape:version="0.91 r"
   sodipodi:docname="heart-icon.svg">
  <defs
     id="defs28620" />
  <sodipodi:namedview
     id="base"
     pagecolor="#ffffff"
     bordercolor="#666666"
     borderopacity="1.0"
     inkscape:pageopacity="0.0"
     inkscape:pageshadow="2"
     inkscape:zoom="0.35"
     inkscape:cx="249.27221"
     inkscape:cy="-319.81579"
     inkscape:document-units="px"
     inkscape:current-layer="layer1"
     showgrid="false"
     fit-margin-top="0"
     fit-margin-left="0"
     fit-margin-right="0"
     fit-margin-bottom="0"
     inkscape:window-width="1861"
     inkscape:window-height="1056"
     inkscape:window-x="59"
     inkscape:window-y="24"
     inkscape:window-maximized="1" />
  <metadata
     id="metadata28623">
    <rdf:RDF>
      <cc:Work
         rdf:about="">
        <dc:format>image/svg+xml</dc:format>
        <dc:type
           rdf:resource="http://purl.org/dc/dcmitype/StillImage" />
        <dc:title></dc:title>
      </cc:Work>
    </rdf:RDF>
  </metadata>
  <g
     inkscape:label="Layer 1"
     inkscape:groupmode="layer"
     id="layer1"
     transform="translate(572.84364,-177.89229)">
    <g
       id="g2960"
       transform="matrix(1.25,0,0,-1.25,-556.42502,207.2674)">
      <path
         d="m 0,0 c -3.895,2.68 -7.707,4.506 -10.221,8.021 -1.646,2.301 -2.996,4.697 -2.91,7.632 0.093,3.162 1.481,5.669 4.267,7.153 2.552,1.361 5.04,0.563 7.208,-1.033 1.121,-0.83 1.801,-0.907 2.996,-0.017 2.906,2.159 5.974,2.197 8.289,0.431 2.588,-1.978 3.912,-5.998 2.96,-8.999 C 12.318,12.337 8.592,10.572 7.752,11.028 4.897,12.571 2.276,12.537 0.055,9.965 -2.221,7.333 -2.254,4.447 -0.664,1.455 -0.51,1.162 -0.386,0.854 0,0"
         style="fill:#ffffff;fill-opacity:1;fill-rule:evenodd;stroke:none"
         id="path2962"
         inkscape:connector-curvature="0" />
    </g>
    <g
       id="g2964"
       transform="matrix(1.25,0,0,-1.25,-535.77564,200.37765)">
      <path
         d="m 0,0 c 0.115,-3.596 -1.907,-5.717 -4.249,-7.512 -3.89,-2.985 -4.119,-2.937 -8.034,-0.018 -1.87,1.396 -3.33,3.135 -4.081,5.398 -0.782,2.366 -0.173,4.78 1.629,6.23 1.89,1.522 3.768,1.021 5.565,-0.165 0.65,-0.429 1.076,-0.589 1.794,-0.056 1.528,1.135 3.251,1.674 5.038,0.586 C -0.588,3.398 0.231,1.796 0,0"
         style="fill:#ffffff;fill-opacity:1;fill-rule:evenodd;stroke:none"
         id="path2966"
         inkscape:connector-curvature="0" />
    </g>
  </g>
</svg>
