<?xml version="1.0" encoding="UTF-8" standalone="no"?>
<!-- Created with Inkscape (http://www.inkscape.org/) -->

<svg
   xmlns:dc="http://purl.org/dc/elements/1.1/"
   xmlns:cc="http://creativecommons.org/ns#"
   xmlns:rdf="http://www.w3.org/1999/02/22-rdf-syntax-ns#"
   xmlns:svg="http://www.w3.org/2000/svg"
   xmlns="http://www.w3.org/2000/svg"
   xmlns:sodipodi="http://sodipodi.sourceforge.net/DTD/sodipodi-0.dtd"
   xmlns:inkscape="http://www.inkscape.org/namespaces/inkscape"
   width="9.4384699mm"
   height="9.4381218mm"
   viewBox="0 0 33.443397 33.442164"
   id="svg25307"
   version="1.1"
   inkscape:version="0.91 r"
   sodipodi:docname="instagram.svg">
  <defs
     id="defs25309" />
  <sodipodi:namedview
     id="base"
     pagecolor="#ffffff"
     bordercolor="#666666"
     borderopacity="1.0"
     inkscape:pageopacity="0.0"
     inkscape:pageshadow="2"
     inkscape:zoom="0.35"
     inkscape:cx="-1518.2783"
     inkscape:cy="416.72108"
     inkscape:document-units="px"
     inkscape:current-layer="layer1"
     showgrid="false"
     fit-margin-top="0"
     fit-margin-left="0"
     fit-margin-right="0"
     fit-margin-bottom="0"
     inkscape:window-width="1861"
     inkscape:window-height="1056"
     inkscape:window-x="59"
     inkscape:window-y="24"
     inkscape:window-maximized="1" />
  <metadata
     id="metadata25312">
    <rdf:RDF>
      <cc:Work
         rdf:about="">
        <dc:format>image/svg+xml</dc:format>
        <dc:type
           rdf:resource="http://purl.org/dc/dcmitype/StillImage" />
        <dc:title></dc:title>
      </cc:Work>
    </rdf:RDF>
  </metadata>
  <g
     inkscape:label="Layer 1"
     inkscape:groupmode="layer"
     id="layer1"
     transform="translate(-1194.7069,-915.64113)">
    <g
       id="g3180"
       transform="matrix(1.25,0,0,-1.25,1216.2018,932.9861)">
      <path
         d="m 0,0 c -0.016,-2.103 -1.744,-3.781 -3.852,-3.767 -2.107,0.016 -3.81,1.713 -3.794,3.814 0.003,0.579 0.14,1.118 0.376,1.594 l -3.15,0.021 -0.039,-5.162 c -0.008,-1.393 1.084,-2.489 2.482,-2.499 l 8.055,-0.06 c 1.397,-0.008 2.512,1.07 2.524,2.461 L 2.639,1.566 -0.354,1.589 C -0.123,1.11 0.002,0.578 0,0"
         style="fill:#ffffff;fill-opacity:1;fill-rule:nonzero;stroke:none"
         id="path3182"
         inkscape:connector-curvature="0" />
    </g>
    <g
       id="g3184"
       transform="matrix(1.25,0,0,-1.25,1213.4064,932.9288)">
      <path
         d="M 0,0 C 0.006,0.873 -0.701,1.59 -1.576,1.595 -2.449,1.602 -3.168,0.896 -3.174,0.025 -3.182,-0.847 -2.473,-1.562 -1.6,-1.568 -0.725,-1.575 -0.006,-0.871 0,0"
         style="fill:#ffffff;fill-opacity:1;fill-rule:nonzero;stroke:none"
         id="path3186"
         inkscape:connector-curvature="0" />
    </g>
    <g
       id="g3188"
       transform="matrix(1.25,0,0,-1.25,1221.4436,937.4966)">
      <path
         d="m 0,0 c -0.018,-2.212 -1.906,-4.059 -4.127,-4.041 l -8.057,0.058 c -2.216,0.017 -4.076,1.891 -4.06,4.1 l 0.06,8.097 c 0.014,2.212 1.901,4.061 4.12,4.047 l 8.054,-0.06 C -1.789,12.184 0.074,10.306 0.059,8.094 L 0,0 Z m -7.914,17.484 c -7.387,0.055 -13.42,-5.891 -13.475,-13.278 -0.054,-7.387 5.891,-13.421 13.28,-13.475 7.384,-0.053 13.42,5.892 13.474,13.28 0.053,7.387 -5.892,13.419 -13.279,13.473"
         style="fill:#ffffff;fill-opacity:1;fill-rule:nonzero;stroke:none"
         id="path3190"
         inkscape:connector-curvature="0" />
    </g>
    <g
       id="g3192"
       transform="matrix(1.25,0,0,-1.25,1218.1281,927.6028)">
      <path
         d="m 0,0 c 0,-0.245 -0.227,-0.5 -0.475,-0.497 l -1.379,0.008 c -0.246,0.003 -0.373,0.26 -0.373,0.506 l 0.01,1.378 c 0.002,0.244 0.135,0.507 0.381,0.504 L -0.455,1.89 C -0.211,1.889 0.016,1.623 0.014,1.378 L 0,0 Z m -1.367,2.692 -8.055,0.06 C -10.82,2.763 -11.93,1.679 -11.939,0.286 l -0.008,-1.338 4.394,-0.032 c 0.625,0.474 1.393,0.695 2.217,0.689 0.822,-0.005 1.584,-0.239 2.207,-0.721 l 4.24,-0.03 0.008,1.335 c 0.01,1.393 -1.088,2.493 -2.486,2.503"
         style="fill:#ffffff;fill-opacity:1;fill-rule:nonzero;stroke:none"
         id="path3194"
         inkscape:connector-curvature="0" />
    </g>
  </g>
</svg>
