<?xml version="1.0" encoding="UTF-8" standalone="no"?>
<!-- Created with Inkscape (http://www.inkscape.org/) -->

<svg
   xmlns:dc="http://purl.org/dc/elements/1.1/"
   xmlns:cc="http://creativecommons.org/ns#"
   xmlns:rdf="http://www.w3.org/1999/02/22-rdf-syntax-ns#"
   xmlns:svg="http://www.w3.org/2000/svg"
   xmlns="http://www.w3.org/2000/svg"
   xmlns:sodipodi="http://sodipodi.sourceforge.net/DTD/sodipodi-0.dtd"
   xmlns:inkscape="http://www.inkscape.org/namespaces/inkscape"
   width="22.876558mm"
   height="19.9009mm"
   viewBox="0 0 81.058671 70.514999"
   id="svg19001"
   version="1.1"
   inkscape:version="0.91 r"
   sodipodi:docname="lock.svg">
  <defs
     id="defs19003">
    <clipPath
       clipPathUnits="userSpaceOnUse"
       id="clipPath12880-6">
      <path
         d="m 0,1000 1500,0 L 1500,0 0,0 0,1000 Z"
         id="path12882-8"
         inkscape:connector-curvature="0" />
    </clipPath>
    <clipPath
       clipPathUnits="userSpaceOnUse"
       id="clipPath12880-6-7">
      <path
         d="m 0,1000 1500,0 L 1500,0 0,0 0,1000 Z"
         id="path12882-8-5"
         inkscape:connector-curvature="0" />
    </clipPath>
  </defs>
  <sodipodi:namedview
     id="base"
     pagecolor="#ffffff"
     bordercolor="#666666"
     borderopacity="1.0"
     inkscape:pageopacity="0.0"
     inkscape:pageshadow="2"
     inkscape:zoom="2.8"
     inkscape:cx="-54.133012"
     inkscape:cy="69.033335"
     inkscape:document-units="px"
     inkscape:current-layer="layer1"
     showgrid="false"
     fit-margin-top="0"
     fit-margin-left="0"
     fit-margin-right="0"
     fit-margin-bottom="0"
     inkscape:window-width="1861"
     inkscape:window-height="1056"
     inkscape:window-x="59"
     inkscape:window-y="24"
     inkscape:window-maximized="1" />
  <metadata
     id="metadata19006">
    <rdf:RDF>
      <cc:Work
         rdf:about="">
        <dc:format>image/svg+xml</dc:format>
        <dc:type
           rdf:resource="http://purl.org/dc/dcmitype/StillImage" />
        <dc:title></dc:title>
      </cc:Work>
    </rdf:RDF>
  </metadata>
  <g
     inkscape:label="Layer 1"
     inkscape:groupmode="layer"
     id="layer1"
     transform="translate(-120.58977,-214.5385)">
    <g
       id="g12884-7-5"
       transform="matrix(1.25,0,0,-1.25,201.6489,224.81226)">
      <path
         style="fill:#ffffff;fill-opacity:1;fill-rule:nonzero;stroke:none"
         d="m 187.63867,221.83594 c -16.37244,-0.13872 -31.85742,9.57715 -48.67969,4.46094 -0.7675,2.13125 -2.16867,3.95593 -3.98242,5.24218 l 0,39.85352 c 23.155,10.31375 43.51813,-10.3125 66.67188,0 -2.91,-9.05375 -6.03617,-18.03485 -9.38867,-26.9336 2.87625,-6.66375 5.95117,-13.25148 9.38867,-19.64648 -4.77231,-2.1257 -9.42548,-2.93772 -14.00977,-2.97656 z m -23.23633,12.75976 c 5.32,0 9.65039,4.32805 9.65039,9.6543 l 1.0293,0 c 0.60625,0 1.10156,0.49391 1.10156,1.09766 l 0,15.73046 c 0,0.60375 -0.49531,1.10157 -1.10156,1.10157 l -21.36719,0 c -0.6,0 -1.10156,-0.49781 -1.10156,-1.10157 l 0,-15.73046 c 0,-0.60375 0.50156,-1.09766 1.10156,-1.09766 l 1.03321,0 c 0,-5.32625 4.32929,-9.6543 9.65429,-9.6543 z m 0,3.3418 c -3.48125,0 -6.3164,2.83 -6.3164,6.3125 l 12.6289,0 c 0,-3.4825 -2.83375,-6.3125 -6.3125,-6.3125 z"
         transform="matrix(0.8,0,0,-0.8,-161.31912,179.84981)"
         id="path12886-4-1"
         inkscape:connector-curvature="0" />
    </g>
    <g
       id="g12888-4-9"
       transform="matrix(1.25,0,0,-1.25,128.64102,227.2085)">
      <path
         d="m 0,0 c -2.037,0 -3.693,1.656 -3.693,3.694 0,2.037 1.656,3.695 3.693,3.695 2.037,0 3.695,-1.658 3.695,-3.695 C 3.695,1.656 2.037,0 0,0 m 6.441,3.694 c 0,3.552 -2.888,6.442 -6.441,6.442 -3.551,0 -6.441,-2.89 -6.441,-6.442 0,-2.889 1.912,-5.34 4.539,-6.154 l 0,-43.816 3.804,2.2 0,41.616 c 2.627,0.814 4.539,3.265 4.539,6.154"
         style="fill:#ffffff;fill-opacity:1;fill-rule:nonzero;stroke:none"
         id="path12890-9-4"
         inkscape:connector-curvature="0" />
    </g>
    <g
       style="stroke:none;stroke-opacity:1;image-rendering:auto"
       id="g12912-4-5"
       transform="matrix(1.25,0,0,-1.25,176.18392,261.07833)" />
  </g>
</svg>
