<?xml version="1.0" encoding="UTF-8" standalone="no"?>
<!-- Created with Inkscape (http://www.inkscape.org/) -->

<svg
   xmlns:dc="http://purl.org/dc/elements/1.1/"
   xmlns:cc="http://creativecommons.org/ns#"
   xmlns:rdf="http://www.w3.org/1999/02/22-rdf-syntax-ns#"
   xmlns:svg="http://www.w3.org/2000/svg"
   xmlns="http://www.w3.org/2000/svg"
   xmlns:sodipodi="http://sodipodi.sourceforge.net/DTD/sodipodi-0.dtd"
   xmlns:inkscape="http://www.inkscape.org/namespaces/inkscape"
   width="59.604206mm"
   height="21.751673mm"
   viewBox="0 0 211.196 77.072856"
   id="svg14453"
   version="1.1"
   inkscape:version="0.91 r"
   sodipodi:docname="vive-logo.svg">
  <defs
     id="defs14455">
    <clipPath
       clipPathUnits="userSpaceOnUse"
       id="clipPath18">
      <path
         d="m 0,1350.188 1427.044,0 L 1427.044,0 0,0 0,1350.188 Z"
         id="path20"
         inkscape:connector-curvature="0" />
    </clipPath>
    <clipPath
       clipPathUnits="userSpaceOnUse"
       id="clipPath26">
      <path
         d="m -65.1533,1587.71 1577.7933,0 0,-1092.505 -1577.7933,0 0,1092.505 z"
         id="path28"
         inkscape:connector-curvature="0" />
    </clipPath>
    <clipPath
       clipPathUnits="userSpaceOnUse"
       id="clipPath30">
      <path
         d="m 1430.778,1224.279 -1429.037,0 0,126.91 1429.037,0 0,-126.91 z"
         id="path32"
         inkscape:connector-curvature="0"
         style="clip-rule:evenodd" />
    </clipPath>
    <clipPath
       clipPathUnits="userSpaceOnUse"
       id="clipPath34">
      <path
         d="m -65.1533,1587.71 1577.7933,0 0,-1092.505 -1577.7933,0 0,1092.505 z"
         id="path36"
         inkscape:connector-curvature="0" />
    </clipPath>
  </defs>
  <sodipodi:namedview
     id="base"
     pagecolor="#ffffff"
     bordercolor="#666666"
     borderopacity="1.0"
     inkscape:pageopacity="0.0"
     inkscape:pageshadow="2"
     inkscape:zoom="1.4"
     inkscape:cx="11.839153"
     inkscape:cy="-2.38947"
     inkscape:document-units="px"
     inkscape:current-layer="layer1"
     showgrid="false"
     fit-margin-top="0"
     fit-margin-left="0"
     fit-margin-right="0"
     fit-margin-bottom="0"
     inkscape:window-width="1861"
     inkscape:window-height="1056"
     inkscape:window-x="59"
     inkscape:window-y="24"
     inkscape:window-maximized="1" />
  <metadata
     id="metadata14458">
    <rdf:RDF>
      <cc:Work
         rdf:about="">
        <dc:format>image/svg+xml</dc:format>
        <dc:type
           rdf:resource="http://purl.org/dc/dcmitype/StillImage" />
        <dc:title></dc:title>
      </cc:Work>
    </rdf:RDF>
  </metadata>
  <g
     inkscape:label="Layer 1"
     inkscape:groupmode="layer"
     id="layer1"
     transform="translate(489.48943,-400.2831)">
    <g
       id="g2486"
       transform="matrix(1.25,0,0,-1.25,-337.30792,433.82472)">
      <path
         d="M 0,0 C 0.224,0.658 0.521,1.297 0.888,1.917 1.255,2.537 1.694,3.097 2.207,3.598 2.714,4.099 3.293,4.446 3.94,4.642 4.021,4.655 4.104,4.639 4.196,4.594 4.286,4.547 4.386,4.513 4.491,4.49 4.307,3.881 4.065,3.242 3.759,2.569 3.452,1.897 3.088,1.268 2.662,0.679 2.241,0.089 1.767,-0.425 1.246,-0.867 0.724,-1.306 0.157,-1.61 -0.452,-1.778 -0.376,-1.251 -0.228,-0.657 0,0 M 38.759,8.786 C 37.622,9.45 35.758,9.583 35.083,9.677 33.249,9.936 30.927,9.956 28.312,9.496 25.988,9.087 23.709,8.238 21.763,6.891 21.038,6.414 20.365,5.867 19.729,5.286 18.769,4.41 17.9,3.432 17.141,2.377 c -0.767,-1.065 -1.343,-2.248 -1.98,-3.39 -0.678,-1.213 -1.515,-2.323 -2.33,-3.445 -0.873,-1.2 -1.732,-2.411 -2.667,-3.563 -0.729,-0.901 -1.495,-1.771 -2.293,-2.612 -1.056,-1.109 -2.159,-2.08 -3.313,-2.908 -1.158,-0.831 -2.304,-1.343 -3.444,-1.541 -1.14,-0.198 -1.932,-0.103 -2.369,0.286 -0.439,0.387 -0.725,0.972 -0.859,1.752 -0.131,0.739 -0.153,1.345 -0.069,1.812 0.085,0.468 0.238,1 0.465,1.598 0.8,0.507 1.655,1.051 2.562,1.633 0.909,0.579 1.796,1.208 2.657,1.882 0.861,0.676 1.677,1.393 2.439,2.154 0.768,0.763 1.414,1.587 1.939,2.471 0.528,0.885 0.906,1.822 1.136,2.81 C 9.245,2.305 9.267,3.359 9.07,4.479 8.743,6.361 7.963,7.689 6.726,8.463 5.489,9.239 3.839,9.447 1.776,9.091 0.476,8.865 -0.772,8.369 -1.97,7.605 -3.169,6.841 -4.276,5.892 -5.293,4.757 -6.313,3.622 -7.229,2.359 -8.04,0.972 c -0.811,-1.389 -1.471,-2.822 -1.975,-4.301 -0.334,-0.977 -0.599,-1.952 -0.796,-2.924 -0.184,-0.1 -0.366,-0.199 -0.549,-0.292 -0.481,-0.249 -0.993,-0.42 -1.532,-0.512 -0.622,-0.11 -1.295,-0.103 -2.016,0.02 -0.722,0.122 -1.459,0.309 -2.214,0.559 -0.754,0.251 -1.495,0.545 -2.224,0.882 -0.729,0.339 -1.405,0.673 -2.03,1.011 -0.625,0.333 -1.179,0.645 -1.662,0.932 -0.483,0.287 -0.85,0.502 -1.102,0.643 -0.228,0.125 -0.463,0.234 -0.705,0.325 -0.243,0.093 -0.494,0.116 -0.754,0.072 -0.382,-0.065 -0.618,-0.242 -0.713,-0.526 -0.095,-0.284 -0.111,-0.617 -0.043,-0.998 0.092,-0.539 0.297,-1.097 0.615,-1.671 0.317,-0.575 0.62,-1 0.917,-1.279 0.002,-0.968 -0.015,-2.089 -0.052,-3.363 -0.038,-1.273 -0.132,-2.604 -0.282,-3.991 -0.153,-1.387 -0.375,-2.771 -0.674,-4.153 -0.295,-1.381 -0.706,-2.657 -1.237,-3.832 -0.525,-1.173 -1.187,-2.184 -1.976,-3.033 -0.793,-0.847 -1.748,-1.432 -2.867,-1.749 -0.276,0.509 -0.502,0.989 -0.684,1.444 -0.183,0.453 -0.31,0.909 -0.392,1.369 -0.186,1.081 -0.17,2.115 0.052,3.101 0.22,0.986 0.53,1.994 0.928,3.021 0.399,1.028 0.842,2.109 1.323,3.245 0.484,1.134 0.892,2.412 1.224,3.829 -0.528,1.372 -1.083,2.518 -1.664,3.439 -0.582,0.919 -1.202,1.641 -1.857,2.167 -0.66,0.524 -1.373,0.864 -2.143,1.019 -0.768,0.156 -1.594,0.158 -2.475,0.004 -0.82,-0.141 -1.681,-0.461 -2.588,-0.958 -0.9,-0.496 -1.789,-1.094 -2.653,-1.791 -0.87,-0.697 -1.692,-1.457 -2.466,-2.282 -0.588,-0.626 -1.115,-1.243 -1.583,-1.847 -0.011,0.011 -0.023,0.022 -0.035,0.035 -0.716,-0.988 -1.538,-2.137 -2.466,-3.442 -0.927,-1.305 -1.898,-2.601 -2.912,-3.89 -1.013,-1.288 -2.04,-2.503 -3.08,-3.642 -1.039,-1.138 -2.016,-2.045 -2.931,-2.718 -0.184,0.359 -0.325,0.808 -0.418,1.349 -0.116,0.66 -0.159,1.42 -0.133,2.28 0.025,0.861 0.109,1.752 0.25,2.672 0.138,0.922 0.317,1.849 0.537,2.783 0.218,0.935 0.461,1.827 0.726,2.677 0.264,0.851 0.539,1.625 0.818,2.323 0.28,0.698 0.559,1.266 0.835,1.705 -0.287,0.589 -0.582,1.147 -0.88,1.673 -0.294,0.526 -0.627,1.013 -0.995,1.465 -0.367,0.451 -0.783,0.87 -1.252,1.254 -0.469,0.38 -1.008,0.725 -1.618,1.031 -0.404,0.178 -0.763,0.24 -1.083,0.185 -0.58,-0.101 -1.161,-0.558 -1.742,-1.37 -0.583,-0.811 -1.125,-1.838 -1.629,-3.081 -0.51,-1.242 -0.966,-2.631 -1.381,-4.166 -0.414,-1.536 -0.75,-3.077 -1.008,-4.628 -0.257,-1.549 -0.413,-3.044 -0.474,-4.488 -0.059,-1.442 0.001,-2.685 0.182,-3.724 0.138,-0.801 0.349,-1.529 0.626,-2.18 0.278,-0.655 0.641,-1.21 1.093,-1.668 0.172,-0.155 0.494,-0.345 0.963,-0.573 0.475,-0.228 1.035,-0.455 1.684,-0.685 0.647,-0.225 1.344,-0.444 2.09,-0.656 0.75,-0.209 1.486,-0.392 2.213,-0.544 0.728,-0.153 1.4,-0.263 2.021,-0.329 0.62,-0.069 1.119,-0.071 1.5,-0.004 0.6,0.104 1.274,0.527 2.022,1.263 0.748,0.738 1.512,1.666 2.287,2.778 0.776,1.113 1.547,2.339 2.316,3.68 0.768,1.337 1.476,2.661 2.126,3.97 0.636,1.284 1.187,2.482 1.656,3.598 0.042,0.041 0.084,0.084 0.125,0.126 0.244,0.26 0.48,0.534 0.709,0.821 0.227,0.285 0.425,0.537 0.594,0.752 0.503,0.665 0.945,1.214 1.324,1.651 0.375,0.436 0.766,0.803 1.168,1.099 0.402,0.296 0.839,0.533 1.316,0.708 0.474,0.175 1.06,0.333 1.759,0.475 l 0.182,-0.525 c -0.467,-1.235 -0.976,-2.488 -1.527,-3.76 -0.555,-1.27 -1.053,-2.552 -1.499,-3.846 -0.445,-1.294 -0.774,-2.592 -0.98,-3.895 -0.206,-1.304 -0.199,-2.607 0.03,-3.907 0.228,-1.32 0.79,-2.413 1.681,-3.28 0.893,-0.865 1.939,-1.529 3.145,-1.992 1.201,-0.46 2.48,-0.736 3.84,-0.833 1.354,-0.095 2.613,-0.041 3.774,0.161 1.278,0.22 2.441,0.69 3.48,1.406 1.043,0.716 1.972,1.595 2.794,2.633 0.818,1.04 1.528,2.208 2.127,3.509 0.598,1.297 1.106,2.643 1.526,4.035 0.418,1.393 0.754,2.792 1.006,4.194 0.25,1.404 0.429,2.745 0.539,4.021 0.283,-0.219 0.6,-0.437 0.948,-0.654 0.346,-0.218 0.713,-0.403 1.101,-0.551 0.384,-0.149 0.781,-0.262 1.186,-0.336 0.404,-0.077 0.818,-0.074 1.237,-0.002 0.583,0.1 1.235,0.287 1.959,0.556 0.288,0.108 0.581,0.23 0.876,0.358 0.117,-0.329 0.252,-0.643 0.402,-0.94 0.392,-0.779 0.874,-1.472 1.443,-2.084 0.57,-0.614 1.222,-1.145 1.961,-1.593 0.735,-0.451 1.523,-0.828 2.362,-1.138 0.287,-0.114 0.668,-0.238 1.148,-0.372 0.474,-0.134 1.003,-0.275 1.588,-0.422 0.581,-0.146 1.177,-0.289 1.789,-0.43 0.612,-0.142 1.19,-0.264 1.731,-0.366 0.544,-0.101 1.023,-0.177 1.435,-0.23 0.41,-0.053 0.705,-0.063 0.885,-0.032 0.783,0.136 1.64,0.517 2.585,1.144 0.944,0.628 1.907,1.402 2.889,2.325 0.985,0.922 1.957,1.942 2.919,3.058 0.962,1.114 1.778,2.29 2.684,3.339 3.761,4.362 5.778,10.117 6.858,11.582 1.477,2 2.926,3.713 5.24,4.633 0.618,0.244 1.262,0.428 1.913,0.562 3.193,0.65 5.642,0.932 7.648,1.011 2.653,0.103 2.945,1.686 1.84,2.33"
         style="fill:#ffffff;fill-opacity:1;fill-rule:nonzero;stroke:none"
         id="path2488"
         inkscape:connector-curvature="0" />
    </g>
    <g
       id="g2490"
       transform="matrix(1.25,0,0,-1.25,-283.56405,429.68473)">
      <path
         d="m 0,0 c -0.471,0 -0.854,-0.383 -0.854,-0.856 0,-0.472 0.383,-0.855 0.854,-0.855 0.473,0 0.857,0.383 0.857,0.855 C 0.857,-0.383 0.473,0 0,0"
         style="fill:#ffffff;fill-opacity:1;fill-rule:nonzero;stroke:none"
         id="path2492"
         inkscape:connector-curvature="0" />
    </g>
    <g
       id="g2494"
       transform="matrix(1.25,0,0,-1.25,-285.20467,424.0151)">
      <path
         d="m 0,0 c -0.472,0 -0.855,-0.383 -0.855,-0.855 0,-0.472 0.383,-0.854 0.855,-0.854 0.473,0 0.855,0.382 0.855,0.854 C 0.855,-0.383 0.473,0 0,0"
         style="fill:#ffffff;fill-opacity:1;fill-rule:nonzero;stroke:none"
         id="path2496"
         inkscape:connector-curvature="0" />
    </g>
    <g
       id="g2498"
       transform="matrix(1.25,0,0,-1.25,-445.33642,424.91972)">
      <path
         d="M 0,0 C 0.474,0 0.855,0.383 0.855,0.854 0.855,1.327 0.474,1.71 0,1.71 -0.471,1.71 -0.854,1.327 -0.854,0.854 -0.854,0.383 -0.471,0 0,0"
         style="fill:#ffffff;fill-opacity:1;fill-rule:nonzero;stroke:none"
         id="path2500"
         inkscape:connector-curvature="0" />
    </g>
    <g
       id="g2502"
       transform="matrix(1.25,0,0,-1.25,-287.08942,421.2271)">
      <path
         d="M 0,0 C 0.47,0 0.853,0.382 0.853,0.855 0.853,1.327 0.47,1.71 0,1.71 -0.475,1.71 -0.855,1.327 -0.855,0.855 -0.855,0.382 -0.475,0 0,0"
         style="fill:#ffffff;fill-opacity:1;fill-rule:nonzero;stroke:none"
         id="path2504"
         inkscape:connector-curvature="0" />
    </g>
    <g
       id="g2506"
       transform="matrix(1.25,0,0,-1.25,-400.39267,434.93735)">
      <path
         d="M 0,0 C 0.473,0 0.855,0.383 0.855,0.855 0.855,1.327 0.473,1.71 0,1.71 -0.471,1.71 -0.854,1.327 -0.854,0.855 -0.854,0.383 -0.471,0 0,0"
         style="fill:#ffffff;fill-opacity:1;fill-rule:nonzero;stroke:none"
         id="path2508"
         inkscape:connector-curvature="0" />
    </g>
    <g
       id="g2510"
       transform="matrix(1.25,0,0,-1.25,-280.35842,424.49547)">
      <path
         d="m 0,0 c -0.91,0 -1.649,-0.74 -1.649,-1.652 0,-0.913 0.739,-1.653 1.649,-1.653 0.913,0 1.652,0.74 1.652,1.653 C 1.652,-0.74 0.913,0 0,0"
         style="fill:#ffffff;fill-opacity:1;fill-rule:nonzero;stroke:none"
         id="path2512"
         inkscape:connector-curvature="0" />
    </g>
    <g
       id="g2514"
       transform="matrix(1.25,0,0,-1.25,-399.39405,430.80897)">
      <path
         d="M 0,0 C 0.912,0 1.65,0.74 1.65,1.653 1.65,2.565 0.912,3.305 0,3.305 -0.913,3.305 -1.652,2.565 -1.652,1.653 -1.652,0.74 -0.913,0 0,0"
         style="fill:#ffffff;fill-opacity:1;fill-rule:nonzero;stroke:none"
         id="path2516"
         inkscape:connector-curvature="0" />
    </g>
    <g
       id="g2518"
       transform="matrix(1.25,0,0,-1.25,-288.28818,427.57172)">
      <path
         d="m 0,0 c -0.913,0 -1.653,-0.74 -1.653,-1.652 0,-0.912 0.74,-1.653 1.653,-1.653 0.911,0 1.65,0.741 1.65,1.653 C 1.65,-0.74 0.911,0 0,0"
         style="fill:#ffffff;fill-opacity:1;fill-rule:nonzero;stroke:none"
         id="path2520"
         inkscape:connector-curvature="0" />
    </g>
    <g
       id="g2522"
       transform="matrix(1.25,0,0,-1.25,-441.0603,420.13998)">
      <path
         d="M 0,0 C 0.915,0 1.649,0.74 1.649,1.652 1.649,2.564 0.915,3.304 0,3.304 -0.912,3.304 -1.651,2.564 -1.651,1.652 -1.651,0.74 -0.912,0 0,0"
         style="fill:#ffffff;fill-opacity:1;fill-rule:nonzero;stroke:none"
         id="path2524"
         inkscape:connector-curvature="0" />
    </g>
    <g
       id="g2526"
       transform="matrix(1.25,0,0,-1.25,-425.73193,415.9781)">
      <path
         d="m 0,0 c -0.621,0.146 -1.373,0.028 -2.258,-0.349 -0.88,-0.377 -1.808,-0.869 -2.784,-1.475 -0.978,-0.606 -1.937,-1.257 -2.886,-1.95 -0.947,-0.698 -1.799,-1.288 -2.554,-1.779 -0.203,-0.143 -0.363,-0.332 -0.483,-0.565 -0.124,-0.235 -0.212,-0.45 -0.271,-0.65 -0.205,-1.806 -0.45,-3.551 -0.727,-5.235 -0.275,-1.683 -0.602,-3.355 -0.98,-5.015 -0.376,-1.66 -0.803,-3.331 -1.281,-5.015 -0.476,-1.685 -1.007,-3.434 -1.589,-5.248 -0.624,1.501 -1.388,3.092 -2.283,4.774 -0.896,1.681 -1.846,3.353 -2.853,5.013 -1.01,1.66 -2.033,3.26 -3.076,4.797 -1.045,1.537 -2.056,2.909 -3.037,4.111 -1.291,1.606 -2.454,3.049 -3.494,4.324 -1.038,1.275 -2.026,2.455 -2.962,3.541 -0.937,1.084 -1.853,2.117 -2.753,3.099 -0.897,0.98 -1.858,1.988 -2.875,3.02 -1.016,1.034 -2.136,2.125 -3.356,3.277 -1.225,1.151 -2.624,2.446 -4.203,3.881 -0.065,-0.033 -0.307,-0.071 -0.733,-0.115 -0.424,-0.043 -0.898,-0.088 -1.416,-0.134 -0.521,-0.046 -0.992,-0.091 -1.418,-0.134 -0.425,-0.045 -0.67,-0.084 -0.734,-0.115 1.379,-1.771 2.842,-3.78 4.396,-6.031 1.554,-2.25 3.226,-4.809 5.016,-7.673 1.787,-2.864 3.696,-6.072 5.723,-9.62 2.029,-3.549 4.203,-7.508 6.529,-11.874 0.391,-0.756 0.884,-1.78 1.48,-3.073 0.595,-1.292 1.216,-2.706 1.857,-4.247 0.644,-1.54 1.282,-3.144 1.913,-4.812 0.633,-1.669 1.178,-3.246 1.637,-4.731 0.462,-1.484 0.809,-2.809 1.041,-3.968 0.238,-1.16 0.274,-2.019 0.11,-2.577 -0.13,-0.443 -0.147,-0.808 -0.057,-1.091 0.09,-0.282 0.228,-0.517 0.414,-0.702 0.185,-0.185 0.411,-0.327 0.675,-0.425 0.264,-0.097 0.52,-0.174 0.772,-0.232 0.549,-0.127 1.21,-0.138 1.986,-0.033 0.778,0.104 1.581,0.262 2.413,0.471 0.835,0.214 1.652,0.456 2.452,0.735 0.799,0.28 1.481,0.515 2.047,0.72 0.247,0.751 0.475,1.5 0.694,2.244 0.217,0.746 0.435,1.5 0.656,2.257 0.966,3.317 1.881,6.576 2.748,9.774 0.865,3.199 1.726,6.388 2.585,9.563 0.86,3.176 1.719,6.36 2.581,9.547 0.861,3.186 1.776,6.439 2.742,9.758 0.298,1.024 0.332,1.894 0.102,2.614 C 1.277,-0.628 0.775,-0.18 0,0"
         style="fill:#ffffff;fill-opacity:1;fill-rule:nonzero;stroke:none"
         id="path2528"
         inkscape:connector-curvature="0" />
    </g>
    <g
       id="g2530"
       transform="matrix(1.25,0,0,-1.25,-413.80567,432.24447)">
      <path
         d="m 0,0 c 0.437,-0.562 0.98,-1.02 1.632,-1.371 0.647,-0.352 1.372,-0.586 2.176,-0.704 0.803,-0.12 1.635,-0.104 2.497,0.045 0.9,0.156 1.492,0.492 1.773,1.004 0.284,0.513 0.366,1.099 0.252,1.76 C 8.176,1.635 7.897,2.452 7.503,3.187 7.107,3.923 6.66,4.546 6.158,5.057 5.658,5.567 5.139,5.947 4.6,6.195 4.064,6.441 3.574,6.526 3.134,6.451 2.793,6.391 2.424,6.316 2.029,6.229 1.632,6.138 1.266,6.054 0.928,5.976 0.533,5.865 0.141,5.766 -0.258,5.677 -0.536,5.029 -0.732,4.398 -0.842,3.782 -0.949,3.165 -0.951,2.547 -0.844,1.925 -0.719,1.205 -0.436,0.564 0,0"
         style="fill:#ffffff;fill-opacity:1;fill-rule:nonzero;stroke:none"
         id="path2532"
         inkscape:connector-curvature="0" />
    </g>
    <g
       id="g2534"
       transform="matrix(1.25,0,0,-1.25,908.6467,531.12822)">
      <path
         d="m 0,0 c 0,-2.209 -1.791,-4 -4,-4 l -138.863,0 c -2.209,0 -4,1.791 -4,4 l 0,87.017 c 0,2.209 1.791,4 4,4 l 138.863,0 c 2.209,0 4,-1.791 4,-4 L 0,0 Z"
         style="fill:#d1d3d4;fill-opacity:1;fill-rule:nonzero;stroke:none"
         id="path2536"
         inkscape:connector-curvature="0" />
    </g>
    <g
       id="g2538"
       transform="matrix(1.25,0,0,-1.25,908.6467,454.04997)">
      <path
         d="m 0,0 0,25.354 c 0,2.209 -1.791,4 -4,4 l -138.863,0 c -2.209,0 -4,-1.791 -4,-4 L -146.863,0 0,0 Z"
         style="fill:#ffffff;fill-opacity:1;fill-rule:nonzero;stroke:none"
         id="path2540"
         inkscape:connector-curvature="0" />
    </g>
  </g>
</svg>
