<?xml version="1.0" encoding="UTF-8" standalone="no"?>
<!-- Created with Inkscape (http://www.inkscape.org/) -->

<svg
   xmlns:dc="http://purl.org/dc/elements/1.1/"
   xmlns:cc="http://creativecommons.org/ns#"
   xmlns:rdf="http://www.w3.org/1999/02/22-rdf-syntax-ns#"
   xmlns:svg="http://www.w3.org/2000/svg"
   xmlns="http://www.w3.org/2000/svg"
   xmlns:sodipodi="http://sodipodi.sourceforge.net/DTD/sodipodi-0.dtd"
   xmlns:inkscape="http://www.inkscape.org/namespaces/inkscape"
   width="35.213856mm"
   height="8.2963314mm"
   viewBox="0 0 124.7735 29.39645"
   id="svg23364"
   version="1.1"
   inkscape:version="0.91 r"
   sodipodi:docname="mushaisa-logo.svg">
  <defs
     id="defs23366" />
  <sodipodi:namedview
     id="base"
     pagecolor="#ffffff"
     bordercolor="#666666"
     borderopacity="1.0"
     inkscape:pageopacity="0.0"
     inkscape:pageshadow="2"
     inkscape:zoom="0.35"
     inkscape:cx="-35.470389"
     inkscape:cy="-208.15891"
     inkscape:document-units="px"
     inkscape:current-layer="layer1"
     showgrid="false"
     fit-margin-top="0"
     fit-margin-left="0"
     fit-margin-right="0"
     fit-margin-bottom="0"
     inkscape:window-width="1861"
     inkscape:window-height="1056"
     inkscape:window-x="59"
     inkscape:window-y="24"
     inkscape:window-maximized="1" />
  <metadata
     id="metadata23369">
    <rdf:RDF>
      <cc:Work
         rdf:about="">
        <dc:format>image/svg+xml</dc:format>
        <dc:type
           rdf:resource="http://purl.org/dc/dcmitype/StillImage" />
        <dc:title></dc:title>
      </cc:Work>
    </rdf:RDF>
  </metadata>
  <g
     inkscape:label="Layer 1"
     inkscape:groupmode="layer"
     id="layer1"
     transform="translate(288.10104,-294.80684)">
    <g
       id="g3200"
       transform="matrix(1.25,0,0,-1.25,-168.59429,299.07854)">
      <path
         d="m 0,0 c 0.17,-0.094 0.346,-0.141 0.531,-0.141 0.186,0 0.364,0.047 0.533,0.141 0.17,0.095 0.301,0.225 0.395,0.396 0.094,0.17 0.143,0.348 0.143,0.533 0,0.185 -0.049,0.362 -0.145,0.535 C 1.361,1.634 1.229,1.767 1.057,1.857 0.885,1.952 0.711,2 0.531,2 0.354,2 0.176,1.952 0.004,1.857 -0.166,1.767 -0.299,1.634 -0.395,1.464 -0.49,1.291 -0.539,1.114 -0.539,0.929 -0.539,0.744 -0.49,0.566 -0.398,0.396 -0.303,0.225 -0.17,0.095 0,0 M -0.24,1.375 C -0.16,1.519 -0.049,1.627 0.092,1.704 0.234,1.782 0.383,1.82 0.531,1.82 0.68,1.82 0.828,1.782 0.969,1.704 1.111,1.627 1.223,1.519 1.303,1.375 1.385,1.23 1.424,1.082 1.424,0.929 1.424,0.774 1.385,0.627 1.305,0.483 1.229,0.343 1.117,0.233 0.977,0.153 0.834,0.076 0.687,0.036 0.531,0.036 c -0.154,0 -0.302,0.04 -0.443,0.117 -0.141,0.08 -0.254,0.19 -0.332,0.33 -0.08,0.144 -0.119,0.291 -0.119,0.446 0,0.153 0.039,0.301 0.123,0.446"
         style="fill:#ffffff;fill-opacity:1;fill-rule:nonzero;stroke:none"
         id="path3202"
         inkscape:connector-curvature="0" />
    </g>
    <g
       id="g3204"
       transform="matrix(1.25,0,0,-1.25,-195.78179,296.96924)">
      <path
         d="m 0,0 c 0.043,-0.055 0.078,-0.127 0.111,-0.211 0.168,-0.416 0.25,-1.1 0.25,-2.036 0,-0.011 0,-0.021 -0.002,-0.03 l -0.5,-4.41 0,-5.916 c 0,-0.401 -0.045,-2.403 -0.994,-2.403 -0.439,0 -0.914,1.261 -0.914,4.031 l 0,7.006 c 0,0.148 -0.023,0.597 -0.045,1.072 -0.027,0.613 -0.045,1.31 -0.06,1.622 -0.034,0.621 0.23,1.041 0.527,1.292 0.158,0.131 0.709,0.278 0.863,0.269 C -0.631,0.275 -0.162,0.226 0,0"
         style="fill:#ffffff;fill-opacity:1;fill-rule:nonzero;stroke:none"
         id="path3206"
         inkscape:connector-curvature="0" />
    </g>
    <g
       id="g3208"
       transform="matrix(1.25,0,0,-1.25,-205.06642,304.68534)">
      <path
         d="M 0,0 C -0.338,0.813 -0.609,1.595 -0.85,2.28 -1.549,4.287 -2.102,5.872 -3.674,6.481 -3.723,6.502 -3.779,6.512 -3.836,6.513 -4.262,6.527 -4.879,6.034 -5.041,5.548 -5.143,5.242 -5.053,4.956 -4.805,4.783 -4.002,4.224 -3.656,3.57 -3.688,2.668 -3.754,0.854 -5.869,-2.238 -5.959,-2.372 -6.482,-3.144 -6.816,-3.817 -7.137,-4.473 -7.508,-5.228 -7.859,-5.94 -8.482,-6.762 c -0.395,-0.522 -1.079,-0.463 -1.547,-0.969 -0.543,-0.592 0.193,-1.359 1.523,-1.076 0.815,0.176 1.151,0.657 1.475,1.118 0.523,0.752 1.066,1.529 3.912,1.424 L -0.482,-6.36 C 0.932,-6.41 1.301,-7.036 1.693,-7.703 2.004,-8.231 2.355,-8.835 3.281,-8.868 3.773,-8.887 4.215,-8.544 4.23,-8.14 4.246,-7.707 4.055,-7.456 3.711,-6.999 3.133,-6.233 1.937,-4.641 0,0 m -0.104,-4.281 c -0.177,-0.241 -1.365,-0.183 -2.314,-0.148 -1.027,0.038 -2.281,-0.159 -2.406,0.178 -0.088,0.24 0.078,0.499 0.199,0.727 0.025,0.052 0.08,0.155 0.148,0.295 0.348,0.712 1.413,2.877 2,3.336 0.02,0.015 0.092,0.037 0.172,0.035 0.037,0 0.067,-0.008 0.088,-0.019 0.608,-0.347 1.59,-2.455 2.047,-3.663 0.055,-0.139 0.254,-0.486 0.066,-0.741"
         style="fill:#ffffff;fill-opacity:1;fill-rule:nonzero;stroke:none"
         id="path3210"
         inkscape:connector-curvature="0" />
    </g>
    <g
       id="g3212"
       transform="matrix(1.25,0,0,-1.25,-217.73492,310.09184)">
      <path
         d="M 0,0 C 0.514,0 0.859,0.009 1.045,0.029 1.49,0.074 1.691,0.381 1.691,0.644 1.691,0.907 1.486,1.21 1.045,1.256 1.023,1.257 1.002,1.257 0.98,1.256 0.785,1.223 0.467,1.19 0.08,1.19 c -1.301,0 -2.726,0.394 -2.726,3.018 0,5.08 0.224,5.23 1.99,6.4 0.324,0.214 0.455,0.612 0.336,1.01 -0.112,0.364 -0.407,0.61 -0.737,0.61 -0.164,0 -0.328,-0.057 -0.484,-0.172 C -3.07,10.935 -3.658,9.626 -3.91,9.064 -3.945,8.986 -3.975,8.922 -3.996,8.881 -4.516,7.944 -4.498,6.563 -4.484,5.229 -4.469,3.963 -4.453,2.654 -4.969,2.139 -5.137,1.965 -5.371,1.879 -5.676,1.879 c -1,0 -1.992,-0.042 -2.713,-0.073 C -8.785,1.787 -9.1,1.773 -9.27,1.773 c -0.117,0 -0.205,0.037 -0.277,0.115 -0.41,0.434 -0.324,1.949 -0.248,3.288 0.1,1.719 0.191,3.342 -0.463,4.037 -0.209,0.22 -0.476,0.332 -0.795,0.332 -0.558,0 -1.48,-0.566 -1.48,-1.166 0,-0.281 0.109,-0.443 0.224,-0.615 0.237,-0.351 0.629,-0.937 0.629,-3.556 0,-2.98 -1.074,-3.073 -2.105,-3.144 -0.262,-0.016 -0.486,-0.032 -0.666,-0.085 -0.344,-0.094 -0.389,-0.138 -0.428,-0.172 -0.154,-0.145 -0.187,-0.392 -0.082,-0.602 0.065,-0.126 0.17,-0.184 0.682,-0.264 0.162,-0.025 0.656,-0.034 0.707,-0.034 l 0.076,0 c 1.553,0 1.816,-0.261 1.816,-0.935 l 0,-3.129 c 0,-0.344 0.194,-0.858 0.729,-0.858 0.226,0 0.418,0.077 0.568,0.226 0.387,0.396 0.377,1.197 0.365,2.127 -0.013,0.903 -0.025,1.926 0.393,2.346 0.141,0.144 0.33,0.212 0.588,0.212 l 3.617,0 c 0.297,0 0.52,-0.077 0.68,-0.242 0.428,-0.429 0.418,-1.397 0.41,-2.251 -0.01,-0.95 -0.02,-1.845 0.656,-1.95 0.065,-0.009 0.127,-0.015 0.186,-0.015 0.283,0 0.627,0.12 0.652,0.687 l 0,0.033 c 0.018,0.263 0.027,0.539 0.039,0.807 0.068,1.905 0.215,3.061 1.662,3.064 C -1.123,0.026 -0.85,0 0,0"
         style="fill:#ffffff;fill-opacity:1;fill-rule:nonzero;stroke:none"
         id="path3214"
         inkscape:connector-curvature="0" />
    </g>
    <g
       id="g3216"
       transform="matrix(1.25,0,0,-1.25,-236.6558,298.75754)">
      <path
         d="m 0,0 c -0.199,1.13 -1.545,1.743 -2.709,1.743 -0.166,0 -0.326,-0.016 -0.471,-0.041 -1.359,-0.239 -2.238,-1.487 -2.64,-2.208 -0.598,-1.069 -0.889,-2.284 -0.744,-3.097 0.168,-0.959 1.08,-2.22 1.96,-3.443 0.803,-1.109 1.629,-2.255 1.76,-2.997 0.151,-0.844 -0.244,-1.356 -1.172,-1.519 -0.732,-0.129 -1.363,-0.194 -1.918,-0.194 -1.716,0 -2.66,0.613 -2.882,1.87 -0.061,0.347 -0.022,0.667 0.109,0.907 0.127,0.232 0.328,0.378 0.592,0.424 0.078,0.014 0.152,0.02 0.224,0.02 0.348,0 0.608,-0.149 0.862,-0.296 0.222,-0.131 0.455,-0.263 0.718,-0.263 0.047,0 0.094,0.005 0.139,0.01 0.154,0.029 0.504,0.186 0.602,0.489 0.045,0.15 0.047,0.385 -0.211,0.641 l -0.049,0.047 c -0.457,0.457 -0.891,0.887 -1.865,0.887 -0.235,0 -0.491,-0.026 -0.784,-0.077 -1.199,-0.211 -2.298,-1.06 -2.044,-2.482 0.394,-2.245 2.796,-3.942 5.586,-3.942 0.378,0 0.753,0.034 1.117,0.097 2.175,0.385 2.929,1.547 2.515,3.889 -0.297,1.689 -1.261,3.019 -2.111,4.193 -0.672,0.926 -1.252,1.73 -1.393,2.524 -0.111,0.63 0.053,1.214 0.473,1.686 0.406,0.463 1.035,0.785 1.76,0.915 0.156,0.029 0.293,0.042 0.418,0.042 0.535,0 0.816,-0.239 0.912,-0.769 0.074,-0.43 -0.377,-1.207 -0.594,-1.581 C -1.898,-2.63 -1.945,-2.713 -1.973,-2.767 -2.09,-3.011 -2.1,-3.212 -2,-3.369 c 0.061,-0.102 0.195,-0.221 0.477,-0.221 0.07,0 0.144,0.006 0.226,0.02 0.231,0.037 0.508,0.248 0.586,0.37 0.686,1.088 0.85,2.421 0.711,3.2"
         style="fill:#ffffff;fill-opacity:1;fill-rule:nonzero;stroke:none"
         id="path3218"
         inkscape:connector-curvature="0" />
    </g>
    <g
       id="g3220"
       transform="matrix(1.25,0,0,-1.25,-182.54442,310.71434)">
      <path
         d="m 0,0 c -0.295,1.68 -1.25,2.998 -2.098,4.162 -0.664,0.92 -1.242,1.715 -1.379,2.505 -0.113,0.624 0.053,1.204 0.467,1.674 0.406,0.457 1.026,0.78 1.746,0.907 C -0.449,9.391 -0.061,9.177 0.053,8.526 0.131,8.1 -0.316,7.329 -0.531,6.956 -0.59,6.853 -0.637,6.771 -0.662,6.717 -0.779,6.475 -0.789,6.274 -0.691,6.119 c 0.062,-0.1 0.197,-0.22 0.476,-0.22 0.067,0 0.141,0.006 0.221,0.021 0.228,0.037 0.508,0.245 0.584,0.365 0.678,1.083 0.842,2.405 0.705,3.177 -0.197,1.122 -1.533,1.729 -2.69,1.729 -0.164,0 -0.322,-0.013 -0.468,-0.04 C -3.211,10.915 -4.084,9.678 -4.482,8.96 -5.074,7.902 -5.363,6.695 -5.223,5.888 c 0.166,-0.952 1.075,-2.206 1.95,-3.419 0.796,-1.099 1.617,-2.237 1.744,-2.973 0.15,-0.837 -0.242,-1.346 -1.162,-1.508 -0.731,-0.127 -1.352,-0.191 -1.905,-0.191 -1.705,0 -2.638,0.607 -2.861,1.857 -0.059,0.341 -0.018,0.66 0.111,0.898 0.123,0.231 0.326,0.376 0.586,0.421 0.074,0.012 0.153,0.019 0.225,0.019 0.342,0 0.599,-0.148 0.851,-0.292 0.223,-0.13 0.452,-0.263 0.717,-0.263 0.043,0 0.092,0.005 0.133,0.012 0.156,0.028 0.504,0.182 0.598,0.485 0.047,0.147 0.049,0.38 -0.207,0.635 L -4.49,1.615 C -4.943,2.068 -5.379,2.498 -6.344,2.498 -6.576,2.498 -6.83,2.472 -7.119,2.423 -8.311,2.211 -9.4,1.369 -9.154,-0.044 c 0.396,-2.229 2.779,-3.911 5.547,-3.911 0.377,0 0.75,0.033 1.109,0.097 C -0.336,-3.479 0.408,-2.324 0,0"
         style="fill:#ffffff;fill-opacity:1;fill-rule:nonzero;stroke:none"
         id="path3222"
         inkscape:connector-curvature="0" />
    </g>
    <g
       id="g3224"
       transform="matrix(1.25,0,0,-1.25,-251.06979,299.59244)">
      <path
         d="m 0,0 c -0.127,0 -0.242,-0.046 -0.336,-0.138 -0.326,-0.319 -0.334,-0.603 -0.389,-1.976 -0.027,-0.698 -0.068,-2.778 -0.164,-4.309 -0.048,-0.669 -1.4,-4.17 -2.886,-4.17 -0.807,0 -2.737,0.941 -3.498,1.703 -0.729,0.728 -1.764,3.192 -2.106,4.498 -0.039,0.149 -0.072,0.662 -0.084,0.938 l 0,3.025 c 0,0.639 0.154,1.207 0.373,1.725 0.053,0.121 0.184,0.588 0.104,0.709 -0.178,0.26 -0.598,0.476 -0.961,0.296 -0.639,-0.315 -1.266,-0.979 -1.266,-3.072 0,-7.417 4.188,-12.151 6.379,-12.151 3.982,0 5.795,4.23 5.795,8.157 0,0.959 -0.033,3.368 -0.324,4.31 C 0.59,-0.295 0.309,0 0,0"
         style="fill:#ffffff;fill-opacity:1;fill-rule:nonzero;stroke:none"
         id="path3226"
         inkscape:connector-curvature="0" />
    </g>
    <g
       id="g3228"
       transform="matrix(1.25,0,0,-1.25,-267.63229,316.94604)">
      <path
         d="m 0,0 c -0.027,0.149 -0.051,0.554 -0.057,0.686 l 0,7.307 c 0,0.847 -0.125,1.253 -0.224,1.58 -0.063,0.208 -0.108,0.358 -0.108,0.582 l 0,2.996 c 0,0.428 -0.256,1.454 -0.881,1.454 -0.515,0 -0.828,-0.654 -1.187,-1.413 -0.076,-0.159 -0.15,-0.317 -0.229,-0.469 -0.041,-0.079 -0.125,-0.215 -0.226,-0.369 0,0 -0.506,-0.625 -1.41,-1.783 C -4.869,9.87 -4.996,9.729 -5.033,9.674 -5.387,9.126 -6.145,8.373 -6.562,7.976 -6.654,7.889 -6.795,7.834 -6.848,7.822 -7.432,7.97 -8.195,8.689 -8.754,9.218 c -0.234,0.22 -0.435,0.408 -0.605,0.549 -0.985,0.804 -2.045,2.288 -2.981,3.596 -1.336,1.868 -2.125,2.924 -2.816,2.924 -0.348,0 -0.754,-0.458 -0.754,-0.756 0,-0.563 0.306,-0.957 0.662,-1.415 0.512,-0.658 1.148,-1.476 1.148,-3.238 0,-2.129 -1.084,-4.132 -1.732,-5.329 -0.365,-0.677 -0.543,-1.013 -0.543,-1.261 0,-0.413 0.434,-0.988 0.857,-0.988 0.944,0 1.413,1.671 1.954,3.605 0.332,1.19 0.835,2.985 1.279,2.985 0.416,0 1.361,-0.95 2.121,-1.712 1.088,-1.095 2.115,-2.13 2.916,-2.13 0.555,0 1.422,0.632 2.684,1.598 0.556,0.425 1.322,1.009 1.511,1.032 0.457,0 0.828,-0.627 0.828,-1.146 L -2.229,7.313 C -2.23,6.882 -2.23,6.23 -2.209,5.693 -2.195,5.334 -2.041,4.711 -1.926,4.276 l 0.01,-0.033 c 0.305,-1.159 0.383,-2.88 0.383,-3.083 0,-1.22 0.289,-2.248 0.572,-3.092 0.129,-0.395 0.412,-0.438 0.525,-0.438 0.258,0 0.461,0.185 0.538,0.266 0.072,0.078 0.197,0.236 0.187,0.406 C 0.266,-1.283 0.213,-0.932 0.139,-0.65 0.1,-0.506 0.051,-0.282 0,0"
         style="fill:#ffffff;fill-opacity:1;fill-rule:nonzero;stroke:none"
         id="path3230"
         inkscape:connector-curvature="0" />
    </g>
    <g
       id="g3232"
       transform="matrix(1.25,0,0,-1.25,-167.9058,297.87494)">
      <path
         d="m 0,0 c 0.105,0 0.174,0.062 0.174,0.173 0,0.105 -0.045,0.169 -0.201,0.169 l -0.153,0 L -0.18,0 0,0 Z m -0.379,0.514 0.356,0 c 0.117,0 0.171,-0.009 0.22,-0.029 0.108,-0.05 0.18,-0.157 0.18,-0.3 0,-0.132 -0.072,-0.254 -0.188,-0.301 l 0,-0.003 c 0,0 0.016,-0.016 0.04,-0.056 l 0.224,-0.408 -0.223,0 -0.216,0.408 -0.194,0 0,-0.408 -0.199,0 0,1.097 z"
         style="fill:#ffffff;fill-opacity:1;fill-rule:nonzero;stroke:none"
         id="path3234"
         inkscape:connector-curvature="0" />
    </g>
    <g
       id="g3236"
       transform="matrix(1.25,0,0,-1.25,-168.6578,304.68534)">
      <path
         d="M 0,0 C -0.34,0.813 -0.609,1.595 -0.852,2.28 -1.551,4.287 -2.102,5.872 -3.676,6.481 -3.725,6.502 -3.781,6.512 -3.838,6.513 -4.262,6.527 -4.879,6.034 -5.041,5.548 -5.143,5.242 -5.055,4.956 -4.805,4.783 -4.004,4.224 -3.656,3.57 -3.689,2.668 c -0.067,-1.814 -2.18,-4.906 -2.272,-5.04 -0.521,-0.772 -0.857,-1.445 -1.178,-2.101 -0.373,-0.755 -0.722,-1.467 -1.345,-2.289 -0.395,-0.522 -1.077,-0.463 -1.545,-0.969 -0.543,-0.592 0.191,-1.359 1.523,-1.076 0.813,0.176 1.151,0.657 1.475,1.118 0.523,0.752 1.064,1.529 3.91,1.424 l 2.639,-0.095 c 1.412,-0.05 1.781,-0.676 2.173,-1.343 0.315,-0.528 0.664,-1.132 1.59,-1.165 0.49,-0.019 0.932,0.324 0.948,0.728 0.015,0.433 -0.174,0.684 -0.52,1.141 C 3.133,-6.233 1.936,-4.641 0,0 m -0.104,-4.281 c -0.177,-0.241 -1.369,-0.183 -2.316,-0.148 -1.027,0.038 -2.281,-0.159 -2.406,0.178 -0.086,0.24 0.08,0.499 0.199,0.727 0.027,0.052 0.08,0.155 0.148,0.295 0.348,0.712 1.413,2.877 2,3.336 0.02,0.015 0.092,0.037 0.172,0.035 0.037,0 0.067,-0.008 0.09,-0.019 0.606,-0.347 1.59,-2.455 2.045,-3.663 0.055,-0.139 0.254,-0.486 0.068,-0.741"
         style="fill:#ffffff;fill-opacity:1;fill-rule:nonzero;stroke:none"
         id="path3238"
         inkscape:connector-curvature="0" />
    </g>
    <g
       id="g3240"
       transform="matrix(1.25,0,0,-1.25,-261.11867,319.83544)">
      <path
         d="m 0,0 c 0.336,0 0.559,-0.204 0.613,-0.554 l -1.365,0 C -0.643,-0.209 -0.365,0 0,0 m 0.012,0.568 c -0.854,0 -1.449,-0.631 -1.449,-1.535 0,-0.886 0.642,-1.528 1.529,-1.528 0.644,0 1.06,0.391 1.08,0.409 0.043,0.041 0.053,0.108 0.021,0.162 L 1.029,-1.647 C 1.008,-1.612 0.971,-1.59 0.932,-1.584 0.891,-1.581 0.848,-1.594 0.822,-1.621 0.818,-1.624 0.525,-1.907 0.102,-1.907 c -0.493,0 -0.831,0.305 -0.891,0.791 l 1.904,0 c 0.069,0 0.127,0.053 0.133,0.121 0,0.006 0.012,0.129 0.012,0.199 0,0.817 -0.502,1.364 -1.248,1.364"
         style="fill:#ffffff;fill-opacity:1;fill-rule:nonzero;stroke:none"
         id="path3242"
         inkscape:connector-curvature="0" />
    </g>
    <g
       id="g3244"
       transform="matrix(1.25,0,0,-1.25,-257.27342,320.97074)">
      <path
         d="M 0,0 0.811,1.205 C 0.836,1.247 0.84,1.299 0.814,1.341 0.793,1.385 0.748,1.412 0.697,1.412 l -0.424,0 C 0.23,1.412 0.187,1.389 0.162,1.351 L -0.393,0.48 -0.945,1.351 c -0.026,0.038 -0.069,0.061 -0.114,0.061 l -0.423,0 C -1.533,1.412 -1.576,1.385 -1.6,1.341 -1.623,1.299 -1.619,1.247 -1.594,1.205 L -0.781,0 -1.674,-1.317 c -0.027,-0.039 -0.027,-0.094 -0.004,-0.136 0.022,-0.043 0.065,-0.071 0.116,-0.071 l 0.425,0 c 0.043,0 0.088,0.023 0.11,0.06 l 0.634,0.984 0.635,-0.984 c 0.026,-0.037 0.067,-0.06 0.112,-0.06 l 0.425,0 c 0.051,0 0.094,0.028 0.117,0.071 0.022,0.042 0.02,0.097 -0.007,0.136 L 0,0 Z"
         style="fill:#ffffff;fill-opacity:1;fill-rule:nonzero;stroke:none"
         id="path3246"
         inkscape:connector-curvature="0" />
    </g>
    <g
       id="g3248"
       transform="matrix(1.25,0,0,-1.25,-254.06792,319.86954)">
      <path
         d="m 0,0 c 0.432,0 0.711,-0.368 0.711,-0.939 0,-0.566 -0.293,-0.947 -0.729,-0.947 -0.47,0 -0.716,0.473 -0.716,0.94 C -0.734,-0.488 -0.543,0 0,0 m 0.051,0.596 c -0.373,0 -0.629,-0.136 -0.791,-0.279 l 0,0.081 c 0,0.073 -0.059,0.133 -0.133,0.133 l -0.346,0 c -0.072,0 -0.131,-0.06 -0.131,-0.133 l 0,-3.733 c 0,-0.073 0.059,-0.132 0.131,-0.132 l 0.362,0 c 0.074,0 0.132,0.059 0.132,0.132 l 0,1.133 c 0.159,-0.136 0.401,-0.266 0.745,-0.266 0.781,0 1.328,0.629 1.328,1.529 0,0.916 -0.522,1.535 -1.297,1.535"
         style="fill:#ffffff;fill-opacity:1;fill-rule:nonzero;stroke:none"
         id="path3250"
         inkscape:connector-curvature="0" />
    </g>
    <g
       id="g3252"
       transform="matrix(1.25,0,0,-1.25,-250.80129,322.15474)">
      <path
         d="m 0,0 c 0,0 -0.035,-0.004 -0.07,-0.004 -0.071,0 -0.166,0 -0.166,0.272 l 0,3.019 c 0,0.074 -0.059,0.133 -0.135,0.133 l -0.359,0 c -0.073,0 -0.131,-0.059 -0.131,-0.133 l 0,-3.1 c 0,-0.499 0.271,-0.785 0.746,-0.785 0.08,0 0.152,0.011 0.152,0.011 0.067,0.012 0.113,0.068 0.113,0.131 l 0,0.324 c 0,0.039 -0.015,0.074 -0.045,0.101 C 0.076,-0.007 0.039,0.004 0,0"
         style="fill:#ffffff;fill-opacity:1;fill-rule:nonzero;stroke:none"
         id="path3254"
         inkscape:connector-curvature="0" />
    </g>
    <g
       id="g3256"
       transform="matrix(1.25,0,0,-1.25,-248.52342,322.21944)">
      <path
         d="M 0,0 C -0.508,0 -0.906,0.419 -0.906,0.956 -0.906,1.475 -0.508,1.88 0,1.88 0.51,1.88 0.91,1.475 0.91,0.956 0.91,0.419 0.51,0 0,0 m 0,2.476 c -0.865,0 -1.545,-0.668 -1.545,-1.52 0,-0.866 0.68,-1.544 1.545,-1.544 0.869,0 1.547,0.678 1.547,1.544 0,0.852 -0.678,1.52 -1.547,1.52"
         style="fill:#ffffff;fill-opacity:1;fill-rule:nonzero;stroke:none"
         id="path3258"
         inkscape:connector-curvature="0" />
    </g>
    <g
       id="g3260"
       transform="matrix(1.25,0,0,-1.25,-244.1973,319.19584)">
      <path
         d="m 0,0 c -0.008,0 -0.086,0.019 -0.174,0.019 -0.275,0 -0.525,-0.123 -0.711,-0.333 l 0,0.173 c 0,0.073 -0.058,0.133 -0.133,0.133 l -0.357,0 c -0.072,0 -0.131,-0.06 -0.131,-0.133 l 0,-2.671 c 0,-0.073 0.059,-0.132 0.131,-0.132 l 0.363,0 c 0.073,0 0.133,0.059 0.133,0.132 l 0,1.125 c 0,0.173 0.024,0.339 0.067,0.484 0.087,0.287 0.302,0.595 0.65,0.595 0.057,0 0.109,-0.009 0.109,-0.009 0.039,-0.005 0.08,0.006 0.11,0.03 0.029,0.025 0.045,0.062 0.045,0.099 l 0,0.357 C 0.102,-0.068 0.061,-0.016 0,0"
         style="fill:#ffffff;fill-opacity:1;fill-rule:nonzero;stroke:none"
         id="path3262"
         inkscape:connector-curvature="0" />
    </g>
    <g
       id="g3264"
       transform="matrix(1.25,0,0,-1.25,-242.61529,322.23894)">
      <path
         d="m 0,0 c -0.32,0 -0.463,0.187 -0.463,0.372 0,0.418 0.602,0.473 1.127,0.473 l 0.022,0 C 0.678,0.434 0.404,0 0,0 M 0.182,2.491 C -0.461,2.491 -0.84,2.169 -0.855,2.154 -0.904,2.112 -0.918,2.042 -0.883,1.985 l 0.17,-0.275 c 0.02,-0.033 0.055,-0.056 0.092,-0.062 0.037,-0.006 0.072,0.004 0.103,0.029 0,0 0.284,0.224 0.672,0.224 0.346,0 0.514,-0.153 0.532,-0.494 l -0.016,0 c -1.174,0 -1.77,-0.356 -1.77,-1.056 0,-0.608 0.524,-0.923 1.041,-0.923 0.356,0 0.6,0.142 0.76,0.296 l 0,-0.101 c 0,-0.073 0.059,-0.133 0.133,-0.133 l 0.346,0 c 0.072,0 0.132,0.06 0.132,0.133 l 0,1.709 c 0,0.737 -0.414,1.159 -1.13,1.159"
         style="fill:#ffffff;fill-opacity:1;fill-rule:nonzero;stroke:none"
         id="path3266"
         inkscape:connector-curvature="0" />
    </g>
    <g
       id="g3268"
       transform="matrix(1.25,0,0,-1.25,-238.3843,319.19584)">
      <path
         d="m 0,0 c -0.008,0 -0.086,0.019 -0.172,0.019 -0.277,0 -0.525,-0.123 -0.713,-0.333 l 0,0.173 c 0,0.073 -0.058,0.133 -0.133,0.133 l -0.355,0 c -0.072,0 -0.131,-0.06 -0.131,-0.133 l 0,-2.671 c 0,-0.073 0.059,-0.132 0.131,-0.132 l 0.359,0 c 0.075,0 0.137,0.059 0.137,0.132 l 0,1.125 c 0,0.173 0.022,0.339 0.066,0.484 0.086,0.287 0.301,0.595 0.649,0.595 0.057,0 0.111,-0.009 0.111,-0.009 0.039,-0.005 0.078,0.006 0.108,0.03 0.029,0.025 0.047,0.062 0.047,0.099 l 0,0.357 C 0.104,-0.068 0.061,-0.016 0,0"
         style="fill:#ffffff;fill-opacity:1;fill-rule:nonzero;stroke:none"
         id="path3270"
         inkscape:connector-curvature="0" />
    </g>
    <g
       id="g3272"
       transform="matrix(1.25,0,0,-1.25,-235.34229,320.37004)">
      <path
         d="M 0,0 -0.408,0 C -0.48,0 -0.541,-0.058 -0.541,-0.129 l 0,-0.426 c 0,-0.073 0.061,-0.133 0.133,-0.133 l 0.408,0 c 0.074,0 0.135,0.06 0.135,0.133 l 0,0.426 C 0.135,-0.058 0.074,0 0,0"
         style="fill:#ffffff;fill-opacity:1;fill-rule:nonzero;stroke:none"
         id="path3274"
         inkscape:connector-curvature="0" />
    </g>
    <g
       id="g3276"
       transform="matrix(1.25,0,0,-1.25,-230.96979,319.83544)">
      <path
         d="m 0,0 c 0.336,0 0.557,-0.204 0.615,-0.554 l -1.365,0 C -0.643,-0.209 -0.363,0 0,0 m 0.012,0.568 c -0.854,0 -1.451,-0.631 -1.451,-1.535 0,-0.886 0.646,-1.528 1.529,-1.528 0.648,0 1.062,0.391 1.08,0.409 0.045,0.041 0.055,0.108 0.023,0.162 L 1.025,-1.647 C 1.006,-1.612 0.973,-1.59 0.93,-1.584 0.891,-1.581 0.85,-1.594 0.82,-1.621 0.818,-1.624 0.527,-1.907 0.102,-1.907 c -0.493,0 -0.831,0.305 -0.893,0.791 l 1.906,0 c 0.071,0 0.127,0.053 0.133,0.121 0,0.006 0.012,0.129 0.012,0.199 0,0.817 -0.502,1.364 -1.248,1.364"
         style="fill:#ffffff;fill-opacity:1;fill-rule:nonzero;stroke:none"
         id="path3278"
         inkscape:connector-curvature="0" />
    </g>
    <g
       id="g3280"
       transform="matrix(1.25,0,0,-1.25,-226.91942,319.12494)">
      <path
         d="m 0,0 c -0.43,0 -0.736,-0.178 -0.936,-0.379 l 0,0.182 c 0,0.072 -0.058,0.133 -0.132,0.133 l -0.354,0 c -0.076,0 -0.133,-0.061 -0.133,-0.133 l 0,-2.671 c 0,-0.073 0.057,-0.133 0.133,-0.133 l 0.36,0 c 0.072,0 0.132,0.06 0.132,0.133 l 0,1.28 c 0,0.13 0.012,0.236 0.037,0.325 0.108,0.387 0.456,0.656 0.844,0.656 0.34,0 0.445,-0.16 0.445,-0.657 l 0,-1.604 c 0,-0.073 0.061,-0.133 0.135,-0.133 l 0.36,0 c 0.074,0 0.134,0.06 0.134,0.133 l 0,1.697 C 1.025,-0.383 0.689,0 0,0"
         style="fill:#ffffff;fill-opacity:1;fill-rule:nonzero;stroke:none"
         id="path3282"
         inkscape:connector-curvature="0" />
    </g>
    <g
       id="g3284"
       transform="matrix(1.25,0,0,-1.25,-222.00492,321.82884)">
      <path
         d="M 0,0 C -0.023,0.035 -0.061,0.061 -0.104,0.063 -0.146,0.067 -0.191,0.05 -0.217,0.016 c 0,-0.002 -0.279,-0.328 -0.752,-0.328 -0.533,0 -0.918,0.396 -0.918,0.94 0,0.543 0.381,0.939 0.907,0.939 0.416,0 0.679,-0.278 0.683,-0.28 0.027,-0.03 0.065,-0.046 0.106,-0.042 0.043,0.003 0.08,0.023 0.101,0.056 l 0.184,0.271 c 0.035,0.049 0.031,0.115 -0.008,0.16 -0.014,0.017 -0.371,0.431 -1.076,0.431 -0.875,0 -1.535,-0.66 -1.535,-1.535 0,-0.886 0.644,-1.528 1.535,-1.528 0.732,0 1.125,0.445 1.14,0.463 0.037,0.043 0.043,0.105 0.014,0.155 L 0,0 Z"
         style="fill:#ffffff;fill-opacity:1;fill-rule:nonzero;stroke:none"
         id="path3286"
         inkscape:connector-curvature="0" />
    </g>
    <g
       id="g3288"
       transform="matrix(1.25,0,0,-1.25,-219.71979,319.83544)">
      <path
         d="m 0,0 c 0.336,0 0.557,-0.204 0.613,-0.554 l -1.365,0 C -0.643,-0.209 -0.365,0 0,0 m 0.012,0.568 c -0.854,0 -1.449,-0.631 -1.449,-1.535 0,-0.886 0.642,-1.528 1.527,-1.528 0.646,0 1.062,0.391 1.08,0.409 0.045,0.041 0.053,0.108 0.021,0.162 L 1.027,-1.647 C 1.006,-1.612 0.971,-1.59 0.93,-1.584 0.889,-1.581 0.85,-1.594 0.818,-1.621 c 0,-0.003 -0.293,-0.286 -0.718,-0.286 -0.489,0 -0.83,0.305 -0.893,0.791 l 1.908,0 c 0.069,0 0.125,0.053 0.131,0.121 0.002,0.006 0.014,0.129 0.014,0.199 0,0.817 -0.504,1.364 -1.248,1.364"
         style="fill:#ffffff;fill-opacity:1;fill-rule:nonzero;stroke:none"
         id="path3290"
         inkscape:connector-curvature="0" />
    </g>
    <g
       id="g3292"
       transform="matrix(1.25,0,0,-1.25,-215.67192,319.12494)">
      <path
         d="m 0,0 c -0.428,0 -0.734,-0.178 -0.934,-0.379 l 0,0.182 c 0,0.072 -0.06,0.133 -0.132,0.133 l -0.358,0 c -0.072,0 -0.131,-0.061 -0.131,-0.133 l 0,-2.671 c 0,-0.073 0.059,-0.133 0.131,-0.133 l 0.362,0 c 0.074,0 0.134,0.06 0.134,0.133 l 0,1.28 c 0,0.13 0.012,0.236 0.037,0.325 0.108,0.387 0.455,0.656 0.844,0.656 0.338,0 0.445,-0.16 0.445,-0.657 l 0,-1.604 c 0,-0.073 0.061,-0.133 0.135,-0.133 l 0.36,0 c 0.072,0 0.132,0.06 0.132,0.133 l 0,1.697 C 1.025,-0.383 0.689,0 0,0"
         style="fill:#ffffff;fill-opacity:1;fill-rule:nonzero;stroke:none"
         id="path3294"
         inkscape:connector-curvature="0" />
    </g>
    <g
       id="g3296"
       transform="matrix(1.25,0,0,-1.25,-212.21492,322.21944)">
      <path
         d="m 0,0 c -0.432,0 -0.711,0.373 -0.711,0.945 0,0.563 0.293,0.941 0.729,0.941 0.494,0 0.716,-0.473 0.716,-0.941 C 0.734,0.488 0.543,0 0,0 m 1.217,3.472 -0.362,0 c -0.072,0 -0.13,-0.059 -0.13,-0.133 l 0,-1.125 C 0.564,2.35 0.328,2.476 -0.014,2.476 c -0.787,0 -1.332,-0.63 -1.332,-1.531 0,-0.917 0.52,-1.533 1.293,-1.533 0.371,0 0.623,0.134 0.787,0.278 l 0,-0.083 c 0,-0.073 0.059,-0.132 0.133,-0.132 l 0.35,0 c 0.072,0 0.133,0.059 0.133,0.132 l 0,3.732 c 0,0.074 -0.061,0.133 -0.133,0.133"
         style="fill:#ffffff;fill-opacity:1;fill-rule:nonzero;stroke:none"
         id="path3298"
         inkscape:connector-curvature="0" />
    </g>
    <g
       id="g3300"
       transform="matrix(1.25,0,0,-1.25,-208.20604,319.83544)">
      <path
         d="m 0,0 c 0.334,0 0.559,-0.204 0.615,-0.554 l -1.365,0 C -0.643,-0.209 -0.365,0 0,0 m 0.012,0.568 c -0.856,0 -1.449,-0.631 -1.449,-1.535 0,-0.886 0.642,-1.528 1.527,-1.528 0.646,0 1.062,0.391 1.078,0.409 0.047,0.041 0.057,0.108 0.023,0.162 L 1.027,-1.647 C 1.006,-1.612 0.971,-1.59 0.93,-1.584 0.891,-1.581 0.85,-1.594 0.82,-1.621 0.816,-1.624 0.527,-1.907 0.1,-1.907 c -0.489,0 -0.827,0.305 -0.891,0.791 l 1.906,0 c 0.069,0 0.127,0.053 0.133,0.121 0.002,0.006 0.01,0.129 0.01,0.199 0,0.817 -0.502,1.364 -1.246,1.364"
         style="fill:#ffffff;fill-opacity:1;fill-rule:nonzero;stroke:none"
         id="path3302"
         inkscape:connector-curvature="0" />
    </g>
    <g
       id="g3304"
       transform="matrix(1.25,0,0,-1.25,-204.21929,319.19584)">
      <path
         d="m 0,0 c 0,0 -0.086,0.019 -0.172,0.019 -0.277,0 -0.527,-0.123 -0.713,-0.333 l 0,0.173 c 0,0.073 -0.06,0.133 -0.135,0.133 l -0.353,0 c -0.072,0 -0.133,-0.06 -0.133,-0.133 l 0,-2.671 c 0,-0.073 0.061,-0.132 0.133,-0.132 l 0.359,0 c 0.077,0 0.135,0.059 0.135,0.132 l 0,1.125 c 0,0.173 0.024,0.339 0.068,0.484 0.086,0.287 0.299,0.595 0.649,0.595 0.057,0 0.111,-0.009 0.111,-0.009 0.037,-0.005 0.076,0.006 0.106,0.03 0.031,0.025 0.049,0.062 0.049,0.099 l 0,0.357 C 0.104,-0.068 0.061,-0.016 0,0"
         style="fill:#ffffff;fill-opacity:1;fill-rule:nonzero;stroke:none"
         id="path3306"
         inkscape:connector-curvature="0" />
    </g>
    <g
       id="g3308"
       transform="matrix(1.25,0,0,-1.25,-201.17729,320.37004)">
      <path
         d="m 0,0 -0.408,0 c -0.074,0 -0.133,-0.058 -0.133,-0.129 l 0,-0.426 c 0,-0.073 0.059,-0.133 0.133,-0.133 l 0.408,0 c 0.074,0 0.133,0.06 0.133,0.133 l 0,0.426 C 0.133,-0.058 0.074,0 0,0"
         style="fill:#ffffff;fill-opacity:1;fill-rule:nonzero;stroke:none"
         id="path3310"
         inkscape:connector-curvature="0" />
    </g>
    <g
       id="g3312"
       transform="matrix(1.25,0,0,-1.25,-196.7583,322.15594)">
      <path
         d="m 0,0 c 0,0 -0.037,-0.009 -0.094,-0.009 -0.312,0 -0.468,0.194 -0.468,0.574 l 0,1.195 0.537,0 c 0.072,0 0.132,0.06 0.132,0.133 l 0,0.302 c 0,0.073 -0.06,0.134 -0.132,0.134 l -0.537,0 0,0.636 c 0,0.074 -0.059,0.133 -0.133,0.133 l -0.356,0 c -0.074,0 -0.131,-0.059 -0.131,-0.133 l 0,-0.636 -0.224,0 c -0.074,0 -0.133,-0.061 -0.133,-0.134 l 0,-0.302 c 0,-0.073 0.059,-0.133 0.133,-0.133 l 0.217,0 0,-1.231 c 0,-1.016 0.744,-1.126 1.062,-1.126 0.106,0 0.172,0.01 0.172,0.01 0.07,0.014 0.115,0.069 0.115,0.132 l 0,0.324 c 0,0.04 -0.019,0.078 -0.049,0.104 C 0.08,-0.001 0.039,0.008 0,0"
         style="fill:#ffffff;fill-opacity:1;fill-rule:nonzero;stroke:none"
         id="path3314"
         inkscape:connector-curvature="0" />
    </g>
    <g
       id="g3316"
       transform="matrix(1.25,0,0,-1.25,-194.26567,319.19584)">
      <path
         d="m 0,0 c -0.006,0 -0.086,0.019 -0.172,0.019 -0.275,0 -0.525,-0.123 -0.713,-0.333 l 0,0.173 c 0,0.073 -0.058,0.133 -0.133,0.133 l -0.355,0 c -0.07,0 -0.131,-0.06 -0.131,-0.133 l 0,-2.671 c 0,-0.073 0.061,-0.132 0.131,-0.132 l 0.361,0 c 0.075,0 0.133,0.059 0.133,0.132 l 0,1.125 c 0,0.173 0.024,0.339 0.068,0.484 0.086,0.287 0.303,0.595 0.649,0.595 0.057,0 0.111,-0.009 0.111,-0.009 0.039,-0.005 0.08,0.006 0.11,0.03 0.027,0.025 0.045,0.062 0.045,0.099 l 0,0.357 C 0.104,-0.068 0.061,-0.016 0,0"
         style="fill:#ffffff;fill-opacity:1;fill-rule:nonzero;stroke:none"
         id="path3318"
         inkscape:connector-curvature="0" />
    </g>
    <g
       id="g3320"
       transform="matrix(1.25,0,0,-1.25,-192.68367,322.23894)">
      <path
         d="m 0,0 c -0.316,0 -0.461,0.187 -0.461,0.372 0,0.418 0.602,0.473 1.127,0.473 l 0.02,0 C 0.68,0.434 0.406,0 0,0 M 0.182,2.491 C -0.461,2.491 -0.84,2.169 -0.855,2.154 -0.904,2.112 -0.916,2.042 -0.883,1.985 L -0.711,1.71 c 0.02,-0.033 0.053,-0.056 0.09,-0.062 0.037,-0.006 0.076,0.004 0.105,0.029 0,0 0.282,0.224 0.672,0.224 0.346,0 0.51,-0.153 0.53,-0.494 l -0.016,0 c -1.174,0 -1.768,-0.356 -1.768,-1.056 0,-0.608 0.524,-0.923 1.039,-0.923 0.358,0 0.602,0.142 0.762,0.296 l 0,-0.101 c 0,-0.073 0.059,-0.133 0.131,-0.133 l 0.346,0 c 0.072,0 0.132,0.06 0.132,0.133 l 0,1.709 c 0,0.737 -0.412,1.159 -1.13,1.159"
         style="fill:#ffffff;fill-opacity:1;fill-rule:nonzero;stroke:none"
         id="path3322"
         inkscape:connector-curvature="0" />
    </g>
    <g
       id="g3324"
       transform="matrix(1.25,0,0,-1.25,-188.3868,319.12494)">
      <path
         d="m 0,0 c -0.43,0 -0.736,-0.178 -0.937,-0.379 l 0,0.182 c 0,0.072 -0.059,0.133 -0.131,0.133 l -0.356,0 c -0.074,0 -0.133,-0.061 -0.133,-0.133 l 0,-2.671 c 0,-0.073 0.059,-0.133 0.133,-0.133 l 0.36,0 c 0.074,0 0.132,0.06 0.132,0.133 l 0,1.28 c 0,0.13 0.012,0.236 0.037,0.325 0.108,0.387 0.456,0.656 0.846,0.656 0.338,0 0.445,-0.16 0.445,-0.657 l 0,-1.604 c 0,-0.073 0.061,-0.133 0.133,-0.133 l 0.362,0 c 0.072,0 0.132,0.06 0.132,0.133 l 0,1.697 C 1.023,-0.383 0.687,0 0,0"
         style="fill:#ffffff;fill-opacity:1;fill-rule:nonzero;stroke:none"
         id="path3326"
         inkscape:connector-curvature="0" />
    </g>
    <g
       id="g3328"
       transform="matrix(1.25,0,0,-1.25,-185.10305,320.68994)">
      <path
         d="m 0,0 c -0.328,0.127 -0.525,0.217 -0.525,0.379 0,0.254 0.279,0.283 0.396,0.283 0.375,0 0.566,-0.194 0.574,-0.204 0.028,-0.029 0.071,-0.045 0.11,-0.04 0.041,0.004 0.08,0.028 0.101,0.064 l 0.166,0.277 c 0.028,0.05 0.022,0.112 -0.017,0.155 -0.012,0.014 -0.307,0.338 -0.92,0.338 -0.617,0 -1.049,-0.359 -1.049,-0.873 0,-0.568 0.506,-0.768 0.912,-0.929 0.328,-0.13 0.527,-0.22 0.527,-0.382 0,-0.215 -0.218,-0.292 -0.404,-0.292 -0.432,0 -0.695,0.279 -0.699,0.282 -0.026,0.029 -0.063,0.045 -0.104,0.044 -0.039,-0.004 -0.074,-0.022 -0.097,-0.055 l -0.198,-0.26 c -0.037,-0.051 -0.035,-0.121 0.008,-0.167 0.014,-0.016 0.387,-0.432 1.086,-0.432 0.604,0 1.043,0.369 1.043,0.88 C 0.91,-0.356 0.406,-0.158 0,0"
         style="fill:#ffffff;fill-opacity:1;fill-rule:nonzero;stroke:none"
         id="path3330"
         inkscape:connector-curvature="0" />
    </g>
    <g
       id="g3332"
       transform="matrix(1.25,0,0,-1.25,-181.75342,317.86284)">
      <path
         d="m 0,0 c -0.006,0.003 -0.076,0.014 -0.186,0.014 -0.66,0 -1.054,-0.419 -1.054,-1.119 l -0.201,0 c -0.075,0 -0.135,-0.062 -0.135,-0.134 l 0,-0.303 c 0,-0.072 0.06,-0.133 0.135,-0.133 l 0.201,0 0,-2.203 c 0,-0.073 0.058,-0.133 0.133,-0.133 l 0.359,0 c 0.074,0 0.133,0.06 0.133,0.133 l 0,2.203 0.553,0 c 0.072,0 0.13,0.061 0.13,0.133 l 0,0.303 c 0,0.072 -0.058,0.134 -0.13,0.134 l -0.553,0 c 0.002,0.351 0.16,0.53 0.467,0.53 0.058,0 0.101,-0.009 0.101,-0.009 0.039,-0.008 0.078,0.004 0.109,0.029 0.032,0.025 0.051,0.062 0.051,0.102 l 0,0.323 C 0.113,-0.066 0.064,-0.01 0,0"
         style="fill:#ffffff;fill-opacity:1;fill-rule:nonzero;stroke:none"
         id="path3334"
         inkscape:connector-curvature="0" />
    </g>
    <g
       id="g3336"
       transform="matrix(1.25,0,0,-1.25,-179.67579,322.21944)">
      <path
         d="M 0,0 C -0.51,0 -0.908,0.419 -0.908,0.956 -0.908,1.475 -0.51,1.88 0,1.88 0.51,1.88 0.908,1.475 0.908,0.956 0.908,0.419 0.51,0 0,0 m 0,2.476 c -0.865,0 -1.545,-0.668 -1.545,-1.52 0,-0.866 0.68,-1.544 1.545,-1.544 0.865,0 1.545,0.678 1.545,1.544 0,0.852 -0.68,1.52 -1.545,1.52"
         style="fill:#ffffff;fill-opacity:1;fill-rule:nonzero;stroke:none"
         id="path3338"
         inkscape:connector-curvature="0" />
    </g>
    <g
       id="g3340"
       transform="matrix(1.25,0,0,-1.25,-175.34967,319.19584)">
      <path
         d="m 0,0 c -0.01,0 -0.086,0.019 -0.174,0.019 -0.275,0 -0.525,-0.123 -0.711,-0.333 l 0,0.173 c 0,0.073 -0.06,0.133 -0.135,0.133 l -0.353,0 c -0.074,0 -0.133,-0.06 -0.133,-0.133 l 0,-2.671 c 0,-0.073 0.059,-0.132 0.133,-0.132 l 0.359,0 c 0.075,0 0.133,0.059 0.133,0.132 l 0,1.125 c 0,0.173 0.024,0.339 0.07,0.484 0.084,0.287 0.301,0.595 0.647,0.595 0.059,0 0.111,-0.009 0.111,-0.009 0.039,-0.005 0.078,0.006 0.108,0.03 0.029,0.025 0.047,0.062 0.047,0.099 l 0,0.357 C 0.102,-0.068 0.059,-0.016 0,0"
         style="fill:#ffffff;fill-opacity:1;fill-rule:nonzero;stroke:none"
         id="path3342"
         inkscape:connector-curvature="0" />
    </g>
    <g
       id="g3344"
       transform="matrix(1.25,0,0,-1.25,-170.77442,319.12494)">
      <path
         d="M 0,0 C -0.373,0 -0.73,-0.19 -0.953,-0.484 -1.104,-0.162 -1.395,0 -1.82,0 -2.123,0 -2.438,-0.146 -2.654,-0.366 l 0,0.169 c 0,0.072 -0.061,0.133 -0.135,0.133 l -0.354,0 c -0.074,0 -0.134,-0.061 -0.134,-0.133 l 0,-2.671 c 0,-0.073 0.06,-0.133 0.134,-0.133 l 0.358,0 c 0.076,0 0.135,0.06 0.135,0.133 l 0,1.263 c 0,0.123 0.011,0.231 0.031,0.323 0.092,0.329 0.363,0.686 0.75,0.686 0.322,0 0.43,-0.167 0.43,-0.664 l 0,-1.608 c 0,-0.073 0.06,-0.133 0.132,-0.133 l 0.362,0 c 0.074,0 0.131,0.06 0.131,0.133 l 0,1.263 c 0,0.151 0.013,0.258 0.043,0.348 0,10e-4 0.001,0.005 0.001,0.007 0.083,0.318 0.362,0.654 0.717,0.654 0.324,0 0.446,-0.178 0.446,-0.664 l 0,-1.608 c 0,-0.073 0.06,-0.133 0.132,-0.133 l 0.36,0 c 0.074,0 0.135,0.06 0.135,0.133 l 0,1.697 C 1.02,-0.383 0.684,0 0,0"
         style="fill:#ffffff;fill-opacity:1;fill-rule:nonzero;stroke:none"
         id="path3346"
         inkscape:connector-curvature="0" />
    </g>
    <g
       id="g3348"
       transform="matrix(1.25,0,0,-1.25,-167.68854,322.23894)">
      <path
         d="m 0,0 c -0.32,0 -0.463,0.187 -0.463,0.372 0,0.418 0.604,0.473 1.125,0.473 l 0.022,0 C 0.678,0.434 0.404,0 0,0 m 0.178,2.491 c -0.639,0 -1.02,-0.322 -1.035,-0.337 C -0.908,2.112 -0.918,2.042 -0.885,1.985 L -0.713,1.71 c 0.02,-0.033 0.053,-0.056 0.088,-0.062 0.041,-0.006 0.08,0.004 0.107,0.029 0,0 0.282,0.224 0.672,0.224 0.346,0 0.512,-0.153 0.53,-0.494 l -0.016,0 c -1.174,0 -1.766,-0.356 -1.766,-1.056 0,-0.608 0.522,-0.923 1.039,-0.923 0.356,0 0.598,0.142 0.76,0.296 l 0,-0.101 c 0,-0.073 0.059,-0.133 0.131,-0.133 l 0.344,0 c 0.076,0 0.133,0.06 0.133,0.133 l 0,1.709 c 0,0.737 -0.411,1.159 -1.131,1.159"
         style="fill:#ffffff;fill-opacity:1;fill-rule:nonzero;stroke:none"
         id="path3350"
         inkscape:connector-curvature="0" />
    </g>
    <g
       id="g3352"
       transform="matrix(1.25,0,0,-1.25,-163.45754,319.19584)">
      <path
         d="m 0,0 c -0.01,0 -0.086,0.019 -0.174,0.019 -0.275,0 -0.525,-0.123 -0.713,-0.333 l 0,0.173 c 0,0.073 -0.058,0.133 -0.131,0.133 l -0.355,0 c -0.072,0 -0.133,-0.06 -0.133,-0.133 l 0,-2.671 c 0,-0.073 0.061,-0.132 0.133,-0.132 l 0.359,0 c 0.075,0 0.133,0.059 0.133,0.132 l 0,1.125 c 0,0.173 0.026,0.339 0.07,0.484 0.086,0.287 0.301,0.595 0.649,0.595 0.055,0 0.109,-0.009 0.109,-0.009 0.041,-0.005 0.08,0.006 0.108,0.03 0.031,0.025 0.049,0.062 0.049,0.099 l 0,0.357 C 0.104,-0.068 0.061,-0.016 0,0"
         style="fill:#ffffff;fill-opacity:1;fill-rule:nonzero;stroke:none"
         id="path3354"
         inkscape:connector-curvature="0" />
    </g>
  </g>
</svg>
