<?xml version="1.0" encoding="UTF-8" standalone="no"?>
<!-- Created with Inkscape (http://www.inkscape.org/) -->

<svg
   xmlns:dc="http://purl.org/dc/elements/1.1/"
   xmlns:cc="http://creativecommons.org/ns#"
   xmlns:rdf="http://www.w3.org/1999/02/22-rdf-syntax-ns#"
   xmlns:svg="http://www.w3.org/2000/svg"
   xmlns="http://www.w3.org/2000/svg"
   xmlns:sodipodi="http://sodipodi.sourceforge.net/DTD/sodipodi-0.dtd"
   xmlns:inkscape="http://www.inkscape.org/namespaces/inkscape"
   width="9.5795412mm"
   height="10.435959mm"
   viewBox="0 0 33.943256 36.977807"
   id="svg30450"
   version="1.1"
   inkscape:version="0.91 r"
   sodipodi:docname="people-icon.svg">
  <defs
     id="defs30452" />
  <sodipodi:namedview
     id="base"
     pagecolor="#ffffff"
     bordercolor="#666666"
     borderopacity="1.0"
     inkscape:pageopacity="0.0"
     inkscape:pageshadow="2"
     inkscape:zoom="0.35"
     inkscape:cx="-681.5998"
     inkscape:cy="18.488903"
     inkscape:document-units="px"
     inkscape:current-layer="layer1"
     showgrid="false"
     fit-margin-top="0"
     fit-margin-left="0"
     fit-margin-right="0"
     fit-margin-bottom="0"
     inkscape:window-width="1861"
     inkscape:window-height="1056"
     inkscape:window-x="59"
     inkscape:window-y="24"
     inkscape:window-maximized="1" />
  <metadata
     id="metadata30455">
    <rdf:RDF>
      <cc:Work
         rdf:about="">
        <dc:format>image/svg+xml</dc:format>
        <dc:type
           rdf:resource="http://purl.org/dc/dcmitype/StillImage" />
        <dc:title></dc:title>
      </cc:Work>
    </rdf:RDF>
  </metadata>
  <g
     inkscape:label="Layer 1"
     inkscape:groupmode="layer"
     id="layer1"
     transform="translate(-358.02837,-513.8733)">
    <g
       id="g3056"
       transform="matrix(1.25,0,0,-1.25,384.79238,524.93892)">
      <path
         d="m 0,0 c 3.775,-1.467 5.47,-4.363 5.657,-8.097 0.184,-3.739 0.009,-7.494 0.059,-11.24 0.014,-1.017 -0.24,-1.404 -1.331,-1.388 -4.214,0.055 -8.427,0.023 -12.64,0.023 -0.615,0 -1.242,-0.062 -1.215,0.864 0.128,4.275 -0.296,8.565 0.241,12.822 0.414,3.314 2.223,5.649 5.472,7.006 -1.503,1.174 -2.742,2.47 -2.622,4.54 0.079,1.276 0.533,2.338 1.461,3.19 1.807,1.654 4.879,1.468 6.492,-0.373 C 3.457,5.197 2.894,2.333 0,0"
         style="fill:#ffffff;fill-opacity:1;fill-rule:evenodd;stroke:none"
         id="path3058"
         inkscape:connector-curvature="0" />
    </g>
    <g
       id="g3060"
       transform="matrix(1.25,0,0,-1.25,362.9015,532.41454)">
      <path
         d="M 0,0 C -2.001,2.344 -2.161,4.335 -0.573,5.708 0.741,6.845 2.764,6.75 3.964,5.492 5.332,4.063 5.089,2.086 3.188,0.104 c 3.374,-1.678 4.039,-4.636 3.846,-8.039 -0.105,-1.795 -0.059,-3.608 0,-5.409 0.03,-0.992 -0.223,-1.432 -1.328,-1.404 -2.806,0.071 -5.613,0.047 -8.418,0.01 -0.839,-0.011 -1.202,0.223 -1.186,1.116 0.05,2.608 -0.056,5.22 0.065,7.818 C -3.715,-3.238 -2.618,-1.182 0,0"
         style="fill:#ffffff;fill-opacity:1;fill-rule:evenodd;stroke:none"
         id="path3062"
         inkscape:connector-curvature="0" />
    </g>
  </g>
</svg>
