<?xml version="1.0" encoding="UTF-8" standalone="no"?>
<!-- Created with Inkscape (http://www.inkscape.org/) -->

<svg
   xmlns:dc="http://purl.org/dc/elements/1.1/"
   xmlns:cc="http://creativecommons.org/ns#"
   xmlns:rdf="http://www.w3.org/1999/02/22-rdf-syntax-ns#"
   xmlns:svg="http://www.w3.org/2000/svg"
   xmlns="http://www.w3.org/2000/svg"
   xmlns:sodipodi="http://sodipodi.sourceforge.net/DTD/sodipodi-0.dtd"
   xmlns:inkscape="http://www.inkscape.org/namespaces/inkscape"
   width="11.670421mm"
   height="8.8554754mm"
   viewBox="0 0 41.351884 31.377669"
   id="svg32223"
   version="1.1"
   inkscape:version="0.91 r"
   sodipodi:docname="reto.svg">
  <defs
     id="defs32225" />
  <sodipodi:namedview
     id="base"
     pagecolor="#ffffff"
     bordercolor="#666666"
     borderopacity="1.0"
     inkscape:pageopacity="0.0"
     inkscape:pageshadow="2"
     inkscape:zoom="2.8"
     inkscape:cx="-30.315068"
     inkscape:cy="-31.506684"
     inkscape:document-units="px"
     inkscape:current-layer="layer1"
     showgrid="false"
     fit-margin-top="0"
     fit-margin-left="0"
     fit-margin-right="0"
     fit-margin-bottom="0"
     inkscape:window-width="1861"
     inkscape:window-height="1056"
     inkscape:window-x="59"
     inkscape:window-y="24"
     inkscape:window-maximized="1" />
  <metadata
     id="metadata32228">
    <rdf:RDF>
      <cc:Work
         rdf:about="">
        <dc:format>image/svg+xml</dc:format>
        <dc:type
           rdf:resource="http://purl.org/dc/dcmitype/StillImage" />
        <dc:title></dc:title>
      </cc:Work>
    </rdf:RDF>
  </metadata>
  <g
     inkscape:label="Layer 1"
     inkscape:groupmode="layer"
     id="layer1"
     transform="translate(573.26114,-790.95908)">
    <g
       id="g2906"
       transform="matrix(1.25,0,0,-1.25,-540.74609,795.46995)">
      <path
         d="m 0,0 c -1.363,-0.284 -2.657,-0.556 -3.988,-0.835 l 0,-1.629 C -1.157,-2.727 0.186,-1.859 0,0 m -10.729,-4.043 c -1.326,-0.278 -2.651,-0.555 -3.994,-0.834 l 0,-1.658 c 2.896,-0.22 4.334,0.708 3.994,2.492 m -4.074,-0.016 c 1.201,0.31 2.419,0.52 3.551,0.945 0.836,0.311 0.824,0.93 0.008,1.29 -2.344,1.026 -4.732,1.027 -7.065,-0.017 -0.837,-0.374 -0.845,-0.953 0,-1.27 1.105,-0.417 2.281,-0.628 3.506,-0.948 M -4.077,3.105 C -5.26,2.815 -6.39,2.572 -7.493,2.246 -7.773,2.162 -8.144,1.822 -8.162,1.577 -8.176,1.351 -7.824,0.985 -7.551,0.871 c 2.32,-0.977 4.659,-0.971 6.976,0.006 0.252,0.105 0.6,0.451 0.571,0.635 -0.043,0.268 -0.337,0.632 -0.596,0.71 -1.136,0.341 -2.297,0.592 -3.477,0.883 m -20.206,-8.454 c 0.437,-0.205 0.643,-0.313 0.855,-0.395 2.629,-1.005 5.246,-2.031 7.897,-2.986 0.455,-0.166 1.076,-0.169 1.534,-10e-4 6.113,2.262 12.208,4.568 18.312,6.866 0.275,0.104 0.541,0.24 0.995,0.446 -0.834,0.321 -1.485,0.578 -2.138,0.828 -0.69,0.263 -1.378,0.52 -2.088,0.787 -0.395,-2.57 -0.814,-3.1 -3.218,-3.434 -1.307,-0.18 -2.684,-0.172 -3.993,0.028 -2.414,0.371 -2.801,0.903 -3.004,3.303 -0.004,0.033 -0.025,0.063 -0.093,0.213 -0.755,-0.285 -1.523,-0.575 -2.607,-0.984 1.837,-0.516 2.311,-1.567 2.125,-3.017 -0.035,-0.27 -0.005,-0.551 -0.007,-0.825 -0.009,-1.345 -0.321,-1.843 -1.588,-2.33 -1.78,-0.682 -3.609,-0.76 -5.476,-0.42 -2.377,0.435 -2.87,0.954 -3.037,3.292 -0.005,0.062 -0.051,0.119 -0.114,0.261 -1.368,-0.512 -2.739,-1.026 -4.355,-1.632 m 9.96,-15.082 c 0.234,0.015 0.341,-10e-4 0.432,0.031 6.522,2.454 13.046,4.901 19.553,7.398 0.274,0.106 0.532,0.654 0.539,1.001 0.039,3.059 0.026,6.121 0.022,9.181 0,0.22 -0.029,0.438 -0.042,0.635 -0.128,0.017 -0.167,0.034 -0.196,0.024 -6.552,-2.462 -13.106,-4.93 -19.665,-7.376 -0.584,-0.215 -0.654,-0.581 -0.651,-1.104 0.018,-2.339 0.008,-4.678 0.008,-7.016 l 0,-2.774 z M 7.05,-7.369 c 0,-1.754 -0.017,-3.509 0.011,-5.263 0.011,-0.56 -0.157,-0.856 -0.71,-1.064 -6.848,-2.562 -13.678,-5.157 -20.529,-7.712 -0.37,-0.139 -0.888,-0.097 -1.271,0.044 -3.282,1.224 -6.543,2.501 -9.822,3.73 -0.539,0.2 -0.741,0.463 -0.735,1.041 0.022,3.577 0.026,7.155 -0.006,10.732 -0.004,0.652 0.286,0.902 0.833,1.097 1.549,0.558 3.094,1.128 4.621,1.751 0.318,0.13 0.523,0.512 0.789,0.768 0.483,0.461 0.896,1.152 1.466,1.322 1.234,0.37 2.551,0.67 3.826,0.639 1.894,-0.044 3.399,0.978 5.086,1.481 0.089,0.027 0.217,0.106 0.232,0.181 0.358,1.774 1.86,2.103 3.218,2.198 1.683,0.114 3.405,-0.088 5.086,-0.33 C 0.025,3.117 0.793,2.588 0.981,1.525 1.027,1.281 1.406,1.024 1.685,0.91 3.147,0.316 4.613,-0.278 6.109,-0.78 6.869,-1.034 7.09,-1.442 7.068,-2.209 7.015,-3.928 7.05,-5.648 7.05,-7.369"
         style="fill:#ffffff;fill-opacity:1;fill-rule:evenodd;stroke:none"
         id="path2908"
         inkscape:connector-curvature="0" />
    </g>
  </g>
</svg>
