<?xml version="1.0" encoding="UTF-8" standalone="no"?>
<!-- Created with Inkscape (http://www.inkscape.org/) -->

<svg
   xmlns:dc="http://purl.org/dc/elements/1.1/"
   xmlns:cc="http://creativecommons.org/ns#"
   xmlns:rdf="http://www.w3.org/1999/02/22-rdf-syntax-ns#"
   xmlns:svg="http://www.w3.org/2000/svg"
   xmlns="http://www.w3.org/2000/svg"
   xmlns:sodipodi="http://sodipodi.sourceforge.net/DTD/sodipodi-0.dtd"
   xmlns:inkscape="http://www.inkscape.org/namespaces/inkscape"
   width="59.174747mm"
   height="16.37196mm"
   viewBox="0 0 209.6743 58.010881"
   id="svg26939"
   version="1.1"
   inkscape:version="0.91 r"
   sodipodi:docname="sodexo-logo.svg">
  <defs
     id="defs26941" />
  <sodipodi:namedview
     id="base"
     pagecolor="#ffffff"
     bordercolor="#666666"
     borderopacity="1.0"
     inkscape:pageopacity="0.0"
     inkscape:pageshadow="2"
     inkscape:zoom="3.959798"
     inkscape:cx="71.796682"
     inkscape:cy="21.669984"
     inkscape:document-units="px"
     inkscape:current-layer="layer1"
     showgrid="false"
     fit-margin-top="0"
     fit-margin-left="0"
     fit-margin-right="0"
     fit-margin-bottom="0"
     inkscape:window-width="1861"
     inkscape:window-height="1056"
     inkscape:window-x="59"
     inkscape:window-y="24"
     inkscape:window-maximized="1" />
  <metadata
     id="metadata26944">
    <rdf:RDF>
      <cc:Work
         rdf:about="">
        <dc:format>image/svg+xml</dc:format>
        <dc:type
           rdf:resource="http://purl.org/dc/dcmitype/StillImage" />
        <dc:title></dc:title>
      </cc:Work>
    </rdf:RDF>
  </metadata>
  <g
     inkscape:label="Layer 1"
     inkscape:groupmode="layer"
     id="layer1"
     transform="translate(-500.87714,-714.78534)">
    <g
       id="g2604"
       transform="matrix(1.25,0,0,-1.25,653.78301,729.16034)">
      <path
         d="m 0,0 -3.222,-0.206 -1.021,-5.183 c -1.233,0.046 -1.621,0.085 -3.071,0.085 -4.534,0 -8.495,-1.905 -9.54,-6.38 -0.941,-4.034 1.351,-7.16 6.346,-7.16 5.117,0 7.345,2.665 8.142,6.423 L 0,0 Z m -4.772,-7.568 -1.058,-5.295 c -0.468,-2.149 -1.764,-3.578 -4.403,-3.578 -3.035,0 -3.833,1.879 -3.168,4.528 0.939,3.751 4.006,4.868 8.629,4.345"
         style="fill:#283897;fill-opacity:1;fill-rule:nonzero;stroke:none"
         id="path2606"
         inkscape:connector-curvature="0" />
    </g>
    <g
       id="g2608"
       transform="matrix(1.25,0,0,-1.25,610.07577,738.90146)">
      <path
         d="m 0,0 c -4.729,0.429 -8.792,0.035 -8.86,-1.566 -0.1,-2.411 7.791,-0.307 7.639,-4.741 -0.223,-6.512 -11.193,-5.015 -13.912,-4.185 l 0.492,1.931 c 4.683,-0.742 9.622,-0.803 9.733,1.778 0.115,2.744 -7.812,0.278 -7.624,4.723 0.138,3.309 5.092,5.094 13.196,3.902 L 0,0 Z"
         style="fill:#283897;fill-opacity:1;fill-rule:nonzero;stroke:none"
         id="path2610"
         inkscape:connector-curvature="0" />
    </g>
    <g
       id="g2612"
       transform="matrix(1.25,0,0,-1.25,622.58914,735.97484)">
      <path
         d="m 0,0 c -4.7,0 -8.482,-2.723 -9.406,-6.771 -0.935,-4.059 1.596,-6.771 6.296,-6.771 4.7,0 8.479,2.712 9.409,6.771 C 7.225,-2.723 4.699,0 0,0 m 2.732,-6.771 c -0.682,-2.722 -2.836,-4.427 -5.404,-4.427 -2.683,0 -3.892,1.558 -3.175,4.427 0.686,2.717 2.868,4.541 5.431,4.541 2.566,0 3.83,-1.824 3.148,-4.541"
         style="fill:#283897;fill-opacity:1;fill-rule:nonzero;stroke:none"
         id="path2614"
         inkscape:connector-curvature="0" />
    </g>
    <g
       id="g2616"
       transform="matrix(1.25,0,0,-1.25,690.46763,752.81996)">
      <path
         d="m 0,0 -4.084,0 c -2.478,2.33 -7.22,7.682 -10.707,13.345 l 2.998,0 C -8.484,8.776 0,0 0,0"
         style="fill:#283897;fill-opacity:1;fill-rule:nonzero;stroke:none"
         id="path2618"
         inkscape:connector-curvature="0" />
    </g>
    <g
       id="g2620"
       transform="matrix(1.25,0,0,-1.25,695.82163,719.68159)">
      <path
         d="M 0,0 1.878,3.917 2.413,-0.067 6.249,1.275 3.568,-2.161 6.473,-4.412 2.596,-4.709 2.385,-8.851 l -2.158,3.059 -3.168,-2.921 1.186,4.115 -3.736,0.513 3.639,2.066 L -3.345,1.529 0,0 Z"
         style="fill:#283897;fill-opacity:1;fill-rule:nonzero;stroke:none"
         id="path2622"
         inkscape:connector-curvature="0" />
    </g>
    <g
       id="g2624"
       transform="matrix(1.25,0,0,-1.25,702.30726,735.89671)">
      <path
         d="m 0,0 c -4.772,0 -8.612,-2.761 -9.557,-6.874 -0.944,-4.118 1.625,-6.882 6.4,-6.882 4.773,0 8.611,2.764 9.559,6.882 C 7.346,-2.761 4.773,0 0,0 m 2.778,-6.874 c -0.695,-2.764 -2.88,-4.5 -5.49,-4.5 -2.727,0 -3.954,1.584 -3.221,4.5 0.692,2.758 2.908,4.614 5.515,4.614 2.605,0 3.892,-1.856 3.196,-4.614"
         style="fill:#283897;fill-opacity:1;fill-rule:nonzero;stroke:none"
         id="path2626"
         inkscape:connector-curvature="0" />
    </g>
    <g
       id="g2628"
       transform="matrix(1.25,0,0,-1.25,668.10801,751.39109)">
      <path
         d="M 0,0 C 7.718,4.28 14.421,10.868 19.172,16.563 15.759,5.864 7.527,0.108 0,0"
         style="fill:#ff0000;fill-opacity:1;fill-rule:nonzero;stroke:none"
         id="path2630"
         inkscape:connector-curvature="0" />
    </g>
    <g
       id="g2632"
       transform="matrix(1.25,0,0,-1.25,671.11213,740.22846)">
      <path
         d="m 0,0 c 0,1.973 -1.571,3.421 -5.138,3.421 -5.783,0 -9.544,-3.753 -9.544,-8.403 0,-3.003 2.494,-5.496 7.047,-5.496 3.138,0 5.232,1.548 5.232,1.548 -3.99,-0.429 -8.896,0 -8.896,4.265 0,0.169 0.01,0.343 0.024,0.51 C -5.832,-5.285 0,-3.916 0,0 m -5.456,1.415 c 1.477,0 2.283,-0.537 2.283,-1.561 0,-2.722 -5.304,-2.544 -7.645,-2.067 0.822,2.037 2.68,3.628 5.362,3.628"
         style="fill:#283897;fill-opacity:1;fill-rule:nonzero;stroke:none"
         id="path2634"
         inkscape:connector-curvature="0" />
    </g>
    <g
       id="g2636"
       transform="matrix(1.25,0,0,-1.25,504.44589,772.79622)">
      <path
         d="m 0,0 c -1.186,0 -2.086,0.253 -2.855,1.033 l 0.988,0.988 c 0.495,-0.494 1.166,-0.658 1.889,-0.658 0.901,0 1.384,0.34 1.384,0.966 0,0.274 -0.076,0.505 -0.242,0.659 -0.153,0.142 -0.33,0.22 -0.691,0.274 l -0.945,0.132 c -0.67,0.099 -1.165,0.308 -1.515,0.648 -0.373,0.374 -0.56,0.879 -0.56,1.538 0,1.394 1.032,2.372 2.723,2.372 1.076,0 1.856,-0.264 2.526,-0.912 L 1.735,6.084 C 1.242,6.557 0.649,6.623 0.133,6.623 c -0.813,0 -1.208,-0.451 -1.208,-0.989 0,-0.197 0.065,-0.406 0.23,-0.56 0.153,-0.142 0.407,-0.263 0.725,-0.307 L 0.803,4.635 C 1.516,4.536 1.967,4.339 2.295,4.031 2.713,3.636 2.9,3.064 2.9,2.373 2.9,0.857 1.638,0 0,0"
         style="fill:#283897;fill-opacity:1;fill-rule:nonzero;stroke:none"
         id="path2638"
         inkscape:connector-curvature="0" />
    </g>
    <g
       id="g2640"
       transform="matrix(1.25,0,0,-1.25,510.16976,772.71259)">
      <path
         d="m 0,0 0,7.819 5.15,0 0,-1.362 -3.623,0 0,-1.834 3.085,0 0,-1.361 -3.085,0 0,-1.901 3.623,0 L 5.15,0 0,0 Z"
         style="fill:#283897;fill-opacity:1;fill-rule:nonzero;stroke:none"
         id="path2642"
         inkscape:connector-curvature="0" />
    </g>
    <g
       id="g2644"
       transform="matrix(1.25,0,0,-1.25,522.48176,764.64122)">
      <path
         d="m 0,0 -1.439,0 0,-2.064 1.439,0 c 0.67,0 1.109,0.427 1.109,1.032 C 1.109,-0.428 0.67,0 0,0 m 1.187,-6.457 -1.527,3.119 -1.099,0 0,-3.119 -1.526,0 0,7.819 3.064,0 c 1.592,0 2.537,-1.088 2.537,-2.394 0,-1.098 -0.67,-1.78 -1.427,-2.053 l 1.745,-3.372 -1.767,0 z"
         style="fill:#283897;fill-opacity:1;fill-rule:nonzero;stroke:none"
         id="path2646"
         inkscape:connector-curvature="0" />
    </g>
    <g
       id="g2648"
       transform="matrix(1.25,0,0,-1.25,531.61014,772.71259)">
      <path
         d="m 0,0 -1.144,0 -2.579,7.819 1.581,0 1.57,-5.095 1.571,5.095 1.593,0 L 0,0 Z"
         style="fill:#283897;fill-opacity:1;fill-rule:nonzero;stroke:none"
         id="path2650"
         inkscape:connector-curvature="0" />
    </g>
    <path
       d="m 536.33076,762.93834 1.90875,0 0,9.77375 -1.90875,0 0,-9.77375 z"
       style="fill:#283897;fill-opacity:1;fill-rule:nonzero;stroke:none"
       id="path2652"
       inkscape:connector-curvature="0" />
    <g
       id="g2654"
       transform="matrix(1.25,0,0,-1.25,544.08576,772.79622)">
      <path
         d="m 0,0 c -0.834,0 -1.537,0.287 -2.108,0.857 -0.341,0.341 -0.549,0.736 -0.637,1.176 -0.088,0.439 -0.132,1.087 -0.132,1.944 0,0.856 0.044,1.504 0.132,1.943 0.088,0.45 0.296,0.835 0.637,1.175 0.571,0.571 1.274,0.857 2.108,0.857 1.505,0 2.614,-0.879 2.877,-2.471 l -1.549,0 C 1.164,6.15 0.747,6.59 0.011,6.59 -0.405,6.59 -0.735,6.458 -0.966,6.184 -1.285,5.843 -1.35,5.492 -1.35,3.977 c 0,-1.516 0.065,-1.868 0.384,-2.208 0.231,-0.274 0.561,-0.406 0.977,-0.406 0.736,0 1.153,0.439 1.317,1.109 l 1.549,0 C 2.614,0.879 1.494,0 0,0"
         style="fill:#283897;fill-opacity:1;fill-rule:nonzero;stroke:none"
         id="path2656"
         inkscape:connector-curvature="0" />
    </g>
    <path
       d="m 549.63201,762.93834 1.90625,0 0,9.77375 -1.90625,0 0,-9.77375 z"
       style="fill:#283897;fill-opacity:1;fill-rule:nonzero;stroke:none"
       id="path2658"
       inkscape:connector-curvature="0" />
    <g
       id="g2660"
       transform="matrix(1.25,0,0,-1.25,558.62064,765.08072)">
      <path
         d="m 0,0 c -0.219,0.253 -0.56,0.417 -0.977,0.417 -0.418,0 -0.768,-0.164 -0.989,-0.417 -0.296,-0.33 -0.372,-0.691 -0.372,-2.196 0,-1.505 0.076,-1.867 0.372,-2.196 0.221,-0.254 0.571,-0.418 0.989,-0.418 0.417,0 0.758,0.164 0.977,0.418 0.297,0.329 0.385,0.691 0.385,2.196 C 0.385,-0.691 0.297,-0.33 0,0 m 1.131,-5.315 c -0.548,-0.549 -1.218,-0.857 -2.108,-0.857 -0.89,0 -1.57,0.308 -2.119,0.857 -0.791,0.791 -0.768,1.768 -0.768,3.119 0,1.35 -0.023,2.328 0.768,3.119 0.549,0.55 1.229,0.856 2.119,0.856 0.89,0 1.56,-0.306 2.108,-0.856 0.792,-0.791 0.78,-1.769 0.78,-3.119 0,-1.351 0.012,-2.328 -0.78,-3.119"
         style="fill:#283897;fill-opacity:1;fill-rule:nonzero;stroke:none"
         id="path2662"
         inkscape:connector-curvature="0" />
    </g>
    <g
       id="g2664"
       transform="matrix(1.25,0,0,-1.25,565.95101,772.79622)">
      <path
         d="m 0,0 c -1.187,0 -2.087,0.253 -2.855,1.033 l 0.988,0.988 c 0.495,-0.494 1.165,-0.658 1.889,-0.658 0.901,0 1.384,0.34 1.384,0.966 0,0.274 -0.077,0.505 -0.242,0.659 C 1.011,3.13 0.835,3.208 0.473,3.262 l -0.946,0.132 c -0.669,0.099 -1.163,0.308 -1.514,0.648 -0.373,0.374 -0.56,0.879 -0.56,1.538 0,1.394 1.03,2.372 2.723,2.372 1.076,0 1.855,-0.264 2.525,-0.912 L 1.735,6.084 C 1.241,6.557 0.647,6.623 0.132,6.623 c -0.813,0 -1.208,-0.451 -1.208,-0.989 0,-0.197 0.065,-0.406 0.23,-0.56 0.155,-0.142 0.407,-0.263 0.725,-0.307 L 0.802,4.635 C 1.517,4.536 1.966,4.339 2.296,4.031 2.713,3.636 2.899,3.064 2.899,2.373 2.899,0.857 1.636,0 0,0"
         style="fill:#283897;fill-opacity:1;fill-rule:nonzero;stroke:none"
         id="path2666"
         inkscape:connector-curvature="0" />
    </g>
    <g
       id="g2668"
       transform="matrix(1.25,0,0,-1.25,579.93776,765.24547)">
      <path
         d="m 0,0 c -0.263,0.319 -0.615,0.483 -1.143,0.483 l -1.153,0 0,-5.096 1.153,0 c 0.528,0 0.88,0.166 1.143,0.484 0.285,0.351 0.329,0.912 0.329,2.098 C 0.329,-0.845 0.285,-0.351 0,0 M 1.064,-5.227 C 0.549,-5.744 -0.187,-5.974 -1,-5.974 l -2.823,0 0,7.82 2.823,0 c 0.813,0 1.549,-0.231 2.064,-0.747 0.879,-0.88 0.791,-1.956 0.791,-3.13 0,-1.176 0.088,-2.317 -0.791,-3.196"
         style="fill:#283897;fill-opacity:1;fill-rule:nonzero;stroke:none"
         id="path2670"
         inkscape:connector-curvature="0" />
    </g>
    <g
       id="g2672"
       transform="matrix(1.25,0,0,-1.25,584.50814,772.71259)">
      <path
         d="m 0,0 0,7.819 5.149,0 0,-1.362 -3.623,0 0,-1.834 3.086,0 0,-1.361 -3.086,0 0,-1.901 3.623,0 L 5.149,0 0,0 Z"
         style="fill:#283897;fill-opacity:1;fill-rule:nonzero;stroke:none"
         id="path2674"
         inkscape:connector-curvature="0" />
    </g>
    <g
       id="g2676"
       transform="matrix(1.25,0,0,-1.25,599.86576,772.79622)">
      <path
         d="m 0,0 c -0.834,0 -1.537,0.287 -2.108,0.857 -0.34,0.341 -0.549,0.736 -0.637,1.176 -0.087,0.439 -0.131,1.087 -0.131,1.944 0,0.856 0.044,1.504 0.131,1.943 0.088,0.45 0.297,0.835 0.637,1.175 0.571,0.571 1.274,0.857 2.108,0.857 1.505,0 2.614,-0.879 2.879,-2.471 l -1.549,0 C 1.165,6.15 0.748,6.59 0.013,6.59 -0.405,6.59 -0.735,6.458 -0.965,6.184 -1.284,5.843 -1.35,5.492 -1.35,3.977 c 0,-1.516 0.066,-1.868 0.385,-2.208 0.23,-0.274 0.56,-0.406 0.978,-0.406 0.735,0 1.152,0.439 1.317,1.109 l 1.549,0 C 2.614,0.879 1.494,0 0,0"
         style="fill:#283897;fill-opacity:1;fill-rule:nonzero;stroke:none"
         id="path2678"
         inkscape:connector-curvature="0" />
    </g>
    <g
       id="g2680"
       transform="matrix(1.25,0,0,-1.25,608.54251,765.82109)">
      <path
         d="m 0,0 -0.989,-2.844 1.943,0 L 0,0 Z m 1.822,-5.513 -0.46,1.384 -2.78,0 -0.473,-1.384 -1.591,0 2.845,7.819 1.197,0 2.856,-7.819 -1.594,0 z"
         style="fill:#283897;fill-opacity:1;fill-rule:nonzero;stroke:none"
         id="path2682"
         inkscape:connector-curvature="0" />
    </g>
    <g
       id="g2684"
       transform="matrix(1.25,0,0,-1.25,614.32015,772.71259)">
      <path
         d="m 0,0 0,7.819 1.525,0 0,-6.458 3.548,0 L 5.073,0 0,0 Z"
         style="fill:#283897;fill-opacity:1;fill-rule:nonzero;stroke:none"
         id="path2686"
         inkscape:connector-curvature="0" />
    </g>
    <path
       d="m 622.51452,762.93834 1.9075,0 0,9.77375 -1.9075,0 0,-9.77375 z"
       style="fill:#283897;fill-opacity:1;fill-rule:nonzero;stroke:none"
       id="path2688"
       inkscape:connector-curvature="0" />
    <g
       id="g2690"
       transform="matrix(1.25,0,0,-1.25,631.77863,765.24547)">
      <path
         d="m 0,0 c -0.263,0.319 -0.614,0.483 -1.142,0.483 l -1.154,0 0,-5.096 1.154,0 c 0.528,0 0.879,0.166 1.142,0.484 0.286,0.351 0.33,0.912 0.33,2.098 C 0.33,-0.845 0.286,-0.351 0,0 M 1.065,-5.227 C 0.55,-5.744 -0.186,-5.974 -0.998,-5.974 l -2.823,0 0,7.82 2.823,0 c 0.812,0 1.548,-0.231 2.063,-0.747 0.88,-0.88 0.792,-1.956 0.792,-3.13 0,-1.176 0.088,-2.317 -0.792,-3.196"
         style="fill:#283897;fill-opacity:1;fill-rule:nonzero;stroke:none"
         id="path2692"
         inkscape:connector-curvature="0" />
    </g>
    <g
       id="g2694"
       transform="matrix(1.25,0,0,-1.25,639.49476,765.82109)">
      <path
         d="m 0,0 -0.989,-2.844 1.943,0 L 0,0 Z m 1.822,-5.513 -0.462,1.384 -2.778,0 -0.473,-1.384 -1.591,0 2.844,7.819 1.196,0 2.856,-7.819 -1.592,0 z"
         style="fill:#283897;fill-opacity:1;fill-rule:nonzero;stroke:none"
         id="path2696"
         inkscape:connector-curvature="0" />
    </g>
    <g
       id="g2698"
       transform="matrix(1.25,0,0,-1.25,650.04888,765.24547)">
      <path
         d="m 0,0 c -0.264,0.319 -0.614,0.483 -1.143,0.483 l -1.153,0 0,-5.096 1.153,0 c 0.529,0 0.879,0.166 1.143,0.484 0.285,0.351 0.33,0.912 0.33,2.098 C 0.33,-0.845 0.285,-0.351 0,0 M 1.065,-5.227 C 0.549,-5.744 -0.187,-5.974 -0.999,-5.974 l -2.824,0 0,7.82 2.824,0 c 0.812,0 1.548,-0.231 2.064,-0.747 0.879,-0.88 0.79,-1.956 0.79,-3.13 0,-1.176 0.089,-2.317 -0.79,-3.196"
         style="fill:#283897;fill-opacity:1;fill-rule:nonzero;stroke:none"
         id="path2700"
         inkscape:connector-curvature="0" />
    </g>
    <g
       id="g2702"
       transform="matrix(1.25,0,0,-1.25,662.88339,765.24547)">
      <path
         d="m 0,0 c -0.265,0.319 -0.617,0.483 -1.144,0.483 l -1.152,0 0,-5.096 1.152,0 c 0.527,0 0.879,0.166 1.144,0.484 0.284,0.351 0.329,0.912 0.329,2.098 C 0.329,-0.845 0.284,-0.351 0,0 M 1.064,-5.227 C 0.549,-5.744 -0.187,-5.974 -1,-5.974 l -2.823,0 0,7.82 2.823,0 c 0.813,0 1.549,-0.231 2.064,-0.747 0.878,-0.88 0.79,-1.956 0.79,-3.13 0,-1.176 0.088,-2.317 -0.79,-3.196"
         style="fill:#283897;fill-opacity:1;fill-rule:nonzero;stroke:none"
         id="path2704"
         inkscape:connector-curvature="0" />
    </g>
    <g
       id="g2706"
       transform="matrix(1.25,0,0,-1.25,667.45126,772.71259)">
      <path
         d="m 0,0 0,7.819 5.151,0 0,-1.362 -3.624,0 0,-1.834 3.086,0 0,-1.361 -3.086,0 0,-1.901 3.624,0 L 5.151,0 0,0 Z"
         style="fill:#283897;fill-opacity:1;fill-rule:nonzero;stroke:none"
         id="path2708"
         inkscape:connector-curvature="0" />
    </g>
    <g
       id="g2710"
       transform="matrix(1.25,0,0,-1.25,683.09938,772.71259)">
      <path
         d="m 0,0 -1.143,0 -2.58,7.819 1.582,0 1.571,-5.095 1.571,5.095 1.591,0 L 0,0 Z"
         style="fill:#283897;fill-opacity:1;fill-rule:nonzero;stroke:none"
         id="path2712"
         inkscape:connector-curvature="0" />
    </g>
    <path
       d="m 687.81951,762.93834 1.90875,0 0,9.77375 -1.90875,0 0,-9.77375 z"
       style="fill:#283897;fill-opacity:1;fill-rule:nonzero;stroke:none"
       id="path2714"
       inkscape:connector-curvature="0" />
    <g
       id="g2716"
       transform="matrix(1.25,0,0,-1.25,697.08751,765.24547)">
      <path
         d="m 0,0 c -0.264,0.319 -0.616,0.483 -1.144,0.483 l -1.152,0 0,-5.096 1.152,0 c 0.528,0 0.88,0.166 1.144,0.484 0.285,0.351 0.329,0.912 0.329,2.098 C 0.329,-0.845 0.285,-0.351 0,0 M 1.064,-5.227 C 0.549,-5.744 -0.187,-5.974 -1.001,-5.974 l -2.822,0 0,7.82 2.822,0 c 0.814,0 1.55,-0.231 2.065,-0.747 0.878,-0.88 0.791,-1.956 0.791,-3.13 0,-1.176 0.087,-2.317 -0.791,-3.196"
         style="fill:#283897;fill-opacity:1;fill-rule:nonzero;stroke:none"
         id="path2718"
         inkscape:connector-curvature="0" />
    </g>
    <g
       id="g2720"
       transform="matrix(1.25,0,0,-1.25,704.79988,765.82109)">
      <path
         d="m 0,0 -0.988,-2.844 1.943,0 L 0,0 Z m 1.824,-5.513 -0.462,1.384 -2.778,0 -0.473,-1.384 -1.591,0 2.843,7.819 1.198,0 2.855,-7.819 -1.592,0 z"
         style="fill:#283897;fill-opacity:1;fill-rule:nonzero;stroke:none"
         id="path2722"
         inkscape:connector-curvature="0" />
    </g>
  </g>
</svg>
