<?xml version="1.0" encoding="UTF-8" standalone="no"?>
<!-- Created with Inkscape (http://www.inkscape.org/) -->

<svg
   xmlns:dc="http://purl.org/dc/elements/1.1/"
   xmlns:cc="http://creativecommons.org/ns#"
   xmlns:rdf="http://www.w3.org/1999/02/22-rdf-syntax-ns#"
   xmlns:svg="http://www.w3.org/2000/svg"
   xmlns="http://www.w3.org/2000/svg"
   xmlns:sodipodi="http://sodipodi.sourceforge.net/DTD/sodipodi-0.dtd"
   xmlns:inkscape="http://www.inkscape.org/namespaces/inkscape"
   width="10.299595mm"
   height="12.518842mm"
   viewBox="0 0 36.494628 44.3581"
   id="svg31041"
   version="1.1"
   inkscape:version="0.91 r"
   sodipodi:docname="stairs-icon.svg">
  <defs
     id="defs31043" />
  <sodipodi:namedview
     id="base"
     pagecolor="#ffffff"
     bordercolor="#666666"
     borderopacity="1.0"
     inkscape:pageopacity="0.0"
     inkscape:pageshadow="2"
     inkscape:zoom="0.35"
     inkscape:cx="-868.18126"
     inkscape:cy="467.89333"
     inkscape:document-units="px"
     inkscape:current-layer="layer1"
     showgrid="false"
     fit-margin-top="0"
     fit-margin-left="0"
     fit-margin-right="0"
     fit-margin-bottom="0"
     inkscape:window-width="1861"
     inkscape:window-height="1056"
     inkscape:window-x="59"
     inkscape:window-y="24"
     inkscape:window-maximized="1" />
  <metadata
     id="metadata31046">
    <rdf:RDF>
      <cc:Work
         rdf:about="">
        <dc:format>image/svg+xml</dc:format>
        <dc:type
           rdf:resource="http://purl.org/dc/dcmitype/StillImage" />
        <dc:title></dc:title>
      </cc:Work>
    </rdf:RDF>
  </metadata>
  <g
     inkscape:label="Layer 1"
     inkscape:groupmode="layer"
     id="layer1"
     transform="translate(-544.60983,-955.89744)">
    <g
       id="g3048"
       transform="matrix(1.25,0,0,-1.25,562.29518,959.25007)">
      <path
         d="m 0,0 c -0.191,-1.748 -1.171,-2.677 -2.943,-2.65 -1.749,0.02 -2.547,1.046 -2.533,2.722 0.015,1.853 0.982,2.676 2.834,2.606 C -0.891,2.613 -0.101,1.695 0,0"
         style="fill:#ffffff;fill-opacity:1;fill-rule:evenodd;stroke:none"
         id="path3050"
         inkscape:connector-curvature="0" />
    </g>
    <g
       id="g3052"
       transform="matrix(1.25,0,0,-1.25,559.93305,987.10644)">
      <path
         d="m 0,0 c -1.535,-0.356 -0.96,-1.533 -1.097,-2.438 -0.097,-0.639 0.289,-1.588 -0.778,-1.651 -1.377,-0.077 -2.782,-0.279 -4.134,0.179 -0.08,0.027 -0.077,0.588 0.029,0.839 1.182,2.747 0.759,5.619 0.554,8.58 C -2.814,4.936 -0.13,4.737 0.316,1.386 0.383,0.872 0.745,0.174 0,0 M 15.304,7.994 C 14.128,7.948 12.951,7.947 11.773,7.925 10.974,7.912 10.24,7.583 10.327,6.739 10.629,3.803 8.779,3.854 6.793,4.086 5.098,4.282 4.551,3.522 4.674,1.911 4.72,1.271 5.108,0.315 3.838,-0.035 3.646,1.657 3.768,3.293 3.249,4.866 2.822,6.167 2.432,7.357 0.938,7.856 c -3.724,1.242 -3.714,1.269 -2.124,4.831 0.112,0.241 0.244,0.474 0.416,0.812 2.167,-2.064 4.803,-2.107 7.374,-2.333 0.789,-0.07 1.423,0.157 1.495,1.081 0.064,0.837 -0.058,1.733 -1.08,1.751 -3.408,0.059 -5.795,1.863 -8.093,4.142 -1.617,1.607 -3.771,1.621 -4.723,-0.041 -2.158,-3.755 -4.561,-7.526 -3.519,-12.274 0.645,-2.935 0.768,-5.842 -0.602,-8.726 -0.622,-1.309 -1.485,-2.893 -0.101,-4.375 0.297,-0.292 0.587,-0.472 0.875,-0.565 0.367,0.01 0.734,0.044 1.101,0.152 0.199,0.121 0.393,0.293 0.581,0.522 0.024,0.03 0.36,-0.069 0.393,-0.051 -0.326,-0.234 -0.649,-0.381 -0.974,-0.471 -0.358,-0.224 -0.724,-0.268 -1.101,-0.152 -0.962,-0.022 -1.889,0.154 -2.718,-0.28 -0.753,-1.513 -0.512,-2.406 1.404,-2.362 1.566,0.037 3.146,0.09 4.706,-0.024 1.506,-0.111 2.031,0.531 1.814,1.91 -0.247,1.58 0.431,2.099 1.938,1.902 0.774,-0.101 1.565,-0.057 2.348,-0.082 0.861,-0.027 1.504,0.423 1.292,1.244 -0.766,2.967 1.237,2.55 2.946,2.514 1.53,-0.032 2.973,0.044 2.614,2.196 -0.304,1.828 0.473,2.397 2.198,2.14 0.69,-0.101 1.415,0.042 2.113,-0.031 1.121,-0.114 1.667,0.297 1.382,1.428 -0.564,2.199 0.457,2.745 2.405,2.436 1.201,-0.19 1.625,0.289 1.639,1.553 0.011,1.341 -0.705,1.323 -1.633,1.291"
         style="fill:#ffffff;fill-opacity:1;fill-rule:evenodd;stroke:none"
         id="path3054"
         inkscape:connector-curvature="0" />
    </g>
  </g>
</svg>
