<?xml version="1.0" encoding="UTF-8" standalone="no"?>
<!-- Created with Inkscape (http://www.inkscape.org/) -->

<svg
   xmlns:dc="http://purl.org/dc/elements/1.1/"
   xmlns:cc="http://creativecommons.org/ns#"
   xmlns:rdf="http://www.w3.org/1999/02/22-rdf-syntax-ns#"
   xmlns:svg="http://www.w3.org/2000/svg"
   xmlns="http://www.w3.org/2000/svg"
   xmlns:sodipodi="http://sodipodi.sourceforge.net/DTD/sodipodi-0.dtd"
   xmlns:inkscape="http://www.inkscape.org/namespaces/inkscape"
   width="10.363553mm"
   height="10.647539mm"
   viewBox="0 0 36.721251 37.727501"
   id="svg29859"
   version="1.1"
   inkscape:version="0.91 r"
   sodipodi:docname="sun-icon.svg">
  <defs
     id="defs29861" />
  <sodipodi:namedview
     id="base"
     pagecolor="#ffffff"
     bordercolor="#666666"
     borderopacity="1.0"
     inkscape:pageopacity="0.0"
     inkscape:pageshadow="2"
     inkscape:zoom="0.35"
     inkscape:cx="-853.78223"
     inkscape:cy="-55.421965"
     inkscape:document-units="px"
     inkscape:current-layer="layer1"
     showgrid="false"
     fit-margin-top="0"
     fit-margin-left="0"
     fit-margin-right="0"
     fit-margin-bottom="0"
     inkscape:window-width="1861"
     inkscape:window-height="1056"
     inkscape:window-x="59"
     inkscape:window-y="24"
     inkscape:window-maximized="1" />
  <metadata
     id="metadata29864">
    <rdf:RDF>
      <cc:Work
         rdf:about="">
        <dc:format>image/svg+xml</dc:format>
        <dc:type
           rdf:resource="http://purl.org/dc/dcmitype/StillImage" />
        <dc:title></dc:title>
      </cc:Work>
    </rdf:RDF>
  </metadata>
  <g
     inkscape:label="Layer 1"
     inkscape:groupmode="layer"
     id="layer1"
     transform="translate(-530.2108,-439.21274)">
    <g
       id="g3066"
       transform="matrix(1.25,0,0,-1.25,548.1558,468.82024)">
      <path
         d="m 0,0 c -4.515,0.048 -8.349,3.919 -8.366,8.442 -0.016,4.59 3.89,8.482 8.499,8.465 C 4.776,16.89 8.573,13.053 8.553,8.392 8.532,3.783 4.624,-0.048 0,0 m 12.099,5.848 c -2.52,1.854 -2.487,3.216 0.081,5.067 0.848,0.611 1.891,0.978 2.822,2.131 -1.511,0 -2.689,-0.021 -3.866,0.007 -2.584,0.061 -3.71,1.793 -2.735,4.214 0.397,0.988 0.877,1.946 1.062,3.182 -1.43,-0.478 -2.31,-1.505 -3.406,-2.18 -1.922,-1.178 -3.62,-0.652 -4.415,1.474 -0.417,1.117 -0.73,2.278 -1.254,3.943 -0.558,-1.525 -0.944,-2.578 -1.328,-3.63 -0.846,-2.31 -1.853,-2.714 -4.105,-1.77 -1.315,0.55 -2.232,1.718 -3.809,2.407 0.439,-1.273 0.804,-2.282 1.142,-3.3 0.874,-2.642 -0.07,-3.977 -2.867,-4.041 -1.161,-0.024 -2.324,0 -3.699,0 0.961,-1.205 2.148,-1.623 3.064,-2.393 1.853,-1.549 1.853,-3.08 -0.044,-4.533 -0.968,-0.741 -1.983,-1.417 -3.098,-2.211 1.3,-0.351 2.383,-0.299 3.48,-0.262 2.687,0.092 3.902,-1.654 2.969,-4.16 -0.374,-0.998 -0.735,-2.007 -1.103,-3.016 1.296,0.483 2.278,1.233 3.314,1.902 1.951,1.263 3.517,0.717 4.379,-1.453 0.457,-1.152 0.6,-2.432 1.443,-3.722 0.352,1.143 0.633,2.067 0.918,2.988 0.902,2.917 2.775,3.538 5.233,1.752 0.823,-0.594 1.666,-1.154 2.575,-1.782 0.258,1.1 -0.214,1.891 -0.431,2.699 -0.974,3.651 -0.15,4.693 3.708,4.588 0.813,-0.023 1.63,-0.003 2.892,-0.003 -1.256,0.903 -2.094,1.497 -2.922,2.102"
         style="fill:#ffffff;fill-opacity:1;fill-rule:evenodd;stroke:none"
         id="path3068"
         inkscape:connector-curvature="0" />
    </g>
    <g
       id="g3070"
       transform="matrix(1.25,0,0,-1.25,548.44267,467.15149)">
      <path
         d="m 0,0 c -4.014,0.003 -7.084,3.073 -7.098,7.094 -0.01,4.001 3.084,7.096 7.094,7.099 C 4,14.197 7.091,11.104 7.091,7.098 7.088,3.087 4,-0.007 0,0"
         style="fill:#ffffff;fill-opacity:1;fill-rule:evenodd;stroke:none"
         id="path3072"
         inkscape:connector-curvature="0" />
    </g>
  </g>
</svg>
