<?xml version="1.0" encoding="UTF-8" standalone="no"?>
<!-- Created with Inkscape (http://www.inkscape.org/) -->

<svg
   xmlns:dc="http://purl.org/dc/elements/1.1/"
   xmlns:cc="http://creativecommons.org/ns#"
   xmlns:rdf="http://www.w3.org/1999/02/22-rdf-syntax-ns#"
   xmlns:svg="http://www.w3.org/2000/svg"
   xmlns="http://www.w3.org/2000/svg"
   xmlns:sodipodi="http://sodipodi.sourceforge.net/DTD/sodipodi-0.dtd"
   xmlns:inkscape="http://www.inkscape.org/namespaces/inkscape"
   width="10.155759mm"
   height="8.6177025mm"
   viewBox="0 0 35.984973 30.535166"
   id="svg34092"
   version="1.1"
   inkscape:version="0.91 r"
   sodipodi:docname="texto.svg">
  <defs
     id="defs34094" />
  <sodipodi:namedview
     id="base"
     pagecolor="#ffffff"
     bordercolor="#666666"
     borderopacity="1.0"
     inkscape:pageopacity="0.0"
     inkscape:pageshadow="2"
     inkscape:zoom="2.8"
     inkscape:cx="-84.529642"
     inkscape:cy="24.394334"
     inkscape:document-units="px"
     inkscape:current-layer="layer1"
     showgrid="false"
     fit-margin-top="0"
     fit-margin-left="0"
     fit-margin-right="0"
     fit-margin-bottom="0"
     inkscape:window-width="1861"
     inkscape:window-height="1056"
     inkscape:window-x="59"
     inkscape:window-y="24"
     inkscape:window-maximized="1" />
  <metadata
     id="metadata34097">
    <rdf:RDF>
      <cc:Work
         rdf:about="">
        <dc:format>image/svg+xml</dc:format>
        <dc:type
           rdf:resource="http://purl.org/dc/dcmitype/StillImage" />
        <dc:title></dc:title>
      </cc:Work>
    </rdf:RDF>
  </metadata>
  <g
     inkscape:label="Layer 1"
     inkscape:groupmode="layer"
     id="layer1"
     transform="translate(299.22683,-517.09462)">
    <g
       id="g2824"
       transform="matrix(1.25,0,0,-1.25,-270.05086,517.15323)">
      <path
         d="m 0,0 c -1.188,-0.926 -2.202,-1.749 -3.259,-2.508 -0.232,-0.167 -0.627,-0.143 -0.946,-0.143 -4.865,-0.009 -9.731,-0.007 -14.596,-0.007 -1.377,0 -1.798,-0.39 -1.801,-1.744 -0.01,-5.166 -0.01,-10.331 0,-15.496 0.003,-1.325 0.417,-1.71 1.728,-1.71 5.315,-0.003 10.629,-0.005 15.944,-0.005 1.391,0 1.758,0.365 1.758,1.752 0.007,2.072 -0.02,4.145 0.024,6.217 0.01,0.352 0.229,0.786 0.495,1.03 0.632,0.586 1.349,1.083 2.144,1.7 0.03,-0.357 0.071,-0.602 0.071,-0.848 0.003,-3.545 0.003,-7.087 0,-10.632 0,-1.366 -0.525,-1.968 -1.875,-1.973 -7.027,-0.019 -14.053,-0.019 -21.081,0 -1.382,0.005 -1.945,0.636 -1.945,2.018 0,6.818 -0.004,13.636 0,20.452 0.003,1.34 0.545,1.938 1.798,1.939 6.966,0.009 13.935,0.003 20.901,0.002 C -0.499,0.044 -0.357,0.025 0,0"
         style="fill:#ffffff;fill-opacity:1;fill-rule:evenodd;stroke:none"
         id="path2826"
         inkscape:connector-curvature="0" />
    </g>
    <g
       id="g2828"
       transform="matrix(1.25,0,0,-1.25,-266.20449,523.79448)">
      <path
         d="m 0,0 c -3.942,-3.691 -7.808,-7.312 -11.696,-10.95 -0.963,0.946 -1.893,1.86 -2.889,2.836 3.926,3.677 7.808,7.313 11.612,10.875 C -1.993,1.85 -1.037,0.963 0,0"
         style="fill:#ffffff;fill-opacity:1;fill-rule:evenodd;stroke:none"
         id="path2830"
         inkscape:connector-curvature="0" />
    </g>
    <g
       id="g2832"
       transform="matrix(1.25,0,0,-1.25,-282.80361,539.18023)">
      <path
         d="M 0,0 C -1.023,-1.549 -2.491,-0.709 -3.875,-0.918 -3.693,0.476 -4.34,1.961 -2.811,2.804 -1.875,1.872 -0.952,0.949 0,0"
         style="fill:#ffffff;fill-opacity:1;fill-rule:evenodd;stroke:none"
         id="path2834"
         inkscape:connector-curvature="0" />
    </g>
    <g
       id="g2836"
       transform="matrix(1.25,0,0,-1.25,-263.24186,521.15785)">
      <path
         d="m 0,0 c -0.4,-0.355 -0.791,-0.705 -1.104,-0.985 -0.98,0.871 -1.957,1.736 -3.003,2.669 0.508,0.479 0.891,0.836 1.218,1.143 C -1.909,1.869 -0.979,0.958 0,0"
         style="fill:#ffffff;fill-opacity:1;fill-rule:evenodd;stroke:none"
         id="path2838"
         inkscape:connector-curvature="0" />
    </g>
  </g>
</svg>
