<?xml version="1.0" encoding="UTF-8" standalone="no"?>
<!-- Created with Inkscape (http://www.inkscape.org/) -->

<svg
   xmlns:dc="http://purl.org/dc/elements/1.1/"
   xmlns:cc="http://creativecommons.org/ns#"
   xmlns:rdf="http://www.w3.org/1999/02/22-rdf-syntax-ns#"
   xmlns:svg="http://www.w3.org/2000/svg"
   xmlns="http://www.w3.org/2000/svg"
   xmlns:sodipodi="http://sodipodi.sourceforge.net/DTD/sodipodi-0.dtd"
   xmlns:inkscape="http://www.inkscape.org/namespaces/inkscape"
   width="9.4379482mm"
   height="9.4380608mm"
   viewBox="0 0 33.441549 33.441947"
   id="svg25914"
   version="1.1"
   inkscape:version="0.91 r"
   sodipodi:docname="twitter.svg">
  <defs
     id="defs25916" />
  <sodipodi:namedview
     id="base"
     pagecolor="#ffffff"
     bordercolor="#666666"
     borderopacity="1.0"
     inkscape:pageopacity="0.0"
     inkscape:pageshadow="2"
     inkscape:zoom="0.35"
     inkscape:cx="-698.27922"
     inkscape:cy="-46.136169"
     inkscape:document-units="px"
     inkscape:current-layer="layer1"
     showgrid="false"
     fit-margin-top="0"
     fit-margin-left="0"
     fit-margin-right="0"
     fit-margin-bottom="0"
     inkscape:window-width="1861"
     inkscape:window-height="1056"
     inkscape:window-x="59"
     inkscape:window-y="24"
     inkscape:window-maximized="1" />
  <metadata
     id="metadata25919">
    <rdf:RDF>
      <cc:Work
         rdf:about="">
        <dc:format>image/svg+xml</dc:format>
        <dc:type
           rdf:resource="http://purl.org/dc/dcmitype/StillImage" />
        <dc:title></dc:title>
      </cc:Work>
    </rdf:RDF>
  </metadata>
  <g
     inkscape:label="Layer 1"
     inkscape:groupmode="layer"
     id="layer1"
     transform="translate(-374.70779,-452.78409)">
    <g
       id="g3196"
       transform="matrix(1.25,0,0,-1.25,401.26857,463.94016)">
      <path
         d="m 0,0 c -0.064,-0.053 -0.078,-0.103 -0.074,-0.187 0.021,-0.291 0.033,-0.585 0.033,-0.878 -0.004,-0.354 -0.016,-0.709 -0.043,-1.063 -0.053,-0.626 -0.166,-1.243 -0.322,-1.853 -0.348,-1.335 -0.899,-2.578 -1.668,-3.721 -0.864,-1.277 -1.932,-2.342 -3.233,-3.17 -1.142,-0.73 -2.38,-1.222 -3.709,-1.494 -0.404,-0.083 -0.816,-0.142 -1.228,-0.185 -0.444,-0.044 -0.893,-0.075 -1.338,-0.075 -1.121,0 -2.221,0.166 -3.295,0.493 -0.773,0.238 -1.512,0.551 -2.217,0.942 -0.043,0.025 -0.088,0.05 -0.142,0.082 2.213,-0.112 4.158,0.531 5.843,1.955 -1.101,0.006 -2.058,0.371 -2.867,1.116 -0.42,0.389 -0.918,1.141 -0.988,1.489 0.297,0 0.592,-0.013 0.891,0.003 0.294,0.015 0.584,0.073 0.867,0.184 -0.94,0.176 -1.735,0.607 -2.371,1.321 -0.635,0.713 -0.961,1.553 -1.014,2.529 0.586,-0.276 1.182,-0.42 1.818,-0.404 -0.879,0.578 -1.492,1.356 -1.771,2.374 -0.279,1.014 -0.176,1.994 0.295,2.938 2.306,-2.47 5.137,-3.75 8.527,-3.83 -0.017,0.089 -0.031,0.152 -0.045,0.215 -0.256,1.213 -0.035,2.329 0.705,3.324 0.596,0.804 1.391,1.321 2.371,1.525 1.245,0.258 2.379,-0.006 3.383,-0.791 0.078,-0.062 0.155,-0.123 0.225,-0.193 0.051,-0.052 0.101,-0.059 0.17,-0.042 0.574,0.154 1.131,0.359 1.66,0.636 0.223,0.117 0.439,0.25 0.662,0.377 0.02,0.013 0.043,0.026 0.086,0.05 C 1.076,3.188 0.875,2.769 0.598,2.384 0.316,1.999 -0.018,1.669 -0.41,1.387 0.365,1.501 1.1,1.745 1.812,2.077 1.746,1.972 1.684,1.87 1.615,1.769 1.162,1.1 0.625,0.51 0,0 m -8.494,8.91 c -7.383,-0.344 -13.082,-6.606 -12.74,-13.986 0.343,-7.38 6.605,-13.081 13.984,-12.738 7.381,0.343 13.082,6.606 12.74,13.986 C 5.146,3.55 -1.115,9.255 -8.494,8.91"
         style="fill:#ffffff;fill-opacity:1;fill-rule:nonzero;stroke:none"
         id="path3198"
         inkscape:connector-curvature="0" />
    </g>
  </g>
</svg>
