<?xml version="1.0" encoding="UTF-8" standalone="no"?>
<!-- Created with Inkscape (http://www.inkscape.org/) -->

<svg
   xmlns:dc="http://purl.org/dc/elements/1.1/"
   xmlns:cc="http://creativecommons.org/ns#"
   xmlns:rdf="http://www.w3.org/1999/02/22-rdf-syntax-ns#"
   xmlns:svg="http://www.w3.org/2000/svg"
   xmlns="http://www.w3.org/2000/svg"
   xmlns:sodipodi="http://sodipodi.sourceforge.net/DTD/sodipodi-0.dtd"
   xmlns:inkscape="http://www.inkscape.org/namespaces/inkscape"
   width="10.373783mm"
   height="9.1440392mm"
   viewBox="0 0 36.757499 32.400139"
   id="svg33479"
   version="1.1"
   inkscape:version="0.91 r"
   sodipodi:docname="video.svg">
  <defs
     id="defs33481">
    <clipPath
       clipPathUnits="userSpaceOnUse"
       id="clipPath2788">
      <path
         d="m 0,1350.188 1427.044,0 L 1427.044,0 0,0 0,1350.188 Z"
         id="path2790"
         inkscape:connector-curvature="0" />
    </clipPath>
  </defs>
  <sodipodi:namedview
     id="base"
     pagecolor="#ffffff"
     bordercolor="#666666"
     borderopacity="1.0"
     inkscape:pageopacity="0.0"
     inkscape:pageshadow="2"
     inkscape:zoom="3.959798"
     inkscape:cx="-47.414556"
     inkscape:cy="51.532668"
     inkscape:document-units="px"
     inkscape:current-layer="layer1"
     showgrid="false"
     fit-margin-top="0"
     fit-margin-left="0"
     fit-margin-right="0"
     fit-margin-bottom="0"
     inkscape:window-width="1861"
     inkscape:window-height="1056"
     inkscape:window-x="59"
     inkscape:window-y="24"
     inkscape:window-maximized="1" />
  <metadata
     id="metadata33484">
    <rdf:RDF>
      <cc:Work
         rdf:about="">
        <dc:format>image/svg+xml</dc:format>
        <dc:type
           rdf:resource="http://purl.org/dc/dcmitype/StillImage" />
        <dc:title></dc:title>
      </cc:Work>
    </rdf:RDF>
  </metadata>
  <g
     inkscape:label="Layer 1"
     inkscape:groupmode="layer"
     id="layer1"
     transform="translate(1552.1433,-667.59068)">
    <g
       transform="matrix(1.25,0,0,-1.25,-2552.0503,2051.0493)"
       id="g2784">
      <g
         id="g2786"
         clip-path="url(#clipPath2788)">
        <g
           id="g2792"
           transform="translate(823.0566,1105.5659)">
          <path
             d="m 0,0 c -0.595,-0.09 -1.051,-0.457 -1.058,-1.17 -0.007,-0.731 0.483,-1.095 1.166,-1.158 0.594,-0.056 1.173,0.547 1.169,1.16 C 1.274,-0.568 0.698,0.002 0,0 M 3.315,0.012 C 2.622,-0.098 2.198,-0.465 2.184,-1.192 2.173,-1.828 2.744,-2.405 3.35,-2.336 c 0.678,0.077 1.147,0.427 1.125,1.182 -0.023,0.732 -0.464,1.079 -1.16,1.166 m -5.279,-1.149 c -0.078,0.671 -0.449,1.122 -1.166,1.122 -0.717,10e-4 -1.141,-0.436 -1.144,-1.155 -0.004,-0.727 0.434,-1.162 1.14,-1.16 0.697,0.002 1.103,0.442 1.17,1.193 m -19.34,-21.739 25.752,0 0,19.318 -25.752,0 0,-19.318 z m 12.83,-1.841 c -4.014,0 -8.025,-0.001 -12.035,10e-4 -2.124,0.002 -2.622,0.494 -2.622,2.578 l 0,20.946 c 0,1.8 0.558,2.384 2.347,2.387 8.24,0.008 16.476,0.008 24.713,0 1.8,-0.003 2.346,-0.58 2.346,-2.389 l 0,-21.131 c 0,-1.796 -0.56,-2.383 -2.346,-2.387 -4.137,-0.013 -8.27,-0.004 -12.403,-0.005"
             style="fill:#ffffff;fill-opacity:1;fill-rule:evenodd;stroke:none"
             id="path2794"
             inkscape:connector-curvature="0" />
        </g>
        <g
           id="g2796"
           transform="translate(808.9639,1099.4512)">
          <path
             d="m 0,0 0,-13.64 c 3.926,2.294 7.735,4.523 11.664,6.818 C 7.746,-4.53 3.934,-2.3 0,0"
             style="fill:#ffffff;fill-opacity:1;fill-rule:evenodd;stroke:none"
             id="path2798"
             inkscape:connector-curvature="0" />
        </g>
        <g
           id="g2800"
           transform="translate(808.9639,1099.4512)">
          <path
             d="M 0,0 C 3.934,-2.3 7.746,-4.53 11.664,-6.822 7.735,-9.117 3.926,-11.346 0,-13.64 L 0,0 Z"
             style="fill:#ffffff;fill-opacity:1;fill-rule:evenodd;stroke:none"
             id="path2802"
             inkscape:connector-curvature="0" />
        </g>
      </g>
    </g>
  </g>
</svg>
