<?xml version="1.0" encoding="UTF-8" standalone="no"?>
<!-- Created with Inkscape (http://www.inkscape.org/) -->

<svg
   xmlns:dc="http://purl.org/dc/elements/1.1/"
   xmlns:cc="http://creativecommons.org/ns#"
   xmlns:rdf="http://www.w3.org/1999/02/22-rdf-syntax-ns#"
   xmlns:svg="http://www.w3.org/2000/svg"
   xmlns="http://www.w3.org/2000/svg"
   xmlns:sodipodi="http://sodipodi.sourceforge.net/DTD/sodipodi-0.dtd"
   xmlns:inkscape="http://www.inkscape.org/namespaces/inkscape"
   width="9.4384747mm"
   height="9.4381266mm"
   viewBox="0 0 33.443414 33.442181"
   id="svg24696"
   version="1.1"
   inkscape:version="0.91 r"
   sodipodi:docname="youtube.svg">
  <defs
     id="defs24698" />
  <sodipodi:namedview
     id="base"
     pagecolor="#ffffff"
     bordercolor="#666666"
     borderopacity="1.0"
     inkscape:pageopacity="0.0"
     inkscape:pageshadow="2"
     inkscape:zoom="0.35"
     inkscape:cx="-655.42116"
     inkscape:cy="-3.2789084"
     inkscape:document-units="px"
     inkscape:current-layer="layer1"
     showgrid="false"
     fit-margin-top="0"
     fit-margin-left="0"
     fit-margin-right="0"
     fit-margin-bottom="0"
     inkscape:window-width="1861"
     inkscape:window-height="1056"
     inkscape:window-x="59"
     inkscape:window-y="24"
     inkscape:window-maximized="1" />
  <metadata
     id="metadata24701">
    <rdf:RDF>
      <cc:Work
         rdf:about="">
        <dc:format>image/svg+xml</dc:format>
        <dc:type
           rdf:resource="http://purl.org/dc/dcmitype/StillImage" />
        <dc:title></dc:title>
      </cc:Work>
    </rdf:RDF>
  </metadata>
  <g
     inkscape:label="Layer 1"
     inkscape:groupmode="layer"
     id="layer1"
     transform="translate(-331.84973,-495.64112)">
    <g
       id="g3156"
       transform="matrix(1.25,0,0,-1.25,348.24907,509.22584)">
      <path
         d="M 0,0 C 0.129,-0.282 0.465,-0.294 0.605,-0.019 0.682,0.132 0.721,0.311 0.734,0.48 0.754,0.807 0.742,1.135 0.744,1.463 0.748,1.791 0.762,2.118 0.748,2.445 0.742,2.61 0.719,2.788 0.646,2.929 0.59,3.034 0.439,3.155 0.336,3.152 0.221,3.149 0.07,3.037 0.002,2.929 -0.074,2.807 -0.1,2.639 -0.1,2.488 -0.117,1.826 -0.123,1.164 -0.113,0.502 -0.113,0.333 -0.068,0.153 0,0"
         style="fill:#ffffff;fill-opacity:1;fill-rule:nonzero;stroke:none"
         id="path3158"
         inkscape:connector-curvature="0" />
    </g>
    <g
       id="g3160"
       transform="matrix(1.25,0,0,-1.25,350.62695,518.93414)">
      <path
         d="m 0,0 c -0.014,-0.252 -0.148,-0.42 -0.295,-0.427 -0.158,-0.005 -0.312,0.196 -0.33,0.451 -0.02,0.298 0,0.608 0.002,0.927 -0.002,-0.001 -0.008,0 -0.008,0 0,0.158 -0.006,0.484 0.008,0.739 0.006,0.117 0.033,0.221 0.07,0.331 0.043,0.135 0.121,0.282 0.283,0.238 0.102,-0.03 0.219,-0.16 0.245,-0.265 C 0.031,1.769 0.053,1.525 0.049,1.292 0.047,0.861 0.031,0.429 0,0 M 0.51,2.817 C 0.287,3.136 -0.156,3.183 -0.443,2.923 -0.488,2.885 -0.533,2.844 -0.617,2.765 c 0.002,0.396 0.008,0.74 0.008,1.086 -0.004,0.544 0.076,0.478 -0.489,0.496 -0.197,0.006 -0.25,-0.071 -0.25,-0.254 0.002,-0.634 -0.004,-1.269 -0.011,-1.901 -0.008,-1.011 -0.016,-2.02 -0.02,-3.03 0,-0.085 0.024,-0.237 0.057,-0.243 0.176,-0.029 0.359,-0.042 0.537,-0.02 0.055,0.008 0.099,0.135 0.154,0.214 0.016,-0.018 0.039,-0.046 0.059,-0.071 0.295,-0.389 0.83,-0.369 1.08,0.049 0.088,0.146 0.154,0.316 0.185,0.483 C 0.84,0.339 0.805,1.112 0.77,1.884 0.756,2.213 0.701,2.536 0.51,2.817"
         style="fill:#ffffff;fill-opacity:1;fill-rule:nonzero;stroke:none"
         id="path3162"
         inkscape:connector-curvature="0" />
    </g>
    <g
       id="g3164"
       transform="matrix(1.25,0,0,-1.25,347.5557,515.17314)">
      <path
         d="m 0,0 c -0.203,0.003 -0.279,-0.064 -0.279,-0.277 0.002,-0.851 -0.006,-1.701 -0.02,-2.55 0,-0.131 -0.017,-0.271 -0.074,-0.383 -0.037,-0.077 -0.158,-0.155 -0.24,-0.153 -0.078,0.003 -0.19,0.09 -0.227,0.167 -0.049,0.109 -0.058,0.242 -0.056,0.366 0.001,0.795 0.007,1.59 0.013,2.385 0.002,0.461 0.004,0.453 -0.453,0.456 -0.201,0.001 -0.281,-0.062 -0.281,-0.277 0.002,-0.996 -0.018,-1.994 -0.014,-2.99 0,-0.185 0.035,-0.376 0.094,-0.553 0.094,-0.275 0.359,-0.457 0.637,-0.401 0.205,0.042 0.394,0.173 0.595,0.269 0.002,-0.161 0.139,-0.194 0.311,-0.174 0.041,0.004 0.082,0 0.125,0 0.322,-0.003 0.33,0.004 0.332,0.322 0.01,1.101 0.017,2.202 0.025,3.304 C 0.494,0.007 0.49,-0.002 0,0"
         style="fill:#ffffff;fill-opacity:1;fill-rule:nonzero;stroke:none"
         id="path3166"
         inkscape:connector-curvature="0" />
    </g>
    <g
       id="g3168"
       transform="matrix(1.25,0,0,-1.25,345.57319,513.65824)">
      <path
         d="m 0,0 c -0.004,0.051 -0.088,0.136 -0.135,0.137 -0.76,0.014 -1.519,0.019 -2.277,0.018 -0.051,0 -0.141,-0.068 -0.145,-0.106 -0.004,-0.248 0.008,-0.497 0.016,-0.747 0.186,-0.016 0.367,-0.033 0.553,-0.052 l 0.021,0.001 c 0.25,-0.005 0.276,-0.027 0.276,-0.277 -0.004,-0.661 -0.012,-1.324 -0.016,-1.985 -0.004,-0.613 -0.008,-1.226 -0.014,-1.84 -0.004,-0.519 -0.008,-0.447 0.451,-0.455 0.356,-0.005 0.358,-0.002 0.36,0.35 0.01,1.305 0.019,2.605 0.029,3.908 0.004,0.258 0.029,0.284 0.289,0.288 0.147,0.002 0.295,-0.012 0.438,0.009 0.058,0.009 0.142,0.091 0.15,0.147 C 0.016,-0.405 0.016,-0.2 0,0"
         style="fill:#ffffff;fill-opacity:1;fill-rule:nonzero;stroke:none"
         id="path3170"
         inkscape:connector-curvature="0" />
    </g>
    <g
       id="g3172"
       transform="matrix(1.25,0,0,-1.25,353.1392,516.70134)">
      <path
         d="M 0,0 C 0.008,0.123 0.018,0.263 0.078,0.36 0.133,0.445 0.26,0.526 0.357,0.527 0.441,0.526 0.574,0.427 0.6,0.346 0.654,0.17 0.682,-0.023 0.672,-0.205 0.658,-0.42 0.465,-0.332 0.357,-0.353 -0.002,-0.35 -0.018,-0.34 0,0 m 0.336,-1.028 c 0.285,-10e-4 0.57,0 0.857,-0.005 0.151,-0.002 0.231,0.049 0.225,0.219 C 1.41,-0.593 1.426,-0.369 1.414,-0.146 1.404,0.054 1.377,0.255 1.338,0.453 1.236,0.978 0.906,1.266 0.414,1.277 -0.182,1.291 -0.564,1.038 -0.674,0.489 -0.756,0.068 -0.77,-0.365 -0.814,-0.793 c 0.011,-0.002 0.023,-0.002 0.035,-0.004 0,-0.18 -0.012,-0.362 -0.004,-0.542 0.021,-0.417 0.037,-0.836 0.232,-1.222 0.186,-0.374 0.524,-0.483 0.903,-0.478 0.4,0.006 0.757,0.138 0.904,0.547 0.086,0.243 0.105,0.513 0.142,0.774 0.008,0.052 -0.031,0.156 -0.056,0.157 C 1.15,-1.541 0.953,-1.525 0.764,-1.554 0.719,-1.561 0.699,-1.742 0.672,-1.844 0.656,-1.889 0.648,-1.937 0.635,-1.985 0.592,-2.148 0.516,-2.303 0.322,-2.296 0.131,-2.289 0.061,-2.124 0.035,-1.962 0.004,-1.766 -0.006,-1.561 -0.008,-1.36 -0.012,-1.032 0,-1.028 0.336,-1.028"
         style="fill:#ffffff;fill-opacity:1;fill-rule:nonzero;stroke:none"
         id="path3174"
         inkscape:connector-curvature="0" />
    </g>
    <g
       id="g3176"
       transform="matrix(1.25,0,0,-1.25,356.58395,519.82034)">
      <path
         d="m 0,0 c -0.021,-1.155 -1.006,-2.092 -2.162,-2.085 -2.871,0.018 -5.744,0.04 -8.613,0.064 -1.178,0.01 -2.135,0.951 -2.137,2.126 -0.004,1.436 0.008,2.873 0.031,4.307 0.022,1.191 1.008,2.09 2.229,2.088 1.427,-0.003 2.892,-0.019 4.326,-0.029 l 0,-0.007 C -4.895,6.453 -3.412,6.465 -1.936,6.422 -0.828,6.393 0.051,5.435 0.053,4.327 0.055,2.884 0.027,1.442 0,0 m -10.303,14.009 c 0.83,-0.021 0.623,0.124 0.871,-0.655 0.157,-0.492 0.297,-0.986 0.45,-1.479 0.019,-0.069 0.048,-0.14 0.072,-0.208 0.021,10e-4 0.045,0.003 0.064,0.003 0.059,0.175 0.117,0.351 0.174,0.529 0.162,0.518 0.328,1.034 0.483,1.556 0.05,0.178 0.146,0.253 0.33,0.237 0.13,-0.009 0.265,-0.002 0.398,-0.005 0.299,-0.003 0.307,-0.018 0.211,-0.293 -0.316,-0.915 -0.629,-1.83 -0.967,-2.737 -0.166,-0.45 -0.262,-0.899 -0.244,-1.385 0.018,-0.577 -0.01,-1.155 -0.004,-1.735 0,-0.186 -0.058,-0.273 -0.256,-0.256 -0.136,0.013 -0.275,0.012 -0.416,0.005 -0.172,-0.008 -0.236,0.061 -0.234,0.232 0.01,0.705 0.023,1.41 0.014,2.112 -0.004,0.231 -0.039,0.473 -0.112,0.691 -0.34,1.033 -0.695,2.06 -1.045,3.087 -0.093,0.277 -0.078,0.308 0.211,0.301 m 4.338,-1.57 c 0.539,-0.155 0.748,-0.583 0.819,-1.08 0.066,-0.467 0.078,-0.94 0.119,-1.487 C -5.08,9.415 -5.105,8.883 -5.213,8.369 -5.363,7.646 -5.934,7.305 -6.656,7.457 c -0.475,0.101 -0.756,0.426 -0.846,0.878 -0.219,1.084 -0.217,2.179 0.02,3.253 0.162,0.725 0.8,1.056 1.517,0.851 m 1.69,-0.096 c 0.589,-0.019 0.539,0.065 0.535,-0.542 -0.004,-0.843 -0.018,-1.686 -0.016,-2.529 0,-0.219 0.027,-0.444 0.065,-0.662 0.027,-0.155 0.132,-0.256 0.306,-0.258 0.17,0 0.293,0.088 0.33,0.241 0.049,0.228 0.088,0.465 0.092,0.7 0.016,0.911 0.018,1.824 0.025,2.737 0,0.291 0.008,0.302 0.29,0.297 0.599,-0.008 0.535,0.069 0.531,-0.54 C -2.127,10.471 -2.137,9.15 -2.146,7.833 -2.15,7.539 -2.156,7.528 -2.457,7.53 l -0.106,0 C -2.924,7.534 -2.924,7.537 -3.002,7.909 -3.084,7.81 -3.137,7.731 -3.203,7.66 -3.588,7.238 -4.242,7.348 -4.449,7.878 c -0.063,0.158 -0.1,0.338 -0.1,0.508 0,1.233 0.016,2.467 0.02,3.7 0.002,0.186 0.058,0.263 0.254,0.257 m -2.037,7 C -13.699,19.398 -19.732,13.454 -19.787,6.065 -19.842,-1.321 -13.898,-7.356 -6.51,-7.41 0.877,-7.464 6.91,-1.52 6.967,5.868 7.02,13.257 1.074,19.288 -6.312,19.343"
         style="fill:#ffffff;fill-opacity:1;fill-rule:nonzero;stroke:none"
         id="path3178"
         inkscape:connector-curvature="0" />
    </g>
  </g>
</svg>
