<?xml version="1.0" standalone="no"?>
<!DOCTYPE svg PUBLIC "-//W3C//DTD SVG 1.1//EN" "http://www.w3.org/Graphics/SVG/1.1/DTD/svg11.dtd" >
<svg xmlns="http://www.w3.org/2000/svg">
<metadata></metadata>
<defs>
<font id="lf_press_sansbold" horiz-adv-x="1024" >
<font-face units-per-em="2048" ascent="1536" descent="-512" />
<missing-glyph horiz-adv-x="368" />
<glyph horiz-adv-x="0" />
<glyph horiz-adv-x="682" />
<glyph unicode=" "  horiz-adv-x="368" />
<glyph unicode="&#x09;" horiz-adv-x="368" />
<glyph unicode="&#xa0;" horiz-adv-x="368" />
<glyph unicode="!" horiz-adv-x="602" d="M143 1317h318l-90 -918h-140zM150 0v264h284v-264h-284z" />
<glyph unicode="&#x22;" horiz-adv-x="813" d="M78 913l20 404h260l-82 -404h-198zM467 913l20 404h261l-82 -404h-199z" />
<glyph unicode="#" d="M45 412l27 129h198l43 227h-198l26 129h199l80 412h133l-80 -412h174l80 412h133l-80 -412h199l-27 -129h-198l-43 -227h198l-26 -129h-199l-80 -412h-133l80 412h-174l-80 -412h-133l80 412h-199zM403 541h175l43 227h-175z" />
<glyph unicode="$" d="M96 967q0 137 87 226t239 114v213h170v-205q134 -5 254 -47v-226q-69 38 -155.5 63t-151.5 25q-78 0 -128.5 -35.5t-50.5 -95.5q0 -41 24.5 -77.5t65 -64t91.5 -57.5t105 -57.5t105 -64.5t91.5 -78t65 -99t24.5 -126q0 -157 -94.5 -259t-245.5 -136v-213h-170v196 q-178 6 -316 55v236q204 -104 326 -104q97 0 161 44.5t64 129.5q0 53 -31 98.5t-80.5 80t-109.5 68t-119.5 71.5t-109 81t-80.5 106t-31 138z" />
<glyph unicode="%" horiz-adv-x="1810" d="M94 932q0 77 22 142.5t58.5 109.5t84 74.5t97.5 44.5t101 14q64 0 126 -23t116 -68t87 -121.5t33 -172.5q0 -83 -21.5 -152t-57 -115.5t-82.5 -79t-98 -47t-103 -14.5q-66 0 -128.5 24t-116 71.5t-86 128.5t-32.5 184zM322 924q0 -112 35.5 -168t99.5 -56t99.5 56 t35.5 168q0 217 -135 217t-135 -217zM346 -63l907 1417h205l-905 -1417h-207zM993 379q0 97 33 173.5t86.5 122t115.5 68.5t126 23q65 0 127 -23t115.5 -68.5t86.5 -122t33 -173.5q0 -83 -21.5 -152t-57 -115.5t-82.5 -79t-98 -47t-103 -14.5q-66 0 -128.5 24t-115.5 71.5 t-85 128.5t-32 184zM1221 373q0 -113 35.5 -169.5t97.5 -56.5q64 0 99.5 56t35.5 170q0 217 -135 217q-133 0 -133 -217z" />
<glyph unicode="&#x26;" horiz-adv-x="1243" d="M61 319q0 121 85.5 218.5t215.5 164.5q-50 75 -82 154.5t-32 142.5q0 163 111 259t276 96q89 0 159 -29t110.5 -77t61.5 -104.5t21 -117.5q0 -203 -295 -362l185 -226q14 28 27.5 61t32.5 83.5t26 68.5h256q-78 -214 -197 -368q28 -32 113.5 -132t130.5 -151h-320 l-92 111q-185 -140 -379 -140q-87 0 -160 19.5t-131 60t-90.5 109t-32.5 159.5zM324 332q0 -80 50.5 -129t123.5 -49q127 0 235 98l-262 315q-147 -83 -147 -235zM504 1006q0 -45 23 -102t59 -105q67 35 113 93t46 124q0 75 -33.5 118.5t-82.5 43.5q-59 0 -92 -46.5 t-33 -125.5z" />
<glyph unicode="'" horiz-adv-x="423" d="M78 913l20 404h260l-82 -404h-198z" />
<glyph unicode="(" horiz-adv-x="636" d="M143 487q0 239 78 489t187 423h225q-107 -181 -171.5 -433t-64.5 -479q0 -222 65 -481.5t171 -433.5h-225q-119 159 -192 409t-73 506z" />
<glyph unicode=")" horiz-adv-x="636" d="M4 -428q106 174 171 433.5t65 481.5q0 227 -64.5 479t-171.5 433h225q109 -173 187 -423t78 -489q0 -256 -73 -506t-192 -409h-225z" />
<glyph unicode="*" horiz-adv-x="745" d="M33 1006l53 165l236 -112l-35 258h174l-35 -258l233 112l54 -163l-254 -47l180 -187l-139 -104l-127 227l-123 -229l-139 102l176 188z" />
<glyph unicode="+" d="M147 530v187h271v270h186v-270h273v-187h-273v-272h-186v272h-271z" />
<glyph unicode="," horiz-adv-x="423" d="M70 0v264h284v-244l-84 -262h-161l71 242h-110z" />
<glyph unicode="-" horiz-adv-x="565" d="M41 393v166h483v-166h-483z" />
<glyph unicode="." horiz-adv-x="423" d="M70 0v264h284v-264h-284z" />
<glyph unicode="/" horiz-adv-x="727" d="M0 -68l516 1434h211l-516 -1434h-211z" />
<glyph unicode="0" d="M84 643q0 344 111.5 509t316.5 165t316.5 -165t111.5 -509t-111.5 -508t-316.5 -164t-316.5 164t-111.5 508zM365 643q0 -277 32 -388.5t115 -111.5t115 111.5t32 388.5q0 278 -32 390t-115 112t-115 -112t-32 -390z" />
<glyph unicode="1" d="M172 0v186h215v920h-215v186h483v-1106h213v-186h-696z" />
<glyph unicode="2" d="M88 1065v190q168 62 352 62q198 0 313 -89t115 -251q0 -121 -57 -235t-178 -255l-258 -301h518v-186h-803v186l316 373q91 109 143.5 206t52.5 191q0 81 -50.5 131t-148.5 50q-75 0 -164 -22.5t-151 -49.5z" />
<glyph unicode="3" d="M104 1110v176q204 31 314 31q202 0 309 -81t107 -243q0 -100 -45.5 -159.5t-143.5 -104.5q75 -17 131 -68t81.5 -111.5t25.5 -119.5q0 -67 -15.5 -123t-41 -97.5t-67 -74t-83 -54.5t-100.5 -37.5t-109 -23.5t-118 -13t-117.5 -6t-118.5 -1v186q193 0 302 25.5t154 77.5 t45 143q0 98 -73.5 145.5t-180.5 47.5h-122v172h118q110 0 159.5 45.5t49.5 132.5q0 78 -50.5 123t-154.5 45q-109 0 -256 -33z" />
<glyph unicode="4" d="M68 287v243l454 766h269l-496 -819h330v262l159 242h107v-981h-266v287h-557z" />
<glyph unicode="5" d="M123 0v186q186 0 295 26.5t153.5 77t44.5 134.5q0 102 -56 149.5t-181 47.5h-217v671h663v-186h-422v-287h48q220 0 331 -87t111 -279q0 -83 -25 -150.5t-66.5 -114t-103.5 -81t-126.5 -55t-145.5 -32.5t-151 -16t-152 -4z" />
<glyph unicode="6" d="M88 459q0 101 24.5 204.5t78.5 209t132 197t192.5 169.5t252.5 125v-203q-255 -121 -346 -348q74 16 137 16q109 0 187 -31t122 -88.5t64 -127.5t20 -158q0 -453 -434 -453q-92 0 -165.5 27t-122 72.5t-81.5 109t-47 132.5t-14 147zM367 477q0 -178 36 -257t134 -79 q81 0 114 61t33 197q0 54 -3.5 91t-13.5 73t-29 57t-51 33.5t-77 12.5q-59 0 -131 -21q-12 -79 -12 -168z" />
<glyph unicode="7" d="M92 1106v186h819v-172l-475 -1120h-278l491 1106h-557z" />
<glyph unicode="8" d="M72 324q0 191 235 344q-84 62 -126 134t-42 185q0 149 104.5 239.5t276.5 90.5q155 0 259 -85.5t104 -221.5q0 -59 -16.5 -107t-48.5 -84t-62 -60t-74 -50q51 -27 83 -47t71 -53t61 -67.5t37.5 -84.5t15.5 -109q0 -164 -123 -270.5t-327 -106.5q-190 0 -309 95.5 t-119 257.5zM326 328q0 -79 47.5 -128.5t134.5 -49.5q84 0 137 48.5t53 131.5q0 26 -6 48.5t-22.5 43.5t-30 35.5t-44.5 35t-48.5 31t-60 34.5t-62.5 36q-98 -112 -98 -266zM383 1006q0 -44 13 -79t42 -63.5t54.5 -46t72.5 -45.5q80 92 80 211q0 70 -34.5 113t-96.5 43 q-59 0 -95 -37.5t-36 -95.5z" />
<glyph unicode="9" d="M76 868q0 217 103 333t331 116q430 0 430 -483q0 -100 -24.5 -199t-78.5 -198t-132 -184.5t-192.5 -158t-252.5 -119.5v211q139 64 223.5 143t126.5 181q-84 -29 -141 -29q-109 0 -187 28.5t-122 82t-64 121.5t-20 155zM344 893q0 -129 44 -190.5t155 -61.5q56 0 106 23 q10 78 10 153q0 177 -34.5 252.5t-132.5 75.5q-83 0 -115.5 -55t-32.5 -197z" />
<glyph unicode=":" horiz-adv-x="514" d="M115 0v264h284v-264h-284zM115 653v265h284v-265h-284z" />
<glyph unicode=";" horiz-adv-x="514" d="M115 0v264h284v-244l-84 -262h-161l71 242h-110zM115 653v265h284v-265h-284z" />
<glyph unicode="&#x3c;" d="M150 530v181l724 327v-200l-526 -217l526 -218v-202z" />
<glyph unicode="=" d="M147 346v186h730v-186h-730zM147 715v186h730v-186h-730z" />
<glyph unicode="&#x3e;" d="M150 201v202l526 218l-526 217v200l724 -327v-181z" />
<glyph unicode="?" horiz-adv-x="884" d="M82 1112v191q155 51 305 51q85 0 157 -17t131.5 -52t93.5 -96t34 -142q0 -82 -24.5 -155t-60.5 -128.5t-73.5 -108.5t-68.5 -119.5t-39 -136.5h-222q0 79 23 154.5t55.5 134.5t65 114.5t55.5 115.5t23 116q0 66 -55 104t-130 38q-45 0 -126.5 -20t-143.5 -44zM281 0v264 h286v-264h-286z" />
<glyph unicode="@" horiz-adv-x="1558" d="M68 401q0 201 94 358.5t259 244t370 86.5q141 0 268.5 -45.5t223 -126.5t152 -201t56.5 -260q0 -213 -119.5 -349.5t-288.5 -136.5q-54 0 -102 18.5t-76 49.5q-106 -68 -207 -68q-52 0 -95 11.5t-82 39t-61 81.5t-22 130q0 123 77 188.5t230 65.5h134v56q0 63 -26 85.5 t-95 22.5q-79 0 -254 -45v164q165 45 276 45q165 0 249.5 -63.5t84.5 -202.5v-348q0 -97 23 -97q66 0 111.5 102t45.5 247q0 120 -39.5 214t-108.5 153t-160 89.5t-198 30.5q-230 0 -374 -148.5t-144 -385.5q0 -137 41 -246.5t112 -179t162.5 -106t196.5 -36.5q165 0 291 74 l62 -127q-155 -88 -373 -88q-109 0 -212 32t-190 94t-152.5 146.5t-102.5 196t-37 235.5zM670 240q0 -54 25 -88.5t69 -34.5q57 0 115 26v209h-105q-50 0 -77 -29.5t-27 -82.5z" />
<glyph unicode="A" horiz-adv-x="1218" d="M4 0l436 1317h332l442 -1317h-282l-117 373h-420l-108 -373h-283zM444 557h318l-156 508h-16z" />
<glyph unicode="B" horiz-adv-x="1087" d="M143 0v1317h412q211 0 310.5 -89t99.5 -247q0 -96 -66 -165.5t-151 -90.5v-8q129 -19 214 -105.5t85 -214.5q0 -189 -135 -293t-365 -104h-404zM420 186h108q117 0 179.5 49t62.5 166q0 199 -238 199h-112v-414zM420 776h94q174 0 174 187q0 167 -156 167h-112v-354z" />
<glyph unicode="C" horiz-adv-x="1110" d="M92 672q0 125 18 224t63 187t116.5 146t183 91.5t258.5 33.5q149 0 313 -41v-197q-189 51 -319 51q-197 0 -276.5 -118.5t-79.5 -376.5q0 -120 19.5 -212t63.5 -163.5t121.5 -109t186.5 -37.5q131 0 291 45v-191q-167 -41 -334 -41q-139 0 -246.5 34.5t-178.5 95 t-116 150.5t-64.5 195t-19.5 234z" />
<glyph unicode="D" horiz-adv-x="1318" d="M143 0v1317h480q614 0 614 -647q0 -670 -625 -670h-469zM420 186h182q175 0 267 113.5t92 370.5q0 133 -24.5 224t-73.5 142t-112 72.5t-149 21.5h-182v-944z" />
<glyph unicode="E" horiz-adv-x="1013" d="M143 0v1317h809v-187h-532v-342h418v-186h-418v-416h553v-186h-830z" />
<glyph unicode="F" horiz-adv-x="1034" d="M143 0v1317h850v-187h-573v-362h459v-186h-459v-582h-277z" />
<glyph unicode="G" horiz-adv-x="1290" d="M92 672q0 334 163.5 508t512.5 174q82 0 205 -15t190 -34v-207q-71 26 -193 46.5t-192 20.5q-105 0 -179 -24.5t-127 -81t-78 -152.5t-25 -235q0 -103 20 -192t62.5 -164t117.5 -118.5t176 -43.5q107 0 156 6v583h266v-712q-249 -68 -450 -68q-161 0 -282 50 t-195.5 144.5t-111 223t-36.5 291.5z" />
<glyph unicode="H" horiz-adv-x="1357" d="M143 0v1317h277v-529h518v529h276v-1317h-276v602h-518v-602h-277z" />
<glyph unicode="I" horiz-adv-x="604" d="M164 0v1317h276v-1317h-276z" />
<glyph unicode="J" horiz-adv-x="559" d="M-57 -195q114 0 157 64.5t43 193.5v1254h277v-1294q0 -113 -36 -192t-103.5 -121.5t-149 -60.5t-188.5 -18v174z" />
<glyph unicode="K" horiz-adv-x="1230" d="M143 0v1317h277v-602l477 602h307l-491 -606l571 -711h-338l-526 672v-672h-277z" />
<glyph unicode="L" horiz-adv-x="993" d="M143 0v1317h277v-1131h553v-186h-830z" />
<glyph unicode="M" horiz-adv-x="1685" d="M143 0v1317h441l260 -1059l266 1059h432v-1317h-254v1124l-297 -1124h-297l-297 1124v-1124h-254z" />
<glyph unicode="N" horiz-adv-x="1376" d="M143 0v1317h306l532 -926v926h252v-1317h-272l-566 979v-979h-252z" />
<glyph unicode="O" horiz-adv-x="1386" d="M92 668q0 185 31.5 312t103 212t186 123.5t281.5 38.5q328 0 464 -159t136 -527q0 -188 -29.5 -316t-98.5 -217.5t-184.5 -130.5t-287.5 -41t-288.5 41t-185.5 130.5t-98.5 217.5t-29.5 316zM369 668q0 -151 19 -252t61 -159.5t100.5 -82.5t144.5 -24q115 0 183.5 45 t104.5 159.5t36 313.5q0 120 -13 206t-37.5 143t-65 90t-90 46.5t-118.5 13.5t-119 -13.5t-90.5 -46.5t-65 -90t-37.5 -143t-13 -206z" />
<glyph unicode="P" horiz-adv-x="1130" d="M143 0v1317h469q256 0 364.5 -93.5t108.5 -293.5q0 -208 -119.5 -301.5t-353.5 -93.5h-192v-535h-277zM420 721h143q246 0 246 211q0 106 -60 152t-186 46h-143v-409z" />
<glyph unicode="Q" horiz-adv-x="1386" d="M92 668q0 185 31.5 312t103 212t186 123.5t281.5 38.5q328 0 464 -159t136 -527q0 -262 -61 -417.5t-203 -225.5q109 -55 186 -83t211 -59v-229q-77 0 -216 48.5t-263 133.5l-188 129q-12 0 -33 -1t-33 -1q-172 0 -288.5 41t-185.5 130.5t-98.5 217.5t-29.5 316zM369 668 q0 -151 19 -252t61 -159.5t100.5 -82.5t144.5 -24q115 0 183.5 45t104.5 159.5t36 313.5q0 120 -13 206t-37.5 143t-65 90t-90 46.5t-118.5 13.5t-119 -13.5t-90.5 -46.5t-65 -90t-37.5 -143t-13 -206z" />
<glyph unicode="R" horiz-adv-x="1153" d="M143 0v1317h469q225 0 337 -95.5t112 -291.5q0 -145 -83.5 -240t-205.5 -127l393 -563h-323l-359 528h-63v-528h-277zM420 705h133q100 0 165.5 63t65.5 170q0 92 -58 142t-161 50h-145v-425z" />
<glyph unicode="S" horiz-adv-x="954" d="M55 1004q0 165 122.5 257.5t326.5 92.5q162 0 301 -49v-226q-69 38 -155.5 63t-151.5 25q-78 0 -128.5 -35.5t-50.5 -95.5q0 -30 15 -59t32.5 -49.5t57.5 -50t63 -44t76 -47.5q50 -30 79.5 -49.5t73.5 -51.5t70.5 -62t53 -68.5t39 -83.5t12.5 -96q0 -99 -40.5 -178.5 t-108.5 -130t-155 -77t-184 -26.5q-181 0 -337 55v236q204 -104 325 -104q97 0 161 44.5t64 129.5q0 29 -8.5 56t-29 52.5t-38.5 44.5t-54.5 44.5t-58.5 40t-67 42.5q-158 97 -231.5 186.5t-73.5 213.5z" />
<glyph unicode="T" horiz-adv-x="1120" d="M25 1130v187h1071v-187h-398v-1130h-276v1130h-397z" />
<glyph unicode="U" horiz-adv-x="1347" d="M143 389v928h277v-928q0 -239 256 -239q57 0 101.5 11.5t80.5 38t55 74t19 115.5v928h276v-928q0 -426 -532 -426q-533 0 -533 426z" />
<glyph unicode="V" horiz-adv-x="1210" d="M0 1317h283l335 -1086l310 1086h282l-436 -1317h-332z" />
<glyph unicode="W" horiz-adv-x="1746" d="M0 1317h285l225 -987l227 987h273l247 -987l205 987h285l-348 -1317h-289l-236 979l-229 -979h-289z" />
<glyph unicode="X" horiz-adv-x="1257" d="M20 0l453 674l-432 643h309l279 -453l278 453h310l-431 -643l451 -674h-309l-299 481l-299 -481h-310z" />
<glyph unicode="Y" horiz-adv-x="1175" d="M0 1317h301l287 -512l286 512h302l-449 -746v-571h-276v575z" />
<glyph unicode="Z" horiz-adv-x="1060" d="M61 0v176l615 954h-604v187h897v-180l-598 -951h630v-186h-940z" />
<glyph unicode="[" horiz-adv-x="643" d="M164 -430v1829h418v-146h-160v-1536h160v-147h-418z" />
<glyph unicode="\" horiz-adv-x="727" d="M0 1366h211l516 -1434h-211z" />
<glyph unicode="]" horiz-adv-x="643" d="M61 -283h160v1536h-160v146h418v-1829h-418v147z" />
<glyph unicode="^" horiz-adv-x="598" d="M41 864l149 453h220l149 -453h-139l-121 359l-121 -359h-137z" />
<glyph unicode="_" horiz-adv-x="845" d="M0 -139h846v-176h-846v176z" />
<glyph unicode="`" horiz-adv-x="421" d="M-14 1382h280l170 -268h-237z" />
<glyph unicode="a" horiz-adv-x="991" d="M51 266q0 62 21 113t66.5 93t125.5 65.5t189 23.5h147v53q0 103 -34.5 135.5t-143.5 32.5q-59 0 -144.5 -18.5t-142.5 -36.5v178q58 17 163 33t185 16q199 0 292 -74.5t93 -242.5v-637h-262v82q-32 -28 -112.5 -65t-159.5 -37q-146 0 -214.5 76.5t-68.5 209.5zM319 274 q0 -72 40.5 -97t123.5 -25q28 0 64 8.5t53 17.5v240h-98q-102 0 -142.5 -38t-40.5 -106z" />
<glyph unicode="b" horiz-adv-x="1085" d="M123 31v1368h268v-516q47 28 123.5 49.5t142.5 21.5q195 0 283 -119.5t88 -351.5q0 -110 -27 -196t-74 -143t-114.5 -94.5t-144 -53.5t-166.5 -16q-218 0 -379 51zM391 166q54 -16 119 -16q58 0 101.5 16t78 53.5t52.5 105t18 164.5q0 158 -55 223.5t-181 65.5 q-61 0 -133 -28v-584z" />
<glyph unicode="c" horiz-adv-x="813" d="M61 479q0 217 131.5 346t346.5 129q108 0 206 -22v-182q-72 34 -172 34q-111 0 -177 -79.5t-66 -231.5q0 -81 16 -140.5t41 -94t62 -55t71.5 -27t77.5 -6.5q77 0 154 28v-176q-126 -22 -224 -22q-229 0 -348 129.5t-119 369.5z" />
<glyph unicode="d" horiz-adv-x="1079" d="M61 451q0 152 49.5 263.5t155 175.5t260.5 64q85 0 162 -28v473h268v-1399h-268v61q-107 -90 -237 -90q-184 0 -287 118t-103 362zM330 459q0 -164 56 -236.5t165 -72.5q72 0 137 26v590q-72 16 -123 16q-235 0 -235 -323z" />
<glyph unicode="e" horiz-adv-x="972" d="M70 477q0 218 111 347.5t325 129.5q187 0 292 -104.5t105 -294.5v-139h-567q0 -67 16 -115.5t40 -75.5t61.5 -42.5t70.5 -20t76 -4.5q119 0 264 47v-185q-140 -40 -303 -40q-248 0 -369.5 129.5t-121.5 367.5zM338 565h321q0 118 -37 167.5t-124 49.5q-84 0 -122 -53.5 t-38 -163.5z" />
<glyph unicode="f" horiz-adv-x="661" d="M14 745v173h158v161q0 320 367 320q64 0 145 -15v-170q-46 13 -88 13q-90 0 -123 -28t-33 -109v-172h224v-173h-224v-745h-268v745h-158z" />
<glyph unicode="g" horiz-adv-x="995" d="M41 -184q0 64 42.5 120.5t113.5 83.5q-84 51 -84 146q0 52 30 102.5t70 87.5q-63 46 -92 106.5t-29 160.5q0 165 105 248t301 83q102 0 200 -36h297v-173h-129q35 -63 35 -129q0 -92 -29 -157.5t-84 -102t-126 -53t-164 -16.5q-85 0 -160 16q-16 -26 -16 -65 q0 -24 22.5 -44t79.5 -20h207q60 0 110 -8.5t95.5 -29t77.5 -52.5t50.5 -81.5t18.5 -113.5q0 -78 -26 -137.5t-70 -97.5t-109 -62t-137 -33.5t-160 -9.5q-440 0 -440 267zM274 -154q0 -129 230 -129q254 0 254 144q0 62 -37.5 90.5t-120.5 28.5h-274q-52 -65 -52 -134z M348 627q0 -94 31.5 -138.5t118.5 -44.5q88 0 118.5 44t30.5 139q0 88 -39 121.5t-110 33.5q-70 0 -110 -33.5t-40 -121.5z" />
<glyph unicode="h" horiz-adv-x="1089" d="M123 0v1399h268v-553q53 39 135.5 73.5t147.5 34.5q145 0 219 -70t74 -220v-664h-271v643q0 125 -137 125q-33 0 -84 -15t-84 -30v-723h-268z" />
<glyph unicode="i" horiz-adv-x="538" d="M135 0v918h268v-918h-268zM135 1094v223h268v-223h-268z" />
<glyph unicode="j" horiz-adv-x="514" d="M-37 -276q93 0 126.5 44t33.5 166v984h268v-1024q0 -178 -97 -261.5t-267 -83.5q-14 0 -64 5v170zM123 1094v223h268v-223h-268z" />
<glyph unicode="k" horiz-adv-x="954" d="M123 0v1399h268v-912l246 431h289l-254 -416l323 -502h-309l-295 481v-481h-268z" />
<glyph unicode="l" horiz-adv-x="538" d="M135 0v1399h268v-1399h-268z" />
<glyph unicode="m" horiz-adv-x="1576" d="M123 0v918h268v-76q48 36 138 74t147 38q156 0 223 -102q57 41 128.5 71.5t135.5 30.5q291 0 291 -299v-655h-270v616q0 75 -20 108.5t-77 33.5q-65 0 -163 -35q4 -36 4 -68v-655h-271v616q0 76 -18.5 109t-75.5 33q-39 0 -89.5 -16.5t-82.5 -32.5v-709h-268z" />
<glyph unicode="n" horiz-adv-x="1089" d="M123 0v918h268v-74q54 40 136 75t147 35q142 0 217.5 -77.5t75.5 -229.5v-647h-271v627q0 69 -36.5 105t-98.5 36q-58 0 -170 -51v-717h-268z" />
<glyph unicode="o" horiz-adv-x="1060" d="M70 477q0 248 115 362.5t345 114.5q231 0 346 -114.5t115 -362.5q0 -259 -106.5 -378t-354.5 -119q-247 0 -353.5 119t-106.5 378zM338 477q0 -128 21.5 -200.5t61.5 -99.5t109 -27q70 0 110 27t61.5 99t21.5 201q0 81 -8.5 136.5t-22.5 88.5t-39.5 51t-53 23.5 t-69.5 5.5q-67 0 -106.5 -23t-62.5 -91t-23 -191z" />
<glyph unicode="p" horiz-adv-x="1089" d="M123 -430v1348h268v-31q134 67 258 67q191 0 285 -115.5t94 -357.5q0 -105 -27.5 -190.5t-73.5 -142.5t-108.5 -95.5t-131 -55.5t-142.5 -17q-33 0 -82 8.5t-72 19.5v-438h-268zM391 168q45 -18 121 -18q36 0 67 7t65.5 28.5t59 56.5t40.5 97t16 144q0 131 -49 213 t-158 82q-96 0 -162 -30v-580z" />
<glyph unicode="q" horiz-adv-x="1079" d="M61 465q0 131 39 227.5t109 152.5t157 82.5t193 26.5q95 0 211.5 -15t185.5 -30v-1339h-268v491q-110 -90 -229 -90q-69 0 -125.5 13.5t-108.5 47.5t-87 89t-56 142t-21 202zM330 471q0 -79 14.5 -138t36.5 -93t53 -54.5t58 -27t57 -6.5q53 0 139 22v594q-63 14 -129 14 q-105 0 -167 -79t-62 -232z" />
<glyph unicode="r" horiz-adv-x="714" d="M123 0v918h268v-113q23 27 44.5 46t60 46t89.5 42t109 15v-241h-63q-60 0 -131.5 -26.5t-108.5 -51.5v-635h-268z" />
<glyph unicode="s" horiz-adv-x="759" d="M45 14v205q164 -69 277 -69q63 0 104 24t41 68q0 41 -39.5 71.5t-161.5 98.5q-111 62 -163 129.5t-52 150.5q0 114 95.5 188t281.5 74q96 0 229 -30v-195q-127 53 -225 53q-54 0 -90.5 -19.5t-36.5 -55.5q0 -28 35.5 -58t132.5 -82q56 -30 96.5 -57.5t79.5 -64.5 t59.5 -82.5t20.5 -96.5q0 -60 -24 -109t-63 -81t-89 -54.5t-100 -32t-99 -9.5q-176 0 -309 34z" />
<glyph unicode="t" horiz-adv-x="702" d="M8 745v173h166v270h266v-270h234v-173h-234v-469q0 -126 127 -126q41 0 127 16v-166q-95 -20 -229 -20q-152 0 -221.5 61t-69.5 190v514h-166z" />
<glyph unicode="u" horiz-adv-x="1075" d="M123 262v656h268v-617q0 -125 139 -125q67 0 156 27v715h266v-918h-266v86q-50 -32 -80 -49t-86 -37t-104 -20q-144 0 -218.5 66.5t-74.5 215.5z" />
<glyph unicode="v" horiz-adv-x="958" d="M0 918h279l208 -590l205 590h269l-365 -918h-229z" />
<glyph unicode="w" horiz-adv-x="1441" d="M4 918h277l147 -594l168 594h258l180 -594l135 594h269l-295 -918h-236l-186 614l-184 -614h-234z" />
<glyph unicode="x" horiz-adv-x="946" d="M0 0l328 471l-318 447h289l174 -263l174 263h289l-318 -447l328 -471h-289l-184 287l-184 -287h-289z" />
<glyph unicode="y" horiz-adv-x="956" d="M4 918h277l192 -607l215 607h264l-350 -879l-176 -469h-274l188 461z" />
<glyph unicode="z" horiz-adv-x="794" d="M20 0v156l422 589h-411v173h712v-158l-409 -588h442v-172h-756z" />
<glyph unicode="{" horiz-adv-x="675" d="M43 387v195q69 0 105 18.5t53.5 71t17.5 155.5v236q0 192 103 272t313 80v-155q-38 0 -67 -11.5t-45.5 -29.5t-26.5 -44.5t-13.5 -52t-3.5 -57.5v-248q0 -118 -44.5 -191t-151.5 -137v-10q107 -64 151.5 -136.5t44.5 -190.5v-248q0 -32 3.5 -57.5t13.5 -52t26.5 -44.5 t45.5 -29.5t67 -11.5v-155q-210 0 -313 80t-103 272v235q0 103 -17.5 155.5t-53.5 71.5t-105 19z" />
<glyph unicode="|" horiz-adv-x="514" d="M205 -451v2048h104v-2048h-104z" />
<glyph unicode="}" horiz-adv-x="675" d="M41 -291q38 0 67 11.5t45.5 29.5t26.5 44.5t13.5 52t3.5 57.5v248q0 118 44.5 190.5t151.5 136.5v10q-107 64 -151.5 137t-44.5 191v248q0 32 -3.5 57.5t-13.5 52t-26.5 44.5t-45.5 29.5t-67 11.5v155q210 0 313 -80t103 -272v-236q0 -103 17.5 -155.5t53.5 -71 t105 -18.5v-195q-69 0 -105 -19t-53.5 -71.5t-17.5 -155.5v-235q0 -192 -103 -272t-313 -80v155z" />
<glyph unicode="~" d="M90 500q6 111 77 192.5t183 81.5q59 0 131 -25.5t132 -51t89 -25.5q42 0 65 20t24 72h143q-5 -122 -66 -198.5t-180 -76.5q-53 0 -122 27.5t-132 55.5t-100 28q-49 0 -68 -25.5t-24 -74.5h-152z" />
<glyph unicode="&#xa1;" horiz-adv-x="602" d="M143 -399l88 917h140l90 -917h-318zM150 653v265h284v-265h-284z" />
<glyph unicode="&#xa2;" d="M143 473q0 184 107 310t278 159v244h215v-240q48 -3 105 -16v-178q-72 34 -172 34q-112 0 -185 -84t-73 -235q0 -328 282 -328q74 0 154 29v-172q-69 -11 -111 -16v-213h-215v213q-183 28 -284 156t-101 337z" />
<glyph unicode="&#xa3;" d="M96 0v176h164v406h-164v174h164v174q0 387 391 387q114 0 232 -27v-192q-113 37 -197 37q-92 0 -127 -42.5t-35 -136.5v-200h291v-174h-291v-406h426v-176h-854z" />
<glyph unicode="&#xa4;" d="M117 393l104 107q-67 94 -67 209q0 124 71 217l-108 110l73 74l111 -109q100 72 209 72q113 0 213 -72l111 109l71 -74l-108 -112q71 -93 71 -215q0 -113 -67 -207l104 -109l-71 -71l-109 104q-85 -76 -215 -76q-126 0 -215 74l-105 -102zM258 709q0 -103 72 -181.5 t178 -78.5q109 0 182.5 77t73.5 183q0 111 -71.5 187.5t-182.5 76.5q-112 0 -182 -76.5t-70 -187.5z" />
<glyph unicode="&#xa5;" d="M68 1296h245l199 -532l201 532h243l-237 -581h176v-158h-240l-10 -27v-129h250v-155h-250v-246h-264v246h-252v155h252v134l-10 22h-242v158h178z" />
<glyph unicode="&#xa6;" horiz-adv-x="634" d="M225 416h226v-846h-226v846zM225 608v778h226v-778h-226z" />
<glyph unicode="&#xa7;" d="M72 557q0 188 182 266q-84 91 -84 205q0 46 12.5 87t41.5 78.5t72.5 64.5t110.5 43t150 16q127 0 264 -35v-184q-92 31 -142 42t-114 11q-58 0 -95.5 -27.5t-37.5 -70.5q0 -33 22.5 -65.5t59 -60t83 -58.5t95.5 -59.5t95.5 -65t83 -74t59 -86.5t22.5 -103q0 -73 -45 -148 t-125 -126q80 -106 80 -193q0 -53 -22 -107t-66.5 -103t-123 -80t-179.5 -31q-150 0 -297 39v209q7 -2 34.5 -11.5t38.5 -13t36.5 -11.5t41.5 -11.5t39 -8t43.5 -6.5t41.5 -2q57 0 91.5 31.5t34.5 89.5q0 41 -37.5 82t-93 74t-121 76t-121 86t-93 106t-37.5 135zM305 606 q0 -25 28.5 -58.5t85.5 -75.5t101.5 -72t114.5 -74q27 6 47 37t20 71q0 27 -27.5 65t-68.5 70q-63 47 -205 136q-96 -23 -96 -99z" />
<glyph unicode="&#xa8;" horiz-adv-x="608" d="M14 1094v223h244v-223h-244zM350 1094v223h244v-223h-244z" />
<glyph unicode="&#xa9;" horiz-adv-x="1419" d="M35 641q0 181 87.5 335.5t243.5 246.5t345 92q143 0 269 -54t214 -145.5t139 -215.5t51 -259q0 -180 -86 -333t-241.5 -245t-345.5 -92q-142 0 -268.5 54t-215.5 145t-140.5 214t-51.5 257zM215 643q0 -148 65 -271t179 -194.5t252 -71.5q137 0 251 71.5t179 195 t65 270.5q0 225 -143.5 382t-351.5 157q-138 0 -252 -72t-179 -195.5t-65 -271.5zM358 659q0 171 103 277t284 106q101 0 175 -36v-132q-96 35 -175 35q-73 0 -131.5 -66t-58.5 -184t58 -192t149 -74q73 0 160 41v-139q-90 -35 -181 -35q-185 0 -284 109t-99 290z" />
<glyph unicode="&#xaa;" horiz-adv-x="604" d="M66 911q0 84 51 125t159 41h109v35q0 62 -22 83.5t-87 21.5q-36 0 -159 -17v96q137 21 207 21q94 0 157.5 -43t63.5 -129v-395h-158v45q-87 -62 -166 -62q-155 0 -155 178zM231 918q0 -50 22.5 -70.5t72.5 -20.5q19 0 59 17v157h-74q-44 0 -62 -21.5t-18 -61.5z" />
<glyph unicode="&#xab;" horiz-adv-x="890" d="M47 471l184 354h218l-185 -354l185 -346h-218zM436 471l185 354h217l-185 -354l185 -346h-217z" />
<glyph unicode="&#xac;" d="M147 530v187h730v-459h-187v272h-543z" />
<glyph unicode="&#xad;" horiz-adv-x="0" />
<glyph unicode="&#xae;" horiz-adv-x="1419" d="M35 641q0 181 87.5 335.5t243.5 246.5t345 92q143 0 269 -54t214 -145.5t139 -215.5t51 -259q0 -180 -86 -333t-241.5 -245t-345.5 -92q-142 0 -268.5 54t-215.5 145t-140.5 214t-51.5 257zM215 643q0 -148 65 -271t179 -194.5t252 -71.5q137 0 251 71.5t179 195 t65 270.5q0 225 -143.5 382t-351.5 157q-138 0 -252 -72t-179 -195.5t-65 -271.5zM449 272v754h329q115 0 175.5 -57t60.5 -162q0 -160 -174 -211l198 -324h-202l-172 297h-41v-297h-174zM623 692h94q54 0 81 25.5t27 83.5q0 106 -114 106h-88v-215z" />
<glyph unicode="&#xaf;" horiz-adv-x="522" d="M0 1145v172h522v-172h-522z" />
<glyph unicode="&#xb0;" horiz-adv-x="737" d="M59 1010q0 127 91 217t219 90t218.5 -90t90.5 -217t-90.5 -217.5t-218.5 -90.5t-219 90.5t-91 217.5zM217 1010q0 -62 45.5 -110t106.5 -48t106 48t45 110t-45 108.5t-106 46.5t-106.5 -46.5t-45.5 -108.5z" />
<glyph unicode="&#xb1;" d="M147 0v186h730v-186h-730zM147 530v187h271v270h186v-270h273v-187h-273v-272h-186v272h-271z" />
<glyph unicode="&#xb2;" horiz-adv-x="819" d="M104 590v125l230 196q64 56 96.5 100.5t32.5 88.5q0 56 -31.5 79t-97.5 23q-78 0 -205 -45v152q146 30 242 30q309 0 309 -221q0 -87 -48.5 -154t-142.5 -141l-127 -100h340v-133h-598z" />
<glyph unicode="&#xb3;" horiz-adv-x="819" d="M133 590v141q161 0 262 29t101 90q0 25 -15 42.5t-39.5 25t-44.5 10t-41 2.5h-90v125h82q57 0 92 21.5t35 60.5q0 33 -34.5 51t-90.5 18q-72 0 -209 -39v142q35 11 105.5 20.5t134.5 9.5q58 0 110 -11t96.5 -33t70.5 -61.5t26 -90.5q0 -86 -111 -135q58 -18 93.5 -58 t35.5 -98q0 -54 -18.5 -95.5t-56 -70t-85.5 -47.5t-115 -29.5t-136.5 -15t-157.5 -4.5z" />
<glyph unicode="&#xb4;" horiz-adv-x="421" d="M-14 1114l170 268h280l-213 -268h-237z" />
<glyph unicode="&#xb6;" horiz-adv-x="878" d="M61 1012q0 82 30.5 149.5t100.5 111.5t170 44h476v-33l-88 -51q-24 -14 -33.5 -25t-9.5 -34v-1614h-107v1669h-108v-1669h-105v1149q-109 0 -184.5 43.5t-108.5 110.5t-33 149z" />
<glyph unicode="&#xb7;" horiz-adv-x="382" d="M49 522v264h285v-264h-285z" />
<glyph unicode="&#xb8;" horiz-adv-x="325" d="M14 -180l64 180h117l-29 -88q143 -42 143 -156q0 -91 -76 -149t-188 -58v119q55 0 84 21.5t29 58.5q0 30 -36 51t-108 21z" />
<glyph unicode="&#xb9;" horiz-adv-x="819" d="M141 590v133h176v461h-176v133h381v-594h172v-133h-553z" />
<glyph unicode="&#xba;" horiz-adv-x="653" d="M61 1030q0 150 65 218.5t202 68.5t200.5 -68.5t63.5 -218.5q0 -158 -58.5 -227.5t-205.5 -69.5q-148 0 -207.5 70t-59.5 227zM227 1030q0 -123 22 -165t79 -42t78.5 42t21.5 165q0 116 -22 154.5t-78 38.5t-78.5 -38.5t-22.5 -154.5z" />
<glyph unicode="&#xbb;" horiz-adv-x="890" d="M47 125l184 346l-184 354h217l185 -354l-185 -346h-217zM436 125l185 346l-185 354h217l185 -354l-185 -346h-217z" />
<glyph unicode="&#xbc;" horiz-adv-x="1720" d="M141 590v133h176v461h-176v133h381v-594h172v-133h-553zM362 -63l871 1415h188l-866 -1415h-193zM1006 164v143l262 420h194l-286 -444h196v123l111 167h82v-573h-193v164h-366z" />
<glyph unicode="&#xbd;" horiz-adv-x="1720" d="M141 590v133h176v461h-176v133h381v-594h172v-133h-553zM332 -63l870 1415h189l-867 -1415h-192zM1006 0v125l229 197q65 57 97 100.5t32 87.5q0 56 -31.5 79t-97.5 23q-78 0 -205 -45v152q151 31 242 31q309 0 309 -222q0 -46 -14 -87t-42 -77.5t-58.5 -66t-75.5 -64.5 l-127 -100h340v-133h-598z" />
<glyph unicode="&#xbe;" horiz-adv-x="1720" d="M133 590v141q161 0 262 29t101 90q0 25 -15 42.5t-39.5 25t-44.5 10t-41 2.5h-90v125h82q57 0 92 21.5t35 60.5q0 33 -34.5 51t-90.5 18q-72 0 -209 -39v142q35 11 105.5 20.5t134.5 9.5q58 0 110 -11t96.5 -33t70.5 -61.5t26 -90.5q0 -86 -111 -135q58 -18 93.5 -58 t35.5 -98q0 -54 -18.5 -95.5t-56 -70t-85.5 -47.5t-115 -29.5t-136.5 -15t-157.5 -4.5zM369 -63l870 1415h188l-866 -1415h-192zM1006 164v143l262 420h194l-286 -444h196v123l111 167h82v-573h-193v164h-366z" />
<glyph unicode="&#xbf;" horiz-adv-x="884" d="M82 -129q0 82 24.5 155t60.5 128.5t73.5 108.5t68.5 119t39 136h221q0 -79 -23 -154.5t-55.5 -134.5t-64.5 -114.5t-55 -115.5t-23 -116q0 -66 54.5 -103.5t129.5 -37.5q45 0 127.5 20t143.5 43v-190q-155 -51 -305 -51q-85 0 -157 17t-131.5 52t-93.5 96t-34 142z M317 653v265h287v-265h-287z" />
<glyph unicode="&#xc0;" horiz-adv-x="1218" d="M4 0l436 1317h332l442 -1317h-282l-117 373h-420l-108 -373h-283zM260 1720h281l170 -268h-238zM444 557h318l-156 508h-16z" />
<glyph unicode="&#xc1;" horiz-adv-x="1218" d="M4 0l436 1317h332l442 -1317h-282l-117 373h-420l-108 -373h-283zM444 557h318l-156 508h-16zM504 1513l170 269h280l-213 -269h-237z" />
<glyph unicode="&#xc2;" horiz-adv-x="1218" d="M4 0l436 1317h332l442 -1317h-282l-117 373h-420l-108 -373h-283zM309 1505l148 269h301l149 -269h-192l-109 162l-108 -162h-189zM444 557h318l-156 508h-16z" />
<glyph unicode="&#xc3;" horiz-adv-x="1218" d="M4 0l436 1317h332l442 -1317h-282l-117 373h-420l-108 -373h-283zM315 1524q3 41 16 81t35.5 76.5t60.5 59t85 22.5q40 0 83 -22.5t76 -45t50 -22.5q53 0 53 80h127q-2 -43 -11.5 -82t-29.5 -76.5t-56.5 -59.5t-86.5 -22q-39 0 -82 24t-78.5 48.5t-54.5 24.5 q-24 0 -39 -26.5t-17 -59.5h-131zM444 557h318l-156 508h-16z" />
<glyph unicode="&#xc4;" horiz-adv-x="1218" d="M4 0l436 1317h332l442 -1317h-282l-117 373h-420l-108 -373h-283zM319 1493v223h244v-223h-244zM444 557h318l-156 508h-16zM655 1493v223h244v-223h-244z" />
<glyph unicode="&#xc5;" horiz-adv-x="1218" d="M4 0l410 1237q-45 61 -45 139q0 96 68.5 165t162.5 69q97 0 166.5 -68.5t69.5 -165.5q0 -68 -41 -129l419 -1247h-282l-117 373h-420l-108 -373h-283zM444 557h318l-156 508h-16zM502 1376q0 -38 30 -69t68 -31q40 0 69 30.5t29 69.5q0 42 -28.5 73.5t-69.5 31.5 q-38 0 -68 -32t-30 -73z" />
<glyph unicode="&#xc6;" horiz-adv-x="1787" d="M0 0l682 1317h1044v-187h-532v-342h418v-186h-418v-416h553v-186h-829v375h-437l-178 -375h-303zM567 559h351v571h-80z" />
<glyph unicode="&#xc7;" horiz-adv-x="1110" d="M92 672q0 125 18 224t63 187t116.5 146t183 91.5t258.5 33.5q149 0 313 -41v-197q-189 51 -319 51q-197 0 -276.5 -118.5t-79.5 -376.5q0 -120 19.5 -212t63.5 -163.5t121.5 -109t186.5 -37.5q131 0 291 45v-191q-146 -33 -285 -39l-16 -53q143 -42 143 -156 q0 -91 -76 -149t-188 -58v119q55 0 83.5 21.5t28.5 58.5q0 30 -35.5 51t-107.5 21l51 145q-124 8 -219 46.5t-158.5 100t-104 149t-58 188.5t-17.5 223z" />
<glyph unicode="&#xc8;" horiz-adv-x="1013" d="M143 0v1317h809v-187h-532v-342h418v-186h-418v-416h553v-186h-830zM223 1782h281l170 -269h-238z" />
<glyph unicode="&#xc9;" horiz-adv-x="1013" d="M143 0v1317h809v-187h-532v-342h418v-186h-418v-416h553v-186h-830zM399 1513l170 269h281l-213 -269h-238z" />
<glyph unicode="&#xca;" horiz-adv-x="1013" d="M143 0v1317h809v-187h-532v-342h418v-186h-418v-416h553v-186h-830zM207 1505l147 269h301l150 -269h-193l-108 162l-109 -162h-188z" />
<glyph unicode="&#xcb;" horiz-adv-x="1013" d="M143 0v1317h809v-187h-532v-342h418v-186h-418v-416h553v-186h-830zM217 1493v223h244v-223h-244zM553 1493v223h244v-223h-244z" />
<glyph unicode="&#xcc;" horiz-adv-x="604" d="M76 1782h280l170 -269h-237zM164 0v1317h276v-1317h-276z" />
<glyph unicode="&#xcd;" horiz-adv-x="604" d="M76 1513l170 269h280l-213 -269h-237zM164 0v1317h276v-1317h-276z" />
<glyph unicode="&#xce;" horiz-adv-x="604" d="M2 1505l148 269h301l149 -269h-192l-109 162l-109 -162h-188zM164 0v1317h276v-1317h-276z" />
<glyph unicode="&#xcf;" horiz-adv-x="604" d="M12 1493v223h244v-223h-244zM164 0v1317h276v-1317h-276zM348 1493v223h244v-223h-244z" />
<glyph unicode="&#xd0;" horiz-adv-x="1318" d="M63 602v191h80v524h480q614 0 614 -647q0 -670 -625 -670h-469v602h-80zM420 186h182q175 0 267 113.5t92 370.5q0 133 -24.5 224t-73.5 142t-112 72.5t-149 21.5h-182v-337h188v-191h-188v-416z" />
<glyph unicode="&#xd1;" horiz-adv-x="1376" d="M143 0v1317h306l532 -926v926h252v-1317h-272l-566 979v-979h-252zM395 1524q3 41 16 81t35.5 76.5t60.5 59t85 22.5q40 0 83 -22.5t76 -45t50 -22.5q53 0 53 80h127q-2 -43 -11.5 -82t-29.5 -76.5t-56.5 -59.5t-86.5 -22q-39 0 -82 24t-78.5 48.5t-54.5 24.5 q-24 0 -39 -26.5t-17 -59.5h-131z" />
<glyph unicode="&#xd2;" horiz-adv-x="1386" d="M92 668q0 185 31.5 312t103 212t186 123.5t281.5 38.5q328 0 464 -159t136 -527q0 -188 -29.5 -316t-98.5 -217.5t-184.5 -130.5t-287.5 -41t-288.5 41t-185.5 130.5t-98.5 217.5t-29.5 316zM360 1782h281l170 -269h-238zM369 668q0 -151 19 -252t61 -159.5t100.5 -82.5 t144.5 -24q115 0 183.5 45t104.5 159.5t36 313.5q0 120 -13 206t-37.5 143t-65 90t-90 46.5t-118.5 13.5t-119 -13.5t-90.5 -46.5t-65 -90t-37.5 -143t-13 -206z" />
<glyph unicode="&#xd3;" horiz-adv-x="1386" d="M92 668q0 185 31.5 312t103 212t186 123.5t281.5 38.5q328 0 464 -159t136 -527q0 -188 -29.5 -316t-98.5 -217.5t-184.5 -130.5t-287.5 -41t-288.5 41t-185.5 130.5t-98.5 217.5t-29.5 316zM369 668q0 -151 19 -252t61 -159.5t100.5 -82.5t144.5 -24q115 0 183.5 45 t104.5 159.5t36 313.5q0 120 -13 206t-37.5 143t-65 90t-90 46.5t-118.5 13.5t-119 -13.5t-90.5 -46.5t-65 -90t-37.5 -143t-13 -206zM553 1513l170 269h281l-213 -269h-238z" />
<glyph unicode="&#xd4;" horiz-adv-x="1386" d="M92 668q0 185 31.5 312t103 212t186 123.5t281.5 38.5q328 0 464 -159t136 -527q0 -188 -29.5 -316t-98.5 -217.5t-184.5 -130.5t-287.5 -41t-288.5 41t-185.5 130.5t-98.5 217.5t-29.5 316zM369 668q0 -151 19 -252t61 -159.5t100.5 -82.5t144.5 -24q115 0 183.5 45 t104.5 159.5t36 313.5q0 120 -13 206t-37.5 143t-65 90t-90 46.5t-118.5 13.5t-119 -13.5t-90.5 -46.5t-65 -90t-37.5 -143t-13 -206zM393 1505l148 269h301l149 -269h-192l-109 162l-108 -162h-189z" />
<glyph unicode="&#xd5;" horiz-adv-x="1386" d="M92 668q0 185 31.5 312t103 212t186 123.5t281.5 38.5q328 0 464 -159t136 -527q0 -188 -29.5 -316t-98.5 -217.5t-184.5 -130.5t-287.5 -41t-288.5 41t-185.5 130.5t-98.5 217.5t-29.5 316zM369 668q0 -151 19 -252t61 -159.5t100.5 -82.5t144.5 -24q115 0 183.5 45 t104.5 159.5t36 313.5q0 120 -13 206t-37.5 143t-65 90t-90 46.5t-118.5 13.5t-119 -13.5t-90.5 -46.5t-65 -90t-37.5 -143t-13 -206zM399 1524q3 41 16 81t35.5 76.5t60.5 59t85 22.5q40 0 83 -22.5t76 -45t50 -22.5q53 0 53 80h127q-2 -43 -11.5 -82t-29.5 -76.5 t-56.5 -59.5t-86.5 -22q-39 0 -82 24t-78.5 48.5t-54.5 24.5q-24 0 -39 -26.5t-17 -59.5h-131z" />
<glyph unicode="&#xd6;" horiz-adv-x="1386" d="M92 668q0 185 31.5 312t103 212t186 123.5t281.5 38.5q328 0 464 -159t136 -527q0 -188 -29.5 -316t-98.5 -217.5t-184.5 -130.5t-287.5 -41t-288.5 41t-185.5 130.5t-98.5 217.5t-29.5 316zM369 668q0 -151 19 -252t61 -159.5t100.5 -82.5t144.5 -24q115 0 183.5 45 t104.5 159.5t36 313.5q0 120 -13 206t-37.5 143t-65 90t-90 46.5t-118.5 13.5t-119 -13.5t-90.5 -46.5t-65 -90t-37.5 -143t-13 -206zM403 1493v223h244v-223h-244zM739 1493v223h244v-223h-244z" />
<glyph unicode="&#xd7;" d="M188 432l191 191l-191 190l131 133l191 -192l192 192l134 -131l-193 -192l193 -193l-134 -131l-192 193l-191 -193z" />
<glyph unicode="&#xd8;" horiz-adv-x="1386" d="M92 668q0 185 31.5 312t103 212t186 123.5t281.5 38.5q328 0 464 -159t136 -527q0 -188 -29.5 -316t-98.5 -217.5t-184.5 -130.5t-287.5 -41t-288.5 41t-185.5 130.5t-98.5 217.5t-29.5 316zM369 668q0 -178 26 -285l541 686q-38 53 -97 75.5t-145 22.5q-69 0 -119 -13.5 t-90.5 -46.5t-65 -90t-37.5 -143t-13 -206zM467 231q73 -81 227 -81q115 0 183.5 45t104.5 159.5t36 313.5q0 137 -19 237z" />
<glyph unicode="&#xd9;" horiz-adv-x="1347" d="M143 389v928h277v-928q0 -239 256 -239q57 0 101.5 11.5t80.5 38t55 74t19 115.5v928h276v-928q0 -426 -532 -426q-533 0 -533 426zM449 1782h280l170 -269h-237z" />
<glyph unicode="&#xda;" horiz-adv-x="1347" d="M143 389v928h277v-928q0 -239 256 -239q57 0 101.5 11.5t80.5 38t55 74t19 115.5v928h276v-928q0 -426 -532 -426q-533 0 -533 426zM449 1513l169 269h281l-213 -269h-237z" />
<glyph unicode="&#xdb;" horiz-adv-x="1347" d="M143 389v928h277v-928q0 -239 256 -239q57 0 101.5 11.5t80.5 38t55 74t19 115.5v928h276v-928q0 -426 -532 -426q-533 0 -533 426zM375 1505l147 269h301l150 -269h-193l-108 162l-109 -162h-188z" />
<glyph unicode="&#xdc;" horiz-adv-x="1347" d="M143 389v928h277v-928q0 -239 256 -239q57 0 101.5 11.5t80.5 38t55 74t19 115.5v928h276v-928q0 -426 -532 -426q-533 0 -533 426zM383 1493v223h244v-223h-244zM719 1493v223h244v-223h-244z" />
<glyph unicode="&#xdd;" horiz-adv-x="1175" d="M0 1317h301l287 -512l286 512h302l-449 -746v-571h-276v575zM362 1513l170 269h281l-213 -269h-238z" />
<glyph unicode="&#xde;" horiz-adv-x="1130" d="M143 0v1317h277v-246h192q256 0 364.5 -93.5t108.5 -293.5q0 -208 -119.5 -301.5t-353.5 -93.5h-192v-289h-277zM420 475h143q246 0 246 211q0 105 -62 152t-184 47h-143v-410z" />
<glyph unicode="&#xdf;" horiz-adv-x="1118" d="M123 0v942q0 220 126 338.5t357 118.5q205 0 308.5 -107.5t103.5 -277.5q0 -121 -31 -254q-63 16 -123 16q-42 0 -71 -18.5t-29 -52.5q0 -32 38 -68t109 -82q39 -25 63 -42.5t55.5 -46.5t49 -56t30.5 -65.5t13 -80.5q0 -92 -52.5 -158.5t-127.5 -96t-160 -29.5 q-150 0 -252 22v199q122 -51 218 -51q116 0 116 94q0 43 -38.5 79.5t-118.5 84.5q-96 59 -144.5 123t-48.5 159q0 101 68 168.5t198 85.5q8 40 8 80q0 84 -55 143.5t-139 59.5q-91 0 -147 -65t-56 -193v-969h-268z" />
<glyph unicode="&#xe0;" horiz-adv-x="991" d="M51 266q0 62 21 113t66.5 93t125.5 65.5t189 23.5h147v53q0 103 -34.5 135.5t-143.5 32.5q-59 0 -144.5 -18.5t-142.5 -36.5v178q58 17 163 33t185 16q199 0 292 -74.5t93 -242.5v-637h-262v82q-32 -28 -112.5 -65t-159.5 -37q-146 0 -214.5 76.5t-68.5 209.5zM164 1382 h280l170 -268h-237zM319 274q0 -72 40.5 -97t123.5 -25q28 0 64 8.5t53 17.5v240h-98q-102 0 -142.5 -38t-40.5 -106z" />
<glyph unicode="&#xe1;" horiz-adv-x="991" d="M51 266q0 62 21 113t66.5 93t125.5 65.5t189 23.5h147v53q0 103 -34.5 135.5t-143.5 32.5q-59 0 -144.5 -18.5t-142.5 -36.5v178q58 17 163 33t185 16q199 0 292 -74.5t93 -242.5v-637h-262v82q-32 -28 -112.5 -65t-159.5 -37q-146 0 -214.5 76.5t-68.5 209.5zM270 1114 l170 268h281l-213 -268h-238zM319 274q0 -72 40.5 -97t123.5 -25q28 0 64 8.5t53 17.5v240h-98q-102 0 -142.5 -38t-40.5 -106z" />
<glyph unicode="&#xe2;" horiz-adv-x="991" d="M51 266q0 62 21 113t66.5 93t125.5 65.5t189 23.5h147v53q0 103 -34.5 135.5t-143.5 32.5q-59 0 -144.5 -18.5t-142.5 -36.5v178q58 17 163 33t185 16q199 0 292 -74.5t93 -242.5v-637h-262v82q-32 -28 -112.5 -65t-159.5 -37q-146 0 -214.5 76.5t-68.5 209.5zM197 1106 l147 268h301l150 -268h-193l-108 162l-109 -162h-188zM319 274q0 -72 40.5 -97t123.5 -25q28 0 64 8.5t53 17.5v240h-98q-102 0 -142.5 -38t-40.5 -106z" />
<glyph unicode="&#xe3;" horiz-adv-x="991" d="M51 266q0 62 21 113t66.5 93t125.5 65.5t189 23.5h147v53q0 103 -34.5 135.5t-143.5 32.5q-59 0 -144.5 -18.5t-142.5 -36.5v178q58 17 163 33t185 16q199 0 292 -74.5t93 -242.5v-637h-262v82q-32 -28 -112.5 -65t-159.5 -37q-146 0 -214.5 76.5t-68.5 209.5zM203 1124 q3 41 15.5 81t35 77t60.5 59.5t85 22.5q40 0 83 -22.5t76 -45t50 -22.5q54 0 54 80h126q-2 -43 -11.5 -82t-29.5 -76.5t-56.5 -59.5t-86.5 -22q-39 0 -82 24t-78.5 48t-54.5 24q-24 0 -38.5 -26.5t-16.5 -59.5h-131zM319 274q0 -72 40.5 -97t123.5 -25q28 0 64 8.5t53 17.5 v240h-98q-102 0 -142.5 -38t-40.5 -106z" />
<glyph unicode="&#xe4;" horiz-adv-x="991" d="M51 266q0 62 21 113t66.5 93t125.5 65.5t189 23.5h147v53q0 103 -34.5 135.5t-143.5 32.5q-59 0 -144.5 -18.5t-142.5 -36.5v178q58 17 163 33t185 16q199 0 292 -74.5t93 -242.5v-637h-262v82q-32 -28 -112.5 -65t-159.5 -37q-146 0 -214.5 76.5t-68.5 209.5zM205 1094 v223h244v-223h-244zM319 274q0 -72 40.5 -97t123.5 -25q28 0 64 8.5t53 17.5v240h-98q-102 0 -142.5 -38t-40.5 -106zM541 1094v223h243v-223h-243z" />
<glyph unicode="&#xe5;" horiz-adv-x="991" d="M51 266q0 62 21 113t66.5 93t125.5 65.5t189 23.5h147v53q0 103 -34.5 135.5t-143.5 32.5q-59 0 -144.5 -18.5t-142.5 -36.5v178q58 17 163 33t185 16q199 0 292 -74.5t93 -242.5v-637h-262v82q-32 -28 -112.5 -65t-159.5 -37q-146 0 -214.5 76.5t-68.5 209.5zM303 1249 q0 76 56.5 130.5t132.5 54.5q78 0 136 -48t58 -122q0 -84 -55.5 -142.5t-136.5 -58.5q-77 0 -134 55t-57 131zM319 274q0 -72 40.5 -97t123.5 -25q28 0 64 8.5t53 17.5v240h-98q-102 0 -142.5 -38t-40.5 -106zM406 1249q0 -38 27 -65t65 -27q35 0 60.5 27t25.5 63 q0 39 -26.5 66.5t-65.5 27.5q-36 0 -61 -28t-25 -64z" />
<glyph unicode="&#xe6;" horiz-adv-x="1462" d="M51 270q0 136 87 210.5t251 74.5h193v63q0 91 -37 127.5t-142 36.5q-62 0 -143 -18.5t-125 -38.5v182q54 16 159.5 31.5t186.5 15.5q155 0 256 -65q89 65 250 65q206 0 296.5 -104.5t90.5 -304.5v-139h-534q4 -70 21.5 -120t39.5 -76.5t56 -42t61.5 -19t64.5 -3.5 q110 0 252 45v-174q-126 -36 -321 -36q-230 0 -326 102q-74 -51 -148.5 -76.5t-189.5 -25.5q-145 0 -222 82t-77 208zM328 279q0 -62 35.5 -98t107.5 -36q33 0 78.5 10.5t77.5 26.5q-40 98 -43 224h-84q-79 0 -125.5 -33t-46.5 -94zM838 555h282q0 132 -25.5 179.5 t-109.5 47.5q-40 0 -67 -10t-43 -26t-24 -47t-10.5 -62t-2.5 -82z" />
<glyph unicode="&#xe7;" horiz-adv-x="813" d="M61 479q0 217 131.5 346t346.5 129q108 0 206 -22v-182q-72 34 -172 34q-111 0 -177 -79.5t-66 -231.5q0 -81 16 -140.5t41 -94t62 -55t71.5 -27t77.5 -6.5q77 0 154 28v-176q-107 -18 -201 -22l-23 -68q144 -42 144 -156q0 -91 -76 -149t-188 -58v119q55 0 83.5 21.5 t28.5 58.5q0 30 -35.5 51t-107.5 21l57 166q-184 25 -278.5 151t-94.5 342z" />
<glyph unicode="&#xe8;" horiz-adv-x="972" d="M70 477q0 218 111 347.5t325 129.5q187 0 292 -104.5t105 -294.5v-139h-567q0 -67 16 -115.5t40 -75.5t61.5 -42.5t70.5 -20t76 -4.5q119 0 264 47v-185q-140 -40 -303 -40q-248 0 -369.5 129.5t-121.5 367.5zM199 1382h280l170 -268h-237zM338 565h321q0 118 -37 167.5 t-124 49.5q-84 0 -122 -53.5t-38 -163.5z" />
<glyph unicode="&#xe9;" horiz-adv-x="972" d="M70 477q0 218 111 347.5t325 129.5q187 0 292 -104.5t105 -294.5v-139h-567q0 -67 16 -115.5t40 -75.5t61.5 -42.5t70.5 -20t76 -4.5q119 0 264 47v-185q-140 -40 -303 -40q-248 0 -369.5 129.5t-121.5 367.5zM338 565h321q0 118 -37 167.5t-124 49.5q-84 0 -122 -53.5 t-38 -163.5zM383 1114l170 268h281l-213 -268h-238z" />
<glyph unicode="&#xea;" horiz-adv-x="972" d="M70 477q0 218 111 347.5t325 129.5q187 0 292 -104.5t105 -294.5v-139h-567q0 -67 16 -115.5t40 -75.5t61.5 -42.5t70.5 -20t76 -4.5q119 0 264 47v-185q-140 -40 -303 -40q-248 0 -369.5 129.5t-121.5 367.5zM186 1106l148 268h301l149 -268h-192l-109 162l-108 -162 h-189zM338 565h321q0 118 -37 167.5t-124 49.5q-84 0 -122 -53.5t-38 -163.5z" />
<glyph unicode="&#xeb;" horiz-adv-x="972" d="M70 477q0 218 111 347.5t325 129.5q187 0 292 -104.5t105 -294.5v-139h-567q0 -67 16 -115.5t40 -75.5t61.5 -42.5t70.5 -20t76 -4.5q119 0 264 47v-185q-140 -40 -303 -40q-248 0 -369.5 129.5t-121.5 367.5zM197 1094v223h243v-223h-243zM338 565h321q0 118 -37 167.5 t-124 49.5q-84 0 -122 -53.5t-38 -163.5zM532 1094v223h244v-223h-244z" />
<glyph unicode="&#xec;" horiz-adv-x="538" d="M43 1382h281l170 -268h-238zM135 0v918h268v-918h-268z" />
<glyph unicode="&#xed;" horiz-adv-x="538" d="M43 1114l170 268h281l-213 -268h-238zM135 0v918h268v-918h-268z" />
<glyph unicode="&#xee;" horiz-adv-x="538" d="M-29 1106l148 268h301l149 -268h-192l-109 162l-108 -162h-189zM135 0v918h268v-918h-268z" />
<glyph unicode="&#xef;" horiz-adv-x="538" d="M-20 1094v223h243v-223h-243zM135 0v918h268v-918h-268zM315 1094v223h244v-223h-244z" />
<glyph unicode="&#xf0;" horiz-adv-x="1101" d="M70 479q0 247 115 361t345 114q43 0 117 -8q-43 98 -145 209l-113 -76l-59 88l94 64q-122 112 -231 168h323l72 -58l98 66l59 -88l-73 -49q319 -308 319 -764q0 -278 -106 -402t-355 -124q-247 0 -353.5 120t-106.5 379zM338 477q0 -128 21.5 -200.5t61.5 -99.5t109 -27 q70 0 110 27t61.5 99t21.5 201q0 81 -8.5 136.5t-22.5 88.5t-39.5 51t-53 23.5t-69.5 5.5q-67 0 -106.5 -23t-62.5 -91t-23 -191z" />
<glyph unicode="&#xf1;" horiz-adv-x="1089" d="M123 0v918h268v-74q54 40 136 75t147 35q142 0 217.5 -77.5t75.5 -229.5v-647h-271v627q0 69 -36.5 105t-98.5 36q-58 0 -170 -51v-717h-268zM252 1124q3 41 16 81t35.5 77t60.5 59.5t85 22.5q40 0 82.5 -22.5t75.5 -45t50 -22.5q54 0 54 80h127q-1 -34 -7 -65.5t-20 -64 t-34 -56.5t-52 -39t-72 -15q-39 0 -82 24t-78.5 48t-54.5 24q-24 0 -38.5 -26.5t-16.5 -59.5h-131z" />
<glyph unicode="&#xf2;" horiz-adv-x="1060" d="M70 477q0 248 115 362.5t345 114.5q231 0 346 -114.5t115 -362.5q0 -259 -106.5 -378t-354.5 -119q-247 0 -353.5 119t-106.5 378zM305 1382h281l170 -268h-238zM338 477q0 -128 21.5 -200.5t61.5 -99.5t109 -27q70 0 110 27t61.5 99t21.5 201q0 81 -8.5 136.5 t-22.5 88.5t-39.5 51t-53 23.5t-69.5 5.5q-67 0 -106.5 -23t-62.5 -91t-23 -191z" />
<glyph unicode="&#xf3;" horiz-adv-x="1060" d="M70 477q0 248 115 362.5t345 114.5q231 0 346 -114.5t115 -362.5q0 -259 -106.5 -378t-354.5 -119q-247 0 -353.5 119t-106.5 378zM305 1114l170 268h281l-213 -268h-238zM338 477q0 -128 21.5 -200.5t61.5 -99.5t109 -27q70 0 110 27t61.5 99t21.5 201q0 81 -8.5 136.5 t-22.5 88.5t-39.5 51t-53 23.5t-69.5 5.5q-67 0 -106.5 -23t-62.5 -91t-23 -191z" />
<glyph unicode="&#xf4;" horiz-adv-x="1060" d="M70 477q0 248 115 362.5t345 114.5q231 0 346 -114.5t115 -362.5q0 -259 -106.5 -378t-354.5 -119q-247 0 -353.5 119t-106.5 378zM231 1106l148 268h301l149 -268h-192l-109 162l-108 -162h-189zM338 477q0 -128 21.5 -200.5t61.5 -99.5t109 -27q70 0 110 27t61.5 99 t21.5 201q0 81 -8.5 136.5t-22.5 88.5t-39.5 51t-53 23.5t-69.5 5.5q-67 0 -106.5 -23t-62.5 -91t-23 -191z" />
<glyph unicode="&#xf5;" horiz-adv-x="1060" d="M70 477q0 248 115 362.5t345 114.5q231 0 346 -114.5t115 -362.5q0 -259 -106.5 -378t-354.5 -119q-247 0 -353.5 119t-106.5 378zM238 1124q3 41 15.5 81t35 77t60.5 59.5t85 22.5q40 0 83 -22.5t76 -45t50 -22.5q53 0 53 80h127q-2 -43 -11.5 -82t-29.5 -76.5 t-56.5 -59.5t-86.5 -22q-39 0 -82 24t-78.5 48t-54.5 24q-24 0 -38.5 -26.5t-16.5 -59.5h-131zM338 477q0 -128 21.5 -200.5t61.5 -99.5t109 -27q70 0 110 27t61.5 99t21.5 201q0 81 -8.5 136.5t-22.5 88.5t-39.5 51t-53 23.5t-69.5 5.5q-67 0 -106.5 -23t-62.5 -91 t-23 -191z" />
<glyph unicode="&#xf6;" horiz-adv-x="1060" d="M70 477q0 248 115 362.5t345 114.5q231 0 346 -114.5t115 -362.5q0 -259 -106.5 -378t-354.5 -119q-247 0 -353.5 119t-106.5 378zM240 1094v223h243v-223h-243zM338 477q0 -128 21.5 -200.5t61.5 -99.5t109 -27q70 0 110 27t61.5 99t21.5 201q0 81 -8.5 136.5 t-22.5 88.5t-39.5 51t-53 23.5t-69.5 5.5q-67 0 -106.5 -23t-62.5 -91t-23 -191zM575 1094v223h244v-223h-244z" />
<glyph unicode="&#xf7;" d="M150 530v187h724v-187h-724zM371 164v264h284v-264h-284zM371 817v264h284v-264h-284z" />
<glyph unicode="&#xf8;" horiz-adv-x="1060" d="M70 477q0 248 115 362.5t345 114.5q231 0 346 -114.5t115 -362.5q0 -259 -106.5 -378t-354.5 -119q-247 0 -353.5 119t-106.5 378zM338 477q0 -96 8 -151l305 428q-38 28 -121 28q-67 0 -106.5 -23t-62.5 -91t-23 -191zM401 193q40 -43 129 -43q70 0 110 27t61.5 99 t21.5 201q0 82 -10 150z" />
<glyph unicode="&#xf9;" horiz-adv-x="1075" d="M123 262v656h268v-617q0 -125 139 -125q67 0 156 27v715h266v-918h-266v86q-50 -32 -80 -49t-86 -37t-104 -20q-144 0 -218.5 66.5t-74.5 215.5zM311 1382h281l170 -268h-238z" />
<glyph unicode="&#xfa;" horiz-adv-x="1075" d="M123 262v656h268v-617q0 -125 139 -125q67 0 156 27v715h266v-918h-266v86q-50 -32 -80 -49t-86 -37t-104 -20q-144 0 -218.5 66.5t-74.5 215.5zM311 1114l170 268h281l-213 -268h-238z" />
<glyph unicode="&#xfb;" horiz-adv-x="1075" d="M123 262v656h268v-617q0 -125 139 -125q67 0 156 27v715h266v-918h-266v86q-50 -32 -80 -49t-86 -37t-104 -20q-144 0 -218.5 66.5t-74.5 215.5zM238 1106l147 268h301l150 -268h-193l-108 162l-109 -162h-188z" />
<glyph unicode="&#xfc;" horiz-adv-x="1075" d="M123 262v656h268v-617q0 -125 139 -125q67 0 156 27v715h266v-918h-266v86q-50 -32 -80 -49t-86 -37t-104 -20q-144 0 -218.5 66.5t-74.5 215.5zM248 1094v223h244v-223h-244zM584 1094v223h243v-223h-243z" />
<glyph unicode="&#xfd;" horiz-adv-x="956" d="M4 918h277l192 -607l215 607h264l-350 -879l-176 -469h-274l188 461zM252 1114l170 268h280l-213 -268h-237z" />
<glyph unicode="&#xfe;" horiz-adv-x="1089" d="M123 -430v1829h268v-512q134 67 258 67q191 0 285 -115.5t94 -357.5q0 -105 -27.5 -190.5t-73.5 -142.5t-108.5 -95.5t-131 -55.5t-142.5 -17q-33 0 -82 8.5t-72 19.5v-438h-268zM391 168q45 -18 121 -18q36 0 67 7t65.5 28.5t59 56.5t40.5 97t16 144q0 131 -49 213 t-158 82q-96 0 -162 -30v-580z" />
<glyph unicode="&#xff;" horiz-adv-x="956" d="M4 918h277l192 -607l215 607h264l-350 -879l-176 -469h-274l188 461zM188 1094v223h244v-223h-244zM524 1094v223h244v-223h-244z" />
<glyph unicode="&#x152;" horiz-adv-x="1703" d="M92 664q0 332 130.5 492.5t430.5 160.5h989v-187h-532v-342h418v-186h-418v-416h553v-186h-1010q-158 0 -267 42.5t-173.5 129.5t-92.5 206t-28 286zM369 664q0 -251 70.5 -364.5t234.5 -113.5h160v944h-160q-164 0 -234.5 -109.5t-70.5 -356.5z" />
<glyph unicode="&#x153;" horiz-adv-x="1605" d="M70 477q0 248 115 362.5t345 114.5q211 0 320 -106q103 106 289 106q187 0 292 -104.5t105 -294.5v-139h-567q0 -67 16 -115.5t40 -75.5t61.5 -42.5t70.5 -20t76 -4.5q119 0 264 47v-185q-140 -40 -303 -40q-219 0 -336 114q-105 -114 -328 -114q-247 0 -353.5 119 t-106.5 378zM338 477q0 -128 21.5 -200.5t61.5 -99.5t109 -27q70 0 110 27t61.5 99t21.5 201q0 81 -8.5 136.5t-22.5 88.5t-39.5 51t-53 23.5t-69.5 5.5q-67 0 -106.5 -23t-62.5 -91t-23 -191zM971 565h321q0 118 -37.5 167.5t-124.5 49.5q-83 0 -121 -53t-38 -164z" />
<glyph unicode="&#x178;" horiz-adv-x="1175" d="M0 1317h301l287 -512l286 512h302l-449 -746v-571h-276v575zM317 1421v224h244v-224h-244zM653 1421v224h244v-224h-244z" />
<glyph unicode="&#x2c6;" horiz-adv-x="598" d="M0 1106l147 268h302l149 -268h-192l-109 162l-109 -162h-188z" />
<glyph unicode="&#x2dc;" horiz-adv-x="622" d="M18 1124q3 41 16 81t35.5 77t60.5 59.5t85 22.5q40 0 83 -22.5t76 -45t50 -22.5q53 0 53 80h127q-2 -43 -11.5 -82t-29.5 -76.5t-56.5 -59.5t-86.5 -22q-39 0 -82 24t-78.5 48t-54.5 24q-24 0 -38.5 -26.5t-16.5 -59.5h-132z" />
<glyph unicode="&#x2000;" horiz-adv-x="891" />
<glyph unicode="&#x2001;" horiz-adv-x="1782" />
<glyph unicode="&#x2002;" horiz-adv-x="891" />
<glyph unicode="&#x2003;" horiz-adv-x="1782" />
<glyph unicode="&#x2004;" horiz-adv-x="594" />
<glyph unicode="&#x2005;" horiz-adv-x="445" />
<glyph unicode="&#x2006;" horiz-adv-x="297" />
<glyph unicode="&#x2007;" horiz-adv-x="297" />
<glyph unicode="&#x2008;" horiz-adv-x="222" />
<glyph unicode="&#x2009;" horiz-adv-x="356" />
<glyph unicode="&#x200a;" horiz-adv-x="99" />
<glyph unicode="&#x2010;" horiz-adv-x="565" d="M41 393v166h483v-166h-483z" />
<glyph unicode="&#x2011;" horiz-adv-x="565" d="M41 393v166h483v-166h-483z" />
<glyph unicode="&#x2012;" horiz-adv-x="565" d="M41 393v166h483v-166h-483z" />
<glyph unicode="&#x2013;" d="M0 463v176h1024v-176h-1024z" />
<glyph unicode="&#x2014;" horiz-adv-x="2048" d="M0 463v176h2048v-176h-2048z" />
<glyph unicode="&#x2018;" horiz-adv-x="423" d="M70 831v244l84 242h161l-71 -221h110v-265h-284z" />
<glyph unicode="&#x2019;" horiz-adv-x="423" d="M70 1053v264h284v-244l-84 -242h-161l71 222h-110z" />
<glyph unicode="&#x201a;" horiz-adv-x="423" d="M70 0v264h284v-244l-84 -241h-161l71 221h-110z" />
<glyph unicode="&#x201c;" horiz-adv-x="813" d="M70 831v244l84 242h161l-71 -221h110v-265h-284zM459 831v244l84 242h162l-72 -221h110v-265h-284z" />
<glyph unicode="&#x201d;" horiz-adv-x="813" d="M70 1053v264h284v-244l-84 -242h-161l71 222h-110zM459 1053v264h284v-244l-84 -242h-161l71 222h-110z" />
<glyph unicode="&#x201e;" horiz-adv-x="813" d="M70 0v264h284v-244l-84 -241h-161l71 221h-110zM459 0v264h284v-244l-84 -241h-161l71 221h-110z" />
<glyph unicode="&#x2022;" horiz-adv-x="942" d="M119 698q0 146 105 247.5t253 101.5q141 0 243.5 -102t102.5 -247q0 -146 -104.5 -248t-253.5 -102q-140 0 -243 102.5t-103 247.5z" />
<glyph unicode="&#x2026;" horiz-adv-x="1271" d="M70 0v264h284v-264h-284zM494 0v264h284v-264h-284zM918 0v264h284v-264h-284z" />
<glyph unicode="&#x202f;" horiz-adv-x="356" />
<glyph unicode="&#x2039;" horiz-adv-x="501" d="M47 471l184 354h218l-185 -354l185 -346h-218z" />
<glyph unicode="&#x203a;" horiz-adv-x="501" d="M53 125l185 346l-185 354h217l185 -354l-185 -346h-217z" />
<glyph unicode="&#x205f;" horiz-adv-x="445" />
<glyph unicode="&#x20ac;" d="M98 426v182h115v113h-115v182h133q16 95 52 167t100 129.5t167 87.5t243 30q53 0 155 -12l-37 -177q-93 13 -129 13q-139 0 -207.5 -56.5t-87.5 -181.5h385l-30 -182h-369v-113h352l-32 -182h-308q20 -130 92.5 -195t221.5 -65q61 0 149 16v-184q-108 -18 -200 -18 q-105 0 -188.5 24t-139.5 63.5t-96.5 98t-62.5 121.5t-34 139h-129z" />
<glyph unicode="&#x2122;" horiz-adv-x="1343" d="M20 1208v109h492v-109h-172v-456h-147v456h-173zM592 752v565h203l133 -410l135 410h199v-565h-138v383l-127 -383h-135l-133 387v-387h-137z" />
<glyph unicode="&#x25fc;" horiz-adv-x="921" d="M0 0v922h922v-922h-922z" />
<glyph unicode="&#xfb01;" horiz-adv-x="1163" d="M14 745v173h158v120q0 188 102.5 274.5t337.5 86.5q116 0 215 -23v-182q-29 12 -81 22.5t-89 10.5q-120 0 -168.5 -43.5t-48.5 -143.5v-122h600v-918h-268v745h-332v-745h-268v745h-158z" />
<glyph unicode="&#xfb02;" horiz-adv-x="1175" d="M14 745v173h158v161q0 320 367 320q64 0 145 -15v-170q-46 13 -88 13q-90 0 -123 -28t-33 -109v-172h224v-173h-224v-745h-268v745h-158zM772 0v1399h268v-1399h-268z" />
<glyph unicode="&#xfb03;" horiz-adv-x="1763" d="M14 745v173h158v161q0 320 367 320q44 0 125 -15v-170q-45 13 -89 13q-75 0 -105 -28.5t-30 -108.5v-172h332v120q0 188 102.5 274.5t337.5 86.5q116 0 215 -23v-182q-29 12 -81 22.5t-89 10.5q-120 0 -168.5 -43.5t-48.5 -143.5v-122h600v-918h-268v745h-332v-745h-268 v745h-332v-745h-268v745h-158z" />
<glyph unicode="&#xfb04;" horiz-adv-x="1775" d="M14 745v173h158v161q0 320 367 320q44 0 125 -15v-170q-45 13 -89 13q-75 0 -105 -28.5t-30 -108.5v-172h332v161q0 320 367 320q64 0 145 -15v-170q-45 13 -88 13q-90 0 -123 -28t-33 -109v-172h224v-173h-224v-745h-268v745h-332v-745h-268v745h-158zM1372 0v1399h268 v-1399h-268z" />
</font>
</defs>
</svg>
