<?xml version="1.0" standalone="no"?>
<!DOCTYPE svg PUBLIC "-//W3C//DTD SVG 1.1//EN" "http://www.w3.org/Graphics/SVG/1.1/DTD/svg11.dtd" >
<svg xmlns="http://www.w3.org/2000/svg">
<metadata></metadata>
<defs>
<font id="lf_press_sansregular" horiz-adv-x="1024" >
<font-face units-per-em="2048" ascent="1536" descent="-512" />
<missing-glyph horiz-adv-x="368" />
<glyph unicode="&#xfb03;" horiz-adv-x="1630" d="M29 791v116h157v217q0 128 76 201.5t227 73.5q67 0 107 -10v-119q-32 12 -104 12q-70 0 -105 -42t-35 -114v-219h203v-116h-203v-791h-166v791h-157zM592 791v116h158v140q0 170 98 261t272 91q113 0 203 -37v-127q-94 41 -207 41q-99 0 -150 -49.5t-51 -155.5v-164h564 v-907h-166v791h-398v-791h-165v791h-158z" />
<glyph unicode="&#xfb04;" horiz-adv-x="1630" d="M29 791v116h157v217q0 128 76 201.5t227 73.5q67 0 107 -10v-119q-32 12 -104 12q-70 0 -105 -42t-35 -114v-219h203v-116h-203v-791h-166v791h-157zM592 791v116h158v217q0 128 76 201.5t227 73.5q66 0 106 -10v-119q-32 12 -104 12q-70 0 -105 -42t-35 -114v-219h224 v-116h-224v-791h-165v791h-158zM1313 0v1399h166v-1399h-166z" />
<glyph horiz-adv-x="0" />
<glyph horiz-adv-x="682" />
<glyph unicode=" "  horiz-adv-x="368" />
<glyph unicode="&#x09;" horiz-adv-x="368" />
<glyph unicode="&#xa0;" horiz-adv-x="368" />
<glyph unicode="!" horiz-adv-x="514" d="M164 1317h207l-62 -928h-84zM176 0v182h182v-182h-182z" />
<glyph unicode="&#x22;" horiz-adv-x="587" d="M80 913l20 404h156l-61 -404h-115zM346 913l21 404h155l-61 -404h-115z" />
<glyph unicode="#" d="M119 442v109h155l39 217h-194v109h213l78 442h108l-78 -442h217l78 442h109l-78 -442h139v-109h-157l-39 -217h196v-109h-215l-78 -442h-108l78 442h-217l-78 -442h-109l78 442h-137zM383 551h217l39 217h-217z" />
<glyph unicode="$" d="M125 993q0 141 89.5 222.5t238.5 97.5v209h108v-207q78 -4 238 -45v-146q-112 59 -238 74v-469q81 -54 129 -90.5t94.5 -85.5t67 -102t20.5 -117q0 -157 -86 -248.5t-225 -114.5v-204h-108v196q-63 1 -160.5 18.5t-159.5 36.5v138q57 -28 152.5 -51.5t167.5 -24.5v528 q-65 40 -103 65.5t-87 65.5t-75 74.5t-44.5 81.5t-18.5 98zM283 1026q0 -68 40.5 -117t129.5 -110v395q-78 -13 -124 -59t-46 -109zM561 90q152 42 152 221q0 71 -37 123t-115 107v-451z" />
<glyph unicode="%" horiz-adv-x="1816" d="M102 934q0 95 32.5 171t85.5 121t114 68t123 23t123 -23t113.5 -68t85 -121t32.5 -171q0 -102 -31.5 -182.5t-83.5 -128t-113 -71.5t-126 -24t-126 24t-113.5 71.5t-84 128t-31.5 182.5zM268 926q0 -145 50.5 -218t138.5 -73t138 73t50 218q0 284 -188 284 q-89 0 -139 -69t-50 -215zM375 -63l917 1415h142l-914 -1415h-145zM1006 377q0 95 32.5 171t85 121t113.5 68t123 23t123 -23t113.5 -68t85 -121t32.5 -171q0 -102 -31.5 -182.5t-83.5 -128t-113 -71.5t-126 -24t-126 24t-113 71.5t-83.5 128t-31.5 182.5zM1171 369 q0 -145 50.5 -218t138.5 -73t138 73t50 218q0 284 -188 284q-89 0 -139 -69t-50 -215z" />
<glyph unicode="&#x26;" horiz-adv-x="1243" d="M94 307q0 67 29 130t79 113t106.5 88.5t121.5 70.5q-133 185 -133 321q0 158 101.5 241t258.5 83q160 0 245 -86t85 -209q0 -52 -21.5 -100.5t-52 -83t-81 -71t-89 -58.5t-96.5 -52l287 -329q76 131 125 264h162q-84 -216 -203 -363q24 -27 103.5 -122t123.5 -144h-217 l-123 150q-214 -175 -418 -175q-84 0 -152.5 18t-124 55.5t-86 103.5t-30.5 155zM268 319q0 -101 70.5 -163t173.5 -62q177 0 319 139l-333 398q-111 -62 -170.5 -136.5t-59.5 -175.5zM465 1038q0 -113 125 -266q246 143 246 277q0 98 -51.5 144t-133.5 46q-90 0 -138 -50.5 t-48 -150.5z" />
<glyph unicode="'" horiz-adv-x="321" d="M80 913l20 404h156l-61 -404h-115z" />
<glyph unicode="(" horiz-adv-x="516" d="M143 487q0 230 70.5 482.5t161.5 429.5h141q-85 -179 -145 -424t-60 -488q0 -234 61.5 -489.5t143.5 -425.5h-141q-97 158 -164.5 415.5t-67.5 499.5z" />
<glyph unicode=")" horiz-adv-x="516" d="M0 -428q82 170 143.5 425.5t61.5 489.5q0 243 -60 488t-145 424h141q91 -177 161.5 -429.5t70.5 -482.5q0 -242 -67.5 -499.5t-164.5 -415.5h-141z" />
<glyph unicode="*" horiz-adv-x="745" d="M41 1026l39 123l262 -119l-33 287h129l-32 -287l260 119l39 -121l-281 -57l197 -211l-103 -78l-145 250l-142 -252l-102 76l193 215z" />
<glyph unicode="+" d="M150 565v115h301v309h122v-309h301v-115h-301v-305h-122v305h-301z" />
<glyph unicode="," horiz-adv-x="454" d="M133 0v188h189v-168l-89 -262h-100l70 242h-70z" />
<glyph unicode="-" horiz-adv-x="483" d="M41 408v133h401v-133h-401z" />
<glyph unicode="." horiz-adv-x="454" d="M133 0v188h189v-188h-189z" />
<glyph unicode="/" horiz-adv-x="665" d="M0 -68l518 1426h148l-516 -1426h-150z" />
<glyph unicode="0" d="M102 647q0 343 101 506.5t309 163.5t309 -163.5t101 -506.5q0 -344 -101.5 -510t-308.5 -166t-308.5 166t-101.5 510zM276 647q0 -206 26.5 -330t77.5 -176.5t132 -52.5t132 52.5t77.5 176.5t26.5 330t-26.5 328.5t-77 173.5t-132.5 51t-132.5 -51t-77 -173.5 t-26.5 -328.5z" />
<glyph unicode="1" d="M213 0v125h213v1046h-213v125h379v-1171h213v-125h-592z" />
<glyph unicode="2" d="M104 0v119l371 440q105 125 156 214t51 188q0 107 -63 169t-187 62q-67 0 -158.5 -24t-138.5 -46v140q48 19 138.5 37t189.5 18q171 0 283 -90t112 -252q0 -123 -53.5 -222t-167.5 -231l-342 -397h604v-125h-795z" />
<glyph unicode="3" d="M125 -20v124q88 0 152.5 3.5t134 14t117 30.5t87 51t59 79t19.5 111q0 57 -22 101t-56 69.5t-80 42t-88 22t-86 5.5h-112v125h108q134 0 213.5 59t79.5 172q0 98 -64.5 153.5t-170.5 55.5q-60 0 -146.5 -17.5t-130.5 -33.5v131q44 14 125.5 26.5t163.5 12.5 q184 0 290.5 -86.5t106.5 -235.5q0 -111 -69 -185t-162 -101q115 -24 194.5 -100t79.5 -197q0 -99 -31.5 -172.5t-90.5 -123t-151.5 -80t-206 -43.5t-263.5 -13z" />
<glyph unicode="4" d="M76 303v107l475 886h164l-455 -868h442v352l82 195h80v-975h-162v303h-626z" />
<glyph unicode="5" d="M164 -20v120q96 0 173.5 9t146.5 31t115 57t72.5 89t26.5 126q0 61 -18 106t-46.5 71.5t-73 42t-89 20.5t-102.5 5h-187v639h623v-125h-473v-380h69q139 0 242.5 -36t166 -117.5t62.5 -201.5q0 -92 -26 -165t-75 -122t-111.5 -83t-146 -52.5t-166.5 -26t-183 -7.5z" />
<glyph unicode="6" d="M113 465q0 323 170.5 544t468.5 330v-135q-89 -46 -149.5 -84.5t-119 -91t-97.5 -119t-62 -151.5q119 39 229 39q187 0 277 -106t90 -283q0 -437 -408 -437q-87 0 -156 26.5t-114 72t-74.5 109.5t-42 134.5t-12.5 151.5zM291 463q0 -191 51 -283t188 -92q116 0 168 66.5 t52 226.5q0 73 -10 123.5t-36.5 92.5t-76 62.5t-123.5 20.5q-95 0 -201 -27q-12 -85 -12 -190z" />
<glyph unicode="7" d="M98 1171v125h799v-67l-471 -1229h-162l469 1171h-635z" />
<glyph unicode="8" d="M92 303q0 110 74 211t188 178q-96 64 -145 136t-49 173q0 145 104 230.5t260 85.5q136 0 237 -78t101 -209q0 -195 -211 -340q63 -38 105.5 -69t86 -76t65.5 -99t22 -118q0 -159 -122 -258t-308 -99q-112 0 -203 36.5t-148 113t-57 182.5zM264 307q0 -105 66.5 -162 t177.5 -57q109 0 180.5 56t71.5 165q0 30 -10 58.5t-23 51.5t-40 49t-47.5 43t-59.5 42.5t-61 38.5l-66 39q-189 -153 -189 -324zM322 1026q0 -46 14.5 -84t46 -70.5t67.5 -58t93 -59.5l8 -6q156 125 156 256q0 97 -52.5 146.5t-140.5 49.5q-84 0 -138 -45t-54 -129z" />
<glyph unicode="9" d="M104 885q0 432 404 432q109 0 188 -36t124 -101.5t66 -147.5t21 -184q0 -190 -69 -361t-206 -305t-323 -202v135q154 77 249 184.5t136 255.5q-128 -49 -227 -49q-188 0 -275.5 101.5t-87.5 277.5zM270 911q0 -72 10 -121.5t36.5 -89t75.5 -58.5t124 -19q50 0 111.5 11.5 t89.5 24.5q12 79 12 170q0 190 -51.5 280.5t-188.5 90.5q-115 0 -167 -67t-52 -222z" />
<glyph unicode=":" horiz-adv-x="454" d="M133 0v188h189v-188h-189zM133 717v188h189v-188h-189z" />
<glyph unicode=";" horiz-adv-x="454" d="M133 0v188h189v-168l-89 -262h-100l70 242h-70zM133 717v188h189v-188h-189z" />
<glyph unicode="&#x3c;" horiz-adv-x="962" d="M150 551v139l724 342v-135l-583 -276l583 -287v-137z" />
<glyph unicode="=" d="M150 438v115h724v-115h-724zM150 692v117h724v-117h-724z" />
<glyph unicode="&#x3e;" horiz-adv-x="962" d="M150 197v137l583 287l-583 276v135l724 -342v-139z" />
<glyph unicode="?" horiz-adv-x="782" d="M82 1163v137q130 37 250 37q168 0 268 -75.5t100 -235.5q0 -83 -26 -153t-63 -120t-73.5 -99.5t-62.5 -117t-26 -147.5h-148q0 92 24 170.5t57.5 132.5t67.5 102.5t58 105t24 116.5q0 91 -54.5 139.5t-151.5 48.5q-100 0 -244 -41zM281 0v182h182v-182h-182z" />
<glyph unicode="@" horiz-adv-x="1499" d="M72 397q0 141 49.5 267.5t137.5 220.5t219.5 149.5t285.5 55.5q140 0 262.5 -47.5t210.5 -131t139 -201.5t51 -253q0 -219 -96 -352.5t-254 -133.5q-65 0 -112 25t-58 74q-124 -99 -243 -99q-238 0 -238 246q0 117 72.5 178.5t216.5 61.5h184v88q0 86 -37.5 117.5 t-134.5 31.5q-73 0 -229 -47v121q139 39 252 39q158 0 237.5 -60t79.5 -190v-369q0 -73 15 -105t53 -32q43 0 76.5 37t52 97.5t27.5 128t9 139.5q0 246 -147.5 394t-390.5 148q-129 0 -236.5 -49t-176.5 -131.5t-106.5 -189t-37.5 -224.5q0 -282 152.5 -451t396.5 -169 q79 0 158.5 18t134.5 51l34 -69q-141 -84 -350 -84q-137 0 -257.5 49t-209.5 137.5t-140.5 221.5t-51.5 292zM592 221q0 -71 36.5 -110t104.5 -39q69 0 166 47v241h-156q-151 0 -151 -139z" />
<glyph unicode="A" horiz-adv-x="1128" d="M14 0l443 1317h209l448 -1317h-176l-141 434h-473l-134 -434h-176zM360 557h396l-195 600h-16z" />
<glyph unicode="B" horiz-adv-x="1067" d="M164 0v1317h375q190 0 289.5 -73.5t99.5 -235.5q0 -98 -63.5 -182t-141.5 -105v-8q127 -19 207 -105.5t80 -216.5q0 -97 -36.5 -173t-99.5 -123t-143 -71t-172 -24h-395zM338 125h215q131 0 206 69t75 195q0 117 -80.5 181.5t-196.5 64.5h-219v-510zM338 758h188 q107 0 166.5 65t59.5 172q0 95 -62 146t-160 51h-192v-434z" />
<glyph unicode="C" horiz-adv-x="1101" d="M92 678q0 156 39.5 279t119 212.5t206.5 137t295 47.5q136 0 280 -33v-141q-53 20 -140 34.5t-151 14.5q-236 0 -355.5 -140.5t-119.5 -410.5q0 -269 116 -429.5t339 -160.5q177 0 321 74v-152q-167 -47 -329 -47q-312 0 -466.5 185t-154.5 530z" />
<glyph unicode="D" horiz-adv-x="1312" d="M164 0v1317h461q129 0 231 -35t169.5 -94t111.5 -142.5t63 -176.5t19 -199q0 -105 -19 -200.5t-62.5 -182t-108 -149.5t-162 -100.5t-218.5 -37.5h-485zM338 125h278q102 0 179 30t124 79t75.5 121.5t39 147.5t10.5 167q0 123 -24.5 216.5t-77.5 163.5t-143 106t-215 36 h-246v-1067z" />
<glyph unicode="E" horiz-adv-x="993" d="M164 0v1317h772v-125h-598v-434h477v-123h-477v-510h614v-125h-788z" />
<glyph unicode="F" horiz-adv-x="987" d="M164 0v1317h790v-125h-616v-455h496v-123h-496v-614h-174z" />
<glyph unicode="G" horiz-adv-x="1267" d="M92 678q0 128 21.5 230.5t71 187t127 141t192 87t262.5 30.5q86 0 180.5 -15.5t157.5 -38.5v-151q-70 32 -165 56t-187 24q-246 0 -366 -133.5t-120 -417.5q0 -312 111.5 -451t367.5 -139q88 0 228 37v565h172v-655q-227 -72 -430 -72q-315 0 -469 173t-154 542z" />
<glyph unicode="H" horiz-adv-x="1320" d="M164 0v1317h174v-559h645v559h174v-1317h-174v635h-645v-635h-174z" />
<glyph unicode="I" horiz-adv-x="526" d="M176 0v1317h174v-1317h-174z" />
<glyph unicode="J" horiz-adv-x="493" d="M-16 -229q90 15 135 62t45 151v1333h174v-1288q0 -176 -87 -263t-267 -108v113z" />
<glyph unicode="K" horiz-adv-x="1128" d="M164 0v1317h174v-1317h-174zM340 690l557 627h207l-565 -615l610 -702h-225z" />
<glyph unicode="L" horiz-adv-x="931" d="M164 0v1317h174v-1192h573v-125h-747z" />
<glyph unicode="M" horiz-adv-x="1632" d="M164 0v1317h276l375 -1157l385 1157h268v-1317h-159v1198l-400 -1198h-186l-399 1198v-1198h-160z" />
<glyph unicode="N" horiz-adv-x="1335" d="M164 0v1317h242l606 -1094v1094h159v-1317h-208l-639 1149v-1149h-160z" />
<glyph unicode="O" horiz-adv-x="1347" d="M92 657q0 190 37 324.5t112.5 216.5t181 119t251.5 37q145 0 251 -37t181 -119t112 -216.5t37 -324.5t-37 -324t-112 -215.5t-180.5 -118t-251.5 -36.5t-251.5 37t-181 118t-112.5 215t-37 324zM266 657q0 -302 96 -435.5t312 -133.5q215 0 311 133.5t96 435.5t-96 437 t-311 135t-311.5 -135t-96.5 -437z" />
<glyph unicode="P" horiz-adv-x="1083" d="M164 0v1317h473q198 0 294.5 -94.5t96.5 -266.5q0 -104 -35 -181t-97 -121t-139 -64.5t-169 -20.5h-250v-569h-174zM338 696h260q118 0 186 62t68 192q0 242 -242 242h-272v-496z" />
<glyph unicode="Q" horiz-adv-x="1347" d="M92 657q0 190 37 324.5t112.5 216.5t181 119t251.5 37q145 0 251 -37t181 -119t112 -216.5t37 -324.5q0 -271 -75.5 -427.5t-227.5 -219.5q100 -49 160.5 -76.5t154.5 -61.5t175 -50v-154q-64 0 -220.5 60.5t-258.5 121.5l-199 117q-58 -4 -90 -4q-146 0 -251.5 37 t-181 118t-112.5 215t-37 324zM266 657q0 -302 96 -435.5t312 -133.5q215 0 311 133.5t96 435.5t-96 437t-311 135t-311.5 -135t-96.5 -437z" />
<glyph unicode="R" horiz-adv-x="1142" d="M164 0v1317h465q199 0 299 -95t100 -266q0 -308 -319 -372l421 -584h-210l-394 567h-188v-567h-174zM338 686h237q133 0 205 70.5t72 204.5q0 231 -256 231h-258v-506z" />
<glyph unicode="S" horiz-adv-x="868" d="M57 1018q0 160 113.5 248t292.5 88q130 0 276 -47v-158q-142 80 -288 80q-98 0 -161 -52t-63 -126q0 -25 6.5 -48.5t15 -42t27.5 -39.5t31.5 -34t40.5 -33.5t42 -30t48 -31t47 -30.5q50 -33 71 -47.5t64.5 -47t64 -53.5t50 -56t43.5 -66t24.5 -72.5t10.5 -85.5 q0 -96 -37 -170t-100 -116.5t-136.5 -63.5t-154.5 -21q-164 0 -319 51v166q65 -36 158 -64t171 -28q102 0 174 56t72 171q0 32 -9 62.5t-20.5 53.5t-37 50t-42 42.5t-54 41.5t-54 36.5t-59.5 37.5q-134 84 -186 131q-122 111 -122 248z" />
<glyph unicode="T" horiz-adv-x="1116" d="M31 1192v125h1054v-125h-440v-1192h-174v1192h-440z" />
<glyph unicode="U" horiz-adv-x="1298" d="M164 393v924h174v-903q0 -185 71.5 -255.5t239.5 -70.5q85 0 141 14.5t96.5 51t58.5 100t18 160.5v903h172v-924q0 -98 -24 -173.5t-66 -123.5t-104.5 -78t-133 -42.5t-158.5 -12.5q-110 0 -194 20.5t-152 68t-103.5 133.5t-35.5 208z" />
<glyph unicode="V" horiz-adv-x="1120" d="M12 1317h181l372 -1165h8l359 1165h176l-440 -1317h-209z" />
<glyph unicode="W" horiz-adv-x="1697" d="M20 1317h170l289 -1157l275 1157h190l311 -1159l252 1159h170l-323 -1317h-209l-295 1116l-270 -1116h-209z" />
<glyph unicode="X" horiz-adv-x="1097" d="M12 0l447 664l-426 653h192l336 -516l316 516h188l-416 -649l436 -668h-192l-350 535l-342 -535h-189z" />
<glyph unicode="Y" horiz-adv-x="1040" d="M4 1317h191l327 -598l332 598h182l-428 -750v-567h-174v565z" />
<glyph unicode="Z" horiz-adv-x="1009" d="M53 0v121l676 1071h-666v125h857v-123l-680 -1069h731v-125h-918z" />
<glyph unicode="[" horiz-adv-x="538" d="M123 -430v1829h397v-107h-221v-1616h221v-106h-397z" />
<glyph unicode="\" horiz-adv-x="665" d="M0 1358h147l519 -1426h-150z" />
<glyph unicode="]" horiz-adv-x="538" d="M18 -324h222v1616h-222v107h398v-1829h-398v106z" />
<glyph unicode="^" horiz-adv-x="598" d="M41 864l149 453h220l149 -453h-139l-121 359l-121 -359h-137z" />
<glyph unicode="_" horiz-adv-x="847" d="M0 -158h848v-116h-848v116z" />
<glyph unicode="`" horiz-adv-x="413" d="M41 1374h184l148 -268h-137z" />
<glyph unicode="a" horiz-adv-x="923" d="M72 258q0 135 84 207t252 72h215v102q0 102 -45 144t-154 42q-88 0 -268 -53v127q165 45 293 45q180 0 259.5 -67.5t79.5 -223.5v-653h-159v82q-24 -19 -54 -38.5t-97.5 -46t-127.5 -26.5q-278 0 -278 287zM240 262q0 -82 50.5 -128t131.5 -46q52 0 109.5 18t91.5 37v281 h-205q-178 0 -178 -162z" />
<glyph unicode="b" horiz-adv-x="1048" d="M139 6v1393h166v-529q52 31 122.5 52.5t135.5 21.5q66 0 121 -12t107 -43.5t88 -81.5t57.5 -131t21.5 -187q0 -135 -41 -237t-114 -162t-165.5 -89.5t-203.5 -29.5q-159 0 -295 35zM305 111q78 -23 131 -23q58 0 106.5 9.5t96 36t80 69.5t52.5 115t20 167 q0 188 -78.5 265t-229.5 77q-42 0 -96 -11t-82 -23v-682z" />
<glyph unicode="c" horiz-adv-x="794" d="M90 442q0 242 118.5 372t342.5 130q115 0 182 -26v-132q-30 14 -88 27.5t-100 13.5q-134 0 -210.5 -93.5t-76.5 -291.5q0 -180 78.5 -267t220.5 -87q46 0 107 15t90 28v-127q-33 -12 -100.5 -22.5t-127.5 -10.5q-216 0 -326 121.5t-110 349.5z" />
<glyph unicode="d" horiz-adv-x="1050" d="M90 457q0 235 121.5 361t347.5 126q101 0 186 -26v481h166v-1399h-166v61q-52 -34 -127 -62t-141 -28q-187 0 -287 119.5t-100 366.5zM258 459q0 -367 291 -367q101 0 196 39v668q-100 28 -170 28q-317 0 -317 -368z" />
<glyph unicode="e" horiz-adv-x="944" d="M90 473q0 215 102.5 343t294.5 128q185 0 280 -98.5t95 -294.5v-121h-604q0 -82 17 -144t44.5 -99t68.5 -60t83 -31t94 -8q59 0 138.5 18t119.5 35v-125q-138 -45 -293 -45q-229 0 -334.5 122.5t-105.5 379.5zM260 543h440q0 85 -15.5 142.5t-46 87.5t-67 42t-86.5 12 q-109 0 -167 -75.5t-58 -208.5z" />
<glyph unicode="f" horiz-adv-x="585" d="M29 791v116h157v217q0 128 76 201.5t227 73.5q67 0 107 -10v-119q-32 12 -104 12q-70 0 -105 -42t-35 -114v-219h223v-116h-223v-791h-166v791h-157z" />
<glyph unicode="g" horiz-adv-x="909" d="M33 -186q0 69 48.5 128t115.5 89q-93 51 -93 151q0 79 86 158q-60 46 -82 115.5t-22 162.5q0 167 95.5 246.5t264.5 79.5q116 0 197 -37h266v-116h-139q37 -70 37 -173q0 -58 -8 -104t-31 -93t-62 -78.5t-105 -51t-155 -19.5q-114 0 -190 31q-23 -51 -23 -96 q0 -41 33.5 -61.5t114.5 -20.5h219q141 0 220 -65t79 -193q0 -318 -444 -318q-422 0 -422 265zM186 -166q0 -168 269 -168q67 0 115.5 7.5t89 26t61 53.5t20.5 87q0 84 -48 122t-150 38h-289q-23 -21 -45.5 -69.5t-22.5 -96.5zM248 610q0 -124 46 -174.5t152 -50.5 t152.5 50.5t46.5 174.5q0 109 -45.5 163t-153.5 54t-153 -54t-45 -163z" />
<glyph unicode="h" horiz-adv-x="1026" d="M139 0v1399h166v-557q64 38 150.5 70t162.5 32q142 0 205.5 -68t63.5 -221v-655h-166v645q0 89 -35.5 130.5t-122.5 41.5q-131 0 -258 -51v-766h-166z" />
<glyph unicode="i" horiz-adv-x="468" d="M152 0v907h165v-907h-165zM152 1135v182h165v-182h-165z" />
<glyph unicode="j" horiz-adv-x="448" d="M-45 -330q32 -4 49 -4q70 0 104.5 42t34.5 114v1085h166v-1083q0 -128 -76 -201.5t-227 -73.5q-16 0 -51 5v116zM143 1135v182h166v-182h-166z" />
<glyph unicode="k" horiz-adv-x="913" d="M139 0v1399h166v-912l389 420h189l-389 -407l456 -500h-213l-432 483v-483h-166z" />
<glyph unicode="l" horiz-adv-x="468" d="M152 0v1399h165v-1399h-165z" />
<glyph unicode="m" horiz-adv-x="1536" d="M139 0v907h166v-65q56 34 144.5 68t144.5 34q175 0 227 -104q57 33 159.5 68.5t154.5 35.5q141 0 201.5 -67.5t60.5 -221.5v-655h-166v641q0 91 -32.5 132.5t-119.5 41.5q-59 0 -125.5 -14.5t-109.5 -32.5q8 -44 8 -113v-655h-166v641q0 92 -31 133t-116 41 q-117 0 -234 -49v-766h-166z" />
<glyph unicode="n" horiz-adv-x="1026" d="M139 0v907h166v-65q64 38 150.5 70t162.5 32q142 0 205.5 -68t63.5 -221v-655h-166v643q0 89 -35.5 130.5t-122.5 41.5q-135 0 -258 -49v-766h-166z" />
<glyph unicode="o" d="M90 469q0 128 31 221.5t88.5 148t132.5 80t170 25.5t170 -25.5t132.5 -80t88.5 -148t31 -221.5q0 -264 -105 -381t-317 -117t-317 117t-105 381zM258 469q0 -96 13 -165.5t34.5 -110.5t55.5 -65t69 -32t82 -8t82 8t69 32t55.5 65t34.5 110.5t13 165.5q0 102 -17 172 t-50.5 110.5t-78.5 58t-108 17.5t-108 -17.5t-78.5 -58t-50.5 -110.5t-17 -172z" />
<glyph unicode="p" horiz-adv-x="1048" d="M139 -430v1337h166v-41q156 78 258 78q67 0 121.5 -11.5t106.5 -42.5t88 -80.5t57.5 -131t21.5 -189.5q0 -134 -41 -236.5t-112.5 -162.5t-160 -89.5t-191.5 -29.5q-55 0 -148 13v-414h-166zM305 104q72 -16 131 -16t106.5 9t95.5 34.5t80.5 68t52.5 113.5t20 166 q0 85 -14.5 147.5t-39 100.5t-62.5 61t-78.5 31t-92.5 8q-45 0 -106 -14t-93 -27v-682z" />
<glyph unicode="q" horiz-adv-x="1048" d="M90 451q0 238 128 365.5t378 127.5q170 0 313 -47v-1327h-166v483q-126 -82 -247 -82q-190 0 -298 116.5t-108 363.5zM258 459q0 -197 76.5 -282t234.5 -85q26 0 55 4t43 7t44.5 11.5t31.5 8.5v678q-72 26 -163 26q-322 0 -322 -368z" />
<glyph unicode="r" horiz-adv-x="649" d="M139 0v907h166v-119q174 150 324 150v-166h-35q-70 0 -135.5 -19.5t-97.5 -38t-56 -38.5v-676h-166z" />
<glyph unicode="s" horiz-adv-x="696" d="M53 10v146q157 -68 252 -68q79 0 128.5 36t49.5 109q0 27 -9 50t-21 38t-36 32t-41 26t-50.5 25.5t-49.5 25.5q-27 15 -36.5 20.5t-35.5 20.5t-37.5 25t-31.5 28t-30 34.5t-21.5 38t-16 46.5t-4.5 53q0 110 89.5 179t232.5 69q103 0 209 -31v-131q-104 45 -219 45 q-61 0 -107.5 -29t-46.5 -79q0 -26 11 -49t24 -38t42.5 -34.5t46 -28t56.5 -28.5q41 -20 58 -29.5t54 -31.5t55 -41t40 -47.5t31.5 -63.5t9.5 -76q0 -133 -104 -207t-248 -74q-133 0 -244 39z" />
<glyph unicode="t" horiz-adv-x="634" d="M20 791v116h166v281h164v-281h264v-116h-264v-541q0 -77 36.5 -115.5t105.5 -38.5q52 0 135 17v-117q-74 -16 -164 -16q-139 0 -208 66t-69 218v527h-166z" />
<glyph unicode="u" horiz-adv-x="1011" d="M139 262v645h166v-631q0 -91 33.5 -132.5t120.5 -41.5q126 0 248 52v753h165v-907h-165v76q-179 -105 -304 -105q-141 0 -202.5 68.5t-61.5 222.5z" />
<glyph unicode="v" horiz-adv-x="868" d="M20 907h179l241 -727l240 727h168l-332 -907h-158z" />
<glyph unicode="w" horiz-adv-x="1335" d="M20 907h168l203 -714l211 714h141l215 -714l199 714h158l-285 -907h-156l-206 698l-205 -698h-156z" />
<glyph unicode="x" horiz-adv-x="854" d="M16 907h183l239 -340l232 340h168l-318 -456l318 -451h-181l-239 340l-232 -340h-168l318 455z" />
<glyph unicode="y" horiz-adv-x="858" d="M18 907h177l239 -719l262 719h162l-342 -864l-174 -494h-164l178 467z" />
<glyph unicode="z" horiz-adv-x="739" d="M33 0v106l481 685h-471v116h647v-110l-471 -680h504v-117h-690z" />
<glyph unicode="{" horiz-adv-x="620" d="M10 426v113q35 0 57.5 2t49.5 9.5t43.5 23.5t31.5 42.5t22 69t7 100.5v277q0 352 381 352v-106q-107 0 -155 -52t-48 -165v-275q0 -113 -59 -201t-154 -124v-19q97 -36 155 -116t58 -191v-293q0 -113 48 -163t155 -50v-106q-381 0 -381 348v276q0 69 -11.5 116.5t-28 73 t-47 39t-56 16.5t-68.5 3z" />
<glyph unicode="|" horiz-adv-x="514" d="M205 -451v2048h104v-2048h-104z" />
<glyph unicode="}" horiz-adv-x="620" d="M18 -340q107 0 155 50t48 163v293q0 111 58 191t155 116v19q-95 36 -154 124t-59 201v275q0 113 -48 165t-155 52v106q381 0 381 -352v-277q0 -58 7 -100.5t22 -69t31.5 -42.5t43.5 -23.5t49.5 -9.5t57.5 -2v-113q-43 0 -68.5 -3t-56 -16.5t-47 -39t-28 -73t-11.5 -116.5 v-276q0 -348 -381 -348v106z" />
<glyph unicode="~" horiz-adv-x="962" d="M57 440q4 68 35.5 132.5t89 108.5t125.5 44q44 0 88 -19t79.5 -46.5t69.5 -55t69 -46.5t65 -19q51 0 82 48t33 113h108q-2 -70 -27.5 -133.5t-77.5 -107t-120 -43.5q-54 0 -111.5 30.5t-98.5 66.5t-87.5 66.5t-81.5 30.5q-52 0 -83.5 -55t-39.5 -115h-117z" />
<glyph unicode="&#xa1;" horiz-adv-x="514" d="M164 -410l61 928h84l62 -928h-207zM176 725v182h182v-182h-182z" />
<glyph unicode="&#xa2;" d="M166 442q0 215 94.5 342.5t274.5 153.5v211h108v-205q50 -1 111.5 -11t85.5 -18v-131q-28 14 -101.5 28.5t-117.5 14.5q-134 0 -210.5 -93.5t-76.5 -291.5q0 -180 78.5 -267t220.5 -87q47 0 123.5 16.5t103.5 28.5v-127q-26 -9 -92 -19.5t-125 -13.5v-206h-108v208 q-183 19 -276 138.5t-93 328.5z" />
<glyph unicode="&#xa3;" d="M137 0v125h164v512h-164v117h164v153q0 218 83 314t288 96q84 0 186 -29v-125q-92 37 -196 37q-45 0 -78 -9t-53.5 -29.5t-33 -42t-18 -58.5t-7 -65.5t-1.5 -75.5v-166h340v-117h-340v-512h475v-125h-809z" />
<glyph unicode="&#xa4;" d="M117 393l104 107q-67 94 -67 209q0 124 71 217l-108 110l73 74l111 -109q100 72 209 72q113 0 213 -72l111 109l71 -74l-108 -112q71 -93 71 -215q0 -113 -67 -207l104 -109l-71 -71l-109 104q-85 -76 -215 -76q-126 0 -215 74l-105 -102zM258 709q0 -103 72 -181.5 t178 -78.5q109 0 182.5 77t73.5 183q0 111 -71.5 187.5t-182.5 76.5q-112 0 -182 -76.5t-70 -187.5z" />
<glyph unicode="&#xa5;" d="M37 1296h186l289 -532l289 532h186l-369 -653h256v-117h-276v-135h276v-115h-276v-276h-170v276h-278v115h278v135h-278v117h258z" />
<glyph unicode="&#xa6;" horiz-adv-x="563" d="M246 422h153v-852h-153v852zM246 618v756h153v-756h-153z" />
<glyph unicode="&#xa7;" d="M86 594q0 151 209 235q-59 43 -95 104.5t-36 123.5q0 50 18.5 94.5t57 82.5t107 60.5t159.5 22.5q88 0 186 -27t158 -61v-154q-70 51 -169.5 88t-172.5 37q-45 0 -85 -11t-70.5 -39.5t-30.5 -70.5q0 -83 124 -168l279 -186q36 -25 50.5 -35t44 -33t42.5 -39.5t30 -41.5 t23.5 -51.5t6.5 -57.5q0 -146 -183 -234q142 -114 142 -227q0 -75 -35.5 -134t-93.5 -92.5t-124 -51t-134 -17.5q-188 0 -351 101v161q81 -55 180 -100t183 -45q88 0 148.5 35.5t60.5 105.5q0 52 -45.5 101t-132.5 108l-258 174q-40 27 -57.5 39.5t-49.5 39t-46.5 47.5 t-27 52t-12.5 64zM246 631q0 -26 10.5 -48t37.5 -45.5t42.5 -34.5t56.5 -38l275 -182q88 58 88 149q0 46 -35 87t-96 83l-258 178q-121 -59 -121 -149z" />
<glyph unicode="&#xa8;" horiz-adv-x="608" d="M41 1169v183h182v-183h-182zM385 1169v183h182v-183h-182z" />
<glyph unicode="&#xa9;" horiz-adv-x="1447" d="M51 649q0 136 51.5 261t140 218t214.5 148t268 55t268 -55t214 -148t139 -218t51 -261q0 -183 -86.5 -338t-241.5 -247.5t-344 -92.5q-142 0 -268 54.5t-214.5 146t-140 216t-51.5 261.5zM180 651q0 -119 42 -225.5t114 -184t173.5 -122.5t215.5 -45q113 0 214.5 45 t173.5 122t114.5 184t42.5 226q0 157 -71.5 290t-197 210.5t-276.5 77.5q-114 0 -215.5 -45.5t-173.5 -123.5t-114 -184.5t-42 -224.5zM410 664q0 174 95 273t283 99q77 0 170 -28v-95q-142 29 -184 29q-227 0 -227 -278q0 -138 58.5 -221t170.5 -83q74 0 187 37v-98 q-131 -31 -201 -31q-170 0 -261 106.5t-91 289.5z" />
<glyph unicode="&#xaa;" horiz-adv-x="741" d="M66 383v115h565v-115h-565zM66 809q0 215 266 215h155v76q0 76 -31.5 105.5t-111.5 29.5q-77 0 -213 -41v106q109 33 231 33q142 0 205.5 -51t63.5 -170v-506h-139v56q-37 -24 -94.5 -47t-110.5 -23q-45 0 -81 9t-69.5 31t-52 67t-18.5 110zM211 811q0 -60 35 -90.5 t96 -30.5q71 0 145 33v213h-147q-129 0 -129 -125z" />
<glyph unicode="&#xab;" horiz-adv-x="942" d="M117 475l225 350h135l-205 -350l205 -350h-135zM485 475l226 350h135l-205 -350l205 -350h-135z" />
<glyph unicode="&#xac;" d="M145 483v115h684v-463h-122v348h-562z" />
<glyph unicode="&#xad;" horiz-adv-x="0" />
<glyph unicode="&#xae;" horiz-adv-x="1447" d="M51 649q0 136 51.5 261t140 218t214.5 148t268 55t268 -55t214 -148t139 -218t51 -261q0 -183 -86.5 -338t-241.5 -247.5t-344 -92.5q-142 0 -268 54.5t-214.5 146t-140 216t-51.5 261.5zM180 651q0 -119 42 -225.5t114 -184t173.5 -122.5t215.5 -45q113 0 214.5 45 t173.5 122t114.5 184t42.5 226q0 157 -71.5 290t-197 210.5t-276.5 77.5q-114 0 -215.5 -45.5t-173.5 -123.5t-114 -184.5t-42 -224.5zM479 283v747h316q105 0 161 -54.5t56 -154.5q0 -88 -53 -138t-138 -67l244 -333h-152l-219 313h-90v-313h-125zM604 682h129 q27 0 47.5 4.5t43.5 17.5t35.5 43t12.5 76q0 69 -29.5 95t-101.5 26h-137v-262z" />
<glyph unicode="&#xaf;" horiz-adv-x="503" d="M41 1196v121h422v-121h-422z" />
<glyph unicode="&#xb0;" horiz-adv-x="735" d="M59 1010q0 127 91 217t219 90t218.5 -90t90.5 -217t-90.5 -217.5t-218.5 -90.5t-219 90.5t-91 217.5zM188 1010q0 -74 54 -130.5t127 -56.5t125.5 56.5t52.5 130.5t-52.5 130t-125.5 56t-127 -56t-54 -130z" />
<glyph unicode="&#xb1;" d="M150 0v115h724v-115h-724zM150 565v115h301v309h122v-309h301v-115h-301v-305h-122v305h-301z" />
<glyph unicode="&#xb2;" horiz-adv-x="819" d="M113 590v80l270 237q111 96 111 189q0 55 -43.5 85.5t-104.5 30.5q-39 0 -109.5 -16t-97.5 -27v113q32 12 95 23.5t122 11.5q135 0 210 -52t75 -161q0 -124 -160 -262l-174 -148h357v-104h-551z" />
<glyph unicode="&#xb3;" horiz-adv-x="819" d="M123 565v107q86 0 151 5.5t127 20.5t95.5 46t33.5 77q0 28 -10 48t-25.5 31t-41 17t-49.5 7.5t-58 1.5h-84v98h80q93 0 130.5 26t37.5 80q0 44 -39 66.5t-106 22.5q-92 0 -236 -35v100q32 10 109.5 21.5t140.5 11.5q130 0 201 -45.5t71 -138.5q0 -45 -25.5 -82.5 t-70.5 -61.5q117 -38 117 -166q0 -77 -42 -129.5t-122 -79.5t-171.5 -38t-213.5 -11z" />
<glyph unicode="&#xb4;" horiz-adv-x="413" d="M41 1106l149 268h183l-195 -268h-137z" />
<glyph unicode="&#xb5;" horiz-adv-x="1003" d="M143 -430v1337h166v-631q0 -92 27 -128.5t113 -36.5q62 0 134 13.5t113 29.5v753h166v-907h-166v76q-218 -96 -303 -96q-51 0 -84 8v-418h-166z" />
<glyph unicode="&#xb6;" horiz-adv-x="878" d="M61 1012q0 82 30.5 149.5t100.5 111.5t170 44h476v-33l-88 -51q-24 -14 -33.5 -25t-9.5 -34v-1604h-103v1659h-115v-1659h-102v1139q-109 0 -184.5 43.5t-108.5 110.5t-33 149z" />
<glyph unicode="&#xb7;" horiz-adv-x="264" d="M41 563v182h182v-182h-182z" />
<glyph unicode="&#xb8;" horiz-adv-x="688" d="M205 -342q164 4 164 82q0 79 -146 92l51 168h97l-27 -96q62 -16 98.5 -53.5t36.5 -96.5q0 -89 -77 -130.5t-197 -41.5v76z" />
<glyph unicode="&#xb9;" horiz-adv-x="819" d="M164 590v88h176v528h-176v92h321v-620h177v-88h-498z" />
<glyph unicode="&#xba;" horiz-adv-x="792" d="M66 383v115h661v-115h-661zM66 973q0 360 331 360q330 0 330 -360q0 -205 -81.5 -293t-248.5 -88q-168 0 -249.5 88t-81.5 293zM211 973q0 -90 13.5 -148.5t40.5 -86.5t57 -38t75 -10q35 0 60 5.5t50.5 23t41 47.5t25.5 82.5t10 124.5q0 147 -47 205.5t-140 58.5 q-95 0 -140.5 -58t-45.5 -206z" />
<glyph unicode="&#xbb;" horiz-adv-x="942" d="M96 125l205 350l-205 350h135l226 -350l-226 -350h-135zM465 125l205 350l-205 350h135l225 -350l-225 -350h-135z" />
<glyph unicode="&#xbc;" horiz-adv-x="1720" d="M164 590v88h176v528h-176v92h321v-620h177v-88h-498zM362 -63l918 1415h141l-913 -1415h-146zM1022 168v76l252 465h137l-242 -441h254v152l54 123h77v-543h-131v168h-401z" />
<glyph unicode="&#xbd;" horiz-adv-x="1720" d="M164 590v88h176v528h-176v92h321v-620h177v-88h-498zM332 -63l917 1415h142l-914 -1415h-145zM1014 0v80l270 237q111 96 111 189q0 55 -43.5 86t-104.5 31q-39 0 -109.5 -16t-97.5 -27v112q32 12 95 23.5t122 11.5q135 0 210 -52t75 -161q0 -124 -160 -262l-174 -148 h357v-104h-551z" />
<glyph unicode="&#xbe;" horiz-adv-x="1720" d="M123 565v107q86 0 151 5.5t127 20.5t95.5 46t33.5 77q0 28 -10 48t-25.5 31t-41 17t-49.5 7.5t-58 1.5h-84v98h80q93 0 130.5 26t37.5 80q0 44 -39 66.5t-106 22.5q-92 0 -236 -35v100q32 10 109.5 21.5t140.5 11.5q130 0 201 -45.5t71 -138.5q0 -45 -25.5 -82.5 t-70.5 -61.5q117 -38 117 -166q0 -77 -42 -129.5t-122 -79.5t-171.5 -38t-213.5 -11zM369 -63l917 1415h141l-913 -1415h-145zM1022 168v76l252 465h137l-242 -441h254v152l54 123h77v-543h-131v168h-401z" />
<glyph unicode="&#xbf;" horiz-adv-x="782" d="M82 -119q0 83 26 153t63 120t74 99.5t63 117t26 147.5h147q0 -92 -24 -170.5t-57.5 -132.5t-67.5 -102.5t-58 -105t-24 -116.5q0 -91 55 -139.5t152 -48.5q99 0 243 41v-137q-130 -37 -249 -37q-168 0 -268.5 75.5t-100.5 235.5zM319 725v182h183v-182h-183z" />
<glyph unicode="&#xc0;" horiz-adv-x="1128" d="M14 0l443 1317h209l448 -1317h-176l-141 434h-473l-134 -434h-176zM360 557h396l-195 600h-16zM397 1784h185l147 -268h-137z" />
<glyph unicode="&#xc1;" horiz-adv-x="1128" d="M14 0l443 1317h209l448 -1317h-176l-141 434h-473l-134 -434h-176zM360 557h396l-195 600h-16zM397 1516l150 268h182l-194 -268h-138z" />
<glyph unicode="&#xc2;" horiz-adv-x="1128" d="M14 0l443 1317h209l448 -1317h-176l-141 434h-473l-134 -434h-176zM305 1516l150 268h219l149 -268h-121l-139 192l-139 -192h-119zM360 557h396l-195 600h-16z" />
<glyph unicode="&#xc3;" horiz-adv-x="1128" d="M14 0l443 1317h209l448 -1317h-176l-141 434h-473l-134 -434h-176zM254 1569q5 77 59 132.5t136 55.5q49 0 140.5 -38t102.5 -38q35 0 54.5 23t19.5 53h106q-3 -81 -51 -134.5t-133 -53.5q-45 0 -138 41t-112 41q-28 0 -49.5 -27.5t-23.5 -54.5h-111zM360 557h396 l-195 600h-16z" />
<glyph unicode="&#xc4;" horiz-adv-x="1128" d="M14 0l443 1317h209l448 -1317h-176l-141 434h-473l-134 -434h-176zM301 1579v182h182v-182h-182zM360 557h396l-195 600h-16zM645 1579v182h182v-182h-182z" />
<glyph unicode="&#xc5;" horiz-adv-x="1128" d="M14 0l416 1237q-63 57 -63 141q0 80 56.5 136.5t135.5 56.5t136 -56.5t57 -136.5q0 -75 -62 -137l424 -1241h-176l-141 434h-473l-134 -434h-176zM360 557h396l-195 600h-16zM473 1378q0 -34 25.5 -61t60.5 -27t60.5 27t25.5 61q0 36 -25.5 63t-60.5 27t-60.5 -27 t-25.5 -63z" />
<glyph unicode="&#xc6;" horiz-adv-x="1648" d="M-20 0l665 1317h942v-125h-573v-434h459v-123h-459v-510h594v-125h-768v438h-457l-211 -438h-192zM442 561h398v631h-95z" />
<glyph unicode="&#xc7;" horiz-adv-x="1101" d="M92 678q0 156 39.5 279t119 212.5t206.5 137t295 47.5q136 0 280 -33v-141q-53 20 -140 34.5t-151 14.5q-236 0 -355.5 -140.5t-119.5 -410.5q0 -269 116 -429.5t339 -160.5q177 0 321 74v-152q-167 -47 -329 -47q-312 0 -466.5 185t-154.5 530zM594 -342q164 4 164 82 q0 79 -146 92l52 168h96l-27 -96q62 -16 98.5 -53.5t36.5 -96.5q0 -89 -77 -130.5t-197 -41.5v76z" />
<glyph unicode="&#xc8;" horiz-adv-x="993" d="M164 0v1317h772v-125h-598v-434h477v-123h-477v-510h614v-125h-788zM330 1784h184l148 -268h-138z" />
<glyph unicode="&#xc9;" horiz-adv-x="993" d="M164 0v1317h772v-125h-598v-434h477v-123h-477v-510h614v-125h-788zM330 1516l149 268h183l-195 -268h-137z" />
<glyph unicode="&#xca;" horiz-adv-x="993" d="M164 0v1317h772v-125h-598v-434h477v-123h-477v-510h614v-125h-788zM238 1516l149 268h219l150 -268h-121l-139 192l-140 -192h-118z" />
<glyph unicode="&#xcb;" horiz-adv-x="993" d="M164 0v1317h772v-125h-598v-434h477v-123h-477v-510h614v-125h-788zM233 1579v182h183v-182h-183zM578 1579v182h182v-182h-182z" />
<glyph unicode="&#xcc;" horiz-adv-x="526" d="M96 1784h185l147 -268h-137zM176 0v1317h174v-1317h-174z" />
<glyph unicode="&#xcd;" horiz-adv-x="526" d="M96 1516l150 268h182l-195 -268h-137zM176 0v1317h174v-1317h-174z" />
<glyph unicode="&#xce;" horiz-adv-x="526" d="M4 1516l150 268h219l149 -268h-121l-139 192l-139 -192h-119zM176 0v1317h174v-1317h-174z" />
<glyph unicode="&#xcf;" horiz-adv-x="526" d="M0 1579v182h182v-182h-182zM176 0v1317h174v-1317h-174zM344 1579v182h182v-182h-182z" />
<glyph unicode="&#xd0;" horiz-adv-x="1312" d="M82 635v121h82v561h461q129 0 231 -35t169.5 -94t111.5 -142.5t63 -176.5t19 -199q0 -105 -19 -200.5t-62.5 -182t-108 -149.5t-162 -100.5t-218.5 -37.5h-485v635h-82zM338 125h278q102 0 179 30t124 79t75.5 121.5t39 147.5t10.5 167q0 123 -24.5 216.5t-77.5 163.5 t-143 106t-215 36h-246v-436h207v-121h-207v-510z" />
<glyph unicode="&#xd1;" horiz-adv-x="1335" d="M164 0v1317h242l606 -1094v1094h159v-1317h-208l-639 1149v-1149h-160zM358 1569q5 77 59 132.5t136 55.5q49 0 141 -38t103 -38q35 0 54 23t19 53h107q-3 -81 -51 -134.5t-133 -53.5q-45 0 -138 41t-112 41q-28 0 -50 -28t-24 -54h-111z" />
<glyph unicode="&#xd2;" horiz-adv-x="1347" d="M92 657q0 190 37 324.5t112.5 216.5t181 119t251.5 37q145 0 251 -37t181 -119t112 -216.5t37 -324.5t-37 -324t-112 -215.5t-180.5 -118t-251.5 -36.5t-251.5 37t-181 118t-112.5 215t-37 324zM266 657q0 -302 96 -435.5t312 -133.5q215 0 311 133.5t96 435.5t-96 437 t-311 135t-311.5 -135t-96.5 -437zM508 1784h184l148 -268h-138z" />
<glyph unicode="&#xd3;" horiz-adv-x="1347" d="M92 657q0 190 37 324.5t112.5 216.5t181 119t251.5 37q145 0 251 -37t181 -119t112 -216.5t37 -324.5t-37 -324t-112 -215.5t-180.5 -118t-251.5 -36.5t-251.5 37t-181 118t-112.5 215t-37 324zM266 657q0 -302 96 -435.5t312 -133.5q215 0 311 133.5t96 435.5t-96 437 t-311 135t-311.5 -135t-96.5 -437zM508 1516l149 268h183l-195 -268h-137z" />
<glyph unicode="&#xd4;" horiz-adv-x="1347" d="M92 657q0 190 37 324.5t112.5 216.5t181 119t251.5 37q145 0 251 -37t181 -119t112 -216.5t37 -324.5t-37 -324t-112 -215.5t-180.5 -118t-251.5 -36.5t-251.5 37t-181 118t-112.5 215t-37 324zM266 657q0 -302 96 -435.5t312 -133.5q215 0 311 133.5t96 435.5t-96 437 t-311 135t-311.5 -135t-96.5 -437zM414 1516l149 268h219l150 -268h-121l-139 192l-140 -192h-118z" />
<glyph unicode="&#xd5;" horiz-adv-x="1347" d="M92 657q0 190 37 324.5t112.5 216.5t181 119t251.5 37q145 0 251 -37t181 -119t112 -216.5t37 -324.5t-37 -324t-112 -215.5t-180.5 -118t-251.5 -36.5t-251.5 37t-181 118t-112.5 215t-37 324zM266 657q0 -302 96 -435.5t312 -133.5q215 0 311 133.5t96 435.5t-96 437 t-311 135t-311.5 -135t-96.5 -437zM365 1569q5 77 58.5 132.5t135.5 55.5q49 0 141 -38t103 -38q35 0 54.5 23t19.5 53h106q-3 -81 -51 -134.5t-133 -53.5q-45 0 -138 41t-112 41q-28 0 -50 -28t-24 -54h-110z" />
<glyph unicode="&#xd6;" horiz-adv-x="1347" d="M92 657q0 190 37 324.5t112.5 216.5t181 119t251.5 37q145 0 251 -37t181 -119t112 -216.5t37 -324.5t-37 -324t-112 -215.5t-180.5 -118t-251.5 -36.5t-251.5 37t-181 118t-112.5 215t-37 324zM266 657q0 -302 96 -435.5t312 -133.5q215 0 311 133.5t96 435.5t-96 437 t-311 135t-311.5 -135t-96.5 -437zM410 1579v182h182v-182h-182zM754 1579v182h182v-182h-182z" />
<glyph unicode="&#xd7;" d="M211 840l86 86l219 -219l213 213l82 -80l-213 -213l215 -217l-86 -86l-217 215l-213 -213l-80 82l213 213z" />
<glyph unicode="&#xd8;" horiz-adv-x="1347" d="M92 657q0 190 37 324.5t112.5 216.5t181 119t251.5 37q145 0 251 -37t181 -119t112 -216.5t37 -324.5t-37 -324t-112 -215.5t-180.5 -118t-251.5 -36.5t-251.5 37t-181 118t-112.5 215t-37 324zM266 657q0 -238 56 -364l636 831q-96 105 -284 105q-215 0 -311.5 -135 t-96.5 -437zM399 176q95 -88 275 -88q215 0 311 133.5t96 435.5q0 213 -49 344z" />
<glyph unicode="&#xd9;" horiz-adv-x="1298" d="M164 393v924h174v-903q0 -185 71.5 -255.5t239.5 -70.5q85 0 141 14.5t96.5 51t58.5 100t18 160.5v903h172v-924q0 -98 -24 -173.5t-66 -123.5t-104.5 -78t-133 -42.5t-158.5 -12.5q-110 0 -194 20.5t-152 68t-103.5 133.5t-35.5 208zM483 1784h185l147 -268h-137z" />
<glyph unicode="&#xda;" horiz-adv-x="1298" d="M164 393v924h174v-903q0 -185 71.5 -255.5t239.5 -70.5q85 0 141 14.5t96.5 51t58.5 100t18 160.5v903h172v-924q0 -98 -24 -173.5t-66 -123.5t-104.5 -78t-133 -42.5t-158.5 -12.5q-110 0 -194 20.5t-152 68t-103.5 133.5t-35.5 208zM483 1516l150 268h182l-194 -268 h-138z" />
<glyph unicode="&#xdb;" horiz-adv-x="1298" d="M164 393v924h174v-903q0 -185 71.5 -255.5t239.5 -70.5q85 0 141 14.5t96.5 51t58.5 100t18 160.5v903h172v-924q0 -98 -24 -173.5t-66 -123.5t-104.5 -78t-133 -42.5t-158.5 -12.5q-110 0 -194 20.5t-152 68t-103.5 133.5t-35.5 208zM389 1516l150 268h219l149 -268 h-121l-139 192l-139 -192h-119z" />
<glyph unicode="&#xdc;" horiz-adv-x="1298" d="M164 393v924h174v-903q0 -185 71.5 -255.5t239.5 -70.5q85 0 141 14.5t96.5 51t58.5 100t18 160.5v903h172v-924q0 -98 -24 -173.5t-66 -123.5t-104.5 -78t-133 -42.5t-158.5 -12.5q-110 0 -194 20.5t-152 68t-103.5 133.5t-35.5 208zM385 1579v182h182v-182h-182z M729 1579v182h182v-182h-182z" />
<glyph unicode="&#xdd;" horiz-adv-x="1040" d="M4 1317h191l327 -598l332 598h182l-428 -750v-567h-174v565zM354 1516l150 268h182l-194 -268h-138z" />
<glyph unicode="&#xde;" horiz-adv-x="1036" d="M164 0v1317h170v-266h241q199 0 295.5 -92t96.5 -263q0 -98 -36.5 -174t-98.5 -122t-140 -69.5t-166 -23.5h-192v-307h-170zM334 434h203q119 0 188.5 61.5t69.5 190.5q0 240 -246 240h-215v-492z" />
<glyph unicode="&#xdf;" horiz-adv-x="993" d="M139 0v938q0 238 88.5 349.5t282.5 111.5q161 0 244.5 -95.5t83.5 -256.5q0 -26 -2.5 -51t-5 -41.5t-9 -41t-9 -33.5t-11.5 -35t-10 -30q-21 12 -72 12t-95 -28.5t-44 -77.5q0 -24 12.5 -47.5t41.5 -48.5t50.5 -41t65.5 -45q37 -25 58 -40.5t53.5 -45.5t50 -56t31 -64.5 t13.5 -80.5q0 -84 -49.5 -150t-121.5 -98.5t-148 -32.5q-122 0 -236 31v143q42 -19 68.5 -29t70 -19t87.5 -9q68 0 116 39t48 111q0 26 -9.5 49.5t-21 39.5t-38 37.5t-42.5 32.5t-53 35q-44 29 -71.5 50.5t-62 56.5t-52 77t-17.5 91q0 90 67.5 155t184.5 78q14 54 14 104 q0 103 -49 170.5t-139 67.5q-102 0 -149.5 -77.5t-47.5 -237.5v-967h-166z" />
<glyph unicode="&#xe0;" horiz-adv-x="923" d="M72 258q0 135 84 207t252 72h215v102q0 102 -45 144t-154 42q-88 0 -268 -53v127q165 45 293 45q180 0 259.5 -67.5t79.5 -223.5v-653h-159v82q-24 -19 -54 -38.5t-97.5 -46t-127.5 -26.5q-278 0 -278 287zM240 262q0 -82 50.5 -128t131.5 -46q52 0 109.5 18t91.5 37v281 h-205q-178 0 -178 -162zM295 1374h184l148 -268h-138z" />
<glyph unicode="&#xe1;" horiz-adv-x="923" d="M72 258q0 135 84 207t252 72h215v102q0 102 -45 144t-154 42q-88 0 -268 -53v127q165 45 293 45q180 0 259.5 -67.5t79.5 -223.5v-653h-159v82q-24 -19 -54 -38.5t-97.5 -46t-127.5 -26.5q-278 0 -278 287zM240 262q0 -82 50.5 -128t131.5 -46q52 0 109.5 18t91.5 37v281 h-205q-178 0 -178 -162zM295 1106l149 268h183l-195 -268h-137z" />
<glyph unicode="&#xe2;" horiz-adv-x="923" d="M72 258q0 135 84 207t252 72h215v102q0 102 -45 144t-154 42q-88 0 -268 -53v127q165 45 293 45q180 0 259.5 -67.5t79.5 -223.5v-653h-159v82q-24 -19 -54 -38.5t-97.5 -46t-127.5 -26.5q-278 0 -278 287zM203 1106l149 268h219l150 -268h-121l-139 192l-139 -192h-119z M240 262q0 -82 50.5 -128t131.5 -46q52 0 109.5 18t91.5 37v281h-205q-178 0 -178 -162z" />
<glyph unicode="&#xe3;" horiz-adv-x="923" d="M72 258q0 135 84 207t252 72h215v102q0 102 -45 144t-154 42q-88 0 -268 -53v127q165 45 293 45q180 0 259.5 -67.5t79.5 -223.5v-653h-159v82q-24 -19 -54 -38.5t-97.5 -46t-127.5 -26.5q-278 0 -278 287zM152 1159q5 77 58.5 133t135.5 56q49 0 141 -38t103 -38 q35 0 54.5 23t19.5 53h106q-3 -81 -51 -135t-133 -54q-45 0 -138 41t-112 41q-28 0 -50 -28t-24 -54h-110zM240 262q0 -82 50.5 -128t131.5 -46q52 0 109.5 18t91.5 37v281h-205q-178 0 -178 -162z" />
<glyph unicode="&#xe4;" horiz-adv-x="923" d="M72 258q0 135 84 207t252 72h215v102q0 102 -45 144t-154 42q-88 0 -268 -53v127q165 45 293 45q180 0 259.5 -67.5t79.5 -223.5v-653h-159v82q-24 -19 -54 -38.5t-97.5 -46t-127.5 -26.5q-278 0 -278 287zM199 1169v183h182v-183h-182zM240 262q0 -82 50.5 -128 t131.5 -46q52 0 109.5 18t91.5 37v281h-205q-178 0 -178 -162zM543 1169v183h182v-183h-182z" />
<glyph unicode="&#xe5;" horiz-adv-x="923" d="M72 258q0 135 84 207t252 72h215v102q0 102 -45 144t-154 42q-88 0 -268 -53v127q165 45 293 45q180 0 259.5 -67.5t79.5 -223.5v-653h-159v82q-24 -19 -54 -38.5t-97.5 -46t-127.5 -26.5q-278 0 -278 287zM240 262q0 -82 50.5 -128t131.5 -46q52 0 109.5 18t91.5 37v281 h-205q-178 0 -178 -162zM270 1249q0 76 56.5 130.5t132.5 54.5q78 0 136 -48t58 -122q0 -84 -55.5 -142.5t-136.5 -58.5q-77 0 -134 55t-57 131zM352 1249q0 -47 33 -80.5t80 -33.5q44 0 75 33.5t31 78.5q0 48 -31.5 82.5t-80.5 34.5q-45 0 -76 -35t-31 -80z" />
<glyph unicode="&#xe6;" horiz-adv-x="1458" d="M72 258q0 136 84 208.5t252 72.5h217v100q0 102 -46 144t-155 42q-88 0 -268 -53v127q165 45 293 45q114 0 182 -26t100 -84q96 110 270 110q185 0 280 -98.5t95 -294.5v-129h-604q0 -83 17 -144.5t44.5 -97.5t69 -57t82.5 -28t94 -7q59 0 138.5 18t119.5 35v-125 q-138 -45 -293 -45q-227 0 -327 127q-82 -61 -163 -94t-183 -33q-44 0 -84 7t-80.5 27t-69 51t-47 83t-18.5 119zM240 262q0 -82 50.5 -128t131.5 -46q110 0 246 96q-39 96 -45 238h-205q-178 0 -178 -160zM774 539h440q0 87 -15.5 145t-46 88.5t-66.5 42.5t-87 12 q-111 0 -168 -73t-57 -215z" />
<glyph unicode="&#xe7;" horiz-adv-x="794" d="M90 442q0 242 118.5 372t342.5 130q115 0 182 -26v-132q-30 14 -88 27.5t-100 13.5q-134 0 -210.5 -93.5t-76.5 -291.5q0 -180 78.5 -267t220.5 -87q46 0 107 15t90 28v-127q-33 -12 -100.5 -22.5t-127.5 -10.5q-216 0 -326 121.5t-110 349.5zM389 -342q164 4 164 82 q0 79 -145 92l51 168h96l-27 -96q62 -16 99 -53.5t37 -96.5q0 -89 -77.5 -130.5t-197.5 -41.5v76z" />
<glyph unicode="&#xe8;" horiz-adv-x="944" d="M90 473q0 215 102.5 343t294.5 128q185 0 280 -98.5t95 -294.5v-121h-604q0 -82 17 -144t44.5 -99t68.5 -60t83 -31t94 -8q59 0 138.5 18t119.5 35v-125q-138 -45 -293 -45q-229 0 -334.5 122.5t-105.5 379.5zM260 543h440q0 85 -15.5 142.5t-46 87.5t-67 42t-86.5 12 q-109 0 -167 -75.5t-58 -208.5zM305 1374h184l148 -268h-137z" />
<glyph unicode="&#xe9;" horiz-adv-x="944" d="M90 473q0 215 102.5 343t294.5 128q185 0 280 -98.5t95 -294.5v-121h-604q0 -82 17 -144t44.5 -99t68.5 -60t83 -31t94 -8q59 0 138.5 18t119.5 35v-125q-138 -45 -293 -45q-229 0 -334.5 122.5t-105.5 379.5zM260 543h440q0 85 -15.5 142.5t-46 87.5t-67 42t-86.5 12 q-109 0 -167 -75.5t-58 -208.5zM305 1106l150 268h182l-195 -268h-137z" />
<glyph unicode="&#xea;" horiz-adv-x="944" d="M90 473q0 215 102.5 343t294.5 128q185 0 280 -98.5t95 -294.5v-121h-604q0 -82 17 -144t44.5 -99t68.5 -60t83 -31t94 -8q59 0 138.5 18t119.5 35v-125q-138 -45 -293 -45q-229 0 -334.5 122.5t-105.5 379.5zM213 1106l149 268h220l149 -268h-121l-139 192l-139 -192 h-119zM260 543h440q0 85 -15.5 142.5t-46 87.5t-67 42t-86.5 12q-109 0 -167 -75.5t-58 -208.5z" />
<glyph unicode="&#xeb;" horiz-adv-x="944" d="M90 473q0 215 102.5 343t294.5 128q185 0 280 -98.5t95 -294.5v-121h-604q0 -82 17 -144t44.5 -99t68.5 -60t83 -31t94 -8q59 0 138.5 18t119.5 35v-125q-138 -45 -293 -45q-229 0 -334.5 122.5t-105.5 379.5zM209 1169v183h182v-183h-182zM260 543h440q0 85 -15.5 142.5 t-46 87.5t-67 42t-86.5 12q-109 0 -167 -75.5t-58 -208.5zM553 1169v183h182v-183h-182z" />
<glyph unicode="&#xec;" horiz-adv-x="468" d="M68 1374h184l147 -268h-137zM152 0v907h165v-907h-165z" />
<glyph unicode="&#xed;" horiz-adv-x="468" d="M68 1106l149 268h182l-194 -268h-137zM152 0v907h165v-907h-165z" />
<glyph unicode="&#xee;" horiz-adv-x="468" d="M-25 1106l150 268h219l150 -268h-121l-140 192l-139 -192h-119zM152 0v907h165v-907h-165z" />
<glyph unicode="&#xef;" horiz-adv-x="468" d="M-29 1169v183h183v-183h-183zM152 0v907h165v-907h-165zM315 1169v183h183v-183h-183z" />
<glyph unicode="&#xf0;" d="M90 469q0 253 106.5 361t315.5 108q88 0 172 -23q-29 105 -176 259l-150 -64l-39 98l105 45q-112 97 -207 146h242q69 -53 106 -86l150 63l41 -96l-107 -45q285 -296 285 -729q0 -199 -44.5 -314t-134.5 -163.5t-243 -48.5q-225 0 -323.5 110.5t-98.5 378.5zM258 469 q0 -101 13.5 -172t34 -110t56.5 -60t68 -26t82 -5q51 0 83 5t68 26t56 60t33.5 109.5t13.5 172.5q0 109 -16 180t-51 108t-78 50.5t-109 13.5q-65 0 -108 -13.5t-78 -50.5t-51.5 -108t-16.5 -180z" />
<glyph unicode="&#xf1;" horiz-adv-x="1026" d="M139 0v907h166v-65q64 38 150.5 70t162.5 32q142 0 205.5 -68t63.5 -221v-655h-166v643q0 89 -35.5 130.5t-122.5 41.5q-135 0 -258 -49v-766h-166zM203 1159q5 77 58.5 133t135.5 56q49 0 141 -38t103 -38q35 0 54.5 23t19.5 53h106q-3 -81 -51 -135t-133 -54 q-45 0 -138 41t-112 41q-28 0 -50 -28t-24 -54h-110z" />
<glyph unicode="&#xf2;" d="M90 469q0 128 31 221.5t88.5 148t132.5 80t170 25.5t170 -25.5t132.5 -80t88.5 -148t31 -221.5q0 -264 -105 -381t-317 -117t-317 117t-105 381zM258 469q0 -96 13 -165.5t34.5 -110.5t55.5 -65t69 -32t82 -8t82 8t69 32t55.5 65t34.5 110.5t13 165.5q0 102 -17 172 t-50.5 110.5t-78.5 58t-108 17.5t-108 -17.5t-78.5 -58t-50.5 -110.5t-17 -172zM346 1374h184l148 -268h-137z" />
<glyph unicode="&#xf3;" d="M90 469q0 128 31 221.5t88.5 148t132.5 80t170 25.5t170 -25.5t132.5 -80t88.5 -148t31 -221.5q0 -264 -105 -381t-317 -117t-317 117t-105 381zM258 469q0 -96 13 -165.5t34.5 -110.5t55.5 -65t69 -32t82 -8t82 8t69 32t55.5 65t34.5 110.5t13 165.5q0 102 -17 172 t-50.5 110.5t-78.5 58t-108 17.5t-108 -17.5t-78.5 -58t-50.5 -110.5t-17 -172zM346 1106l150 268h182l-195 -268h-137z" />
<glyph unicode="&#xf4;" d="M90 469q0 128 31 221.5t88.5 148t132.5 80t170 25.5t170 -25.5t132.5 -80t88.5 -148t31 -221.5q0 -264 -105 -381t-317 -117t-317 117t-105 381zM252 1106l149 268h220l149 -268h-121l-139 192l-139 -192h-119zM258 469q0 -96 13 -165.5t34.5 -110.5t55.5 -65t69 -32 t82 -8t82 8t69 32t55.5 65t34.5 110.5t13 165.5q0 102 -17 172t-50.5 110.5t-78.5 58t-108 17.5t-108 -17.5t-78.5 -58t-50.5 -110.5t-17 -172z" />
<glyph unicode="&#xf5;" d="M90 469q0 128 31 221.5t88.5 148t132.5 80t170 25.5t170 -25.5t132.5 -80t88.5 -148t31 -221.5q0 -264 -105 -381t-317 -117t-317 117t-105 381zM203 1159q5 77 58.5 133t135.5 56q49 0 141 -38t103 -38q35 0 54.5 23t19.5 53h106q-3 -81 -51 -135t-133 -54 q-45 0 -138 41t-112 41q-28 0 -50 -28t-24 -54h-110zM258 469q0 -96 13 -165.5t34.5 -110.5t55.5 -65t69 -32t82 -8t82 8t69 32t55.5 65t34.5 110.5t13 165.5q0 102 -17 172t-50.5 110.5t-78.5 58t-108 17.5t-108 -17.5t-78.5 -58t-50.5 -110.5t-17 -172z" />
<glyph unicode="&#xf6;" d="M90 469q0 128 31 221.5t88.5 148t132.5 80t170 25.5t170 -25.5t132.5 -80t88.5 -148t31 -221.5q0 -264 -105 -381t-317 -117t-317 117t-105 381zM248 1169v183h182v-183h-182zM258 469q0 -96 13 -165.5t34.5 -110.5t55.5 -65t69 -32t82 -8t82 8t69 32t55.5 65t34.5 110.5 t13 165.5q0 102 -17 172t-50.5 110.5t-78.5 58t-108 17.5t-108 -17.5t-78.5 -58t-50.5 -110.5t-17 -172zM592 1169v183h182v-183h-182z" />
<glyph unicode="&#xf7;" d="M150 565v115h724v-115h-724zM418 164v188h188v-188h-188zM418 881v188h188v-188h-188z" />
<glyph unicode="&#xf8;" d="M90 469q0 128 31 221.5t88.5 148t132.5 80t170 25.5t170 -25.5t132.5 -80t88.5 -148t31 -221.5q0 -264 -105 -381t-317 -117t-317 117t-105 381zM258 469q0 -143 27 -225l389 532q-57 51 -162 51q-63 0 -108 -17.5t-78.5 -58t-50.5 -110.5t-17 -172zM346 139 q56 -51 166 -51q47 0 82 8t69 32t55.5 65t34.5 110.5t13 165.5q0 116 -27 205z" />
<glyph unicode="&#xf9;" horiz-adv-x="1011" d="M139 262v645h166v-631q0 -91 33.5 -132.5t120.5 -41.5q126 0 248 52v753h165v-907h-165v76q-179 -105 -304 -105q-141 0 -202.5 68.5t-61.5 222.5zM340 1374h184l148 -268h-137z" />
<glyph unicode="&#xfa;" horiz-adv-x="1011" d="M139 262v645h166v-631q0 -91 33.5 -132.5t120.5 -41.5q126 0 248 52v753h165v-907h-165v76q-179 -105 -304 -105q-141 0 -202.5 68.5t-61.5 222.5zM340 1106l149 268h183l-195 -268h-137z" />
<glyph unicode="&#xfb;" horiz-adv-x="1011" d="M139 262v645h166v-631q0 -91 33.5 -132.5t120.5 -41.5q126 0 248 52v753h165v-907h-165v76q-179 -105 -304 -105q-141 0 -202.5 68.5t-61.5 222.5zM246 1106l149 268h219l150 -268h-121l-139 192l-139 -192h-119z" />
<glyph unicode="&#xfc;" horiz-adv-x="1011" d="M139 262v645h166v-631q0 -91 33.5 -132.5t120.5 -41.5q126 0 248 52v753h165v-907h-165v76q-179 -105 -304 -105q-141 0 -202.5 68.5t-61.5 222.5zM242 1169v183h182v-183h-182zM586 1169v183h182v-183h-182z" />
<glyph unicode="&#xfd;" horiz-adv-x="858" d="M18 907h177l239 -719l262 719h162l-342 -864l-174 -494h-164l178 467zM262 1106l150 268h182l-195 -268h-137z" />
<glyph unicode="&#xfe;" horiz-adv-x="1048" d="M139 -451v1848h166v-531q156 78 258 78q67 0 121.5 -11.5t106.5 -42.5t88 -80.5t57.5 -131t21.5 -189.5q0 -134 -41 -236.5t-112.5 -162.5t-160 -89.5t-191.5 -29.5q-55 0 -148 13v-435h-166zM305 104q72 -16 131 -16t106.5 9t95.5 34.5t80.5 68t52.5 113.5t20 166 q0 86 -14.5 148t-39.5 100.5t-65 61t-84.5 30.5t-104.5 8q-73 0 -178 -34v-689z" />
<glyph unicode="&#xff;" horiz-adv-x="858" d="M18 907h177l239 -719l262 719h162l-342 -864l-174 -494h-164l178 467zM166 1169v183h182v-183h-182zM510 1169v183h182v-183h-182z" />
<glyph unicode="&#x152;" horiz-adv-x="1712" d="M92 670q0 107 19 199t65.5 176t118 143t181.5 94t251 35h924v-125h-594v-434h479v-123h-479v-510h614v-125h-1026q-123 0 -220 37.5t-158.5 100t-101.5 150.5t-56.5 181.5t-16.5 200.5zM266 670q0 -92 10 -167t38 -147.5t72.5 -121.5t118 -79t171.5 -30h207v1067h-152 q-130 0 -221.5 -36t-144 -106.5t-76 -163t-23.5 -216.5z" />
<glyph unicode="&#x153;" horiz-adv-x="1605" d="M90 469q0 128 31 221.5t88.5 148t132.5 80t170 25.5q228 0 330 -162q96 162 307 162q185 0 280 -98.5t95 -294.5v-119h-604q0 -83 17 -145.5t44.5 -100t68.5 -60t83 -30.5t94 -8q59 0 138.5 18t119.5 35v-125q-138 -45 -293 -45q-259 0 -352 164q-99 -164 -328 -164 q-212 0 -317 117t-105 381zM258 469q0 -96 13 -165.5t34.5 -110.5t55.5 -65t69 -32t82 -8t82 8t69 32t55.5 65t34.5 110.5t13 165.5q0 102 -17 172t-50.5 110.5t-78.5 58t-108 17.5t-108 -17.5t-78.5 -58t-50.5 -110.5t-17 -172zM922 539h440q0 87 -15.5 145t-46 88.5 t-66.5 42.5t-87 12q-111 0 -168 -73t-57 -215z" />
<glyph unicode="&#x178;" horiz-adv-x="1040" d="M4 1317h191l327 -598l332 598h182l-428 -750v-567h-174v565zM256 1579v182h182v-182h-182zM600 1579v182h182v-182h-182z" />
<glyph unicode="&#x2c6;" horiz-adv-x="600" d="M41 1106l149 268h220l149 -268h-121l-139 192l-139 -192h-119z" />
<glyph unicode="&#x2dc;" horiz-adv-x="688" d="M35 1159q5 77 58.5 133t135.5 56q49 0 141 -38t103 -38q35 0 54.5 23t19.5 53h106q-3 -81 -51 -135t-133 -54q-45 0 -138 41t-112 41q-28 0 -50 -28t-24 -54h-110z" />
<glyph unicode="&#x2000;" horiz-adv-x="892" />
<glyph unicode="&#x2001;" horiz-adv-x="1784" />
<glyph unicode="&#x2002;" horiz-adv-x="892" />
<glyph unicode="&#x2003;" horiz-adv-x="1784" />
<glyph unicode="&#x2004;" horiz-adv-x="594" />
<glyph unicode="&#x2005;" horiz-adv-x="446" />
<glyph unicode="&#x2006;" horiz-adv-x="297" />
<glyph unicode="&#x2007;" horiz-adv-x="297" />
<glyph unicode="&#x2008;" horiz-adv-x="223" />
<glyph unicode="&#x2009;" horiz-adv-x="356" />
<glyph unicode="&#x200a;" horiz-adv-x="99" />
<glyph unicode="&#x2010;" horiz-adv-x="483" d="M41 408v133h401v-133h-401z" />
<glyph unicode="&#x2011;" horiz-adv-x="483" d="M41 408v133h401v-133h-401z" />
<glyph unicode="&#x2012;" horiz-adv-x="483" d="M41 408v133h401v-133h-401z" />
<glyph unicode="&#x2013;" d="M0 483v115h1024v-115h-1024z" />
<glyph unicode="&#x2014;" horiz-adv-x="2048" d="M0 483v115h2048v-115h-2048z" />
<glyph unicode="&#x2018;" horiz-adv-x="321" d="M68 913v162l84 242h100l-72 -221h70v-183h-182z" />
<glyph unicode="&#x2019;" horiz-adv-x="321" d="M70 913l71 222h-69v182h182v-162l-84 -242h-100z" />
<glyph unicode="&#x201a;" horiz-adv-x="321" d="M70 -242l71 242h-69v182h182v-162l-84 -262h-100z" />
<glyph unicode="&#x201c;" horiz-adv-x="587" d="M68 913v162l84 242h100l-72 -221h70v-183h-182zM334 913v162l84 242h100l-72 -221h70v-183h-182z" />
<glyph unicode="&#x201d;" horiz-adv-x="587" d="M70 913l71 222h-69v182h182v-162l-84 -242h-100zM336 913l72 222h-70v182h182v-162l-84 -242h-100z" />
<glyph unicode="&#x201e;" horiz-adv-x="587" d="M70 -242l71 242h-69v182h182v-162l-84 -262h-100zM336 -242l72 242h-70v182h182v-162l-84 -262h-100z" />
<glyph unicode="&#x2022;" horiz-adv-x="942" d="M119 698q0 146 105 247.5t253 101.5q141 0 243.5 -102t102.5 -247q0 -146 -104.5 -248t-253.5 -102q-140 0 -243 102.5t-103 247.5z" />
<glyph unicode="&#x2026;" horiz-adv-x="1363" d="M133 0v188h189v-188h-189zM588 0v188h188v-188h-188zM1042 0v188h189v-188h-189z" />
<glyph unicode="&#x202f;" horiz-adv-x="356" />
<glyph unicode="&#x2039;" horiz-adv-x="573" d="M117 475l225 350h135l-205 -350l205 -350h-135z" />
<glyph unicode="&#x203a;" horiz-adv-x="573" d="M96 125l205 350l-205 350h135l226 -350l-226 -350h-135z" />
<glyph unicode="&#x205f;" horiz-adv-x="446" />
<glyph unicode="&#x20ac;" d="M96 471v119h105v135h-105v117h111q12 105 49 189.5t100 149.5t161 100.5t224 35.5q113 0 226 -29l-31 -135q-108 33 -201 33q-330 0 -358 -344h497l-22 -117h-481v-135h456l-22 -119h-428q7 -82 28 -144t62 -113t111 -78t167 -27q110 0 228 36v-129q-107 -36 -262 -36 q-124 0 -217.5 39t-151 109.5t-89.5 154.5t-44 188h-113z" />
<glyph unicode="&#x2122;" horiz-adv-x="1220" d="M61 1241v76h451v-76h-172v-489h-107v489h-172zM571 752v565h148l147 -463l150 463h143v-565h-96v430l-141 -430h-107l-147 430v-430h-97z" />
<glyph unicode="&#x25fc;" horiz-adv-x="911" d="M0 0v911h911v-911h-911z" />
<glyph unicode="&#xfb01;" horiz-adv-x="1067" d="M29 791v116h157v140q0 170 98.5 261t272.5 91q113 0 203 -37v-127q-94 41 -207 41q-99 0 -150 -49.5t-51 -155.5v-164h563v-907h-165v791h-398v-791h-166v791h-157z" />
<glyph unicode="&#xfb02;" horiz-adv-x="1067" d="M29 791v116h157v217q0 128 76 201.5t227 73.5q67 0 107 -10v-119q-32 12 -104 12q-70 0 -105 -42t-35 -114v-219h223v-116h-223v-791h-166v791h-157zM750 0v1399h165v-1399h-165z" />
</font>
</defs>
</svg>
